<?xml version="1.0" encoding="UTF-8"?><svg id="Layer_2" xmlns="http://www.w3.org/2000/svg" xmlns:xlink="http://www.w3.org/1999/xlink" viewBox="0 0 351.9 262.53"><defs><style>.cls-1{fill:#8b512f;}.cls-1,.cls-2,.cls-3,.cls-4,.cls-5,.cls-6,.cls-7,.cls-8,.cls-9,.cls-10,.cls-11,.cls-12,.cls-13,.cls-14,.cls-15,.cls-16,.cls-17,.cls-18,.cls-19,.cls-20,.cls-21,.cls-22,.cls-23,.cls-24,.cls-25,.cls-26,.cls-27,.cls-28,.cls-29,.cls-30,.cls-31,.cls-32,.cls-33,.cls-34,.cls-35,.cls-36,.cls-37,.cls-38,.cls-39,.cls-40,.cls-41,.cls-42,.cls-43,.cls-44,.cls-45,.cls-46,.cls-47,.cls-48,.cls-49,.cls-50,.cls-51,.cls-52,.cls-53,.cls-54,.cls-55,.cls-56,.cls-57,.cls-58,.cls-59,.cls-60,.cls-61{stroke-width:0px;}.cls-2{fill:url(#linear-gradient-12);}.cls-62{fill:#4d4d4d;font-family:Roboto-Light, Roboto;font-size:12px;font-weight:300;}.cls-3{fill:#6e6b78;}.cls-63{fill:none;stroke:#4d4d4d;stroke-linecap:round;stroke-miterlimit:10;}.cls-4{fill:url(#linear-gradient);}.cls-5{fill:#be7238;}.cls-6{fill:#341408;}.cls-7{fill:#314073;}.cls-8{fill:#917365;}.cls-9{fill:url(#linear-gradient-6);}.cls-10{fill:#4189a0;}.cls-11{fill:#491b09;}.cls-12{fill:#907f7d;}.cls-13{fill:#db9060;}.cls-14{fill:#5a5f78;}.cls-15{fill:#c0afa7;}.cls-16{fill:#060404;}.cls-17{fill:#a67c52;}.cls-18{fill:url(#linear-gradient-15);}.cls-19{fill:#141b64;}.cls-20{fill:url(#linear-gradient-11);}.cls-21{fill:url(#linear-gradient-5);}.cls-22{fill:#ad7f60;}.cls-23{fill:#25130c;}.cls-24{fill:#9e8273;}.cls-25{fill:url(#linear-gradient-13);}.cls-26{fill:#5e2109;}.cls-27{fill:#342823;}.cls-28{fill:#284798;}.cls-29{fill:#695662;}.cls-30{fill:#aaa4a0;}.cls-31{fill:#bd9886;}.cls-32{fill:url(#linear-gradient-14);}.cls-33{fill:url(#linear-gradient-2);}.cls-34{fill:#3d5aa7;}.cls-35{fill:#e8ad81;}.cls-36{fill:#925c2b;}.cls-37{fill:url(#linear-gradient-7);}.cls-38{fill:#6c3215;}.cls-39{fill:#2b190e;}.cls-40{fill:url(#linear-gradient-3);}.cls-41{fill:url(#linear-gradient-9);}.cls-42{fill:#c18a69;}.cls-43{fill:#af6737;}.cls-44{fill:#9e5426;}.cls-45{fill:#317b90;}.cls-46{fill:#92421c;}.cls-47{fill:url(#linear-gradient-8);}.cls-48{fill:#905736;}.cls-49{fill:#1a3f3f;}.cls-50{fill:#cd9e5c;}.cls-51{fill:#633824;}.cls-52{fill:url(#linear-gradient-10);}.cls-53{fill:#744730;}.cls-54{fill:#d59151;}.cls-55{fill:#192f8d;}.cls-56{fill:#9a6949;}.cls-57{fill:#638185;}.cls-58{fill:url(#linear-gradient-4);}.cls-59{fill:#472917;}.cls-60{fill:#163269;}.cls-61{fill:#455177;}</style><linearGradient id="linear-gradient" x1="205.61" y1="131.71" x2="142.53" y2="251.55" gradientUnits="userSpaceOnUse"><stop offset="0" stop-color="#4965a5"/><stop offset=".86" stop-color="#6d7eb2"/></linearGradient><linearGradient id="linear-gradient-2" x1="104.7" y1="160.06" x2="30.17" y2="186.15" gradientUnits="userSpaceOnUse"><stop offset="0" stop-color="#488ba3"/><stop offset="1" stop-color="#286f86"/></linearGradient><linearGradient id="linear-gradient-3" x1="33.96" y1="155.03" x2="110.15" y2="171.87" gradientUnits="userSpaceOnUse"><stop offset="0" stop-color="#b76c35"/><stop offset="1" stop-color="#db925c"/></linearGradient><linearGradient id="linear-gradient-4" x1="99.24" y1="177.34" x2="33.7" y2="201.84" gradientUnits="userSpaceOnUse"><stop offset="0" stop-color="#d38851"/><stop offset="1" stop-color="#a8602e"/></linearGradient><linearGradient id="linear-gradient-5" x1="36.23" y1="141.77" x2="84.06" y2="165.51" gradientUnits="userSpaceOnUse"><stop offset="0" stop-color="#2a758b"/><stop offset="1" stop-color="#478da2"/></linearGradient><linearGradient id="linear-gradient-6" x1="265.38" y1="102.48" x2="265.51" y2="114.03" gradientUnits="userSpaceOnUse"><stop offset="0" stop-color="#183062"/><stop offset="1" stop-color="#484c5a"/></linearGradient><linearGradient id="linear-gradient-7" x1="199.93" y1="102.14" x2="198.44" y2="114.04" gradientUnits="userSpaceOnUse"><stop offset="0" stop-color="#444f70"/><stop offset="1" stop-color="#8e766d"/></linearGradient><linearGradient id="linear-gradient-8" x1="225.56" y1="102.55" x2="225.19" y2="114.07" gradientUnits="userSpaceOnUse"><stop offset="0" stop-color="#243966"/><stop offset="1" stop-color="#655b60"/></linearGradient><linearGradient id="linear-gradient-9" x1="212.95" y1="102.39" x2="211.98" y2="113.6" gradientUnits="userSpaceOnUse"><stop offset="0" stop-color="#303f68"/><stop offset="1" stop-color="#706366"/></linearGradient><linearGradient id="linear-gradient-10" x1="238.73" y1="102.36" x2="238.38" y2="111.47" gradientUnits="userSpaceOnUse"><stop offset="0" stop-color="#1d3464"/><stop offset="1" stop-color="#494d63"/></linearGradient><linearGradient id="linear-gradient-11" x1="182.62" y1="101.14" x2="179.53" y2="113.68" gradientUnits="userSpaceOnUse"><stop offset="0" stop-color="#646174"/><stop offset="1" stop-color="#a58679"/></linearGradient><linearGradient id="linear-gradient-12" x1="163.53" y1="102.16" x2="162.45" y2="118.48" gradientUnits="userSpaceOnUse"><stop offset="0" stop-color="#8d797c"/><stop offset="1" stop-color="#d48e60"/></linearGradient><linearGradient id="linear-gradient-13" x1="138.36" y1="102.03" x2="137.64" y2="117.33" gradientUnits="userSpaceOnUse"><stop offset="0" stop-color="#b79282"/><stop offset="1" stop-color="#d3976e"/></linearGradient><linearGradient id="linear-gradient-14" x1="151.65" y1="102.4" x2="149.96" y2="120.29" gradientUnits="userSpaceOnUse"><stop offset="0" stop-color="#a3817e"/><stop offset="1" stop-color="#da9366"/></linearGradient><linearGradient id="linear-gradient-15" x1="269.78" y1="206.77" x2="60.24" y2="271.53" gradientUnits="userSpaceOnUse"><stop offset="0" stop-color="#a67759"/><stop offset="1" stop-color="#905837"/></linearGradient></defs><g id="Layer_1-2"><g id="Background"><rect class="cls-5" x="28" y="24.67" width="250" height="200"/><path class="cls-5" d="m255.04,47.27c8.05.09,14.7-.85,22.95,1.61.01,3.76,0,7.53,0,11.29-5.7.2-11.39.5-17.09.81-.02-.22.09-.72-.12-.81-1.37-.52-21.7.43-25.51.27-.07-.33.16-.71-.37-1.08-.32-.12-.7.35-1.59.27-1.35-.13-.91.27-.98.27-.38-.03-.17-.53-.37-.54-19.11-.97-45.38.73-65.42,0-.2.16-.2,1.67,0,1.88.46.48,11.72.58,12.69,1.08.69.35.92,2.9.24,3.23h-43.7c-1.9,1.67-3.09,4.43-4.27,4.3-.09-3.11.6-4.61-1.46-4.03-.92.26-.72.27-.98,2.96H30.09l-2.08,1.88c.01-8.51-.03-17.02,0-25.53h57.25c1.87-2.89,4.77-4.11,6.84-6.72,6.01-3.87,12.51-7.52,19.53-8.33,4.39-.5,11.86-.19,16.11,1.08,1.17.35,8.44,3.69,9.28,4.3.34.25,2.48,3.2,6.35,5.38h80.07c1.83,2.31.97,5.84,1.71,6.45,9.97.08,19.94-.11,29.9,0Z"/><path class="cls-35" d="m129.08,68.77c-.28,2.94.14,6.16,0,9.14-2.38-.65-2.44,2.23-.24,1.88-.02.26.97,1.26-1.22,4.84-.48-.02-1.72-.18-1.95.4-.52,9.79,1.11,6.05,1.71,6.99.64,1,.19,21.42.24,24.59.19,11.37.36,22.76.49,34.13-1.35-.51-10.99-2.24-11.23-2.82-.28-.67,1-1.56.61-2.02-.46-.54-10.92-1.81-11.6-6.32-.85-5.65,6.46-2.11,9.15-2.02,6.95.25-4.46-3.34-4.88-3.76-1.18-1.17,1.93-1.76-5-5.64-.02-.17.3-.52.37-.54,4.85-.91,3.93.34.12-2.15,1.91-.39,6.97-3.37,9.28-4.43,0-.94-8.5.12-3.17-6.05,8.87-.48.81-.97-2.44-1.75-.49-.78,5.54-2.68,6.35-3.23.41-.87-5.28-.63-5.61-1.08-.88-1.15,3.5-1.02,1.95-2.15,3.09-1.16-1.37-.2-3.42-1.34,3.65-1.27,7.96-1.29,2.93-2.82,1.9-1.01,3.83-1.23,4.03-1.34,3.13-1.77-8.24-.99-12.57-1.08-2.12-.04-4.23-.25-6.35-.27-10.33-.12-20.67,0-31,0-3.17,0-6.35,0-9.52,0h-28.07c0-9.76-.01-19.53,0-29.29l2.08-1.88h98.99Z"/><path class="cls-45" d="m229.41,24.7c9.68,5.77,18.69,13.08,25.63,22.58-9.97-.11-19.94.08-29.9,0-.74-.61.12-4.14-1.71-6.45h-80.07c-3.87-2.17-6.01-5.13-6.35-5.38-.84-.61-8.11-3.95-9.28-4.3-4.25-1.27-11.73-1.58-16.11-1.08-7.02.81-13.52,4.46-19.53,8.33-2.07,2.61-4.96,3.83-6.84,6.72H28.01c.02-6.81-.02-13.62,0-20.43,67.13.08,134.27-.1,201.4,0Z"/><path class="cls-19" d="m203.78,169.29c.04,2.41.17,7.27.73,8.06-18.07,3.89-35.16,11.49-53.1,15.86-20.2,10.39-43.11,10.82-63.47,20.69-4.54.88-8.87,2.77-13.3,4.03-7.93,2.25-16.54,2.98-23.92,6.72-7.57-.03-15.14.02-22.7,0-.02-10.03.02-20.07,0-30.1,10.68-.68,21.42-.13,32.1-.54,16.23-.62,32.34-2.3,48.46-4.3,2.47-.31,10.11-.35,10.62-.54.4-.14.62-1.3,1.46-1.61.67-.25,11.38-1.26,14.04-1.61,1.77-2.38,8.32-1.86,12.33-2.69,2.65-.55,5.29-1.3,7.93-1.88,2.23-.49,3.47-1.3,3.66-1.34,3.5-.84,7.23-1.04,10.74-1.88.1,1.56.43,3.11.24,4.7,4.68,4.58,3.19-1.12,3.42-6.18.28-.42.49-.37.49-.4,5.27-1.35,10.57-2.56,15.87-3.76,1.39-.32,2.78-.76,4.15-1.08,3.4-.77,6.89-1.16,10.25-2.15Z"/><path class="cls-38" d="m277.99,200.46c-2.57-.42-2.36,2.27-2.81,2.42-.93.31-5.56-2.11-6.35,2.42-7.17-1.82-5.37,3.14-6.35,3.49-8.74-1.3-6.56,2.62-6.71,3.09-.75,2.36-5.66-1.42-7.2,4.43-5.23-.69-5.27,2.73-5.86,2.96-2.85,1.09-17.13-1.89-20.63,5.38-25.39.03-50.78.01-76.17,0,4.61-2.01,11.12-1.75,16.23-2.69,8.29-4.97,13.79-4.83,22.95-5.91,1.69-.54,2.38-2.79,3.17-3.23,1.03-.57,10.26-1.95,11.47-2.69,1.43-.87-.39-2.7,8.54-2.96l-1.46-3.76c6.97.24,11.75-2.98,16.84-2.96,4.11-6.9,8.33,1.59,12.45-4.84,6.46-.54,5.22-2.16,6.59-2.96.42-.24,5.12-1.48,6.35-1.61,1.12-4.84,11.87-2.29,9.76-5.11-.28-.38-3.1-2.49-3.78-3.23,3.93-1.64,1.5-1.59,3.05-3.76,6.92,1.04,13.3-2.09,19.9-4.03,0,8.51.03,17.02,0,25.53Z"/><path class="cls-4" d="m277.99,164.18c0,1.79,0,3.58,0,5.38-12.72,7.08-27.14,8.5-40.16,14.78-2.94.91-5.96,1.57-8.91,2.42-21.79,6.27-44.18,9.78-65.55,17.74-16.45,9.79-35.84,10.62-52.36,20.16-15.54-.01-31.08.03-46.63,0,3.65-1.16,7.6-.52,11.47-1.34.84-.18,14.48-4.43,16.48-5.11,5.52-1.87,10.83-4.56,16.36-6.45,14.87-3.95,30.43-6.17,44.43-13.17,11.44-2.95,22.07-8.15,33.2-12.09,16.62-4.14,33.27-8.09,49.92-12.09,13.93-3.35,27.9-6.45,41.74-10.21Z"/><path class="cls-33" d="m90.26,168.75c0,.18-.06.49.12.54,1.62.42,16.22-.38,20.51.27.13.44.36.72.61,1.08.26.38,1.93,4.83,1.95,5.11.16,1.9-.15,3.09-1.71,3.76-3.35,1.44-35.66,6.89-42.35,6.45-13.71,2.29-27.55,2.3-41.38,2.15-.02-7.7,0-15.41,0-23.11,3.85-.66,1.91,2.18,2.56,2.69,19.91.82,39.77,1.05,59.69,1.08Z"/><path class="cls-44" d="m255.04,182.73c.69.74,3.5,2.85,3.78,3.23,2.1,2.82-8.64.27-9.76,5.11-1.23.13-5.93,1.37-6.35,1.61-1.37.79-.13,2.41-6.59,2.96-4.12,6.43-8.34-2.06-12.45,4.84-5.09-.02-9.87,3.2-16.84,2.96l1.46,3.76c-8.93.26-7.12,2.08-8.54,2.96-1.21.74-10.44,2.12-11.47,2.69-.8.44-1.49,2.68-3.17,3.23-9.16,1.08-14.66.94-22.95,5.91-5.12.93-11.62.68-16.23,2.69-6.75,0-13.51,0-20.26,0,7.34-1.7,14.59-3.44,21.6-6.45,8.47-1.74,15.19-3.52,22.7-8.33,17.06-6.13,34.6-10.4,51.51-16.93l21.85-5.91c2.04-.24,1.91-1.62,3.3-2.15,2.32-.56,6.39-1.3,8.42-2.15Z"/><path class="cls-49" d="m229.41,24.7c16.19.02,32.39-.02,48.58,0,.02,8.06-.03,16.13,0,24.19-8.25-2.47-14.9-1.52-22.95-1.61-6.94-9.49-15.95-16.8-25.63-22.58Z"/><path class="cls-15" d="m243.32,187.03l-21.85,5.91c-16.91,6.54-34.45,10.8-51.51,16.93-7.51,4.82-14.23,6.59-22.7,8.33-7.02,3.01-14.26,4.75-21.6,6.45-4.88,0-9.76,0-14.65,0,16.52-9.54,35.91-10.37,52.36-20.16,21.37-7.96,43.76-11.47,65.55-17.74.59,1.14-3.25,1.24-1.34,2.15.66.32,2.7-1.84,1.22,1.08,4.73.09,9.65-2.41,14.53-2.96Z"/><path class="cls-40" d="m117.85,168.75c-2.1.22-4.24.46-6.35.54-6.99.26-14.22-.53-21.24-.54-19.92-.02-39.78-.26-59.69-1.08-.65-.5,1.29-3.35-2.56-2.69,0-1.61,0-3.23,0-4.84,27.75-.49,56,1.5,83.24-1.08l.37-.27c.39.99,4.71,3.57,4.76,3.9.28,1.85-5.81-.28,1.46,6.05Z"/><path class="cls-58" d="m111.74,179.5c.19.84-.33.92-.73,1.34-.48.5-1.31,1.47-1.46,1.61-.63.57-4.85,3.42-4.88,3.9q1.95,1.68,3.91,3.36c-16.12,2-32.22,3.68-48.46,4.3-10.68.41-21.42-.14-32.1.54,0-2.15,0-4.3,0-6.45,13.83.15,27.66.14,41.38-2.15,6.7.44,39.01-5.01,42.35-6.45Z"/><path class="cls-12" d="m96.61,99.95c-.08,2.25-7.23,4.18-9.89,5.38-1.09.49-2.31,1.56-2.44,1.61-6.36,2.65-18,5.54-18.8,6.18-.16.13-.9.84-.49,1.08,2.81,0,5.61,0,8.42,0,1.76,0,3.64-.22,5.37.27-5.86-.04-11.72,0-17.58,0-11.07-.02-22.14-.14-33.2.27,0-.99,0-1.97,0-2.96,5.85-.69,11.52-1.83,17.21-3.49,4.93-2.83,20.48-5.38,20.38-8.33,10.33,0,20.67-.12,31,0Z"/><path class="cls-21" d="m73.91,153.97c2.32.08,4.64.18,6.96.27.19,0,.06.53.24.54,4.34.16,8.71.15,13.06.27,5.04.14,10.1.12,15.14.54q.98,1.75,1.95,3.49c-27.25,2.57-55.5.58-83.24,1.08,0-2.51,0-5.02,0-7.53,15.3.44,30.6.8,45.89,1.34Z"/><path class="cls-10" d="m35.09,134.35l.98.54c.06.02-.13.22,1.22.54.33.67,1.28.49,1.34.54.73.53.72,1.16,1.1,1.88.05.09-.05.43,0,.54.63,1.33,1.25,2.56,1.59,4.03,9.24.41,19.6-.05,28.68.81,4.57.43,5.88-.75,7.93,4.03,3.08.41,10.6,1.16,8.3,2.15-9.88-.12-19.78-.24-29.66-.54-9.52-.29-19.04-.82-28.56-1.08,0-5.38,0-10.75,0-16.13,2.54.45,4.64,1.78,7.08,2.69Z"/><path class="cls-19" d="m277.99,117.69c0,9.94,0,19.89,0,29.83l-18.8,2.96c.13-5.89-.02-12.3,0-18.28,4.07-1.21,8.33-1.35,12.45-2.15,1.46-.28,2.96-.65,4.39-1.08.27-.08.81.15.98-.13.07-.59-.34-.19-.73-.67-1.26-1.53-.71-7.73-.73-10.35,0-.14.49-.63.49-.67l.49-.27c.26,1.08.46.8,1.46.81Z"/><path class="cls-19" d="m277.99,151.55c0,3.05,0,6.09,0,9.14-13.93,3.73-27.94,7.09-41.99,10.21-.35.08-1.03.06-1.95.27-.26-2.94.24-5.95.24-8.87,4.73-.69,9.44-1.37,14.16-2.15,1.2-.2,2.47-.32,3.66-.54,2.83-.51,12.64-2.25,14.04-2.69,2.74-.85,8.17-4.48,11.84-5.38Z"/><path class="cls-5" d="m62.68,128.44c2.16,2.36.91,2.17,1.22,3.09.14.41,2.7,2.65-.61,3.09.02,1.92,4.04-.31,3.78,1.61,0-.02-.23-.25-.24-.27-1.16-1.01-25.25.46-29.54-.54-1.35-.31-1.16-.52-1.22-.54-.07-.02.48,0-.98-.54-2.44-.91-4.54-2.24-7.08-2.69,0-1.08,0-2.15,0-3.23,11.55-.04,23.11.05,34.66,0Z"/><path class="cls-5" d="m56.57,148.86l17.45.81c-.18,1.47,1.72,4.88-.12,4.3-15.29-.54-30.6-.9-45.89-1.34,0-1.61,0-3.23,0-4.84,9.52.25,19.04.79,28.56,1.08Z"/><path class="cls-30" d="m277.99,174.93c-6.6,1.94-12.97,5.07-19.9,4.03-1.55,2.17.88,2.12-3.05,3.76-2.03.85-6.11,1.59-8.42,2.15-1.39.53-1.25,1.91-3.3,2.15-4.88.55-9.8,3.05-14.53,2.96,1.48-2.91-.56-.76-1.22-1.08-1.9-.91,1.93-1.01,1.34-2.15,2.95-.85,5.97-1.51,8.91-2.42,13.02-6.28,27.44-7.7,40.16-14.78,0,1.79,0,3.58,0,5.38Z"/><path class="cls-5" d="m60.72,120.91c-.17,1.05,1.54.28,2.08.54.14.07,1.67,1.96,1.59,2.28-.13.51-2.68,1.28-1.83,1.75,8.26,0,16.52-.01,24.78,0,1.39,0,3-.18,3.17.27-10.74.17-21.49-.12-32.22,0h-30.27c0-1.61,0-3.23,0-4.84,10.9-.06,21.81,0,32.71,0Z"/><path class="cls-44" d="m277.99,151.55c-3.67.89-9.1,4.52-11.84,5.38-1.4.44-11.21,2.18-14.04,2.69-.26-2.49.24-5.07.24-7.53,1.29.19,2.11-.27,2.44-.27,1.19-.01,2.8.36,4.03.54.56-.43.35-1.18.37-1.88l18.8-2.96c0,1.34,0,2.69,0,4.03Z"/><path class="cls-28" d="m277.99,160.69c0,1.16,0,2.33,0,3.49-13.84,3.76-27.82,6.87-41.74,10.21,2.04-2.08-2.91.45-.24-3.49,14.05-3.12,28.06-6.48,41.99-10.21Z"/><path class="cls-3" d="m65.61,99.95c.1,2.95-15.45,5.5-20.38,8.33-5.69,1.67-11.36,2.81-17.21,3.49,0-1.16,0-2.33,0-3.49,5.39-.19,10.35-2.61,15.5-4.03,3.07-.85,12.19-1.6,12.57-4.3,3.17,0,6.35,0,9.52,0Z"/><path class="cls-5" d="m61.21,114.46c2.15,1.54-.53.47-1.1,1.08.42,2.06-1.74.59-.98,2.42h-31.13c0-1.08,0-2.15,0-3.23,11.06-.41,22.13-.29,33.2-.27Z"/><path class="cls-54" d="m78.79,114.46c.08,0,.16,0,.24,0,1.28,1.67,4.1-1.42,4.27,3.49l6.71.27c-9.83-.38-19.71.27-29.54.27-10.82,0-21.65-.53-32.47-.27,0-.09,0-.18,0-.27h31.13c-.77-1.83,1.39-.36.98-2.42.57-.6,3.25.47,1.1-1.08,5.86,0,11.72-.04,17.58,0Z"/><path class="cls-12" d="m60.48,118.49l.98.94c-3.49,1.08,4.98,1.12,9.28,1.21-3.3.49-6.69.27-10.01.27-10.9,0-21.81-.06-32.71,0,0-.9,0-1.79,0-2.69,10.82-.27,21.65.27,32.47.27Z"/><path class="cls-12" d="m58.28,125.75l1.95,1.21c-4.19,2.42,6.31.46,10.99,1.48-2.85,0-5.7-.01-8.54,0-11.55.05-23.11-.04-34.66,0,0-.9,0-1.79,0-2.69h30.27Z"/><path class="cls-14" d="m56.08,99.95c-.38,2.7-9.5,3.45-12.57,4.3-5.15,1.42-10.11,3.84-15.5,4.03,0-1.43,0-2.87,0-4.3,3.06.44,17.38-1.55,17.09-4.03h10.99Z"/><path class="cls-28" d="m74.64,217.93c3.13,4.69-2.78.4-1.22,3.09.38.66,3.4-1.27,2.44,2.28-3.87.82-7.82.19-11.47,1.34-4.56,0-9.11.02-13.67,0,7.39-3.74,15.99-4.47,23.92-6.72Z"/><path class="cls-61" d="m45.1,99.95c.29,2.48-14.03,4.48-17.09,4.03,0-1.34,0-2.69,0-4.03h17.09Z"/><path class="cls-35" d="m232.34,59.91c-.1.63.28,2.37-.37,2.69-1.02.5-16.71.7-17.21,1.48-.07.1-.05,2.42.12,2.55.7.55,16.38-1.9,17.09-1.34.14.11.82,2.49-.98,2.96-.84.22-14.9.95-17.33,1.08-15.06.78-30.21.82-45.28,1.34-12.28.43-24.56,1.3-36.86,1.08-.03-.62.02-1.26,0-1.88,1.18.13,2.37-2.63,4.27-4.3h43.7c.67-.33.45-2.87-.24-3.23-.97-.49-12.23-.6-12.69-1.08-.2-.21-.2-1.72,0-1.88,20.04.73,46.32-.97,65.42,0,.19,0-.02.51.37.54Z"/><path class="cls-35" d="m105.15,128.17c6.94,3.88,3.82,4.48,5,5.64.42.42,11.83,4.01,4.88,3.76-2.7-.1-10-3.64-9.15,2.02.68,4.51,11.14,5.78,11.6,6.32.39.46-.89,1.34-.61,2.02.24.58,9.88,2.31,11.23,2.82.01,1.16-.01,2.33,0,3.49q-7.38-1.75-14.77-3.49c-1.35,1.45-2.58,4.87-4.03,4.84-5.03-.42-10.09-.4-15.14-.54,8.78-1.11-2.35-2.89-2.44-3.9.59-1.35,5.2-3.79,5.37-4.57.23-1.02-1.3-2.95-1.22-3.49.09-.63,4.67-1.75-5-3.9-3.29-6.91-4.11-6.05-7.08-8.06-1.17-.79.24-1.85-5-2.69,4.31-.02,24.07-1.05,26.36-.27Z"/><path class="cls-35" d="m86.6,114.46c8.35.08,16.75.99,25.14.54-5.33,6.17,3.18,5.11,3.17,6.05-2.31,1.07-7.36,4.04-9.28,4.43-2.69.55-11.35.21-15.14.27-.17-.45-1.79-.27-3.17-.27-.17-.69-1.39-3.88-1.59-4.03-.46-.36-2.82-.17-3.54-.81,6.15,0,12.29-.3,18.43,0,1.97-2.17-7.21-2.29-10.62-2.42l-6.71-.27c-.18-4.91-2.99-1.83-4.27-3.49,2.52.02,5.05-.02,7.57,0Z"/><path class="cls-31" d="m111.5,102.64c-3.91,2.08-5.05,5.02-10.13,7.53-1.78.87-9.4,3.48-11.23,3.76-1.06.17-2.53-.12-3.66,0l.12.54c-2.52-.02-5.05.02-7.57,0-.08,0-.16,0-.24,0-1.73-.49-3.61-.27-5.37-.27,1.45-2.26,6.84-2.57,9.64-3.49,2.31-1.57,19-8.07,19.65-9,.21-.3.28-1.06.24-1.48,4.33.08,15.7-.69,12.57,1.08-.2.11-2.13.33-4.03,1.34Z"/><path class="cls-31" d="m111.74,115c-8.39.46-16.79-.46-25.14-.54l-.12-.54c1.14-.12,2.6.17,3.66,0,1.83-.28,9.45-2.89,11.23-3.76,5.09-2.5,6.22-5.44,10.13-7.53,5.03,1.53.72,1.56-2.93,2.82,2.04,1.14,6.51.19,3.42,1.34,1.55,1.13-2.83,1-1.95,2.15.34.44,6.02.2,5.61,1.08-.81.55-6.84,2.45-6.35,3.23,3.25.78,11.31,1.26,2.44,1.75Z"/><path class="cls-31" d="m105.64,125.48c3.81,2.49,4.73,1.24-.12,2.15-.07.01-.38.37-.37.54-2.3-.78-22.06.25-26.36.27-2.52.01-5.05,0-7.57,0-4.68-1.02-15.17.95-10.99-1.48l-1.95-1.21c10.74-.12,21.49.17,32.22,0,3.79-.06,12.45.28,15.14-.27Z"/><path class="cls-31" d="m102.96,100.22c.04.42-.04,1.18-.24,1.48-.65.93-17.34,7.43-19.65,9-2.8.92-8.19,1.23-9.64,3.49-2.81,0-5.61,0-8.42,0-.41-.23.33-.95.49-1.08.79-.64,12.44-3.53,18.8-6.18.13-.06,1.35-1.12,2.44-1.61,2.66-1.19,9.81-3.13,9.89-5.38,2.12.02,4.23.23,6.35.27Z"/><path class="cls-34" d="m236,170.9c-2.67,3.95,2.28,1.42.24,3.49-16.65,4-33.3,7.96-49.92,12.09-11.13,3.95-21.76,9.15-33.2,12.09-14,7-29.56,9.22-44.43,13.17-5.52,1.89-10.83,4.58-16.36,6.45-2,.67-15.64,4.93-16.48,5.11.96-3.56-2.06-1.62-2.44-2.28-1.56-2.69,4.35,1.6,1.22-3.09,4.44-1.26,8.76-3.15,13.3-4.03,20.36-9.88,43.27-10.3,63.47-20.69,17.93-4.37,35.03-11.96,53.1-15.86,1.05-.57,2.29-.81,3.42-1.08,2.96-.7,6.05-.95,9.03-1.61,1.14-.25,2.28-.55,3.42-.81,3.23-.72,6.53-1.15,9.76-1.88,1.3-.3,2.61-.52,3.91-.81.93-.21,1.6-.19,1.95-.27Z"/><path class="cls-54" d="m154.95,175.2v6.18c-2.64.58-5.28,1.33-7.93,1.88-4.01.83-10.55.3-12.33,2.69-2.11-1.26-12.49,1.54-13.3,1.08-.4-.23.86-1.71.24-2.42-.42-.49-10.61-1.57-12.08-2.15.16-.14.99-1.11,1.46-1.61-.01.17.29.52.37.54,1.01.25,19.49,2.59,20.51,2.42,2.93-2.09,9.33-3.88,10.13-7.53,4.29-.19,8.64-.93,12.94-1.08Z"/><path class="cls-35" d="m109.55,182.46c1.48.58,11.66,1.66,12.08,2.15.62.71-.64,2.19-.24,2.42.81.46,11.2-2.34,13.3-1.08-2.66.36-13.37,1.36-14.04,1.61-.84.31-1.07,1.47-1.46,1.61-.5.18-8.15.23-10.62.54q-1.95-1.68-3.91-3.36c.03-.48,4.25-3.33,4.88-3.9Z"/><path class="cls-5" d="m189.37,167.68c0,1.39.38,2.83.24,4.3-.03.27-.26.3-.24.54-5.3,1.2-10.6,2.41-15.87,3.76.04-1.14,0-3.58,0-5.11q7.93-1.75,15.87-3.49Z"/><path class="cls-54" d="m169.11,171.98c.05,1.99.11,4.2.24,6.18-3.51.84-7.24,1.04-10.74,1.88.11-1.83,0-3.68,0-5.51,0-.19.49-.37.49-.4q5-1.08,10.01-2.15Z"/><path class="cls-5" d="m203.78,163.91c0,.21.24.23.24.81.02,1.51-.27,3.13-.24,4.57-3.37.99-6.85,1.38-10.25,2.15-.57-1.75,0-3.62,0-5.38q5.13-1.08,10.25-2.15Z"/><path class="cls-5" d="m204.02,128.44c-.03,7.12.04,14.24,0,21.37,0,.11-.49.36-.49.67q-5,.94-10.01,1.88c.05-6.47-.32-15.65,0-21.37.01-.22.49-.11.49-.13,4.72.59,2.68-1.67,3.3-2.15.28-.21,5.58.25,6.71-.27Z"/><path class="cls-9" d="m272.13,102.37c.17,4.8-.51,9.72-.49,14.51-4.29,1.45-6.15-1.81-6.71-1.88-1.85.89-3.75.88-5.74.81,0-1.89-1.16-15.08-.12-15.59,2.05.21,11.88-.27,12.45,0,.75.36.01,1.72.61,2.15Z"/><path class="cls-19" d="m248.21,153.43l-13.91,2.15c0-5.14-.08-10.16,0-15.32l8.3-1.61c.04,1.94.47,3.94.24,5.91,5.66,1.33,2.88-.72,3.91-6.99.33-.09.86-.39,1.22-.54-.02,5.4.11,10.99.24,16.39Z"/><path class="cls-37" d="m204.75,100.22c-.03,4.93.02,9.85,0,14.78-.9-.17-.29,1.2-.49,1.75-.1.27-.7.07-.73.13l-9.76-.27c.01-5.55-.08-11.11,0-16.66l10.99.27Z"/><path class="cls-47" d="m230.63,100.49c.02,5.02-.03,10.03,0,15.05l-10.5,2.15c.05-5.69-.04-11.38,0-17.07l10.5-.13Z"/><path class="cls-19" d="m271.64,116.88c0,.41.49.19.49.4.02,3.71.36,8.07-.24,11.69h-12.69c0-1.27-.24-2.69-.24-4.03,0-3.04.26-6.13.24-9.14,1.99.07,3.89.09,5.74-.81.56.07,2.43,3.34,6.71,1.88Z"/><path class="cls-43" d="m216.47,146.98q-4.15,1.21-8.3,2.42c.02-2.33-.49-20.27.37-20.69l8.18.13c.48.74-.26,15.89-.24,18.14Z"/><path class="cls-19" d="m230.14,156.92q-4.88,1.08-9.76,2.15c0-.41-.49-.19-.49-.4-.07-4.8.26-9.61.24-14.38l10.01-4.3c0,.41.49.2.49.4-.05,5.48-.44,11.05-.49,16.53Z"/><path class="cls-19" d="m203.53,150.47c-.02,4.43.19,8.99.24,13.44q-5.13,1.08-10.25,2.15c-.02-4.6-.04-9.1,0-13.71q5-.94,10.01-1.88Z"/><path class="cls-44" d="m230.39,128.97c0,3.51.27,7.08.24,10.62,0,.19-.49.37-.49.4l-10.01,4.3c-.02-5.03.22-10.04.24-15.05l10.01-.27Z"/><path class="cls-41" d="m216.47,100.76c.04,5.19-.06,10.39,0,15.59l-8.06.27c-.19-5.52-.07-10.88,0-16.39,2,.33,4.15-.32,6.1-.27,2.57.07,1.84.78,1.95.81Z"/><path class="cls-19" d="m230.39,128.97l-10.01.27c0-.41-.49-.2-.49-.4.02-3.72.21-7.45.24-11.15l10.5-2.15c.03,4.49-.23,8.97-.24,13.44Z"/><path class="cls-19" d="m242.59,129.24c-2.33-.22-6.12.3-8.06,0-.03,0,.19-.08-.49-.27.09-4.34-.1-8.69,0-13.03,0-.05.48-.69.49-.94l8.3-1.61c.04,5.28-.27,10.6-.24,15.86Z"/><path class="cls-19" d="m216.72,160.69q-4.27,1.08-8.54,2.15c-.03-4.52-.05-8.91,0-13.44q4.15-1.21,8.3-2.42c0,.26.49.89.49.94.03,4.26-.25,8.51-.24,12.77Z"/><path class="cls-52" d="m242.84,100.49c.02,4.3-.03,8.6,0,12.9l-8.3,1.61c.1-4.73-.58-9.62-.24-14.38l8.54-.13Z"/><path class="cls-35" d="m205,98.34c-.02,1.61-.24,1.79-.24,1.88l-10.99-.27c.01-1.04-.17-7.57.12-7.79h10.99c.23.18.13,5.38.12,6.18Z"/><path class="cls-44" d="m242.59,129.24c.02,2.85.44,5.88.49,8.73,0,.11-.49.37-.49.67l-8.3,1.61c.06-3.66-.25-7.38.24-11.02,1.94.3,5.73-.22,8.06,0Z"/><path class="cls-19" d="m230.14,163.38c-.05,2.33.03,4.66,0,6.99v1.61c-3.23.73-6.53,1.16-9.76,1.88-.08-2.85.08-5.75,0-8.6l9.76-1.88Z"/><path class="cls-19" d="m216.96,173.86v.81c-2.98.66-6.08.92-9.03,1.61.19-2.66.27-5.4.24-8.06q4.15-1.08,8.3-2.15c0,.41.48.19.49.4.05,2.46-.03,4.93,0,7.39Z"/><path class="cls-44" d="m230.14,156.92c-.02,2.16.04,4.26,0,6.45l-9.76,1.88c-.06-2.11.04-4.12,0-6.18q4.88-1.08,9.76-2.15Z"/><path class="cls-19" d="m255.04,133.27c0,6.17.21,12.38-.24,18.54-.33,0-1.15.46-2.44.27,0-5.93-.05-11.8,0-17.74l2.69-1.08Z"/><path class="cls-35" d="m214.52,99.95c-1.95-.06-4.11.6-6.1.27.01-1.07-.64-7.66-.12-8.06l6.23.4v7.39Z"/><path class="cls-43" d="m216.47,166.06q-4.15,1.08-8.3,2.15c-.02-1.79.01-3.59,0-5.38q4.27-1.08,8.54-2.15c0,1.77-.27,3.67-.24,5.38Z"/><path class="cls-44" d="m216.47,116.34c0,.45,0,.9,0,1.34-6.81,1.23-8.1.28-1.22,2.96-2.23.45-4.44,1.11-6.71,1.34-.26-.21-.1-4.58-.12-5.38l8.06-.27Z"/><path class="cls-36" d="m271.89,128.97c-.03.16.03.38,0,.54-.05.26-.25.31-.24.54-4.12.8-8.38.94-12.45,2.15,0-1.07,0-2.16,0-3.23h12.69Z"/><path class="cls-43" d="m203.53,116.88c-.19.35.4.67.12.81-2.99.49-6.7,2.02-10.13,2.15-.09-1.83.24-2.7.24-3.23l9.76.27Z"/><path class="cls-60" d="m255.04,100.76c.55,2.3-.27,5.68-.24,8.06l-2.2-.27c.17-6.55-1.07-9.29,2.44-7.79Z"/><path class="cls-1" d="m248.45,128.97c0,2.55,0,5.11,0,7.66,0,.19-.49.37-.49.4-.36.15-.89.45-1.22.54-.17.04-.27-.08-.24-.27,0-.09,0-.18,0-.27.04-2.69-.05-5.38,0-8.06h1.95Z"/><path class="cls-44" d="m255.04,128.97c0,1.44,0,2.86,0,4.3l-2.69,1.08c.01-1.79.23-3.62.24-5.38h2.44Z"/><path class="cls-8" d="m216.47,117.69c.01.9-.02,1.79,0,2.69-.46.41-.82.19-1.22.27-6.88-2.67-5.58-1.73,1.22-2.96Z"/><path class="cls-7" d="m254.8,108.82c.01,1.35-.01,2.69,0,4.03l-2.2-.81c.03-1.16-.03-2.33,0-3.49l2.2.27Z"/><path class="cls-29" d="m254.8,112.85c0,.45,0,.9,0,1.34l-2.2-.27c.02-.63-.02-1.26,0-1.88l2.2.81Z"/><path class="cls-35" d="m127.86,175.74c.02.45.24,3.39.37,3.49.13.1,3.04.1,3.17,0,.11-.09.35-2.58.37-2.96,3.4-.12,6.85.15,10.25,0-.8,3.65-7.2,5.43-10.13,7.53-1.02.17-19.5-2.17-20.51-2.42-.08-.02-.38-.37-.37-.54.4-.42.92-.5.73-1.34,1.55-.67,1.87-1.86,1.71-3.76h14.4Z"/><path class="cls-55" d="m127.86,167.14c.78,2.81-.1,5.81,0,8.6h-14.4c-.02-.28-1.69-4.73-1.95-5.11v-1.34c2.1-.08,4.25-.32,6.35-.54,1.19-.12,9.53-1.44,10.01-1.61Z"/><path class="cls-57" d="m111.5,169.29v1.34c-.25-.36-.48-.64-.61-1.08-4.29-.65-18.89.15-20.51-.27-.18-.05-.12-.36-.12-.54,7.02,0,14.25.8,21.24.54Z"/><path class="cls-35" d="m128.1,154.24c.05,4.21-.04,8.42,0,12.63-.34.16-.23.26-.24.27-.48.18-8.81,1.49-10.01,1.61-7.28-6.32-1.18-4.2-1.46-6.05-.05-.32-4.37-2.91-4.76-3.9l-.37.27q-.98-1.75-1.95-3.49c1.45.04,2.68-3.38,4.03-4.84q7.38,1.75,14.77,3.49Z"/><path class="cls-54" d="m71.22,128.44c2.52,0,5.05.01,7.57,0,5.25.84,3.83,1.89,5,2.69,2.97,2.01,3.79,1.15,7.08,8.06,9.67,2.15,5.09,3.27,5,3.9-.08.54,1.45,2.48,1.22,3.49-.17.78-4.78,3.22-5.37,4.57.09,1.01,11.22,2.79,2.44,3.9-4.35-.12-8.72-.11-13.06-.27-.19,0-.06-.53-.24-.54-2.32-.09-4.64-.19-6.96-.27,1.85.58-.06-2.83.12-4.3l-17.45-.81c9.88.3,19.78.42,29.66.54,2.3-.99-5.22-1.74-8.3-2.15-2.05-4.78-3.37-3.6-7.93-4.03l1.22-.67c-3.58.16-3.8-1.15-5.13-4.43.9-.26,1.31-.76.98-1.88.25-1.92-3.76.31-3.78-1.61,3.31-.45.75-2.68.61-3.09-.31-.92.94-.73-1.22-3.09,2.85-.01,5.7,0,8.54,0Z"/><path class="cls-5" d="m66.09,138.11c1.33,3.28,1.54,4.6,5.13,4.43l-1.22.67c-9.08-.86-19.45-.39-28.68-.81-.34-1.47-.96-2.7-1.59-4.03,4.56-.96,24.15.38,26.36-.27Z"/><path class="cls-24" d="m66.83,135.96s.24.25.24.27c.33,1.12-.08,1.62-.98,1.88-2.22.65-21.81-.69-26.36.27-.05-.1.05-.44,0-.54,2.77-.81,12.28.18,13.55-.27.45-.16.89-1.58.98-1.61.66-.29,10.35.22,12.57,0Z"/><path class="cls-12" d="m66.83,135.96c-2.23.22-11.91-.29-12.57,0-.08.04-.53,1.45-.98,1.61-1.27.45-10.78-.54-13.55.27-.38-.72-.37-1.35-1.1-1.88-.06-.05-1.01.13-1.34-.54,4.29.99,28.38-.47,29.54.54Z"/><path class="cls-12" d="m36.07,134.89l-.98-.54c1.46.54.91.52.98.54Z"/><path class="cls-44" d="m248.21,153.43c.06,2.22.46,4.48.24,6.72-4.71.79-9.43,1.46-14.16,2.15,0-2.23,0-4.48,0-6.72l13.91-2.15Z"/><path class="cls-54" d="m82.21,120.64c.72.63,3.08.45,3.54.81.19.15,1.42,3.34,1.59,4.03-8.26-.01-16.52,0-24.78,0-.85-.47,1.7-1.24,1.83-1.75.08-.32-1.45-2.22-1.59-2.28-.54-.26-2.25.51-2.08-.54,3.32,0,6.71.22,10.01-.27,3.82.08,7.65,0,11.47,0Z"/><path class="cls-31" d="m90.02,118.22c3.41.13,12.59.24,10.62,2.42-6.14-.3-12.29,0-18.43,0-3.82,0-7.66.08-11.47,0-4.3-.09-12.76-.13-9.28-1.21l-.98-.94c9.83,0,19.71-.65,29.54-.27Z"/><path class="cls-35" d="m231.36,73.61c-3.91,1.14-57.64,2.25-67.62,2.69-10.66.47-21.33,1.25-31.98,1.88-.03-1.16.03-2.33,0-3.49-.14-.6,2.51-.76,3.3-.81,13.82-.86,27.78-.9,41.62-1.34,18.43-.58,36.87-.92,55.29-1.88.1,1.18.61,2.6-.61,2.96Z"/><path class="cls-35" d="m144.21,92.69v7.53c-4.41.55-9.62-1.51-12.94,1.88v-9.94c.9-.27,8.98-.51,9.4-.27,1.58.89-2.09,2.5,3.54.81Z"/><path class="cls-5" d="m189.37,153.97q-8.06,1.75-16.11,3.49c0-9.67-.6-19.35-.12-29.03q8.12.07,16.23.13c.23,8.46-.05,16.94,0,25.4Z"/><path class="cls-54" d="m168.38,128.44c.07,3.37.67,7.99.73,10.75.14,6.46-.11,12.93,0,19.35q-5.25,1.08-10.5,2.15c0-3.69-.79-28.74,0-29.97.25-.39,3.05.06,3.3-.13.87-.67-2.59-2.79,6.47-2.15Z"/><path class="cls-20" d="m189.62,99.95c-.02,5.58-.07,11.08-.24,16.66-4.94-.38-10.53.23-15.38-1.08-.08-.02-.39-.71-1.46-.54-.27-4.65-.3-9.32-.24-13.98,0-.27,0-.54,0-.81l17.33-.27Z"/><path class="cls-55" d="m189.37,153.97c.03,4.6.02,9.11,0,13.71q-7.93,1.75-15.87,3.49c0-.31-.49-.56-.49-.67.03-4.33.25-8.72.24-13.03q8.06-1.75,16.11-3.49Z"/><path class="cls-55" d="m169.11,158.54c.08,4.48-.1,9,0,13.44q-5,1.08-10.01,2.15c0-.41-.49-.19-.49-.4-.03-4.34,0-8.69,0-13.03q5.25-1.08,10.5-2.15Z"/><path class="cls-35" d="m189.13,92.16s.49-.08.49.13c-.04,2.55.01,5.11,0,7.66l-17.33.27c.04-2.68-.13-5.39.12-8.06h16.72Z"/><path class="cls-42" d="m173.99,115.54c-2.09.55,2.44,2.02,4.76,2.69,1.16.33,9.82,2.2,10.25,1.88.41-.3-.24-2.71.37-3.23-.02.54.02,1.08,0,1.61-.03.82-.2,1.65-.24,2.42q-8.24-.81-16.48-1.61c-.28-.28-.08-3.56-.12-4.3,1.07-.18,1.39.52,1.46.54Z"/><path class="cls-55" d="m154.95,166.6c.11,2.86-.08,5.74,0,8.6-4.3.15-8.65.89-12.94,1.08-3.4.15-6.85-.12-10.25,0,.09-1.96-.27-6.83-.24-9.68,4.54-.77,8.96-2.09,13.43-3.23.36-.09.81-.09,1.46-.27,1.67-.44,1.85-.78,1.95-.81,1.87-.52,4.05-.36,5.86-1.34.01.31.44-2.22.73,5.64Z"/><path class="cls-2" d="m168.14,99.95c.06,6.69-.39,13.51-.24,20.16q-4.7,1.08-9.4,2.15l-.37-.4c.08-7.3-.1-14.61,0-21.9h10.01Z"/><path class="cls-35" d="m167.65,92.16s.48-.09.49.13c.08,2.55-.02,5.11,0,7.66h-10.01c.01-1.04-.17-7.57.12-7.79h9.4Z"/><path class="cls-5" d="m173.99,115.54c4.85,1.3,10.44.7,15.38,1.08,0,.09,0,.18,0,.27-.6.51.05,2.93-.37,3.23-.43.32-9.09-1.55-10.25-1.88-2.32-.66-6.85-2.14-4.76-2.69Z"/><path class="cls-54" d="m144.21,128.71c0,.1.33,1.71.49,2.02q.12,16.33.24,32.65c-4.47,1.13-8.88,2.45-13.43,3.23,0-.72,0-1.43,0-2.15,2.24-2.75,3.48-4.64,0-6.72,0-1.52,0-3.05,0-4.57,4.7-2.52,4.87-3.43,0-4.84,0-.54,0-1.08,0-1.61,8.14-7,5.97-8.88,0-16.13.02-.27-.03-.55,0-.81,3.79.38,5.14,2.76,5.61,0,4.37.68,4.51-1.39,7.08-1.08Z"/><path class="cls-25" d="m144.21,100.22c-.21,6.97.29,14,0,20.96,0,.22.26,1.66.24,1.75-.04.22-.48.37-.49.4-.85-.32-1.78-.58-2.69-.54-.29-3.26-7.37-5.95-10.01-8.06-.02-1.79.01-3.58,0-5.38l6.84-4.17-6.84-2.28v-.81c3.32-3.39,8.53-1.34,12.94-1.88Z"/><path class="cls-35" d="m141.28,122.79c-1.36.07-9.44,2.52-9.89,2.15-.1-3.4-.08-6.81-.12-10.21,2.64,2.11,9.72,4.8,10.01,8.06Z"/><path class="cls-35" d="m131.52,146.71c.02-4.92-.26-11.65,0-16.13,5.97,7.24,8.14,9.12,0,16.13Z"/><path class="cls-35" d="m131.27,109.36c-.02-2.15.01-4.3,0-6.45l6.84,2.28-6.84,4.17Z"/><path class="cls-35" d="m137.13,129.24s0,.51,0,.54c-.47,2.76-1.82.38-5.61,0,.05-.39-.13-1.41.12-1.61h5.13c.32.47.33.96.37,1.08Z"/><path class="cls-35" d="m131.52,153.16c0-1.61,0-3.23,0-4.84,4.87,1.41,4.7,2.32,0,4.84Z"/><path class="cls-35" d="m131.52,164.45c.01-2.24,0-4.48,0-6.72,3.48,2.08,2.24,3.97,0,6.72Z"/><path class="cls-13" d="m153.49,128.44s.49-.08.49.13c.12,10.8-.13,21.58.24,32.38-1.81.98-3.99.83-5.86,1.34v-33.73l5.13-.13Z"/><path class="cls-32" d="m153.73,99.95c-.08,7.59-.27,15.26-.24,22.84l-5.37.94c.08-7.93-.11-15.86,0-23.78h5.61Z"/><path class="cls-35" d="m153.73,91.89c-.04,2.65.03,5.39,0,8.06h-5.61c.04-2.55-.03-5.11,0-7.66l5.61-.4Z"/></g><path class="cls-16" d="m277.99,200.46c-.03,8.06.02,16.13,0,24.19-18.63.02-37.27-.02-55.9,0,3.49-7.27,17.78-4.29,20.63-5.38.59-.23.63-3.65,5.86-2.96,1.54-5.86,6.45-2.07,7.2-4.43.15-.47-2.03-4.39,6.71-3.09.97-.36-.82-5.32,6.35-3.49.79-4.53,5.42-2.11,6.35-2.42.45-.15.24-2.83,2.81-2.42Z"/><path class="cls-35" d="m260.9,60.98c-5.46.29-10.9.71-16.36,1.08-2.92.2-5.87.14-8.79.54,0-.03-.4-.13-.49-.4-.12-.36.11-1.28,0-1.75,3.81.16,24.14-.79,25.51-.27.22.08.1.58.12.81Z"/><path class="cls-19" d="m254.8,114.19c.05,4.93.24,9.84.24,14.78h-2.44c0-.18-.49-1.4-.49-1.48.06-4.52.37-9.05.49-13.57l2.2.27Z"/><path class="cls-19" d="m248.21,113.39c.1,5.2.23,10.39.24,15.59h-1.95c.1-5.19-.08-10.4,0-15.59h1.71Z"/><path class="cls-34" d="m247.96,108.28c.04,1.68.21,3.4.24,5.11h-1.71c.02-1.54.21-3.03.24-4.57l1.22-.54Z"/><path class="cls-6" d="m235.27,60.44c.11.47-.12,1.38,0,1.75.09.27.48.37.49.4.25.96.67.37.73.67.35,1.6-2.56.99-1.22,5.24q21.36-1.08,42.72-2.15c0,.99,0,1.97,0,2.96q-21.36,1.28-42.72,2.55l.37,2.55q21.18-1.08,42.35-2.15c.02,15.14,0,30.28,0,45.42-1.01,0-1.21.27-1.46-.81-.34-1.41.25-12.96,0-16.39-.24-.8-1.43-.11-2.93.13q.24,9.68.49,19.35c1.1.46-.15.29,0,1.88.02.21.47.06.49.27.56,5.23,2.36,7.15-2.69,7.39.03-.16-.03-.37,0-.54.6-3.63.27-7.99.24-11.69,0-.21-.49,0-.49-.4-.02-4.79.66-9.71.49-14.51-.02-.67.02-1.34,0-2.02-.42-1.18-14.13-.74-15.14.54-.27,3.14.76,22.83,1.22,23.92.1.24.52.11.73.13,0,1.34.24,2.76.24,4.03,0,1.07,0,2.16,0,3.23-.02,5.98.13,12.38,0,18.28-.02.7.19,1.45-.37,1.88-1.23-.17-2.84-.55-4.03-.54.45-6.16.24-12.37.24-18.54,0-1.44,0-2.86,0-4.3,0-4.94-.2-9.86-.24-14.78,0-.45,0-.9,0-1.34-.01-1.34.01-2.68,0-4.03-.02-2.38.8-5.76.24-8.06-.04-.18.1-.45-.37-.81-3.5.95-6.8-.22-10.25.54-1.54,1.18-.16,7.93.37,9.81q.12,7.53.24,15.05c1.94,2.98.45,9.89.98,11.56.07.21.32.14.49.13,0,.09,0,.18,0,.27,0,.03-.47-.09-.49.13-.03.34.26,2.04.24,2.15-.04.22-.44.05-.49.27-.48,2.14.11,5.42-2.93,4.7.23-1.97-.2-3.98-.24-5.91,0-.3.49-.56.49-.67-.05-2.85-.47-5.88-.49-8.73-.03-5.26.28-10.57.24-15.86-.03-4.3.02-8.6,0-12.9l-.12-.54c-1.51.2-10.16-.51-10.62.67l.49,27.95c.22.25,1.12.31,1.46.4-.08,3.99-.19,7.97-.24,11.96,0,.2-.49.07-.49.27-.06,4.39,0,8.78,0,13.17,0,.2.49.07.49.27,0,1.97.06,15.14-.24,15.86-.15.36-3.54,1.66-3.42-.13.03-2.33-.05-4.66,0-6.99.04-2.19-.02-4.29,0-6.45.05-5.48.44-11.05.49-16.53,0-.21-.49,0-.49-.4,0-.03.49-.21.49-.4.03-3.54-.25-7.11-.24-10.62.01-4.47.27-8.95.24-13.44-.03-5.02.02-10.03,0-15.05-.53-1.52-9.4-.83-12.33-.27-.21.04-.1.53-.12.54-.38.05-1.36.07-1.71,0-.11-.02.62-.73-1.95-.81v-7.39l-6.23-.4c-.52.41.14,7,.12,8.06-.07,5.51-.19,10.88,0,16.39.03.79-.13,5.16.12,5.38,2.27-.24,4.48-.9,6.71-1.34.4-.08.76.14,1.22-.27.04,1.95,0,3.71,0,5.64h-7.93c-1.76,3.47,3.04,2.55,8.18,2.15.76-.06.35.86,1.95-.27.31,2.11-.73,1.57-.73,1.75-.2,7.1.03,14.2.98,21.23v22.84l-1.95.13c-.03-2.46.05-4.93,0-7.39,0-.21-.48,0-.49-.4-.02-1.71.25-3.61.24-5.38,0-4.25.28-8.5.24-12.77,0-.05-.49-.68-.49-.94-.02-2.25.72-17.4.24-18.14l-8.18-.13c-.86.42-.34,18.36-.37,20.69-.05,4.53-.03,8.92,0,13.44.01,1.78-.02,3.58,0,5.38.03,2.67-.05,5.4-.24,8.06-1.13.27-2.37.51-3.42,1.08-.56-.79-.69-5.66-.73-8.06-.03-1.44.27-3.06.24-4.57,1.62,2.66,1.79-4.07,0-1.75.1-1.66-.47-3.53.98-4.57.14-9.58-.18-19.18,0-28.76,0-.1.49-.43.49-.54.13-7.7-.2-15.42,0-23.11.05-1.98,1.48-7.04-.49-7.66,0-.81.11-6-.12-6.18h-10.99c-.29.23-.11,6.75-.12,7.79-.08,5.55.01,11.11,0,16.66,0,.53-.33,1.4-.24,3.23.05.98-.23,1.97.37,2.42h10.38c-.14,1.95.1,3.96,0,5.91.46-3.33-5.19-1.38-10.13-1.88-.87,1.67-.1,4.18-.12,4.57,0,.03-.48-.09-.49.13-.32,5.72.05,14.9,0,21.37-.04,4.61-.02,9.1,0,13.71,0,1.75-.57,3.63,0,5.38-1.37.31-2.76.76-4.15,1.08-.01-.24.22-.27.24-.54l1.46-.4c.15-17.69-.3-35.39-.24-53.08.01-3.99-.04-28.25.24-29.7.25-1.27.44-1.68,1.71-1.48.06.06.46,1.87.98.4.72-2.05-4.65-1.45-2.08-3.09,1.33-.85,5.39-.57,6.84-.81.27-.04.39-.79.49-.81,5.13-.69,10.49.17,15.62-.81q8.61.13,17.21.27c.15,1.6.71,2.93,1.46,1.75.64-1.01-.57-21.42,0-24.59.88.08,1.27-.39,1.59-.27.53.37.29.75.37,1.08Z"/><path class="cls-54" d="m277.99,62.59c0,1.25,0,2.51,0,3.76q-21.36,1.08-42.72,2.15l.37-3.49c7.12-.21,14.24-.66,21.36-1.08,7-.41,14-.84,20.99-1.34Z"/><path class="cls-5" d="m277.99,69.31c0,.99,0,1.97,0,2.96q-21.18,1.08-42.35,2.15l-.37-2.55q21.36-1.28,42.72-2.55Z"/><path class="cls-26" d="m131.52,69.85c.02.63-.03,1.26,0,1.88.09,2.05-.25,2.68-.24,2.82,0,.22.49.11.49.13.03,1.16-.03,2.33,0,3.49.02.63-.01,1.23,0,1.88.01.63-.01,1.25,0,1.88.01.69-.68,2.56.12,2.96,3.44-.11,24.41-.37,25.63-.81.1-.04,1.36-1.63,1.34-1.75-.13-.78-2.12-.31-1.71-1.48,16.4-.63,32.94-.77,49.31-1.88.28,1.39-1.02.53-1.59.81-.18.09-2.25,1.82-3.17,2.15-1.35.49-2.81-.25-5.13,1.34q-13.43.27-26.85.54c-2.97,2.45.64,1.88,1.59,3.23-.5-.37-3.26-.37-3.42-.27-.63.38.07,4.5-.37,4.84-4.15.41-10.54-1.15-9.64,1.48-2.57-.06-.95,2.84-2.44,2.55.08-5.54-.82-8.51,1.71-8.47h-3.42c0,1.48,0,2.96,0,4.43-2.67-.11-5.17-.02-7.81.54-.46.1-1.09-.07-1.59,0-.21.06-.1.53-.12.54-5.63,1.69-1.96.09-3.54-.81-.42-.24-8.5,0-9.4.27-.78.24-1.63,1.29-2.44,1.34,0-2.76-.2-5.6.24-8.33.5,0,.89.14,1.22-.4q-.12-9.47-.24-18.95c2.06-.58,1.38.92,1.46,4.03Z"/><path class="cls-26" d="m233.32,59.64c-.57,3.17.64,23.59,0,24.59-.76,1.18-1.32-.15-1.46-1.75-.32-3.44.69-7.52-.49-8.87,1.22-.36.71-1.77.61-2.96-18.42.96-36.86,1.3-55.29,1.88-2.71-.99-7.17,1.03-8.3-1.88,15.07-.52,30.23-.57,45.28-1.34,2.43-.13,16.49-.85,17.33-1.08,1.79-.47,1.12-2.85.98-2.96-.71-.55-16.39,1.89-17.09,1.34-.17-.13-.19-2.45-.12-2.55.5-.78,16.19-.98,17.21-1.48.65-.32.27-2.05.37-2.69.06,0-.37-.4.98-.27Z"/><path class="cls-44" d="m130.05,65.82q.12,9.47.24,18.95c-.33.54-.72.4-1.22.4-.08,0-1.39-.53-1.46-.54,2.19-3.57,1.2-4.57,1.22-4.84.06-.62.21-1.16.24-1.88.14-2.98-.28-6.2,0-9.14.25-2.69.06-2.7.98-2.96Z"/><path class="cls-38" d="m128.83,116.61c.04,10.07.11,20.16.24,30.23,0,.2-.49.07-.49.27.33.05.73.72.73.81.08,6.09,0,12.19.24,18.28-.07.17-1.24.57-1.46.67-.04-4.21.05-8.42,0-12.63-.01-1.16.01-2.33,0-3.49-.13-11.38-.3-22.76-.49-34.13h1.22Z"/><path class="cls-46" d="m127.61,84.63c.08,0,1.39.54,1.46.54-.45,2.73-.24,5.58-.24,8.33,0,7.7-.03,15.41,0,23.11h-1.22c-.05-3.17.4-23.59-.24-24.59-.6-.93-2.23,2.8-1.71-6.99.24-.59,1.47-.43,1.95-.4Z"/><path class="cls-38" d="m129.08,77.91c-.03.72-.19,1.26-.24,1.88-2.19.35-2.14-2.54.24-1.88Z"/><path class="cls-6" d="m230.63,100.49l-10.5.13c-.04,5.69.05,11.38,0,17.07-.03,3.71-.22,7.43-.24,11.15,0,.21.49,0,.49.4-.03,5.01-.26,10.02-.24,15.05.02,4.77-.31,9.58-.24,14.38,0,.21.48,0,.49.4.04,2.06-.06,4.07,0,6.18.08,2.85-.08,5.75,0,8.6-1.14.25-2.28.55-3.42.81v-.81l1.95-.13v-22.84c-.95-7.03-1.18-14.13-.98-21.23,0-.18,1.04.37.73-1.75q-.24-13.57-.49-27.14s-.08-.5.12-.54c2.93-.56,11.8-1.25,12.33.27Z"/><path class="cls-26" d="m204.02,164.72c0-.58-.24-.6-.24-.81-.06-4.45-.26-9.01-.24-13.44,0-.31.49-.56.49-.67.04-7.12-.03-14.24,0-21.37l.24-.27c.1-1.96-.14-3.96,0-5.91,0-.03.48-.2.49-.4.13-2.27-.1-4.58,0-6.85.02-4.93-.03-9.85,0-14.78,0-.1.23-.27.24-1.88,1.96.62.54,5.67.49,7.66-.2,7.69.13,15.42,0,23.11,0,.1-.49.43-.49.54-.18,9.58.14,19.18,0,28.76-1.45,1.04-.88,2.91-.98,4.57,1.79-2.33,1.62,4.4,0,1.75Z"/><path class="cls-6" d="m218.18,100.76q.24,13.57.49,27.14c-1.61,1.13-1.19.21-1.95.27.16-1.48-.24-2.04-.24-2.15,0-1.93.04-3.69,0-5.64-.02-.89.01-1.79,0-2.69,0-.45,0-.9,0-1.34-.06-5.19.04-10.39,0-15.59.34.07,1.33.05,1.71,0Z"/><path class="cls-38" d="m192.79,87.32c-1.27-.2-1.46.21-1.71,1.48-.29,1.45-.23,25.7-.24,29.7h-1.46c.02-.54-.02-1.08,0-1.61,0-.09,0-.18,0-.27.18-5.58.22-11.08.24-16.66.01-2.55-.04-5.11,0-7.66,0-.22-.49-.11-.49-.13,0-.41.48-.19.49-.4.07-2.53-.68-8.25,3.17-4.43Z"/><path class="cls-8" d="m204.75,115c-.1,2.27.13,4.59,0,6.85-.01.2-.49.37-.49.4h-10.38c-.6-.45-.32-1.44-.37-2.42,3.43-.13,7.14-1.66,10.13-2.15.28-.14-.32-.45-.12-.81.03-.06.64.13.73-.13.2-.55-.42-1.92.49-1.75Z"/><path class="cls-6" d="m277.99,60.17c0,.81,0,1.61,0,2.42-6.99.5-13.99.93-20.99,1.34-3.54-1.13-11.73,1.72-12.45-1.88,5.46-.36,10.89-.79,16.36-1.08,5.69-.3,11.39-.61,17.09-.81Z"/><path class="cls-11" d="m244.54,62.06c.72,3.61,8.91.75,12.45,1.88-7.12.42-14.24.87-21.36,1.08l-.37,3.49c-1.34-4.25,1.57-3.64,1.22-5.24-.07-.3-.48.28-.73-.67,2.92-.4,5.86-.34,8.79-.54Z"/><path class="cls-23" d="m242.84,100.49l-8.54.13c-.33,4.76.34,9.65.24,14.38,0,.25-.49.89-.49.94-.1,4.34.09,8.69,0,13.03-.34-.09-1.24-.15-1.46-.4l-.49-27.95c.46-1.18,9.11-.48,10.62-.67l.12.54Z"/><path class="cls-23" d="m234.54,129.24c-.49,3.64-.18,7.36-.24,11.02-.08,5.15,0,10.18,0,15.32,0,2.24,0,4.48,0,6.72,0,2.92-.5,5.93-.24,8.87-1.3.29-2.6.51-3.91.81v-1.61c-.12,1.79,3.26.49,3.42.13.31-.72.25-13.89.24-15.86,0-.2-.49-.07-.49-.27,0-4.39-.06-8.78,0-13.17,0-.2.49-.07.49-.27.06-3.99.17-7.97.24-11.96.68.18.46.26.49.27Z"/><path class="cls-23" d="m255.04,100.76c-3.51-1.5-2.28,1.24-2.44,7.79-.03,1.16.03,2.33,0,3.49-.02.63.02,1.26,0,1.88-.12,4.52-.43,9.05-.49,13.57,0,.08.49,1.3.49,1.48-.02,1.75-.23,3.58-.24,5.38-.05,5.94,0,11.81,0,17.74,0,2.46-.51,5.03-.24,7.53-1.2.21-2.46.34-3.66.54.22-2.24-.19-4.5-.24-6.72-.14-5.41-.26-10.99-.24-16.39,0-.03.49-.21.49-.4,0-2.55,0-5.11,0-7.66-.02-5.2-.15-10.39-.24-15.59-.03-1.71-.2-3.42-.24-5.11-.03-1,1.22-9.61-1.1-7.79-.71.55-.1,7.21-.12,8.33-.03,1.54-.22,3.03-.24,4.57-.08,5.19.1,10.4,0,15.59-.05,2.69.04,5.38,0,8.06-.17,0-.42.07-.49-.13-.53-1.67.96-8.58-.98-11.56q-.12-7.53-.24-15.05c-.53-1.88-1.91-8.63-.37-9.81,3.45-.76,6.75.41,10.25-.54.47.36.32.63.37.81Z"/><path class="cls-23" d="m272.13,102.37c-.6-.43.14-1.79-.61-2.15-.57-.27-10.4.21-12.45,0-1.04.51.11,13.7.12,15.59.01,3.01-.25,6.1-.24,9.14-.22-.03-.63.11-.73-.13-.46-1.09-1.49-20.78-1.22-23.92,1.01-1.28,14.71-1.72,15.14-.54.02.67-.02,1.35,0,2.02Z"/><path class="cls-23" d="m276.52,100.49c-.32-.07-.88.03-.98.4-.67,2.47.45,12.92.49,16.26,0,.04-.49.54-.49.67.02,2.61-.52,8.82.73,10.35l-.24.81c-1.43.42-2.93.79-4.39,1.08,0-.23.19-.27.24-.54,5.05-.24,3.25-2.16,2.69-7.39-.02-.21-.47-.06-.49-.27-.15-1.59,1.1-1.42,0-1.88q-.24-9.68-.49-19.35c1.5-.25,2.69-.94,2.93-.13Z"/><path class="cls-60" d="m276.52,100.49c.25,3.44-.34,14.98,0,16.39l-.49.27c-.04-3.34-1.16-13.79-.49-16.26.1-.37.65-.47.98-.4Z"/><path class="cls-23" d="m246.5,137.31c-.03.19.08.31.24.27-1.03,6.27,1.76,8.32-3.91,6.99,3.04.72,2.45-2.56,2.93-4.7.05-.22.45-.05.49-.27.02-.11-.28-1.81-.24-2.15.02-.22.49-.11.49-.13Z"/><path class="cls-50" d="m276.04,128.97l.24-.81c.39.48.8.09.73.67-.17.29-.71.06-.98.13Z"/><path class="cls-38" d="m168.38,70.66c1.13,2.91,5.59.89,8.3,1.88-13.85.44-27.8.48-41.62,1.34-.79.05-3.44.2-3.3.81,0-.03-.48.09-.49-.13,0-.14.33-.77.24-2.82,12.3.23,24.58-.65,36.86-1.08Z"/><path class="cls-26" d="m131.27,92.16v10.75c.01,2.15-.02,4.3,0,6.45.01,1.79-.02,3.58,0,5.38.04,3.4.02,6.81.12,10.21.45.37,8.52-2.08,9.89-2.15.91-.04,1.84.22,2.69.54-.02.09.02.19,0,.27-.16.6.2,1.53-.12,2.15l-6.71,3.49c-.04-.11-.05-.61-.37-1.08h-5.13c-.26.2-.08,1.23-.12,1.61-.03.26.02.54,0,.81-.26,4.47.02,11.2,0,16.13,0,.54,0,1.08,0,1.61,0,1.61,0,3.23,0,4.84,0,1.52,0,3.05,0,4.57,0,2.24.01,4.48,0,6.72,0,.72,0,1.43,0,2.15-.02,2.84.33,7.71.24,9.68-.02.38-.26,2.87-.37,2.96-.13.1-3.04.1-3.17,0-.13-.1-.35-3.04-.37-3.49-.1-2.79.78-5.79,0-8.6.02,0-.1-.11.24-.27.22-.1,1.4-.5,1.46-.67-.25-6.09-.17-12.18-.24-18.28,0-.09-.4-.75-.73-.81,0-.2.49-.07.49-.27-.13-10.07-.2-20.16-.24-30.23-.03-7.7,0-15.41,0-23.11.81-.05,1.66-1.11,2.44-1.34Z"/><path class="cls-11" d="m153.73,91.62c0,.09,0,.18,0,.27l-5.61.4c-.03,2.55.04,5.11,0,7.66-.11,7.92.08,15.86,0,23.78l5.37-.94c0,1.07,0,2.17,0,3.23-.89.1-6.99-.74-5.37,1.75.23.36,4.8,0,5.61.13,0,.25-.25.28-.24.54l-5.13.13v33.73c-.1.03-.28.37-1.95.81-.69-14.51-.51-29.02-.49-43.54.01-9.14-.01-18.28,0-27.41,2.64-.56,5.14-.65,7.81-.54Z"/><path class="cls-35" d="m206.46,78.99c-16.37,1.11-32.91,1.25-49.31,1.88-8.46.32-16.93.77-25.39,1.08-.01-.63.01-1.25,0-1.88,10.98-.64,21.97-.93,32.96-1.34,9.12-.34,29.71-1.66,36.5-1.34.19,0,.06.53.24.54,2.98.16,6.05.46,9.03.27v.54c-1.35-.05-2.68.18-4.03.27Z"/><path class="cls-38" d="m157.15,80.87c-.41,1.17,1.58.7,1.71,1.48.02.11-1.24,1.71-1.34,1.75-1.22.44-22.2.7-25.63.81-.8-.39-.11-2.27-.12-2.96,8.46-.31,16.93-.75,25.39-1.08Z"/><path class="cls-38" d="m171.31,87.05c1.36.45-1.29-.24-1.71,1.21.23,16.97.74,34-.49,50.93-.06-2.76-.66-7.38-.73-10.75-.06-2.75.06-5.49,0-8.2,0-.22-.49-.11-.49-.13-.15-6.65.31-13.47.24-20.16-.02-2.55.08-5.11,0-7.66,0-.22-.49-.11-.49-.13,0-.27.48-3.19.24-5.38.16-.1,2.92-.1,3.42.27Z"/><path class="cls-38" d="m163.74,76.3l.98,2.42c-10.99.42-21.98.71-32.96,1.34-.01-.65.02-1.25,0-1.88,10.65-.63,21.32-1.42,31.98-1.88Z"/><path class="cls-46" d="m145.92,92.16c-.01,9.14.01,18.28,0,27.41-.87.61-.84,1.87-1.71,1.61.29-6.97-.21-13.99,0-20.96v-7.53s-.09-.48.12-.54c.5-.07,1.13.1,1.59,0Z"/><path class="cls-11" d="m231.36,73.61c1.18,1.35.17,5.43.49,8.87q-8.61-.13-17.21-.27c-5.13.98-10.5.11-15.62.81-.1.01-.22.76-.49.81-1.45.23-5.51-.04-6.84.81-2.57,1.64,2.79,1.04,2.08,3.09-.51,1.47-.91-.34-.98-.4-3.85-3.81-3.11,1.91-3.17,4.43,0,.21-.48,0-.49.4h-16.72c-.25,2.68-.08,5.38-.12,8.06,0,.27,0,.54,0,.81-.26-.04-.32-1.3-.85-.81-.75.69-.52,19.17.85,21.37v5.91c.08.25.45.09.49.13s-.1.45.12.54h16.11c.43-1.59-.13-1.79-.12-1.88.16-1.85.14-3.55.24-5.38.04-.77.21-1.59.24-2.42h1.46c-.05,17.69.4,35.39.24,53.08l-1.46.4c.14-1.47-.25-2.91-.24-4.3.02-4.59.03-9.11,0-13.71-.05-8.45.23-16.94,0-25.4q-8.12-.07-16.23-.13c-.48,9.67.12,19.36.12,29.03,0,4.31-.22,8.71-.24,13.03,0,.11.49.36.49.67,0,1.53.04,3.97,0,5.11,0,.03-.21-.02-.49.4-.23,5.06,1.26,10.76-3.42,6.18.18-1.59-.14-3.14-.24-4.7-.13-1.99-.2-4.19-.24-6.18-.1-4.43.08-8.96,0-13.44-.11-6.42.14-12.89,0-19.35,1.23-16.93.72-33.96.49-50.93.41-1.45,3.07-.76,1.71-1.21-.95-1.35-4.55-.77-1.59-3.23q13.43-.27,26.85-.54c2.32-1.59,3.78-.86,5.13-1.34.92-.33,2.99-2.06,3.17-2.15.57-.27,1.87.59,1.59-.81,1.35-.09,2.67-.32,4.03-.27v-.54c-2.98.19-6.05-.11-9.03-.27-.19-.01-.06-.53-.24-.54-6.79-.32-27.38,1-36.5,1.34l-.98-2.42c9.99-.44,63.71-1.54,67.62-2.69Z"/><path class="cls-6" d="m172.16,149.4c.17-.04.51-.06.61.13.47.94.29,18.94.24,21.5-.02,1.11-1.15,2.06,0,5.11-3.17,1.76-.68-1.23-2.2-2.15.75-2.59-.02-6.08,0-7.53,0-.81.72-3.05.73-3.49.03-1.19-.57-13.26.61-13.57Z"/><path class="cls-38" d="m155.44,95.65c-.14,9.92.74,67.37,0,70.82-.04.2-.32.14-.49.13-.29-7.86-.72-5.34-.73-5.64-.37-10.8-.13-21.58-.24-32.38,0-.22-.49-.11-.49-.13,0-.25.25-.28.24-.54-.02-1.61-.24-1.79-.24-1.88,0-1.05,0-2.16,0-3.23-.02-7.58.17-15.25.24-22.84.03-2.67-.04-5.41,0-8.06,0-.09,0-.18,0-.27,0-1.48,0-2.96,0-4.43h3.42c-2.53-.05-1.63,2.92-1.71,8.47Z"/><path class="cls-11" d="m167.65,92.16h-9.4c-.29.23-.11,6.75-.12,7.79-.1,7.3.08,14.6,0,21.9l.37.4q4.7-1.08,9.4-2.15s.48-.09.49.13c.06,2.7-.06,5.45,0,8.2-9.06-.64-5.6,1.48-6.47,2.15-.25.19-3.04-.26-3.3.13-.79,1.22,0,26.28,0,29.97,0,4.34-.03,8.69,0,13.03,0,.21.49,0,.49.4,0,.03-.49.21-.49.4,0,1.83.11,3.67,0,5.51-.19.05-1.43.86-3.66,1.34v-6.18c-.08-2.86.11-5.74,0-8.6.16,0,.45.07.49-.13.74-3.44-.14-60.89,0-70.82,1.5.28-.13-2.61,2.44-2.55-.89-2.63,5.49-1.07,9.64-1.48.44-.34-.26-4.46.37-4.84.23,2.19-.25,5.11-.24,5.38Z"/><path class="cls-6" d="m164.11,122.26c.35-.11,2.74,1.49,3.78,1.21.97,4.89-2.33,2.78-8.06,3.23l.12-.67c5.34.16,1.74-3,4.15-3.76Z"/><path class="cls-60" d="m247.96,108.28l-1.22.54c.03-1.12-.59-7.78.12-8.33,2.32-1.82,1.07,6.8,1.1,7.79Z"/><path class="cls-38" d="m146.41,163.11c-.66.17-1.1.18-1.46.27q-.12-16.33-.24-32.65c-.16-.31-.48-1.91-.49-2.02-.06-1.53.73-4.74-.24-5.11.02-.08-.02-.18,0-.27,0-.03.45-.18.49-.4.01-.09-.25-1.53-.24-1.75.87.26.84-1,1.71-1.61-.02,14.51-.2,29.03.49,43.54Z"/><path class="cls-23" d="m204.26,128.17l-.24.27c-1.13.52-6.44.06-6.71.27-.62.48,1.42,2.74-3.3,2.15.03-.39-.75-2.9.12-4.57,4.94.5,10.59-1.45,10.13,1.88Z"/><path class="cls-23" d="m216.47,126.02c0,.11.41.67.24,2.15-5.14.4-9.94,1.32-8.18-2.15h7.93Z"/><path class="cls-6" d="m172.29,101.02c-.05,4.66-.03,9.33.24,13.98.04.74-.15,4.02.12,4.3q8.24.81,16.48,1.61c-.1,1.82-.08,3.53-.24,5.38-2.03.39-15.34-.51-15.99,0-.26.2-.07.99-.12,1.34-.04-.05-.4.11-.49-.13v-5.91c-1.37-2.2-1.6-20.67-.85-21.37.54-.5.59.77.85.81Z"/><path class="cls-23" d="m188.89,126.29c0,.09.55.29.12,1.88h-16.11c-.22-.09-.08-.49-.12-.54.05-.35-.13-1.14.12-1.34.65-.51,13.96.39,15.99,0Z"/><path class="cls-6" d="m144.21,128.71c-2.57-.31-2.71,1.76-7.08,1.08,0-.03,0-.51,0-.54l6.71-3.49c.32-.62-.04-1.55.12-2.15.97.36.18,3.58.24,5.11Z"/><path class="cls-6" d="m153.49,126.02c0,.1.23.27.24,1.88-.81-.12-5.38.22-5.61-.13-1.62-2.48,4.48-1.64,5.37-1.75Z"/><path class="cls-27" d="m.63,44.16c-.41,12.89.09,75.48-.63,88.48V41.46c.28.88.53,1.83.63,2.7Z"/><path class="cls-22" d="m277.46,92.38c2.07-.6,2.34-2.76,2.84-4.56,4.91-17.79,3.67-48.34,4.06-67.67,2.53-2.06,5.32-4.53,7.71-6.75-.83,8.58-.2,17.21-.41,25.8-.24,9.9-.56,19.72-1.62,29.57-1.1,2.53-1.23,5.27-1.62,7.94-.05.32-.76.08-.81.4-.43,2.88.07,7.81-1.62,10.32-.09,2.64-.37,5.54-.81,8.14-.97,5.68-1.54,11.44-2.84,17.07-1.42,6.13-1.9,11.23-4.87,9.92,0-10.05.02-20.11,0-30.16Z"/><path class="cls-22" d="m277.46,27.29c.01-.1.63.25.41-1.98,2.31-1.54,4.36-3.41,6.49-5.16-.39,19.33.85,49.88-4.06,67.67-.5,1.81-.77,3.96-2.84,4.56-.02-12.31-.51-60.39,0-65.09Z"/><path class="cls-56" d="m301.4,4.15v6.8c-2.89,2.19-6.66,1.38-8.12,3.45-.18,8.26.25,16.55,0,24.8h-1.62c.21-8.59-.42-17.22.41-25.8,3.2-2.96,5.98-6.42,9.33-9.25Z"/><path class="cls-22" d="m277.46,122.55c2.97,1.31,3.45-3.79,4.87-9.92.36.04,1.05-.16,1.22.2.45.95.2,18.77,0,21.04-.48,5.44-2.66,10.92-3.65,16.27-.82,4.41.58,7.73-2.03,6.95.01-11.52-.41-23.01-.41-34.53Z"/><path class="cls-56" d="m301.4,10.94v234.72c-1.06-1.18-3.31-2.64-4.87-4.05-.82-.74-1.46-1.08-2.03-1.58-2.2-1.95-4.23-3.68-6.5-5.56-3.05-2.52-5.87-5.42-8.93-7.94-.18-1.52-.14-2.15-2.03-2.39.29-22.35.79-44.72.81-67.07,2.61.78,1.21-2.54,2.03-6.95.99-5.36,3.17-10.84,3.65-16.27.2-2.27.45-20.08,0-21.04-.17-.35-.86-.16-1.22-.19,1.31-5.63,1.87-11.39,2.84-17.07q.41,1.29.81,2.58c.56-8.18,1.48-15.43,4.47-23.02.16-.41-.95-2.59.81-1.19.56,14.93.13,29.93.41,44.85,0,.13.81,2.25.81,2.38.09,6.18-.14,12.48-.41,18.65h.81q-.4-38.5-.81-77c.6-7.85.98-15.74,1.22-23.61.25-8.25-.18-16.55,0-24.8,1.46-2.07,5.22-1.26,8.12-3.45Z"/><path class="cls-56" d="m291.66,39.2h1.62c-.24,7.87-.61,15.76-1.22,23.62l.81,77h-.81c.27-6.18.5-12.48.41-18.65,0-.13-.81-2.26-.81-2.38-.27-14.92.15-29.92-.41-44.85-1.76-1.4-.65.79-.81,1.19-2.98,7.59-3.9,14.84-4.46,23.02l-.81-2.58c.45-2.6.73-5.49.81-8.14,1.7-2.51,1.2-7.44,1.62-10.32.05-.32.76-.08.81-.4.4-2.66.52-5.41,1.62-7.94,1.06-9.85,1.38-19.67,1.62-29.57Z"/><path class="cls-56" d="m284.76,188.23c.03-13.32.61-26.58,1.01-39.89.29,10.87,1.43,73.88.2,77.59-.07.21-.7.8-.81.4.46-12.69-.43-25.43-.41-38.1Z"/><path class="cls-39" d="m7.94,240.82c-.59.51-1.08,1.12-1.62,1.58-1.57,1.36-3.36,2.51-4.9,3.92H0v-113.7c.72-13,.22-75.59.63-88.48-.1-.87-.36-1.83-.63-2.7V0h.61c.17.1.36.23.57.37.11.07.23.16.34.24.21.16.44.33.68.53.15.11.3.23.46.35,1.38,1.06,2.4,2.93,4.06,3.77q-.61,93.67-1.22,187.34c2.19,6.97-.13,43.04.41,45.24.83,3.43,4.95-3.55,2.03,2.98Z"/><path class="cls-59" d="m24.99,157.47c.1-27.91.06-55.83,0-83.74-.04-17.47.14-34.93-.41-52.39.7.37,3.05.23,3.45.4.13.06.55,2.05,1.62,2.38,1.06.32,6.58-.46,6.7,1.19-8.28-.59-5.68,1.26-6.09,1.59-.2.16-.71-.82-1.22-.2.74,37.1.41,74.22.41,111.33v86.92c-1.47.11-2.59-.28-4.06.4l-1.22-1.19c1.42-22.17.73-44.46.81-66.68Z"/><path class="cls-56" d="m17.68,16.18c2.01,1.54,3.88,3.07,6.09,4.37.05.03.06.39.81.79.55,17.46.37,34.92.41,52.39-1.07-3.38.05-7.12-.41-10.52-.05-.36-1.67.17,0-1.59-1.91-.94-2.47,1.15-3.65.4-2.76-1.75-4.19-40.39-3.25-45.84Z"/><path class="cls-59" d="m301.4,0v4.15c-3.36,2.83-6.13,6.29-9.33,9.25-2.4,2.22-5.19,4.69-7.72,6.75-2.14,1.74-4.18,3.62-6.49,5.15-23,.05-46.01-.06-69.01,0-57.5.16-115.01-.11-172.51,0-.11-1.64-5.64-.86-6.7-1.19-1.08-.33-1.49-2.32-1.62-2.38-.4-.17-2.76-.03-3.45-.39-.76-.4-.76-.77-.81-.8v-.39c.23.11,1.64.32,2.64,1.19,83.75.55,167.5.6,251.25,0,.93-.18,9.95-9.25,11.57-10.72.86-.78,1.61-1.62,2.44-2.38.71-.65,1.35-1.36,2.03-1.99,1.96-1.78,4.95-4.52,7.1-6.26h.61Z"/><path class="cls-59" d="m300.8,0c-2.15,1.74-5.14,4.48-7.1,6.26q-1.11-1.19-2.23-2.38c-30.03.81-60.09-.61-90.11,0-9.54.19-20.17-.08-29.22,1.58-1.22.23-1.9,1.56-2.03,1.59-4.49.94-73.06-.62-86.06-.4q.21-.79.41-1.58h62.1c6.21-5.67-10.3-1.67-10.75-4.77,33.63-.09,67.24.45,100.86.8.68-.03,1.33-.07,1.97-.1.48-.03.93-.05,1.38-.07,1.35-.07,2.59-.13,3.75-.19.41-.03.81-.05,1.2-.07.23-.01.46-.02.7-.03.34-.02.67-.03.99-.05.68-.03,1.32-.07,1.94-.1.62-.03,1.22-.06,1.79-.09.96-.05,1.85-.09,2.73-.14.18-.01.35-.02.53-.03.08,0,.15,0,.23-.01.27-.01.53-.03.8-.04.03,0,.06,0,.09,0,.29-.01.6-.03.89-.05.69-.04,1.38-.07,2.09-.11h43.06Z"/><path class="cls-59" d="m257.73,0c-.71.03-1.4.07-2.09.11-.29.01-.6.03-.89.05-.03,0-.06,0-.09,0-.27.01-.53.03-.8.04-.08,0-.15,0-.23.01-.18,0-.35.01-.53.03-.88.05-1.77.09-2.73.14-.58.03-1.17.06-1.79.09-.62.03-1.26.07-1.94.1-.32.02-.65.03-.99.05-.23.01-.46.02-.7.03-.39.02-.79.04-1.2.07-1.16.06-2.4.12-3.75.19-.44.02-.91.05-1.38.07-.63.03-1.29.07-1.97.1-33.62-.34-67.23-.88-100.86-.8-17.17.05-34.37.3-51.55.4-13.62.07-27.35.29-40.79-.4C30.13,3.53,15.8-.62,2.66,1.49c-.16-.12-.31-.24-.46-.35-.24-.19-.47-.37-.68-.53-.12-.09-.24-.17-.34-.24-.21-.15-.4-.27-.57-.37h257.13Z"/><path class="cls-51" d="m84.25.7c17.18-.1,34.38-.35,51.55-.4.46,3.09,16.96-.9,10.76,4.76h-62.1l-.41,1.59c12.99-.22,81.56,1.34,86.05.4.13-.03.82-1.36,2.03-1.59,9.05-1.67,19.68-1.4,29.22-1.59,30.02-.61,60.09.81,90.11,0l2.23,2.38c-.68.62-1.32,1.34-2.03,1.98q-29.93.6-59.87,1.19c-.9,1.75,1.2.63,1.01,1.98-5.82.48-3.6,1.55-3.86,1.59-.3.04-4.38-.22-6.09,0-3.36.43-7.5,1.7-10.96,1.98-8.9.73-20.44.65-29.63.79-54.88.87-109.9-1.55-164.79-1.19,1.06,1.06,5.92,5.36,6.29,5.56v.4c-2.2-1.29-4.08-2.83-6.09-4.37-.81-.62-1.63-1.34-2.44-1.98-1.78-1.42-3.64-3.88-4.46-3.37-.55,37.59,1.77,75.13,2.03,112.72,1.57,19,2.23,38.92,4.87,57.15v48.22c-1.97,1.65-5.44,6.93-6.49,4.56.22-52.7-.61-105.58-.61-158.16q-.1,1.09-.2,2.18h-.81c.18-16.01-1.41-32.03-1.62-48.02-.1-7.35,1.05-14.93.81-22.23,0-.26-1.5-.87-1.22-1.98,21.24-3.14,52.83-1.03,71.24-2.98,1.83-.19,3.8-.82,5.48-1.59Z"/><path class="cls-51" d="m232.81,11.42c18.63-1.54,37.74-.1,56.42-.79-1.62,1.47-10.65,10.54-11.57,10.72-83.75.6-167.5.56-251.25,0-1-.86-2.41-1.08-2.64-1.19-.38-.19-5.23-4.5-6.29-5.56,54.89-.36,109.91,2.06,164.79,1.19,9.19-.15,20.74-.06,29.63-.79,3.46-.29,7.6-1.55,10.96-1.98,1.71-.22,5.79.04,6.09,0,.25-.03-1.96-1.11,3.86-1.59Z"/><path class="cls-59" d="m291.66,8.24c-.83.76-1.58,1.6-2.44,2.38-18.68.7-37.79-.75-56.42.79.18-1.35-1.92-.23-1.01-1.98q29.93-.6,59.87-1.19Z"/><path class="cls-59" d="m84.25.7c-1.68.76-3.65,1.39-5.48,1.59-18.41,1.94-49.99-.16-71.24,2.98-.28,1.12,1.21,1.72,1.22,1.98.24,7.29-.91,14.88-.81,22.23.21,15.99,1.81,32.01,1.62,48.02h.81q.1-1.09.2-2.18c0,52.59.83,105.47.61,158.16,1.06,2.37,4.52-2.92,6.49-4.56,2.04-1.71,4.12-3.49,6.49-4.76l1.22,1.19c-.42.19-5.51,5.5-6.49,6.35-2.6.83-4.27,3.68-6.09,5.16-1.64,1.33-3.27,2.58-4.87,3.97,2.92-6.53-1.2.45-2.03-2.98-.53-2.2,1.79-38.27-.41-45.25L6.72,5.26c-1.66-.85-2.69-2.71-4.06-3.77C15.8-.61,30.12,3.53,43.46.3c13.45.69,27.17.47,40.79.4Z"/><path class="cls-53" d="m15.25,14.19c-.27,0-.74-.1-.81.2-1.4,5.74,1.37,43.94,2.03,53.18.03.37,1.19.03,1.22.4,1.09,14.59-1.16,69.47,0,75.81.07.38,1.13.01,1.22.4.26,1.17,1.22,8.8,3.04,7.34.43-.35-.09-2.26.81-2.38,2.26-.31,1.56,7.01,2.23,8.33-.08,22.22.61,44.51-.81,66.68-2.37,1.27-4.45,3.06-6.49,4.76v-48.22c-2.64-18.23-3.3-38.15-4.87-57.15-.26-37.59-2.58-75.12-2.03-112.72.83-.51,2.68,1.96,4.46,3.37Z"/><path class="cls-48" d="m15.25,14.19c.81.64,1.62,1.36,2.44,1.98-.95,5.45.49,44.09,3.25,45.84,1.18.75,1.74-1.34,3.65-.4-1.67,1.75-.05,1.23,0,1.59.45,3.4-.67,7.14.41,10.52.06,27.91.1,55.83,0,83.74-.67-1.33.03-8.64-2.23-8.33-.9.12-.38,2.04-.81,2.38-1.82,1.46-2.78-6.18-3.04-7.34-.09-.39-1.15-.01-1.22-.4-1.16-6.33,1.09-61.22,0-75.81-.03-.37-1.19-.03-1.22-.4-.66-9.24-3.42-47.45-2.03-53.18.07-.29.54-.2.81-.2Z"/><path class="cls-18" d="m301.4,245.66v.67H8.17c-.68-1.44-.86-1.84-1.85-3.92.54-.47,1.03-1.07,1.62-1.58,1.6-1.4,3.23-2.64,4.87-3.97v.39q-.91,1.19-1.82,2.39c21.64-.67,43.3-.43,64.94-.4,2.53,0,5.59.8,8.12.8,35.59-.04,71.17-2.23,106.75-.8q10.66-.59,21.32-1.19c15.18,1.18,30.47.4,45.66,1.19,12.83.67,25.94,4.1,38.77,2.38,1.56,1.41,3.8,2.87,4.87,4.05Z"/><path class="cls-56" d="m8.17,246.33H1.42c1.53-1.42,3.33-2.56,4.9-3.92.98,2.09,1.17,2.49,1.85,3.92Z"/><path class="cls-48" d="m210.89,224.55c8.52,3.16,19.47,1.03,29.02,1.19.07,0,1.14.79,1.22.79,10.21.16,28.11-.98,36.94,0,.31.03,1.04,1.62,1.01,0,3.06,2.52,5.88,5.42,8.93,7.94-7.97-.93-15.92-1.74-23.95-1.98-22.08-.69-44.28.58-66.36,0-7.71-.2-15.44-1.15-23.14-1.59-3.33-.19-15.17.34-16.24,0-.25-.08-3.36-3.27-2.03-3.97-11.91-.4-23.82-.43-35.72-.79-.19,0,.74-.93-3.25,0-4.64-1.19-12.34-.3-17.86-.4-2.13-.04-4.77-.76-6.9-.79-21.03-.32-42.09.26-63.12,0v-.4c60.48.02,120.96-.03,181.44,0Z"/><path class="cls-48" d="m260,236.85c.06-.01-.18-1.07.2-1.19,3.03-.07,4.98.11,3.86-3.18,8.03.25,15.98,1.05,23.95,1.98,2.27,1.87,4.3,3.61,6.49,5.56-11.62.73-23.61-1.08-34.91-2.58l.41-.6Z"/><path class="cls-48" d="m212.11,237.25c6.53-.01,45.55.06,47.9-.4l-.41.6c11.3,1.5,23.29,3.31,34.91,2.58.57.51,1.21.85,2.03,1.59-12.83,1.72-25.93-1.71-38.76-2.38-15.19-.79-30.48,0-45.66-1.19v-.79Z"/><path class="cls-51" d="m277.05,224.15c1.89.23,1.85.86,2.03,2.38.03,1.62-.7.03-1.01,0-8.83-.98-26.73.16-36.94,0-.07,0-1.14-.79-1.22-.79-9.55-.16-20.5,1.97-29.02-1.19,9.86,0,62.88-.8,66.16-.4Z"/><path class="cls-56" d="m25.39,225.34c1.47-.68,2.59-.29,4.06-.4,21.03.26,42.09-.32,63.12,0,2.13.03,4.77.75,6.9.79,5.52.1,13.22-.79,17.86.4,3.99-.93,3.05,0,3.25,0,11.9.36,23.81.39,35.72.79-1.33.7,1.78,3.89,2.03,3.97,1.07.34,12.91-.19,16.24,0,7.7.43,15.42,1.38,23.14,1.59,22.09.58,44.29-.69,66.36,0,1.13,3.29-.83,3.11-3.86,3.18-.38.12-.14,1.18-.2,1.19-2.35.46-41.37.38-47.9.4-24.49.06-48.96-.51-73.47-.4,3.06-1.75,1.66.23,3.86-2.78.26-.36.75.64,1.01.2,1.02-1.72-3.09-.88-2.64-2.58-40.72,1.06-81.29-2.51-121.97,0,.98-.85,6.08-6.16,6.49-6.35Z"/><path class="cls-22" d="m18.9,231.69c40.68-2.51,81.25,1.06,121.97,0-.45,1.7,3.66.86,2.64,2.58-.26.44-.75-.55-1.01-.2-2.2,3.01-.8,1.03-3.86,2.78-6.77.03-13.73.77-20.5.79-35.11.15-70.23.19-105.33-.4v-.4c1.82-1.48,3.49-4.33,6.09-5.16Z"/><path class="cls-56" d="m12.81,237.25c35.1.58,70.23.55,105.33.4,6.77-.03,13.73-.76,20.5-.79,24.5-.11,48.98.45,73.47.4v.79l-21.31,1.19c-35.59-1.44-71.16.75-106.75.79-2.53,0-5.59-.79-8.12-.79-21.64-.04-43.3-.27-64.94.4l1.83-2.38Z"/><path class="cls-17" d="m298.86,29.27c0,.14,0,.27,0,.4,0,.02.03.05.05.07l.26.26c.09.09.14.2.14.34v2.1c0,.22-.13.38-.34.45,0,0-.02,0-.03.01h-4.25s-.03-.01-.05-.02c-.18-.06-.31-.22-.32-.41v-5.75s0-.05,0-.08c.01-.06.05-.09.11-.09.06,0,.1.04.1.1,0,.02,0,.05,0,.07v5.67c0,.06,0,.12.03.17.04.08.12.12.22.12h4.07c.16,0,.25-.1.25-.27v-2.08c0-.07-.02-.14-.08-.19-.09-.09-.18-.18-.27-.27-.07-.07-.11-.16-.11-.26,0-.15,0-.3,0-.45,0-.08.04-.12.12-.12.11,0,.22,0,.33,0,0-.17,0-.34,0-.51,0-.04-.04-.09-.07-.13-.16-.21-.32-.43-.48-.64-.08-.11-.13-.24-.13-.38,0-.42,0-.83,0-1.26,0-.19-.09-.28-.28-.28h-3.32c-.19,0-.28.09-.28.28,0,.02,0,.05,0,.07,0,.06-.03.1-.1.1-.06,0-.1-.03-.11-.09-.06-.3.16-.58.46-.58h3.39c.27,0,.46.2.46.47v1.27c0,.11.03.2.09.28.16.21.31.42.47.62.08.11.13.23.12.36,0,.13,0,.26,0,.38,0,.15-.09.24-.24.24-.07,0-.14,0-.21,0Z"/><path class="cls-17" d="m298.85,31.99c0,.06-.06.09-.12.08-.13-.02-.26-.05-.39-.07-.64-.1-1.29-.13-1.94-.1-.48.01-.97.07-1.45.16-.1.02-.16,0-.16-.08,0-.06.03-.11.13-.13.63-.12,1.27-.17,1.91-.17s1.27.05,1.9.17c.02,0,.04,0,.06.01.05.02.08.06.07.12Z"/><path class="cls-17" d="m295.44,30.69c0,.07.06.12.16.12h.51c.09,0,.13.04.13.11s-.05.11-.13.11h-.74c-.11,0-.15-.06-.11-.16,0-.01,0-.03,0-.05-.04-.13-.02-.24.06-.34-.11-.16-.11-.31-.02-.43.06-.08.15-.13.25-.14h.58c.07,0,.11.04.11.1s-.04.11-.11.11c-.16,0-.33,0-.5,0h-.08c-.06,0-.11.06-.1.12,0,.06.03.1.09.12.04,0,.08,0,.12,0,.15,0,.31,0,.46,0,.08,0,.13.04.13.11,0,.06-.04.1-.13.1-.17,0-.34,0-.52,0-.09,0-.15.04-.15.12Z"/><path class="cls-17" d="m298.03,29.54c-.07-.26-.25-.41-.51-.46-.27-.05-.5.02-.68.23-.13.15-.14.32-.14.51,0,.1.04.14.15.14h.53c.18,0,.36,0,.55,0,.08,0,.13-.03.13-.1,0-.1,0-.21-.02-.32Zm-.19.21h-.23c-.21,0-.41,0-.62,0-.07,0-.08-.02-.08-.08.01-.22.21-.38.46-.39.27,0,.48.18.47.43,0,0,0,.02,0,.04Z"/><path class="cls-17" d="m297.98,30.93c-.05.09-.14.15-.24.16-.07,0-.13-.02-.14-.09,0-.06.03-.11.1-.12.08-.02.14-.08.14-.18,0-.08,0-.16-.04-.22-.04-.09-.15-.09-.2-.01-.04.05-.06.12-.09.18-.03.07-.05.14-.09.21-.08.17-.23.26-.38.24-.16-.02-.29-.16-.32-.34,0-.04,0-.08,0-.1,0-.15.05-.27.15-.37.06-.05.13-.08.21-.08.06,0,.09.04.1.09,0,.05-.02.09-.07.11-.16.06-.23.25-.13.4.06.09.16.1.22.01.04-.06.07-.14.1-.21.03-.07.05-.15.09-.21.08-.15.2-.23.37-.2.16.02.24.14.29.28.05.16.03.31-.05.45Z"/><path class="cls-17" d="m295.78,26.61s-.08,0-.12,0c-.33.01-.53.36-.38.65.1.18.25.25.45.24h.05c.26,0,.45-.19.45-.45s-.19-.45-.46-.45Zm0,.68h-.05c-.16,0-.25-.05-.29-.17-.04-.15.06-.29.21-.3.04,0,.08,0,.12,0,.14,0,.24.11.24.24s-.1.23-.24.23Z"/><path class="cls-17" d="m295.89,29.3c-.05,0-.11,0-.16.01-.28,0-.47-.15-.5-.4-.01-.13.02-.24.11-.33.04-.05.1-.06.15-.02.04.03.05.09.02.15-.03.05-.06.12-.06.17,0,.1.08.19.18.21.07.01.15.01.21,0,.16-.03.24-.21.15-.35,0,0-.01-.02-.02-.03-.04-.06-.03-.12.02-.16.04-.04.11-.02.16.03.21.25.07.65-.25.72Z"/><path class="cls-17" d="m296.14,28.36c-.27,0-.54,0-.8,0-.03,0-.08-.03-.09-.06,0-.03.01-.08.02-.12,0,0,.02-.02.03-.03-.09-.17-.09-.33.02-.49.05-.08.12-.09.17-.05.05.04.05.1,0,.17-.05.08-.06.16-.02.25.04.08.12.13.21.13.14,0,.29,0,.43,0,.04,0,.08.02.11.05.05.06,0,.16-.08.16Z"/><path class="cls-17" d="m297.8,27.09s-.1.04-.15,0c-.11-.1-.21-.21-.31-.31-.02-.02-.03-.04-.06-.08-.13.13-.24.24-.35.35-.02.01-.03.03-.05.04-.05.03-.1.03-.14,0-.04-.04-.05-.1,0-.14.15-.16.31-.31.47-.47.04-.04.1-.04.15,0,.15.15.3.3.45.45.04.05.04.11,0,.16Z"/><path class="cls-17" d="m296.24,29.59c0,.07-.04.11-.13.11h-.74c-.08,0-.13-.04-.13-.11,0-.06.05-.11.13-.11h.74c.08,0,.13.04.13.11Z"/><path class="cls-17" d="m297.76,35.58c-.57.14-.94.63-.94,1.23v3.71c0,.43,0,.86,0,1.3.02.79.78,1.36,1.54,1.17.56-.14.94-.64.94-1.24v-3.47c0-.51,0-1.01,0-1.52,0-.57-.4-1.05-.96-1.18-.05-.02-.1-.02-.16-.03h-.26c-.05,0-.11.02-.16.04Zm1.23,1.21c0,.83,0,1.66,0,2.5v2.47c0,.46-.31.83-.76.93-.55.11-1.09-.31-1.12-.88v-5.01c0-.45.3-.83.73-.93.58-.13,1.13.31,1.13.91Z"/><path class="cls-17" d="m298.05,36.79c.07,0,.13.04.15.1.01.04.01.07.01.11v4.55s0,.07-.01.1c-.02.07-.07.12-.15.11-.07,0-.13-.04-.14-.11,0-.03,0-.06,0-.08v-4.59s0-.07,0-.1c.02-.07.07-.1.14-.1Z"/><path class="cls-17" d="m296,37.06v.31s-.01.03-.03.03h-.08s0,.03,0,.03c0,.08,0,.17,0,.25,0,.05-.02.08-.05.11-.17.17-.34.33-.51.5-.01.01-.02.03-.02.05,0,.09,0,.18,0,.27,0,.02,0,.03.02.04.08.05.13.11.13.21s-.05.17-.13.22c-.02.01-.05.01-.07.02h-.06s-.08-.02-.12-.05c-.12-.09-.12-.26,0-.36,0,0,0,0,.01-.01,0,0-.01-.01-.02-.02-.15-.15-.29-.3-.44-.44-.03-.03-.04-.06-.04-.1,0-.13,0-.26,0-.4,0-.02,0-.03-.02-.04-.07-.05-.1-.14-.08-.22.03-.08.1-.14.18-.14.09,0,.16.05.19.14.03.08,0,.17-.08.21-.01,0-.02.02-.02.03,0,.12,0,.24,0,.36,0,0,0,.02.01.03.12.12.23.24.35.36,0,0,0,0,0,0v-1.56s-.12,0-.12,0c-.03,0-.05-.02-.04-.05.08-.19.15-.38.23-.57,0,0,.01-.02.02-.02,0,0,.02.01.03.02.08.19.16.38.23.57.01.03,0,.05-.03.05h-.14s0,1.15,0,1.15c0,0,.01,0,.02-.01.12-.12.24-.23.36-.35.01-.01.02-.03.02-.05v-.25s-.08,0-.08,0c-.02,0-.03,0-.03-.03v-.31s0-.03.03-.03c.11,0,.23,0,.34,0,.02,0,.03,0,.03.03Z"/><path class="cls-17" d="m295.67,41.15c-.15-.02-.26.08-.33.28l-.08.28c-.09.26-.24.39-.44.37-.15,0-.27-.08-.36-.21s-.14-.28-.14-.46c0-.18.05-.32.15-.43s.23-.16.39-.15v.2c-.11,0-.19.03-.26.1s-.1.17-.1.29c0,.13.03.23.09.32s.14.13.23.15c.14.02.24-.07.3-.26l.06-.21.04-.11c.09-.25.25-.37.46-.35.14,0,.26.07.35.19s.14.26.15.45v.07c0,.12-.02.23-.07.33s-.11.17-.19.22-.17.07-.28.07v-.2c.11,0,.2-.04.27-.11s.1-.18.1-.31c0-.13-.03-.24-.09-.34s-.14-.15-.24-.16Z"/><path class="cls-17" d="m295.67,39.47c-.15-.02-.26.08-.33.28l-.08.28c-.09.26-.24.39-.44.37-.15,0-.27-.08-.36-.21s-.14-.28-.14-.46c0-.18.05-.32.15-.43s.23-.16.39-.15v.2c-.11,0-.19.03-.26.1s-.1.17-.1.29c0,.13.03.23.09.32s.14.13.23.15c.14.02.24-.07.3-.26l.06-.21.04-.11c.09-.25.25-.37.46-.35.14,0,.26.07.35.19s.14.26.15.45v.07c0,.12-.02.23-.07.33s-.11.17-.19.22-.17.07-.28.07v-.2c.11,0,.2-.04.27-.11s.1-.18.1-.31c0-.13-.03-.24-.09-.34s-.14-.15-.24-.16Z"/><line class="cls-63" x1="25.7" y1="256.61" x2="275.7" y2="256.61"/><line class="cls-63" x1="313.18" y1="223.17" x2="313.18" y2="23.17"/><text class="cls-62" transform="translate(307.76 237.74)"><tspan x="0" y="0">200 mm</tspan></text><text class="cls-62" transform="translate(283.8 259.28)"><tspan x="0" y="0">250 mm</tspan></text></g></svg>