<?xml version="1.0" encoding="UTF-8"?><svg id="Layer_2" xmlns="http://www.w3.org/2000/svg" xmlns:xlink="http://www.w3.org/1999/xlink" viewBox="0 0 297 317.72"><defs><style>.cls-1{fill:#4d4d4d;font-family:Roboto-Light, Roboto;font-size:12px;font-weight:300;}.cls-2{fill:#3e444b;}.cls-2,.cls-3,.cls-4,.cls-5,.cls-6,.cls-7,.cls-8,.cls-9,.cls-10,.cls-11,.cls-12,.cls-13,.cls-14,.cls-15,.cls-16,.cls-17,.cls-18,.cls-19,.cls-20,.cls-21,.cls-22,.cls-23,.cls-24,.cls-25,.cls-26,.cls-27,.cls-28,.cls-29,.cls-30,.cls-31,.cls-32,.cls-33,.cls-34,.cls-35,.cls-36,.cls-37,.cls-38,.cls-39,.cls-40,.cls-41,.cls-42,.cls-43,.cls-44,.cls-45,.cls-46,.cls-47{stroke-width:0px;}.cls-48{fill:none;stroke:#4d4d4d;stroke-linecap:round;stroke-miterlimit:10;}.cls-3{fill:url(#linear-gradient);}.cls-4{fill:#67958c;}.cls-5{fill:url(#linear-gradient-6);}.cls-6{fill:#471613;}.cls-7{fill:#a67c52;}.cls-8{fill:#e39f60;}.cls-9{fill:#c3703e;}.cls-10{fill:#909f7e;}.cls-11{fill:url(#linear-gradient-5);}.cls-12{fill:#286580;}.cls-13{fill:#f5dfb6;}.cls-14{fill:#5c1c20;}.cls-15{fill:#327683;}.cls-16{fill:#ad7f60;}.cls-17{fill:#3a3033;}.cls-18{fill:#342823;}.cls-19{fill:#a9542f;}.cls-20{fill:#6e2819;}.cls-21{fill:#ce5d79;}.cls-22{fill:#91325d;}.cls-23{fill:url(#linear-gradient-2);}.cls-24{fill:#725644;}.cls-25{fill:#a2bb94;}.cls-26{fill:#b4588b;}.cls-27{fill:#2b190e;}.cls-28{fill:#5b307e;}.cls-29{fill:url(#linear-gradient-3);}.cls-30{fill:#bcac6b;}.cls-31{fill:#a73c5f;}.cls-32{fill:#d27172;}.cls-33{fill:#11274b;}.cls-34{fill:#8e3f2c;}.cls-35{fill:#905736;}.cls-36{fill:#c97eab;}.cls-37{fill:#1d1536;}.cls-38{fill:#e0905b;}.cls-39{fill:#633824;}.cls-40{fill:#123e61;}.cls-41{fill:#744730;}.cls-42{fill:#441920;}.cls-43{fill:#9a6949;}.cls-44{fill:url(#linear-gradient-4);}.cls-45{fill:#472917;}.cls-46{fill:#351b4b;}.cls-47{fill:#fbc060;}</style><linearGradient id="linear-gradient" x1="-2532.22" y1="-122.34" x2="-2534.5" y2="-92.2" gradientTransform="translate(12684.1 861.26) scale(4.96 6.69)" gradientUnits="userSpaceOnUse"><stop offset="0" stop-color="#9aa981"/><stop offset="1" stop-color="#568d8c"/></linearGradient><linearGradient id="linear-gradient-2" x1="196.63" y1="235.66" x2="196.62" y2="254.46" gradientUnits="userSpaceOnUse"><stop offset="0" stop-color="#68978d"/><stop offset="1" stop-color="#46848f"/></linearGradient><linearGradient id="linear-gradient-3" x1="177.39" y1="197.3" x2="177.66" y2="204.23" gradientUnits="userSpaceOnUse"><stop offset="0" stop-color="#794587"/><stop offset="1" stop-color="#9a4b82"/></linearGradient><linearGradient id="linear-gradient-4" x1="69.44" y1="211.49" x2="67.15" y2="241.63" gradientTransform="matrix(1,0,0,1,0,0)" xlink:href="#linear-gradient"/><linearGradient id="linear-gradient-5" x1="121.03" y1="95.35" x2="120.99" y2="120.27" gradientUnits="userSpaceOnUse"><stop offset="0" stop-color="#e28979"/><stop offset="1" stop-color="#e28758"/></linearGradient><linearGradient id="linear-gradient-6" x1="242.25" y1="234.31" x2="32.71" y2="299.06" gradientTransform="translate(273.87 27.54) rotate(90)" gradientUnits="userSpaceOnUse"><stop offset="0" stop-color="#a67759"/><stop offset="1" stop-color="#905837"/></linearGradient></defs><g id="Layer_1-2"><g id="Background"><rect class="cls-3" x="21.03" y="28.86" width="200" height="250"/><path class="cls-10" d="m220.93,205.57c0,9.44.01,18.87,0,28.31-16.25-.47-32.38,1.19-48.62,1.46.02-3.21-.01-6.43,0-9.64.83-1.13,4.9-9.83,5.51-9.88.24-.02,2.67,3.65,3.63,1.34.2-.47.31-9.62.27-10.13,13.1-.05,26.11-1.87,39.21-1.46Z"/><path class="cls-31" d="m220.66,146.75h.27c0,2.85,0,5.69,0,8.54-16.43,3.98-33.15,8.48-47.14,17.57-3,.22-15.72-.3-16.65,0-.21.07-.14.32-.13.49-9.05.13-18.08.49-27.13.49-.35-.05-.33.64-.27,1.22-3.67-.01-7.34.01-11.01,0-4.11-.01-8.25.06-12.36,0-.05,0-.85-.49-.94-.49-.17,0-.88.27-3.36.24-.03-.24.11-.58-.13-.73-1.63-1-28.6-4.5-33.31-5.37-15.83-2.93-31.32-7.8-47.41-9.76,0-.89,0-1.79,0-2.68,25.42,1.71,49.18,12.62,74.94,12.2,17.86,6.66,22.81,1.38,31.96.24.45-.06,6.38.09,9-.24,9.36-1.18,22.13-4.69,31.43-7.32,17.36-4.91,34.16-11.77,52.24-14.4Z"/><path class="cls-23" d="m220.93,233.88c-.01,7.65.03,15.3,0,22.94q-23.84.12-47.68.24l-.4,1.95c-.16-7.88-.57-15.8-.54-23.67,16.23-.28,32.36-1.93,48.62-1.46Z"/><path class="cls-8" d="m88.78,209.96c-13.58-.83-26.85-1.8-40.56-1.95-.14-1.12.36-2.42-.4-2.93h-5.64c-.14.08-.38,2.34-.4,2.68-6.9-.47-13.76-.93-20.68-.73,0-4.88,0-9.76,0-14.64,22.35-.24,44.67,1.22,67.01,1.46.93-.23.77-1.85.67-3.17h.27c-.42,6.06-.19,13.09-.27,19.28Z"/><path class="cls-29" d="m220.93,198c0,2.52,0,5.04,0,7.57-13.11-.4-26.11,1.41-39.21,1.46-.02-.28-.35-1.86-.54-1.95-13.26.27-26.65-.02-39.89.49-.24,0-3.65,1.29-4.43.12-1.7-2.55,4.43-3.73-2.69-5.49.01-.71-.28-1.63-.27-2.44.68.17.86-.29,1.34-.49.02,0-.02.37.4.24.37-.11.41-.71.54-.73,2.13-.32,27.83-.29,33.04-.24,17.24.14,34.47,1.18,51.7,1.46Z"/><path class="cls-26" d="m76.96,174.57c8.34,0,16.64.15,24.98.24,2.48.03,3.19-.25,3.36-.24.09,0,.89.49.94.49-1.29.69-1.3,6.51-.27,7.81l-.4.73c-28.17-.36-56.32-.49-84.47-1.46,0-2.36,0-4.72,0-7.08,18.63-.14,37.24-.5,55.87-.49Z"/><path class="cls-6" d="m48.22,208.01c.07.56.26,1.39.27,1.46.74,10.38-.52,26.04.81,37.34-.09,1.67.13,8.64.27,10.49.05.69-.04,1.39,0,2.07l.67.12c6.29-3.66,12.56-7.44,18.94-10.98.62-.34,1.28-.64,1.88-.98-.94,4.05,2.03.64,3.09,2.2,2.98-1.46,9.88-6.04,11.15-4.88-3.37,2.69-2.41,1.85,2.42,1.95.17,1.81-.76,2.51,1.34,2.44-.22.02-.63.42-1.34.49-1.76.18-3.95-.13-5.77,0-2.81,1.84-6.04,3.06-9,4.64.23-2.13,2.15-3.69-1.75-3.17-16.17,9.55-31.95,19.84-49.29,27.58-.25-.05-.55.03-.81,0-.03-1.22.04-2.44,0-3.66,1.58-.24,2.97-1.1,4.3-1.95q8.19-4.52,16.38-9.03c.54-.87.23-4.77.27-6.1.13-4.95.01-9.94,0-14.89,0-1.14,0-2.28,0-3.42-.03-9.96-.46-19.81,0-29.78.09-1.84-.28-2.09-.27-2.2.02-.34.26-2.61.4-2.68h5.64c.76.51.26,1.8.4,2.93Z"/><path class="cls-28" d="m220.93,190.44c0,2.52,0,5.04,0,7.57-17.24-.28-34.46-1.33-51.7-1.46-5.21-.04-30.91-.07-33.04.24-.13.02-.17.62-.54.73-.42.13-.38-.25-.4-.24,1.11-.16-.41-1.5-1.34-1.71.05-2.24.07-4.34.27-6.59,28.9,1.57,57.86-.32,86.76,1.46Z"/><path class="cls-22" d="m220.93,155.29c0,5.94,0,11.88,0,17.82-21.31.41-42.62-.05-63.92.24,0-.17-.07-.42.13-.49.94-.3,13.65.22,16.65,0,13.98-9.09,30.7-13.59,47.14-17.57Z"/><path class="cls-10" d="m42.04,209.96c-.46,9.97-.03,19.82,0,29.78-1.28-.32.07-6.02-.94-6.59l-20.01-.49c-.01-8.05,0-16.11,0-24.16l20.95,1.46Z"/><path class="cls-40" d="m220.93,267.32c-.03,2.91.24,7.86,0,10.01-15.97-.22-31.88-.59-47.81-1.71-.05-2.85.06-5.7,0-8.54,15.93-1.04,31.92-1.62,47.81.24Z"/><path class="cls-12" d="m220.93,256.82c-.01,3.5.04,7,0,10.49-15.89-1.87-31.88-1.28-47.81-.24-.06-2.68-.21-5.37-.27-8.05l.4-1.95q23.84-.12,47.68-.24Z"/><path class="cls-26" d="m105.97,182.87c.09.12.81.28.81.37-.01.16-2.14,1.29-2.42,1.71,2.82,1.68,1.85,1.94,1.61,4.03-2.32,2.06-1.29.1-2.28-.24-.44-.15-3.66.05-4.7,0-2.34-.12-4.64-.24-6.98,0-.12-.72-.08-2-2.28-1.22-1.03.36-.61,2.28-.67,3.17h-.27c-.03-.43.14-2.02-.13-2.2-22.52-.6-45.06-.4-67.55-1.46,0-1.63,0-3.25,0-4.88,28.15.98,56.31,1.1,84.47,1.46l.4-.73Z"/><path class="cls-32" d="m88.78,190.68c.1,1.32.26,2.94-.67,3.17-22.35-.24-44.66-1.7-67.01-1.46,0-1.79,0-3.58,0-5.37,22.49,1.06,45.03.87,67.55,1.46.27.18.1,1.77.13,2.2Z"/><path class="cls-22" d="m76.96,174.57c-18.63,0-37.24.35-55.87.49,0-4.07,0-8.14,0-12.2,17.64,3.2,35.17,6.87,52.51,11.23,1.92.1,3.61-.33,3.36.49Z"/><path class="cls-15" d="m42.04,243.15c.01,4.95.13,9.94,0,14.89-6.93-1.25-13.9-2.26-20.95-2.68-.02-4.72,0-9.44,0-14.16,7.04-.16,14.12.27,20.95,1.95Z"/><path class="cls-31" d="m101.94,174.82c-8.34-.1-16.64-.24-24.98-.24.25-.82-1.43-.39-3.36-.49-17.34-4.35-34.87-8.03-52.51-11.23,0-1.3,0-2.6,0-3.91,16.09,1.96,31.58,6.84,47.41,9.76,4.71.87,31.67,4.37,33.31,5.37.25.15.11.5.13.73Z"/><path class="cls-37" d="m142.77,187.02c22.56.61,45.11-.11,67.69.24,3.49.05,6.98.44,10.48.24,0,.98,0,1.95,0,2.93-28.89-1.79-57.86.11-86.76-1.46.2-2.27.5-1.75.54-1.95h8.06Z"/><path class="cls-4" d="m42.04,239.74c0,1.14,0,2.28,0,3.42-6.83-1.68-13.91-2.11-20.95-1.95,0-2.85,0-5.69,0-8.54l20.01.49c1.01.57-.34,6.27.94,6.59Z"/><path class="cls-12" d="m42.04,258.04c-.03,1.33.28,5.23-.27,6.1-1.06.17-2.36.01-3.49,0-5.36-.06-10.77.24-16.12-.24-.22-1.33-.55-2.65-1.07-3.91,0-1.55,0-3.09,0-4.64,7.05.43,14.02,1.44,20.95,2.68Z"/><path class="cls-33" d="m220.93,277.32c-.05.48.04.98,0,1.46-15.94.02-31.87-.02-47.81,0v-3.17c15.93,1.12,31.84,1.49,47.81,1.71Z"/><path class="cls-37" d="m157.54,275.86c2.16.32,4.27.97,6.45,1.22.05.33.74.86.54,1.71-8.42,0-16.83,0-25.25,0,.79-1.44,1.79-2.77,2.69-4.15,4.82.88,9.75.65,14.64.73.21.17.72.45.94.49Z"/><path class="cls-33" d="m22.17,263.9c.13.81-.06,3.7.67,4.15q3.83.49,7.65.98c-1.46.86-12.25,6.73-5.1,4.15-1.32.86-2.72,1.71-4.3,1.95-.16-5.03.02-10.1,0-15.13.52,1.26.85,2.58,1.07,3.91Z"/><path class="cls-25" d="m41.78,207.76c0,.11.35.36.27,2.2l-20.95-1.46c0-.49,0-.98,0-1.46,6.92-.2,13.78.26,20.68.73Z"/><path class="cls-26" d="m129.61,175.06c.05.45-1.03.51,1.88.98,1.47.24,3.57.22,5.1.24-4.21,3.08-11.79-.01-12.89,2.44-1.06,2.35,2.69,2,3.89,2.68,1.11.64,1,1.83,2.55,2.93.41,5.29-3.64,3.58-11.28,3.42-3.47-2.98,1.8-12.23-.27-12.69,3.67.01,7.34-.01,11.01,0Z"/><path class="cls-20" d="m92,188.73c.18,1.13-.05,3.72,0,5.37.16,5.37.37,10.74.54,16.11.03.81-.02,1.63,0,2.44.22,7.73.53,15.45.54,23.19-.06.03-.68.79-.81.98-1.01.29-2.04.75-2.95,1.22-.56.29-.77.23-.81.24.58-9.1.15-18.23.27-27.34,0-.33,0-.65,0-.98.08-6.19-.15-13.22.27-19.28.06-.89-.36-2.81.67-3.17,2.2-.78,2.17.5,2.28,1.22Z"/><path class="cls-25" d="m88.78,209.96c0,.33,0,.65,0,.98-13.43-.67-26.83-1.68-40.29-1.46,0-.07-.2-.91-.27-1.46,13.71.15,26.98,1.12,40.56,1.95Z"/><path class="cls-44" d="m88.78,210.94c-.12,9.11.31,18.23-.27,27.34-2.12,1.09-4.3,2.14-6.45,3.17-2.49,1.2-5.03,2.24-7.52,3.42.09-.25-.19-.69-.4-.73-1.84-.39-20.18-.09-24.71-.24-.27.18-.11,2.43-.13,2.93-1.33-11.3-.06-26.96-.81-37.34,13.46-.21,26.86.79,40.29,1.46Z"/><path class="cls-12" d="m67.02,248.52q-8.73,4.39-17.46,8.79c-.14-1.86-.35-8.83-.27-10.49,1.09,1.11,15.55,1.83,17.73,1.71Z"/><path class="cls-2" d="m69.17,248.52c-6.37,3.54-12.64,7.32-18.94,10.98l-.67-.12c-.04-.69.05-1.39,0-2.07q8.73-4.39,17.46-8.79c.65-.04,1.29.15,1.88-.24l.27.24Z"/><path class="cls-38" d="m98.99,188.73c-.76,1.85,2.73,1.22,6.45,1.71-.05.51-.28,2.43-.27,2.56.12,1.52.78,1.97.81,2.07-.71.81-1.12-.93-1.21-.98-.56-.28-11.09.31-12.76,0-.05-1.65.18-4.24,0-5.37,2.34-.24,4.64-.12,6.98,0Z"/><path class="cls-21" d="m105.97,188.97c-.07.65-.52,1.3-.54,1.46-3.71-.49-7.21.14-6.45-1.71,1.04.05,4.26-.15,4.7,0,1,.34-.03,2.3,2.28.24Z"/><path class="cls-15" d="m164.25,267.07h-.27c.25-1.64-8.39-3.53-11.82-5.37-.02-.06-.67-.41-.54-1.22,1.41-3.79,4.15-7.02,6.18-10.49,1.88.7,4.47-4.07,6.18-5.86.16,7.67.27,15.28.27,22.94Z"/><path class="cls-37" d="m152.17,261.7c.24.59.66,1.53.81,1.95,1.41,4,2.19,9.08,4.57,12.2-.22-.03-.73-.32-.94-.49-4.89-.08-9.81.15-14.64-.73,3.11-4.79,6-9.68,9.67-14.16-.13.81.51,1.16.54,1.22Z"/><path class="cls-40" d="m38.28,264.14c-2.34,1.91-5.16,3.33-7.79,4.88q-3.83-.49-7.65-.98c-.74-.45-.54-3.34-.67-4.15,5.35.49,10.75.19,16.12.24Z"/><path class="cls-40" d="m163.98,267.07h.27c0,1.99-.35,9.51-.27,10.01-2.18-.25-4.28-.9-6.45-1.22-2.38-3.12-3.15-8.2-4.57-12.2q5.51,1.71,11.01,3.42Z"/><path class="cls-10" d="m105.43,212.65c-.65,2.57-3.09,5.25,1.88,8.54,0,1.79-.16,3.6.27,5.37-.05.04-.33.99-.4,1.22-4.31,2.1-8.06,5.01-12.22,7.32-1.54.85-1.79.68-1.88.73,0-7.73-.32-15.46-.54-23.19h12.89Z"/><path class="cls-38" d="m105.97,195.07s.68.09.54.85c-4.13,7.38-.29,3.71.27,5.13.16.4-4.06,4.76.27,7.57-1.47,1.32-1.24,2.45-1.34,2.81-4.35-.9-8.73-1.01-13.16-1.22-.17-5.37-.38-10.74-.54-16.11,1.67.31,12.2-.28,12.76,0,.09.04.5,1.79,1.21.98Z"/><path class="cls-20" d="m112.15,223.38c-.48,1.22-3.79,2.57-4.57,3.17-.43-1.77-.26-3.58-.27-5.37-.03-5.17.02-10.33,0-15.5q2.35-.18,4.7-.37l.13,18.06Z"/><path class="cls-25" d="m105.7,211.43c-.1.36-.17.84-.27,1.22h-12.89c-.02-.81.03-1.63,0-2.44,4.44.21,8.81.32,13.16,1.22Z"/><path class="cls-30" d="m123.83,210.94c.27-.17,6.39-.66,5.24,1.59-.26.5-5.02.5-5.24.37-.22-.14-.22-1.81,0-1.95Z"/><path class="cls-15" d="m74.54,244.86c-1.92.91-3.99,2.11-5.64,3.42-.59.39-1.23.21-1.88.24-2.18.12-16.64-.6-17.73-1.71.03-.5-.14-2.75.13-2.93,4.53.16,22.87-.15,24.71.24.22.05.49.48.4.73Z"/><path class="cls-12" d="m163.98,267.07q-5.51-1.71-11.01-3.42c-.15-.42-.57-1.36-.81-1.95,3.43,1.84,12.07,3.73,11.82,5.37Z"/></g><path class="cls-8" d="m220.12,121.85q.27,12.45.54,24.9c-18.08,2.63-34.88,9.49-52.24,14.4-9.29,2.63-22.07,6.14-31.43,7.32-2.62.33-8.55.19-9,.24,1.13-22.83-31.66-22.64-31.96-.24-25.76.41-49.52-10.5-74.94-12.2,0-10.98,0-21.97,0-32.95l1.21-.49q98.91-.49,197.82-.98Z"/><path class="cls-21" d="m220.93,56.2c.03,12.37-.01,24.73,0,37.1q-99.92.12-199.83.24c.01-11.96-.03-23.92,0-35.88,49.36-2.11,98.74.33,148.13-.24,17.19-1.64,34.45-1.18,51.7-1.22Z"/><path class="cls-11" d="m220.93,93.3c0,9.52,0,19.04,0,28.56h-.81q-98.91.49-197.82.98l-1.21.49c0-9.93,0-19.85,0-29.78q99.92-.12,199.83-.24Z"/><path class="cls-22" d="m21.09,57.66c.02-9.6-.02-19.2,0-28.8h199.83c.02,9.11-.03,18.22,0,27.34-17.26.04-34.51-.42-51.7,1.22-49.39.58-98.77-1.87-148.13.24Z"/><path class="cls-8" d="m220.93,121.85c0,8.3,0,16.6,0,24.9h-.27q-.27-12.45-.54-24.9h.81Z"/><path class="cls-13" d="m127.99,168.71c-9.15,1.14-14.11,6.41-31.96-.24.3-22.39,33.1-22.59,31.96.24Z"/><path class="cls-13" d="m118.59,175.06c2.06.46-3.2,9.71.27,12.69-1.13,1.27-.49,5.53,0,7.69-1.45,1.89.65,4.58-.54,8.05,1.83,1.47-.14,6.45.54,7.32.76.97,2.13-2.51,1.07,5.74v2.44c-2.35,1.5-6.39,4.7-7.79,4.39l-.13-18.06q-2.35.18-4.7.37c.02,5.17-.03,10.33,0,15.5-4.97-3.29-2.53-5.98-1.88-8.54.1-.38.16-.86.27-1.22.1-.36-.13-1.49,1.34-2.81-4.33-2.8-.11-7.16-.27-7.57-.56-1.41-4.39,2.26-.27-5.13.14-.76-.53-.81-.54-.85-.03-.11-.69-.55-.81-2.07,0-.13.22-2.05.27-2.56.01-.16.46-.82.54-1.46.24-2.09,1.21-2.35-1.61-4.03.28-.42,2.41-1.55,2.42-1.71,0-.09-.71-.25-.81-.37-1.03-1.3-1.02-7.12.27-7.81,4.1.06,8.25-.01,12.36,0Z"/><path class="cls-6" d="m220.93,178.72c0,2.6,0,5.21,0,7.81-3.41.24-7.45-.62-10.48.73-22.58-.35-45.13.37-67.69-.24-3.29-1.23-4.62-2.53-8.19-1.22-1.14,1.34.15,1.14.13,1.22-.04.21-.33-.32-.54,1.95-.2,2.25-.22,4.35-.27,6.59-.02.73.01,1.46,0,2.2-.02.81.28,1.73.27,2.44-.04,2.5.07,5.62-.27,8.05-.31,2.22-1.65,1.63-1.88,1.34-.54-.69-.04-12.5-.27-16.96,0-.1.4-.43.27-2.07,0-.05-.51-.61-.54-.85-.11-1.08.18-4.66,0-5-.3-.59-1.21-.27-1.34-.37-1.55-1.1-1.44-2.29-2.55-2.93-1.2-.69-4.95-.33-3.89-2.68h97.23Z"/><path class="cls-34" d="m220.93,176.04c0,.89,0,1.79,0,2.68h-97.23c1.1-2.45,8.68.63,12.89-2.44q42.17-.12,84.34-.24Z"/><path class="cls-42" d="m220.93,173.84c0,.73,0,1.46,0,2.2q-42.17.12-84.34.24c-1.53-.03-3.63,0-5.1-.24,2.68-.73,16.03.16,17.06-.24.08-.03.69-1.16.67-1.46,23.9-.05,47.81-.51,71.71-.49Z"/><path class="cls-20" d="m220.93,173.11c0,.24,0,.49,0,.73-23.91-.02-47.81.44-71.71.49-2.96,0-18.27.2-19.2,0-.2-.04-.14-.32-.13-.49,9.05,0,18.08-.36,27.13-.49,21.3-.3,42.62.16,63.92-.24Z"/><path class="cls-14" d="m149.21,174.33c.01.3-.59,1.43-.67,1.46-1.03.4-14.37-.49-17.06.24-2.91-.47-1.83-.53-1.88-.98-.06-.58-.08-1.27.27-1.22,0,.16-.07.45.13.49.93.2,16.24,0,19.2,0Z"/><path class="cls-26" d="m131.75,192.63c-10.25-.42-8.93-.9-.27-2.93.03.25.53.81.54.85.13,1.65-.27,1.97-.27,2.07Z"/><path class="cls-36" d="m142.77,187.02h-8.06c.02-.08-1.27.12-.13-1.22,3.58-1.31,4.9-.01,8.19,1.22Z"/><path class="cls-47" d="m135.25,197.27c-.48.2-.66.66-1.34.49.01-.73-.02-1.46,0-2.2.93.21,2.46,1.54,1.34,1.71Z"/><path class="cls-46" d="m220.93,186.53c0,.33,0,.65,0,.98-3.5.19-6.99-.19-10.48-.24,3.02-1.36,7.07-.49,10.48-.73Z"/><path class="cls-40" d="m163.98,238.27c.07,1.95-.04,3.91,0,5.86-1.71,1.79-4.3,6.55-6.18,5.86,2.03-3.48,3.35-4.97,3.49-5.25.95-1.82,1.48-5.23,2.69-6.47Z"/><path class="cls-30" d="m124.5,216.06c-1.53.97-3.04,1.95-4.57,2.93v-2.44c1.89-.3,3.68-2.19,4.57-.49Z"/><path class="cls-6" d="m181.71,207.03c.04.51-.07,9.65-.27,10.13-.95,2.31-3.39-1.36-3.63-1.34-.61.06-4.68,8.76-5.51,9.88-.01,3.21.02,6.43,0,9.64-.04,7.88.38,15.8.54,23.67.05,2.69.21,5.38.27,8.05.06,2.85-.05,5.7,0,8.54v3.17c-1.7,0-3.4,0-5.1,0-.5-14.91-1.41-29.78-2.15-44.66-.24-4.72-.35-9.43-.27-14.16,4.33-2.04,2.39,2.85,6.45-2.44.81-1.06,1.37-2.35,2.15-3.42,1-1.37,1.94-2.8,2.95-4.15,1.25-1.67,2.77-3.21,4.03-4.88.18.09.52,1.68.54,1.95Z"/><path class="cls-20" d="m168.01,278.79c-1.16,0-2.33,0-3.49,0,.21-.85-.48-1.38-.54-1.71-.08-.5.27-8.02.27-10.01,0-7.67-.11-15.28-.27-22.94-.04-1.95.07-3.91,0-5.86-.04-1.02.1-2.27,0-3.17l1.88-.98c.74,14.88,1.65,29.76,2.15,44.66Z"/><path class="cls-34" d="m165.86,234.12l-1.88.98c-.07-.59-.1-.87-.27-1.46-.03-.1.98-1.08-1.07-.98,2.1-4.26,1.03-3.47,1.34-7.57.06-.71-.09-1.51,0-2.2.08-.57.25-1.77.54-2.2.04-.05.89-.64,1.07-.73-.08,4.72.03,9.44.27,14.16Z"/><path class="cls-6" d="m72.93,254.38c-.07.04-.74.65-1.34.98-5.22,2.84-10.11,6.12-15.44,8.79-1.54,2.79-11.32,6.73-12.09,7.57-.22.24-.13.47-.13.73-3.79,1.45-10.45,3.78-12.89,6.35-2.23-.02-8.21.18-9.13,0,17.34-7.74,33.12-18.03,49.29-27.58,3.9-.51,1.98,1.05,1.75,3.17Z"/><path class="cls-20" d="m90.39,240.23s.24.39.27.49c-.23.17-.74.75-1.34,1.22-1.3,1.01-2.77,1.92-4.03,2.93-1.27-1.16-8.16,3.42-11.15,4.88-1.06-1.55-4.03,1.86-3.09-2.2,1.31-.72,2.53-1.74,3.89-2.44,2.55-1.3,6.59-2.23,7.12-3.66,2.15-1.03,4.33-2.08,6.45-3.17.04-.02.24.05.81-.24-.72,2.39.38,1.92,1.07,2.2Z"/><path class="cls-17" d="m41.78,264.14q-8.19,4.52-16.38,9.03c-7.15,2.58,3.65-3.29,5.1-4.15,2.63-1.55,5.45-2.97,7.79-4.88,1.13.01,2.43.17,3.49,0Z"/><path class="cls-24" d="m71.05,247.55c-.6.33-1.26.63-1.88.98l-.27-.24c1.65-1.31,3.72-2.51,5.64-3.42,2.49-1.17,5.03-2.22,7.52-3.42-.53,1.43-4.56,2.36-7.12,3.66-1.36.7-2.58,1.72-3.89,2.44Z"/><path class="cls-19" d="m92.27,236.81l-1.88,3.42c-.69-.27-1.79.2-1.07-2.2.91-.47,1.95-.93,2.95-1.22Z"/><path class="cls-19" d="m158.08,232.9c-.52,2.09,1.02,1.8,1.07,2.07.14.71-1.52,3.22-.54,4.03q-13.7,19.89-27.4,39.78c-4.3,0-8.59,0-12.89,0-.16-.14-.61-.96-.67-.98-3.13-.79-56.48-.05-64.86,0-13.1.08-13.55,1.55-1.34-4.39l.67.73c25.16.47,50.3,1.24,75.47,1.22,1.16-.15,5.09-7.41,5.77-8.79.37-.74.82-1.42,1.34-2.07l-.4-.37c-21.79-.5-43.62.02-65.4-.49-.06-.78,1.41-1.17,1.88-1.46,3.02,1.19,6.39-.18,7.39-.24,10.48-.72,54.59-.61,59.63-2.68,1.24-.51,1.37-.79.67-1.71.57-.05,1.17.04,1.75,0,.88-.36.53-1.83.67-2.2.2-.53.31-1.2.54-1.71.57-1.26,2.1-3.04,2.69-4.39.67-.05,1.68.1,2.01,0,.13-.04,1.48-1.95,1.48-2.07,0-.45-2.71-.09-2.69-1.1q1.68-.12,3.36-.24c.91-.75,1.3-1.82,2.01-2.68.8-.97,1.34-1.88,1.61-2.2,1.71-2,3.53-3.86,5.24-5.86-6.76.07-13.52-.13-20.28-.24.26-1.17-1.39-.27-1.07-1.95,7.43-.03,14.86.02,22.29,0Z"/><path class="cls-20" d="m68.9,263.66c21.78.5,43.61-.02,65.4.49l.4.37c-.52.65-.98,1.34-1.34,2.07-.76-.13-1.68.04-2.42,0-21.48-1.01-43.1.25-64.6-.24-4.27,2-8.51,4.05-12.76,6.1-.71.34-1.44.63-2.15.98-12.21,5.95-11.76,4.48,1.34,4.39v.98c-7.25-.01-14.51.06-21.76,0,2.44-2.57,9.11-4.89,12.89-6.35,5.04-1.94,10.35-3.5,15.44-5.37,1.95-.72,6.01-.83,6.04-3.42.84.12,2.4-.03,3.49,0Z"/><path class="cls-6" d="m163.98,235.1c.1.9-.04,2.15,0,3.17-1.2,1.24-1.73,4.65-2.69,6.47-.15.28-1.46,1.76-3.49,5.25-2.02,3.47-4.77,6.7-6.18,10.49-3.67,4.47-6.56,9.36-9.67,14.16-.9,1.38-1.9,2.71-2.69,4.15-2.24,0-4.48,0-6.71,0,11.44-14.46,20.49-30.29,31.16-45.15.17.59.2.87.27,1.46Z"/><path class="cls-34" d="m118.32,278.79c-21.85-.01-43.69.04-65.54,0v-.98c8.38-.05,61.74-.79,64.86,0,.06.02.51.83.67.98Z"/><path class="cls-20" d="m163.72,233.64c-10.67,14.87-19.72,30.69-31.16,45.15-.45,0-.9,0-1.34,0q13.7-19.89,27.4-39.78c1.18-2.06,2.68-4,3.76-6.1.18-.34.26-.23.27-.24,2.05-.1,1.04.88,1.07.98Z"/><path class="cls-38" d="m181.17,205.08c-1.26,1.67-2.78,3.21-4.03,4.88l.67-1.71h-43.91c.33-2.44.23-5.55.27-8.05,7.12,1.76.98,2.94,2.69,5.49.78,1.17,4.2-.11,4.43-.12,13.24-.51,26.63-.22,39.89-.49Z"/><path class="cls-9" d="m144.11,249.26c-.59,1.35-2.11,3.14-2.69,4.39-10.05.29-21.26-1.01-30.89,1.46-9.82-.1-19.73-.49-29.55-.24-.18,0-.36,0-.54,0q3.63-2.56,7.25-5.13c.71-.07,1.12-.47,1.34-.49,16.23-1.2,42.71.87,55.06,0Z"/><path class="cls-9" d="m138.47,257.55c.7.92.57,1.2-.67,1.71-5.04,2.08-49.15,1.97-59.63,2.68-1,.07-4.37,1.43-7.39.24,2.9-1.81,5.94-3.36,8.86-5.13,12.46,0,51.89,1.15,58.82.49Z"/><path class="cls-9" d="m150.29,243.15c-.72.86-1.1,1.94-2.01,2.68q-1.68.12-3.36.24c-17.28.42-34.56.56-51.84.73-1.06-1.01-3.48-.16-5.1-.61,1.48-1.11,5.74-2.38,6.71-3.29,14.18.29,28.67,1.12,42.84.73,3.06-.08,12.01-1.12,12.62-.98.2.05.14.32.13.49Z"/><path class="cls-34" d="m133.37,266.59c-.68,1.38-4.62,8.63-5.77,8.79-25.17.02-50.31-.75-75.47-1.22l-.67-.73c.71-.34,1.44-.64,2.15-.98l.13.73q36.26-.12,72.52-.24l4.7-6.35c.74.04,1.66-.13,2.42,0Z"/><path class="cls-20" d="m144.91,246.08c-.03,1.01,2.68.65,2.69,1.1,0,.12-1.35,2.04-1.48,2.07-.33.1-1.35-.05-2.01,0-12.35.87-38.83-1.2-55.06,0-2.1.07-1.17-.63-1.34-2.44,1.78.04,3.59.02,5.37,0,17.28-.17,34.56-.31,51.84-.73Z"/><path class="cls-34" d="m110.54,255.11c10.12.11,20.23.35,30.35.24-.14.37.21,1.84-.67,2.2-.57.04-1.18-.05-1.75,0-6.93.66-46.37-.49-58.82-.49h-.54c1.42-.37,2.19-.71,1.88-2.2,9.82-.25,19.72.14,29.55.24Z"/><path class="cls-9" d="m151.9,240.96c-.27.32-.81,1.23-1.61,2.2,0-.17.07-.44-.13-.49-.61-.14-9.57.89-12.62.98-14.17.38-28.66-.45-42.84-.73.16-.16.32-.49.27-.73,18.91-.88,37.96-.96,56.94-1.22Z"/><path class="cls-9" d="m135.78,232.9c-.31,1.68,1.33.78,1.07,1.95-10.21-.18-20.42-.07-30.62-.61.15-.24.27-1.04.4-1.1,1.3-.6,25.66-.23,29.14-.24Z"/><path class="cls-19" d="m141.42,253.65c-.23.5-.34,1.18-.54,1.71-10.12.1-20.23-.14-30.35-.24,9.63-2.48,20.83-1.17,30.89-1.46Z"/><path class="cls-19" d="m79.11,257.07h.54c-2.93,1.77-5.96,3.31-8.86,5.13-.47.29-1.94.69-1.88,1.46-1.09-.03-2.65.12-3.49,0-.3-.04-.63.03-.94,0-.91-.7,6.47-5.29,8.59-5.86,1.69-.45,4.51-.33,6.04-.73Z"/><path class="cls-9" d="m162.37,232.9c-1.08,2.1-2.58,4.05-3.76,6.1-.98-.81.68-3.32.54-4.03-.05-.27-1.6.01-1.07-2.07h4.3Z"/><path class="cls-34" d="m87.7,249.74q-3.63,2.56-7.25,5.13c-2.93.08-5.92.41-8.86.49.6-.33,1.27-.94,1.34-.98,2.96-1.57,6.19-2.8,9-4.64,1.82-.13,4.01.18,5.77,0Z"/><path class="cls-19" d="m94.96,242.18c.05.24-.1.58-.27.73-.97.91-5.23,2.18-6.71,3.29,1.63.45,4.05-.4,5.1.61-1.79.02-3.59.04-5.37,0-4.83-.1-5.79.74-2.42-1.95,1.26-1.01,2.73-1.92,4.03-2.93,1.24.17,4.53.3,5.64.24Z"/><path class="cls-38" d="m174.19,214.11c-.78,1.07-1.34,2.36-2.15,3.42-2.49,1.41-.31,2.87-5.1.73,2.47-1.72-3.11-1.8-4.97-1.95-10.81-.9-21.92.18-32.63-.61l2.28-1.83c7.22.54,39.64-.75,42.17-.24.22.04.01.52.4.49Z"/><path class="cls-9" d="m172.04,217.53c-4.05,5.29-2.12.4-6.45,2.44-.19.09-1.04.68-1.07.73-9.86-1.13-33.82.81-40.56-.24.31-.4,2.1-2.15,2.28-2.2,3.57-.94,39.08,1.12,40.69,0,4.79,2.14,2.61.68,5.1-.73Z"/><path class="cls-19" d="m130.95,266.59l-4.7,6.35q-36.26.12-72.52.24l-.13-.73c4.25-2.05,8.48-4.1,12.76-6.1,21.49.49,43.12-.77,64.6.24Z"/><path class="cls-20" d="m80.99,254.87c.31,1.49-.46,1.82-1.88,2.2-1.53.4-4.35.28-6.04.73-2.13.57-9.51,5.16-8.59,5.86.31.03.64-.04.94,0-.04,2.59-4.09,2.7-6.04,3.42-5.09,1.87-10.4,3.43-15.44,5.37,0-.27-.08-.49.13-.73.77-.84,10.55-4.78,12.09-7.57,5.34-2.67,10.22-5.94,15.44-8.79,2.94-.07,5.93-.41,8.86-.49.18,0,.36,0,.54,0Z"/><path class="cls-9" d="m90.66,240.71c-.03-.1-.24-.48-.27-.49l1.88-3.42c.12-.19.75-.95.81-.98.09-.05.34.12,1.88-.73,1.41,1.25,9.36-5.79,9.13-3.54-.08.76-11.68,7.85-13.43,9.15Z"/><path class="cls-38" d="m131.49,189.7c-8.66,2.03-9.98,2.51.27,2.93.23,4.46-.27,16.27.27,16.96.23.29,1.57.88,1.88-1.34h43.91l-.67,1.71c-1.01,1.35-1.96,2.78-2.95,4.15-.39.04-.18-.44-.4-.49-2.53-.51-34.95.79-42.17.24l-2.28,1.83c10.71.79,21.82-.29,32.63.61,1.86.15,7.43.24,4.97,1.95-1.62,1.12-37.12-.94-40.69,0-.19.05-1.97,1.79-2.28,2.2-.52-.08-1.19.06-1.75,0-.92-.46,9.55-7.89,10.07-8.91l-.13-.37c-2.49,1.74-5.08,3.26-7.65,4.88-.88-1.71-2.68.19-4.57.49,1.05-8.25-.32-4.76-1.07-5.74-.68-.88,1.3-5.85-.54-7.32,1.18-3.48-.91-6.16.54-8.05-.49-2.16-1.13-6.42,0-7.69,7.64.16,11.69,1.87,11.28-3.42.13.09,1.04-.22,1.34.37.18.34-.11,3.93,0,5Z"/><path class="cls-38" d="m140.75,210.21c10.57-.57,24.68.22,35.59.37-.53.71-1.43.97-2.28,1.1-1.78.26-32.69.61-35.99.49-5.87-.22-5.08-1.54,2.69-1.95Z"/><path class="cls-9" d="m163.98,222.9c-.09.69.06,1.49,0,2.2q-22.43-.31-44.85-.61c.51-.35,1.78-1.77,2.01-1.83,2.06-.54,36.91.85,42.84.24Z"/><path class="cls-38" d="m123.96,220.46c6.74,1.06,30.7-.89,40.56.24-.29.42-.46,1.63-.54,2.2-5.93.6-40.78-.79-42.84-.24-.23.06-1.51,1.48-2.01,1.83q22.43.31,44.85.61c-.32,4.1.75,3.31-1.34,7.57,0,.02-.09-.1-.27.24h-4.3c-7.43.02-14.86-.03-22.29,0-3.48.01-27.85-.36-29.14.24-.13.06-.26.86-.4,1.1,10.2.54,20.41.43,30.62.61,6.76.12,13.52.31,20.28.24-1.7,2-3.52,3.86-5.24,5.86-18.98.26-38.03.34-56.94,1.22-1.12.05-4.4-.07-5.64-.24.61-.47,1.11-1.05,1.34-1.22,1.75-1.3,13.35-8.39,13.43-9.15.23-2.25-7.72,4.79-9.13,3.54,4.16-2.31,7.91-5.22,12.22-7.32.08-.23.35-1.18.4-1.22.77-.6,4.09-1.95,4.57-3.17,1.4.31,5.44-2.89,7.79-4.39,1.53-.97,3.03-1.96,4.57-2.93,2.58-1.62,5.17-3.14,7.65-4.88l.13.37c-.52,1.02-10.99,8.44-10.07,8.91.55.06,1.23-.08,1.75,0Z"/><path class="cls-9" d="m114.43,227.05l47.41.37c-.59.4-1.15,2.19-1.48,2.32-.23.09-3.13,0-4.03,0-14.31-.05-28.65-.89-42.97-.49-.82-.44.3-1.13,1.07-2.2Z"/><path class="cls-9" d="m126.52,237.3l24.04.61c-8.53.67-39.85,1.53-45.53.85-3.29-.39.78-.82,2.69-.98,6.23-.5,12.58.11,18.8-.49Z"/><path class="cls-9" d="m103.15,235.83c1.53-.15-3.51,4.89-6.58,3.78.84-.56,6.19-3.75,6.58-3.78Z"/><path class="cls-18" d="m202.17.63c-12.89-.41-75.48.09-88.48-.63h91.18c-.88.28-1.83.53-2.7.63Z"/><path class="cls-16" d="m153.95,277.46c.6,2.07,2.76,2.34,4.56,2.84,17.79,4.91,48.34,3.67,67.67,4.06,2.06,2.53,4.53,5.32,6.75,7.71-8.58-.83-17.21-.2-25.8-.41-9.9-.24-19.72-.56-29.57-1.62-2.53-1.1-5.27-1.23-7.94-1.62-.32-.05-.08-.76-.4-.81-2.88-.43-7.81.07-10.32-1.62-2.64-.09-5.54-.37-8.14-.81-5.68-.97-11.44-1.54-17.07-2.84-6.13-1.42-11.23-1.9-9.92-4.87,10.05,0,20.11.02,30.16,0Z"/><path class="cls-16" d="m219.04,277.46c.1.01-.25.63,1.98.41,1.54,2.31,3.41,4.36,5.16,6.49-19.33-.39-49.88.85-67.67-4.06-1.81-.5-3.96-.77-4.56-2.84,12.31-.02,60.39-.51,65.09,0Z"/><path class="cls-43" d="m242.19,301.4h-6.8c-2.19-2.89-1.38-6.66-3.45-8.12-8.26-.18-16.55.25-24.8,0v-1.62c8.59.21,17.22-.42,25.8.41,2.96,3.2,6.42,5.98,9.25,9.33Z"/><path class="cls-16" d="m123.79,277.46c-1.31,2.97,3.79,3.45,9.92,4.87-.04.36.16,1.05-.2,1.22-.95.45-18.77.2-21.04,0-5.44-.48-10.92-2.66-16.27-3.65-4.41-.82-7.73.58-6.95-2.03,11.52.01,23.01-.41,34.53-.41Z"/><path class="cls-43" d="m235.39,301.4H.67c1.18-1.06,2.64-3.31,4.05-4.87.74-.82,1.08-1.46,1.58-2.03,1.95-2.2,3.68-4.23,5.56-6.5,2.52-3.05,5.42-5.87,7.94-8.93,1.52-.18,2.15-.14,2.39-2.03,22.35.29,44.72.79,67.07.81-.78,2.61,2.54,1.21,6.95,2.03,5.36.99,10.84,3.17,16.27,3.65,2.27.2,20.08.45,21.04,0,.35-.17.16-.86.19-1.22,5.63,1.31,11.39,1.87,17.07,2.84q-1.29.41-2.58.81c8.18.56,15.43,1.48,23.02,4.47.41.16,2.59-.95,1.19.81-14.93.56-29.93.13-44.85.41-.13,0-2.25.81-2.38.81-6.18.09-12.48-.14-18.65-.41v.81q38.5-.4,77-.81c7.85.6,15.74.98,23.61,1.22,8.25.25,16.55-.18,24.8,0,2.07,1.46,1.26,5.22,3.45,8.12Z"/><path class="cls-43" d="m207.13,291.66v1.62c-7.87-.24-15.76-.61-23.62-1.22l-77,.81v-.81c6.18.27,12.48.5,18.65.41.13,0,2.26-.81,2.38-.81,14.92-.27,29.92.15,44.85-.41,1.4-1.76-.79-.65-1.19-.81-7.59-2.98-14.84-3.9-23.02-4.46l2.58-.81c2.6.45,5.49.73,8.14.81,2.51,1.7,7.44,1.2,10.32,1.62.32.05.08.76.4.81,2.66.4,5.41.52,7.94,1.62,9.85,1.06,19.67,1.38,29.57,1.62Z"/><path class="cls-43" d="m58.1,284.76c13.32.03,26.58.61,39.89,1.01-10.87.29-73.88,1.43-77.59.2-.21-.07-.8-.7-.4-.81,12.69.46,25.43-.43,38.1-.41Z"/><path class="cls-27" d="m5.51,7.94c-.51-.59-1.12-1.08-1.58-1.62C2.56,4.75,1.42,2.96,0,1.42V0h113.7c13,.72,75.59.22,88.48.63.87-.1,1.83-.36,2.7-.63h41.46v.61c-.1.17-.23.36-.37.57-.07.11-.16.23-.24.34-.16.21-.33.44-.53.68-.11.15-.23.3-.35.46-1.06,1.38-2.93,2.4-3.77,4.06q-93.67-.61-187.34-1.22c-6.97,2.19-43.04-.13-45.24.41-3.43.83,3.55,4.95-2.98,2.03Z"/><path class="cls-45" d="m88.86,24.99c27.91.1,55.83.06,83.74,0,17.47-.04,34.93.14,52.39-.41-.37.7-.23,3.05-.4,3.45-.06.13-2.05.55-2.38,1.62-.32,1.06.46,6.58-1.19,6.7.59-8.28-1.26-5.68-1.59-6.09-.16-.2.82-.71.2-1.22-37.1.74-74.22.41-111.33.41H21.39c-.11-1.47.28-2.59-.4-4.06l1.19-1.22c22.17,1.42,44.46.73,66.68.81Z"/><path class="cls-43" d="m230.15,17.68c-1.54,2.01-3.07,3.88-4.37,6.09-.03.05-.39.06-.79.81-17.46.55-34.92.37-52.39.41,3.38-1.07,7.12.05,10.52-.41.36-.05-.17-1.67,1.59,0,.94-1.91-1.15-2.47-.4-3.65,1.75-2.76,40.39-4.19,45.84-3.25Z"/><path class="cls-45" d="m246.33,301.4h-4.15c-2.83-3.36-6.29-6.13-9.25-9.33-2.22-2.4-4.69-5.19-6.75-7.72-1.74-2.14-3.62-4.18-5.15-6.49-.05-23,.06-46.01,0-69.01-.16-57.5.11-115.01,0-172.51,1.64-.11.86-5.64,1.19-6.7.33-1.08,2.32-1.49,2.38-1.62.17-.4.03-2.76.39-3.45.4-.76.77-.76.8-.81h.39c-.11.23-.32,1.64-1.19,2.64-.55,83.75-.6,167.5,0,251.25.18.93,9.25,9.95,10.72,11.57.78.86,1.62,1.61,2.38,2.44.65.71,1.36,1.35,1.99,2.03,1.78,1.96,4.52,4.95,6.26,7.1v.61Z"/><path class="cls-45" d="m246.33,300.8c-1.74-2.15-4.48-5.14-6.26-7.1q1.19-1.11,2.38-2.23c-.81-30.03.61-60.09,0-90.11-.19-9.54.08-20.17-1.58-29.22-.23-1.22-1.56-1.9-1.59-2.03-.94-4.49.62-73.06.4-86.06q.79.21,1.58.41v62.1c5.67,6.21,1.67-10.3,4.77-10.75.09,33.63-.45,67.24-.8,100.86.03.68.07,1.33.1,1.97.03.48.05.93.07,1.38.07,1.35.13,2.59.19,3.75.03.41.05.81.07,1.2.01.23.02.46.03.7.02.34.03.67.05.99.03.68.07,1.32.1,1.94.03.62.06,1.22.09,1.79.05.96.09,1.85.14,2.73.01.18.02.35.03.53,0,.08,0,.15.01.23.01.27.03.53.04.8,0,.03,0,.06,0,.09.01.29.03.6.05.89.04.69.07,1.38.11,2.09v43.06Z"/><path class="cls-45" d="m246.33,257.73c-.03-.71-.07-1.4-.11-2.09-.01-.29-.03-.6-.05-.89,0-.03,0-.06,0-.09-.01-.27-.03-.53-.04-.8,0-.08,0-.15-.01-.23,0-.18-.01-.35-.03-.53-.05-.88-.09-1.77-.14-2.73-.03-.58-.06-1.17-.09-1.79-.03-.62-.07-1.26-.1-1.94-.02-.32-.03-.65-.05-.99-.01-.23-.02-.46-.03-.7-.02-.39-.04-.79-.07-1.2-.06-1.16-.12-2.4-.19-3.75-.02-.44-.05-.91-.07-1.38-.03-.63-.07-1.29-.1-1.97.34-33.62.88-67.23.8-100.86-.05-17.17-.3-34.37-.4-51.55-.07-13.62-.29-27.35.4-40.79-3.23-13.33.92-27.66-1.19-40.79.12-.16.24-.31.35-.46.19-.24.37-.47.53-.68.09-.12.17-.24.24-.34.15-.21.27-.4.37-.57v257.13Z"/><path class="cls-39" d="m245.63,84.25c.1,17.18.35,34.38.4,51.55-3.09.46.9,16.96-4.76,10.76v-62.1l-1.59-.41c.22,12.99-1.34,81.56-.4,86.05.03.13,1.36.82,1.59,2.03,1.67,9.05,1.4,19.68,1.59,29.22.61,30.02-.81,60.09,0,90.11l-2.38,2.23c-.62-.68-1.34-1.32-1.98-2.03q-.6-29.93-1.19-59.87c-1.75-.9-.63,1.2-1.98,1.01-.48-5.82-1.55-3.6-1.59-3.86-.04-.3.22-4.38,0-6.09-.43-3.36-1.7-7.5-1.98-10.96-.73-8.9-.65-20.44-.79-29.63-.87-54.88,1.55-109.9,1.19-164.79-1.06,1.06-5.36,5.92-5.56,6.29h-.4c1.29-2.2,2.83-4.08,4.37-6.09.62-.81,1.34-1.63,1.98-2.44,1.42-1.78,3.88-3.64,3.37-4.46-37.59-.55-75.13,1.77-112.72,2.03-19,1.57-38.92,2.23-57.15,4.87H17.42c-1.65-1.97-6.93-5.44-4.56-6.49,52.7.22,105.58-.61,158.16-.61l-2.18-.2v-.81c16.01.18,32.03-1.41,48.02-1.62,7.35-.1,14.93,1.05,22.23.81.26,0,.87-1.5,1.98-1.22,3.14,21.24,1.03,52.83,2.98,71.24.19,1.83.82,3.8,1.59,5.48Z"/><path class="cls-39" d="m234.92,232.81c1.54,18.63.1,37.74.79,56.42-1.47-1.62-10.54-10.65-10.72-11.57-.6-83.75-.56-167.5,0-251.25.86-1,1.08-2.41,1.19-2.64.19-.38,4.5-5.23,5.56-6.29.36,54.89-2.06,109.91-1.19,164.79.15,9.19.06,20.74.79,29.63.29,3.46,1.55,7.6,1.98,10.96.22,1.71-.04,5.79,0,6.09.03.25,1.11-1.96,1.59,3.86Z"/><path class="cls-45" d="m238.09,291.66c-.76-.83-1.6-1.58-2.38-2.44-.7-18.68.75-37.79-.79-56.42,1.35.18.23-1.92,1.98-1.01q.6,29.93,1.19,59.87Z"/><path class="cls-45" d="m245.63,84.25c-.76-1.68-1.39-3.65-1.59-5.48-1.94-18.41.16-49.99-2.98-71.24-1.12-.28-1.72,1.21-1.98,1.22-7.29.24-14.88-.91-22.23-.81-15.99.21-32.01,1.81-48.02,1.62v.81l2.18.2c-52.59,0-105.47.83-158.16.61-2.37,1.06,2.92,4.52,4.56,6.49,1.71,2.04,3.49,4.12,4.76,6.49l-1.19,1.22c-.19-.42-5.5-5.51-6.35-6.49-.83-2.6-3.68-4.27-5.16-6.09-1.33-1.64-2.58-3.27-3.97-4.87,6.53,2.92-.45-1.2,2.98-2.03,2.2-.53,38.27,1.79,45.25-.41q93.67.61,187.33,1.22c.85-1.66,2.71-2.69,3.77-4.06,2.11,13.13-2.04,27.46,1.19,40.79-.69,13.45-.47,27.17-.4,40.79Z"/><path class="cls-41" d="m232.14,15.25c0-.27.1-.74-.2-.81-5.74-1.4-43.94,1.37-53.18,2.03-.37.03-.03,1.19-.4,1.22-14.59,1.09-69.47-1.16-75.81,0-.38.07-.01,1.13-.4,1.22-1.17.26-8.8,1.22-7.34,3.04.35.43,2.26-.09,2.38.81.31,2.26-7.01,1.56-8.33,2.23-22.22-.08-44.51.61-66.68-.81-1.27-2.37-3.06-4.45-4.76-6.49h48.22c18.23-2.64,38.15-3.3,57.15-4.87,37.59-.26,75.12-2.58,112.72-2.03.51.83-1.96,2.68-3.37,4.46Z"/><path class="cls-35" d="m232.14,15.25c-.64.81-1.36,1.62-1.98,2.44-5.45-.95-44.09.49-45.84,3.25-.75,1.18,1.34,1.74.4,3.65-1.75-1.67-1.23-.05-1.59,0-3.4.45-7.14-.67-10.52.41-27.91.06-55.83.1-83.74,0,1.33-.67,8.64.03,8.33-2.23-.12-.9-2.04-.38-2.38-.81-1.46-1.82,6.18-2.78,7.34-3.04.39-.09.01-1.15.4-1.22,6.33-1.16,61.22,1.09,75.81,0,.37-.03.03-1.19.4-1.22,9.24-.66,47.45-3.42,53.18-2.03.29.07.2.54.2.81Z"/><path class="cls-5" d="m.67,301.4h-.67V8.17c1.44-.68,1.84-.86,3.92-1.85.47.54,1.07,1.03,1.58,1.62,1.4,1.6,2.64,3.23,3.97,4.87h-.39q-1.19-.91-2.39-1.82c.67,21.64.43,43.3.4,64.94,0,2.53-.8,5.59-.8,8.12.04,35.59,2.23,71.17.8,106.75q.59,10.66,1.19,21.32c-1.18,15.18-.4,30.47-1.19,45.66-.67,12.83-4.1,25.94-2.38,38.77-1.41,1.56-2.87,3.8-4.05,4.87Z"/><path class="cls-43" d="m0,8.17V1.42c1.42,1.53,2.56,3.33,3.92,4.9-2.09.98-2.49,1.17-3.92,1.85Z"/><path class="cls-35" d="m21.78,210.89c-3.16,8.52-1.03,19.47-1.19,29.02,0,.07-.79,1.14-.79,1.22-.16,10.21.98,28.11,0,36.94-.03.31-1.62,1.04,0,1.01-2.52,3.06-5.42,5.88-7.94,8.93.93-7.97,1.74-15.92,1.98-23.95.69-22.08-.58-44.28,0-66.36.2-7.71,1.15-15.44,1.59-23.14.19-3.33-.34-15.17,0-16.24.08-.25,3.27-3.36,3.97-2.03.4-11.91.43-23.82.79-35.72,0-.19.93.74,0-3.25,1.19-4.64.3-12.34.4-17.86.04-2.13.76-4.77.79-6.9.32-21.03-.26-42.09,0-63.12h.4c-.02,60.48.03,120.96,0,181.44Z"/><path class="cls-35" d="m9.48,260c.01.06,1.07-.18,1.19.2.07,3.03-.11,4.98,3.18,3.86-.25,8.03-1.05,15.98-1.98,23.95-1.87,2.27-3.61,4.3-5.56,6.49-.73-11.62,1.08-23.61,2.58-34.91l.6.41Z"/><path class="cls-35" d="m9.08,212.11c.01,6.53-.06,45.55.4,47.9l-.6-.41c-1.5,11.3-3.31,23.29-2.58,34.91-.51.57-.85,1.21-1.59,2.03-1.72-12.83,1.71-25.93,2.38-38.76.79-15.19,0-30.48,1.19-45.66h.79Z"/><path class="cls-39" d="m22.18,277.05c-.23,1.89-.86,1.85-2.38,2.03-1.62.03-.03-.7,0-1.01.98-8.83-.16-26.73,0-36.94,0-.07.79-1.14.79-1.22.16-9.55-1.97-20.5,1.19-29.02,0,9.86.8,62.88.4,66.16Z"/><path class="cls-43" d="m20.99,25.39c.68,1.47.29,2.59.4,4.06-.26,21.03.32,42.09,0,63.12-.03,2.13-.75,4.77-.79,6.9-.1,5.52.79,13.22-.4,17.86.93,3.99,0,3.05,0,3.25-.36,11.9-.39,23.81-.79,35.72-.7-1.33-3.89,1.78-3.97,2.03-.34,1.07.19,12.91,0,16.24-.43,7.7-1.38,15.42-1.59,23.14-.58,22.09.69,44.29,0,66.36-3.29,1.13-3.11-.83-3.18-3.86-.12-.38-1.18-.14-1.19-.2-.46-2.35-.38-41.37-.4-47.9-.06-24.49.51-48.96.4-73.47,1.75,3.06-.23,1.66,2.78,3.86.36.26-.64.75-.2,1.01,1.72,1.02.88-3.09,2.58-2.64-1.06-40.72,2.51-81.29,0-121.97.85.98,6.16,6.08,6.35,6.49Z"/><path class="cls-16" d="m14.64,18.9c2.51,40.68-1.06,81.25,0,121.97-1.7-.45-.86,3.66-2.58,2.64-.44-.26.55-.75.2-1.01-3.01-2.2-1.03-.8-2.78-3.86-.03-6.77-.77-13.73-.79-20.5-.15-35.11-.19-70.23.4-105.33h.4c1.48,1.82,4.33,3.49,5.16,6.09Z"/><path class="cls-43" d="m9.08,12.81c-.58,35.1-.55,70.23-.4,105.33.03,6.77.76,13.73.79,20.5.11,24.5-.45,48.98-.4,73.47h-.79q-.6-10.65-1.19-21.31c1.44-35.59-.75-71.16-.79-106.75,0-2.53.79-5.59.79-8.12.04-21.64.27-43.3-.4-64.94q1.19.91,2.38,1.83Z"/><path class="cls-7" d="m217.06,298.86c-.14,0-.27,0-.4,0-.02,0-.05.03-.07.05l-.26.26c-.09.09-.2.14-.34.14h-2.1c-.22,0-.38-.13-.45-.34,0,0,0-.02-.01-.03v-4.25s.01-.03.02-.05c.06-.18.22-.31.41-.32h5.75s.05,0,.08,0c.06.01.09.05.09.11,0,.06-.04.1-.1.1-.02,0-.05,0-.07,0h-5.67c-.06,0-.12,0-.17.03-.08.04-.12.12-.12.22v4.07c0,.16.1.25.27.25h2.08c.07,0,.14-.02.19-.08.09-.09.18-.18.27-.27.07-.07.16-.11.26-.11.15,0,.3,0,.45,0,.08,0,.12.04.12.12,0,.11,0,.22,0,.33.17,0,.34,0,.51,0,.04,0,.09-.04.13-.07.21-.16.43-.32.64-.48.11-.08.24-.13.38-.13.42,0,.83,0,1.26,0,.19,0,.28-.09.28-.28v-3.32c0-.19-.09-.28-.28-.28-.02,0-.05,0-.07,0-.06,0-.1-.03-.1-.1,0-.06.03-.1.09-.11.3-.06.58.16.58.46v3.39c0,.27-.2.46-.47.46h-1.27c-.11,0-.2.03-.28.09-.21.16-.42.31-.62.47-.11.08-.23.13-.36.12-.13,0-.26,0-.38,0-.15,0-.24-.09-.24-.24,0-.07,0-.14,0-.21Z"/><path class="cls-7" d="m214.34,298.85c-.06,0-.09-.06-.08-.12.02-.13.05-.26.07-.39.1-.64.13-1.29.1-1.94-.01-.48-.07-.97-.16-1.45-.02-.1,0-.16.08-.16.06,0,.11.03.13.13.12.63.17,1.27.17,1.91s-.05,1.27-.17,1.9c0,.02,0,.04-.01.06-.02.05-.06.08-.12.07Z"/><path class="cls-7" d="m215.64,295.44c-.07,0-.12.06-.12.16v.51c0,.09-.04.13-.11.13s-.11-.05-.11-.13v-.74c0-.11.06-.15.16-.11.01,0,.03,0,.05,0,.13-.04.24-.02.34.06.16-.11.31-.11.43-.02.08.06.13.15.14.25v.58c0,.07-.04.11-.1.11s-.11-.04-.11-.11c0-.16,0-.33,0-.5v-.08c0-.06-.06-.11-.12-.1-.06,0-.1.03-.12.09,0,.04,0,.08,0,.12,0,.15,0,.31,0,.46,0,.08-.04.13-.11.13-.06,0-.1-.04-.1-.13,0-.17,0-.34,0-.52,0-.09-.04-.15-.12-.15Z"/><path class="cls-7" d="m216.79,298.03c.26-.07.41-.25.46-.51.05-.27-.02-.5-.23-.68-.15-.13-.32-.14-.51-.14-.1,0-.14.04-.14.15v.53c0,.18,0,.36,0,.55,0,.08.03.13.1.13.1,0,.21,0,.32-.02Zm-.21-.19v-.23c0-.21,0-.41,0-.62,0-.07.02-.08.08-.08.22.01.38.21.39.46,0,.27-.18.48-.43.47,0,0-.02,0-.04,0Z"/><path class="cls-7" d="m215.4,297.98c-.09-.05-.15-.14-.16-.24,0-.07.02-.13.09-.14.06,0,.11.03.12.1.02.08.08.14.18.14.08,0,.16,0,.22-.04.09-.04.09-.15.01-.2-.05-.04-.12-.06-.18-.09-.07-.03-.14-.05-.21-.09-.17-.08-.26-.23-.24-.38.02-.16.16-.29.34-.32.04,0,.08,0,.1,0,.15,0,.27.05.37.15.05.06.08.13.08.21,0,.06-.04.09-.09.1-.05,0-.09-.02-.11-.07-.06-.16-.25-.23-.4-.13-.09.06-.1.16-.01.22.06.04.14.07.21.1.07.03.15.05.21.09.15.08.23.2.2.37-.02.16-.14.24-.28.29-.16.05-.31.03-.45-.05Z"/><path class="cls-7" d="m219.73,295.78s0-.08,0-.12c-.01-.33-.36-.53-.65-.38-.18.1-.25.25-.24.45v.05c0,.26.19.45.45.45s.45-.19.45-.46Zm-.68,0v-.05c0-.16.05-.25.17-.29.15-.04.29.06.3.21,0,.04,0,.08,0,.12,0,.14-.11.24-.24.24s-.23-.1-.23-.24Z"/><path class="cls-7" d="m217.03,295.89c0-.05,0-.11-.01-.16,0-.28.15-.47.4-.5.13-.01.24.02.33.11.05.04.06.1.02.15-.03.04-.09.05-.15.02-.05-.03-.12-.06-.17-.06-.1,0-.19.08-.21.18-.01.07-.01.15,0,.21.03.16.21.24.35.15,0,0,.02-.01.03-.02.06-.04.12-.03.16.02.04.04.02.11-.03.16-.25.21-.65.07-.72-.25Z"/><path class="cls-7" d="m217.97,296.14c0-.27,0-.54,0-.8,0-.03.03-.08.06-.09.03,0,.08.01.12.02,0,0,.02.02.03.03.17-.09.33-.09.49.02.08.05.09.12.05.17-.04.05-.1.05-.17,0-.08-.05-.16-.06-.25-.02-.08.04-.13.12-.13.21,0,.14,0,.29,0,.43,0,.04-.02.08-.05.11-.06.05-.16,0-.16-.08Z"/><path class="cls-7" d="m219.25,297.8s-.04-.1,0-.15c.1-.11.21-.21.31-.31.02-.02.04-.03.08-.06-.13-.13-.24-.24-.35-.35-.01-.02-.03-.03-.04-.05-.03-.05-.03-.1,0-.14.04-.04.1-.05.14,0,.16.15.31.31.47.47.04.04.04.1,0,.15-.15.15-.3.3-.45.45-.05.04-.11.04-.16,0Z"/><path class="cls-7" d="m216.74,296.24c-.07,0-.11-.04-.11-.13v-.74c0-.08.04-.13.11-.13.06,0,.11.05.11.13v.74c0,.08-.04.13-.11.13Z"/><path class="cls-7" d="m210.75,297.76c-.14-.57-.63-.94-1.23-.94h-3.71c-.43,0-.86,0-1.3,0-.79.02-1.36.78-1.17,1.54.14.56.64.94,1.24.94h3.47c.51,0,1.01,0,1.52,0,.57,0,1.05-.4,1.18-.96.02-.05.02-.1.03-.16v-.26c0-.05-.02-.11-.04-.16Zm-1.21,1.23c-.83,0-1.66,0-2.5,0h-2.47c-.46,0-.83-.31-.93-.76-.11-.55.31-1.09.88-1.12h5.01c.45,0,.83.3.93.73.13.58-.31,1.13-.91,1.13Z"/><path class="cls-7" d="m209.54,298.05c0,.07-.04.13-.1.15-.04.01-.07.01-.11.01h-4.55s-.07,0-.1-.01c-.07-.02-.12-.07-.11-.15,0-.07.04-.13.11-.14.03,0,.06,0,.08,0h4.59s.07,0,.1,0c.07.02.1.07.1.14Z"/><path class="cls-7" d="m209.27,296h-.31s-.03-.01-.03-.03v-.08s-.03,0-.03,0c-.08,0-.17,0-.25,0-.05,0-.08-.02-.11-.05-.17-.17-.33-.34-.5-.51-.01-.01-.03-.02-.05-.02-.09,0-.18,0-.27,0-.02,0-.03,0-.04.02-.05.08-.11.13-.21.13s-.17-.05-.22-.13c-.01-.02-.01-.05-.02-.07v-.06s.02-.08.05-.12c.09-.12.26-.12.36,0,0,0,0,0,.01.01,0,0,.01-.01.02-.02.15-.15.3-.29.44-.44.03-.03.06-.04.1-.04.13,0,.26,0,.4,0,.02,0,.03,0,.04-.02.05-.07.14-.1.22-.08.08.03.14.1.14.18,0,.09-.05.16-.14.19-.08.03-.17,0-.21-.08,0-.01-.02-.02-.03-.02-.12,0-.24,0-.36,0,0,0-.02,0-.03.01-.12.12-.24.23-.36.35,0,0,0,0,0,0h1.56s0-.12,0-.12c0-.03.02-.05.05-.04.19.08.38.15.57.23,0,0,.02.01.02.02,0,0-.01.02-.02.03-.19.08-.38.16-.57.23-.03.01-.05,0-.05-.03v-.14s-1.15,0-1.15,0c0,0,0,.01.01.02.12.12.23.24.35.36.01.01.03.02.05.02h.25s0-.08,0-.08c0-.02,0-.03.03-.03h.31s.03,0,.03.03c0,.11,0,.23,0,.34,0,.02,0,.03-.03.03Z"/><path class="cls-7" d="m205.18,295.67c.02-.15-.08-.26-.28-.33l-.28-.08c-.26-.09-.39-.24-.37-.44,0-.15.08-.27.21-.36s.28-.14.46-.14c.18,0,.32.05.43.15s.16.23.15.39h-.2c0-.11-.03-.19-.1-.26s-.17-.1-.29-.1c-.13,0-.23.03-.32.09s-.13.14-.15.23c-.02.14.07.24.26.3l.21.06.11.04c.25.09.37.25.35.46,0,.14-.07.26-.19.35s-.26.14-.45.15h-.07c-.12,0-.23-.02-.33-.07s-.17-.11-.22-.19-.07-.17-.07-.28h.2c0,.11.04.2.11.27s.18.1.31.1c.13,0,.24-.03.34-.09s.15-.14.16-.24Z"/><path class="cls-7" d="m206.87,295.67c.02-.15-.08-.26-.28-.33l-.28-.08c-.26-.09-.39-.24-.37-.44,0-.15.08-.27.21-.36s.28-.14.46-.14c.18,0,.32.05.43.15s.16.23.15.39h-.2c0-.11-.03-.19-.1-.26s-.17-.1-.29-.1c-.13,0-.23.03-.32.09s-.13.14-.15.23c-.02.14.07.24.26.3l.21.06.11.04c.25.09.37.25.35.46,0,.14-.07.26-.19.35s-.26.14-.45.15h-.07c-.12,0-.23-.02-.33-.07s-.17-.11-.22-.19-.07-.17-.07-.28h.2c0,.11.04.2.11.27s.18.1.31.1c.13,0,.24-.03.34-.09s.15-.14.16-.24Z"/><line class="cls-48" x1="259.72" y1="25.7" x2="259.72" y2="275.7"/><line class="cls-48" x1="223.17" y1="311.7" x2="23.17" y2="311.7"/><text class="cls-1" transform="translate(230.13 314.47)"><tspan x="0" y="0">200 mm</tspan></text><text class="cls-1" transform="translate(252.86 289.23)"><tspan x="0" y="0">250 mm</tspan></text></g></svg>