<?xml version="1.0" encoding="UTF-8"?><svg id="Layer_2" xmlns="http://www.w3.org/2000/svg" xmlns:xlink="http://www.w3.org/1999/xlink" viewBox="0 0 533.9 381.81"><defs><style>.cls-1{fill:#39677b;}.cls-1,.cls-2,.cls-3,.cls-4,.cls-5,.cls-6,.cls-7,.cls-8,.cls-9,.cls-10,.cls-11,.cls-12,.cls-13,.cls-14,.cls-15,.cls-16,.cls-17,.cls-18,.cls-19,.cls-20,.cls-21,.cls-22,.cls-23,.cls-24,.cls-25,.cls-26,.cls-27,.cls-28,.cls-29,.cls-30,.cls-31,.cls-32,.cls-33,.cls-34,.cls-35,.cls-36,.cls-37,.cls-38,.cls-39,.cls-40,.cls-41,.cls-42,.cls-43,.cls-44,.cls-45,.cls-46,.cls-47,.cls-48,.cls-49{stroke-width:0px;}.cls-2{fill:#93a45b;}.cls-3{fill:#4d4d4d;}.cls-50{fill:none;stroke:#4d4d4d;stroke-linecap:round;stroke-miterlimit:10;}.cls-4{fill:url(#linear-gradient);}.cls-5{fill:#85622f;}.cls-6{fill:#5898a5;}.cls-7{fill:#75949d;}.cls-8{fill:#a67c52;}.cls-9{fill:#cce0da;}.cls-10{fill:#d9b749;}.cls-11{fill:#aec6ba;}.cls-12{fill:#ad7f60;}.cls-13{fill:#659b99;}.cls-14{fill:#bac0ba;}.cls-15{fill:#73a48f;}.cls-16{fill:#1e2c2c;}.cls-17{fill:#342823;}.cls-18{fill:#2c4548;}.cls-19{fill:#afc680;}.cls-20{fill:#1d232b;}.cls-21{fill:#3b705a;}.cls-22{fill:url(#linear-gradient-2);}.cls-23{fill:#3c7880;}.cls-24{fill:#4d8b7f;}.cls-25{fill:#151e19;}.cls-26{fill:#2b190e;}.cls-27{fill:#99a130;}.cls-28{fill:#4d8d8f;}.cls-29{fill:#3d5738;}.cls-30{fill:#bdb841;}.cls-31{fill:#80b0a7;}.cls-32{fill:#deded6;}.cls-33{fill:#905736;}.cls-34{fill:#c0873a;}.cls-35{fill:#858c2a;}.cls-36{fill:#b97434;}.cls-37{fill:#478069;}.cls-38{fill:#633824;}.cls-39{fill:#284d43;}.cls-40{fill:#433330;}.cls-41{fill:#4a6a34;}.cls-42{fill:#744730;}.cls-43{fill:#0e1111;}.cls-44{fill:#9a6949;}.cls-45{fill:#472917;}.cls-46{fill:#a47458;}.cls-47{fill:#507f3d;}.cls-48{fill:#cf975c;}.cls-49{fill:#71692b;}</style><linearGradient id="linear-gradient" x1="274.65" y1="183.24" x2="238.68" y2="255.09" gradientUnits="userSpaceOnUse"><stop offset="0" stop-color="#85ad93"/><stop offset="1" stop-color="#5c9a96"/></linearGradient><linearGradient id="linear-gradient-2" x1="430.82" y1="305.73" x2="96.22" y2="409.14" gradientUnits="userSpaceOnUse"><stop offset="0" stop-color="#a67759"/><stop offset="1" stop-color="#905837"/></linearGradient></defs><g id="Layer_1-2"><g id="Background"><rect class="cls-20" x="45.33" y="36.56" width="400" height="300"/><path class="cls-20" d="m110.48,36.6v6.05c.15,53.35-.2,106.7,0,160.05.05,14.52.27,29.02.39,43.54.05,6.85.35,13.73.39,20.56.03,5.06-1.56,26.67.39,29.63,2.39,3.64-.94-8.66,5.26-.2,3.59-6,2.37-1.32,6.24,1.21,3.03-3.42,1.35-.47,4.48.6-.96,5.44,3.22-4.27,3.31,4.64,7.43-4.32,3.1,2.63,3.31,3.02.22.39,5.93-3.02.58,5.04,4.32.13,6.3-1.78,6.24,3.63,6.6-3.29,4.7,1.45,5.07,1.61,1.37.59,5.98-5.74,4.29,3.23,2.68-3.01,9.12-.96,4.09,1.01,1.03,1.95-.65,1.6-1.75,2.62,2.48,1.58,8.41.44,9.75,1.21,2.7,1.55-2.1,1.73.58,4.23,1.75,1.63,9.34-1.81,8.58,5.44-41.98-.09-83.97,1.23-125.95,0-.86-10.34.02-67.78,0-85.47,2.98,2.43,2.66.54,4.09,1.21,1.38.65,1.79,2.76,1.95,2.82.29.12,2.68-4.13,3.9,1.21,3.52-2.49,3.39,3.96,4.68-1.21,9.44,2.54.47,5.96,8.58,3.63,1.83,5.76-1.54,5,5.46,3.23-.96,7.74,1.03,1.33,3.12,6.45,4.24-5.41,7.17-.4,2.53,3.43,1.55.09,5.51-.25,5.85.81-3.71,8.7-5.14,1.39,2.14,7.46,1.17.97,2.02,2.28,2.73,3.63,1.7-5.71,4.16-2.87,4.48-3.83.39-5.43-.35-10.92-.39-16.33-.12-17.44.66-34.8.78-52.21.41-57.31-.3-114.63,0-171.94,4.94-.01,9.88,0,14.82,0Z"/><path class="cls-20" d="m445.06,273.25c-.02,12.7.63,54.61,0,60.88h-178.21c-2.73-.73-5.78.68-8.19-.81,2.67-2.14,1.34-8.96,13.45-1.21-.58-.97-3.78-4.37-1.95-5.24,6.93,1.74.18-2.44,4.29-2.02,3.37.34,7.54,5.31,1.75-2.22l.58-.6,5.85-.4c5.52,2.96-2.97-1.53,0-2.82,7.33-.34,3.24-1.98,5.46-2.82,3.36-1.28,4.54,3.53,4.68-2.42,6.34,2.18-3.19-4.47,7.41-2.42.94-6.5,8.28,1.09,4.48-5.04,2.07-1.09,3.52-2.47,5.65-1.01-1.48-3.88-.23-5.56,3.12-2.82,1.28.05-1.23-2.86.39-3.63,1.79-.85,3.29,2.49,3.51,2.42.8-.25-.9-3.99,4.68.4-2-6.48,5.96,1.33,1.75-5.85,4.64-3.03,4.66-.83,4.87-1.01.53-.42-.29-2.33.78-2.82,1.54-.71,3.41,1.08,3.9.81.37-.21.92-5.35,6.24,1.21.26-1.52,1.71-.73,3.7-1.81-2.89-3.78,5.47-.68,5.46-2.02-5.12-4.8-3.22-5.86,2.73-6.45-1.53-.97-3.8-3.24-1.75-4.64l5.85-.4c-1.57-5.43-.94-3.26,3.7-4.23-6.19-5.73,1.16-1.89,2.53-6.25,2.55.87,1.67-1.15,2.14-1.41,4.43-2.46,6.57.13,11.11.2-4.12-4.1-.33-2.79.39-3.23.76-.46.89-2.41,4.09-1.41-5.68-6.71,2.25-5.13,2.34-5.64.05-.3-2.29-4.69,2.14-2.62,3.45-3.5,4.42,3.89,4.87-4.64,4.61-.03,4.97-1.02,5.26-1.01.17,0,1.01,1.21,1.17,1.21.1,0,.53-1.35,1.56-1.21,2.48.33,4.47,3,4.68,2.82,1.6-1.31-2.51-4.29,2.34-2.02.46.21.72-.62,1.17-.4.93.46.36,1.74.78,2.02.38.25,1.66-2.08,3.12,2.42,3.57-2.56,3.12,2.72,3.9,2.82.39.05,5.28-5.49,4.87,1.01-3.55,4.6,4.43-1.88,5.46.81,1.38,3.59-8.2,6.04,3.12,4.43-.23,3.96-3.67,5.19-2.14,5.44.36.06,4.46-1.46,6.63,2.02,3.56-3.04,5.5-.81,9.36,0-.16,3.45,1.85-1,4.87,3.63Z"/><path class="cls-32" d="m229.42,36.6c1.23,2.2,1.05,5.02,3.9,5.64-10.57,2.05-5.97,7.87.97,3.63l.58.6c-4.48,9.62-13.29,13.63-15.99,17.34-7.49,10.29,5.24,11.99,11.5-4.64.15.07.22,1.81.58,3.23,2.62,10.15,9.59,8.06,14.43.81,4.87-7.29.43-9.49,7.8-13.51-.76,10.63-.69,2.02,2.34,5.44-.14.36-2.39,3.23-3.12,6.25,3.21,4.38-12.49,19.1-2.92,12.7,2.24,7.22-1.44,4.55-3.9,6.05-1.2.73-1.99,3.07-2.73,3.63-.87.66-8.48,2.54-9.16,6.25-1.27,6.84,4.48,1.17,4.87,1.01,4.35-1.8,11.28-1.92,12.09-12.5.81,10.61,5.68,16.9,7.21,11.09.54-2.05.31-9.35,2.34.6.42,2.07.56,5.17,0,7.26-1.71,6.35-10.72,14.19-10.92,15.12-1.42,6.66,7.9,7.05,10.92-9.47,1.15,6.42-.03,12.94,0,19.35-18.22,13.05-22.49,24.95,0,6.05.07,3.04.26,6.22.39,9.27-2.7,3.55-7.23,5.92-8.19,7.46-4.18,6.68,4.54,5.8,8.58-3.43.15,3.18.59,6.45.78,9.68-2.34,1.02-14.94,12.89-15.21,13.91-2.38,8.98,11.23-6.48,15.99-9.88.12,1.87-.13,3.78,0,5.64.16,2.29.22,4.58.39,6.85-5.13,3.86-11.01,6.37-15.21,11.49-10.37,12.66-2.42,23.19-9.16,14.31-.64,2.72-1.92,5.84-2.53,8.47-19.21-17.44-9.03-10.97-8.19-12.3-3.92-4.46-11.03-6.74-8.38-9.47,2.98-3.08,12.62,4.77,13.45,3.02-5.33-4.68-22.83-18.46-13.06-15.12,1.42.49,7.51,5.04,7.6,2.22.04-1.2-18.66-16.03-6.43-9.47,5.68.22-5.76-4.77-5.85-10.08,22.64,10.96,2.25-.04-.19-7.46.72-1.33,7.23,5.7,7.8,2.82.2-.99-8.13-9.73-8.19-18.14,8.48,4.19-2.96-9.39-2.53-13.1-8.01,19-4.06,12.25-2.73,12.9-1.86,7.06-16.22,17.27-6.63,14.11,3.74-1.23,5.81-8.29,4.09.6,6.08.85-12.83,14.65-7.21,13.91,1.38-.18,6.2-4.13,7.41-5.64-.16,7.69-15.52,13.47-.58,8.26l-12.09,12.5.58.6c14.99-9.15,10.39-3.93-.97,6.25.7,1.6,14.24-6.7-4.29,8.47q4.19-1.51,8.38-3.02c.28.18.25.71.19,1.01-.58,3.02-21.06,14.87,0,6.45l-12.87,12.9c.12,2.06,12.86-4.88,12.87-3.23-6.09,7.42-11.95,7.48-6.43,13.51,4.74-3.02,1.45.78-.58,1.21-.12.02-.16-1.63-1.75,0-.74-.92-1.69-1.62-2.53-2.42-1.27-1.2-2.11-2.95-3.51-4.03-.52-53.89-1.75-107.77-1.56-161.66,2.56,1.43.27,4.56.39,6.65.69,12.31,6.41,12.13,6.43-.2,3.91,3.34,2.03,6.12,2.14,7.26.67,6.73,3.93,12.34,7.21,4.84,1.02,8.81,5.54,8.81,7.8,10.89,1.96,1.8,7.92,10.52,9.55,4.64,1.25-4.48-8.68-10.33-11.31-13.3-.55-8.57-6.76-7.64-6.63-11.89.18-.02,1.43-.52,3.51-.6-1.9-.54-6.69-4.13-7.02-5.64-1.22-5.58,6.36,1.42.78-9.07,7.82,3.28,17.58,1.79,23.4-4.84,3.77,0,7.54,0,11.31,0Z"/><path class="cls-29" d="m424.39,231.73c3.66,7.28,1.49,1.37,4.87,2.42,1.9.59-.55,4.8,6.04,4.84,3.44,3.42,1.7,11.29,3.12,9.47.2-4.43,4.18-6.52,5.07-1.21.9,5.35-3.6,8.38,1.56,6.65,0,6.45.01,12.9,0,19.35-3.03-4.63-5.03-.18-4.87-3.63-3.86-.81-5.8-3.04-9.36,0-2.17-3.47-6.27-1.96-6.63-2.02-1.52-.25,1.91-1.48,2.14-5.44-11.32,1.61-1.74-.85-3.12-4.43-1.03-2.69-9.01,3.79-5.46-.81.4-6.5-4.48-.96-4.87-1.01-.78-.1-.33-5.38-3.9-2.82-1.46-4.5-2.74-2.17-3.12-2.42-.42-.28.15-1.55-.78-2.02-.45-.22-.71.62-1.17.4-4.85-2.28-.74.71-2.34,2.02-.21.17-2.2-2.49-4.68-2.82-1.02-.14-1.46,1.21-1.56,1.21-.16,0-1-1.2-1.17-1.21-.29,0-.66.98-5.26,1.01-.45,8.52-1.43,1.14-4.87,4.64-4.44-2.07-2.09,2.32-2.14,2.62-.09.52-8.02-1.07-2.34,5.64-3.21-.99-3.34.95-4.09,1.41-.72.44-4.51-.88-.39,3.23-4.54-.08-6.69-2.66-11.11-.2-.47.26.4,2.28-2.14,1.41-1.37,4.36-8.72.52-2.53,6.25-4.64.97-5.28-1.19-3.7,4.23l-5.85.4c-2.04,1.4.22,3.67,1.75,4.64-5.95.59-7.85,1.65-2.73,6.45.01,1.34-8.35-1.77-5.46,2.02-1.99,1.08-3.45.29-3.7,1.81-5.32-6.56-5.87-1.42-6.24-1.21-.49.28-2.36-1.51-3.9-.81-1.07.49-.25,2.4-.78,2.82-.22.17-.24-2.02-4.87,1.01,4.2,7.18-3.75-.63-1.75,5.85-5.58-4.39-3.88-.65-4.68-.4-.21.07-1.72-3.27-3.51-2.42-1.62.77.89,3.67-.39,3.63-3.35-2.74-4.6-1.06-3.12,2.82-2.13-1.47-3.58-.09-5.65,1.01,3.8,6.13-3.54-1.46-4.48,5.04-10.6-2.05-1.07,4.6-7.41,2.42-.14,5.94-1.31,1.14-4.68,2.42-2.22.84,1.87,2.48-5.46,2.82-2.97,1.29,5.52,5.78,0,2.82l-5.85.4-.58.6c5.78,7.53,1.62,2.56-1.75,2.22-4.11-.42,2.64,3.76-4.29,2.02-1.83.87,1.37,4.27,1.95,5.24-12.11-7.75-10.78-.93-13.45,1.21-.32.26-.74.41-.97.81-5.51-.5-36.78.66-38.6,0-.3-.11-.2-.53-.19-.81,7.04-7.18,12.52,3.99,8.97-4.23,2.06-1.88,4.13-3.56,4.87-6.25,2.19,2.38,8.37.99,8.77-.2.36-1.06-1.59-7.29,3.7-.6.53-.42-1.32-14.19,3.9,0,.97-6.91,3.6-1.02,3.9-1.21.92-.59-2.43-7.08,1.56-5.64,11.1-16.23,10.05-4.83,10.92-4.84,1.07,0-.55-3.51,3.31-2.62-5.88-6.2,4.05-.33,4.48-.6.73-.47-.56-1.63.39-2.42,1.21-1,2.62,1,3.31-.2-7.07-8.05.62-1.25,1.36-6.65,7.17.41,3.51,1.13,2.92-1.81-.62-3.12,2.73-.76,3.31-1.01.65-.28-1.5-2.99,2.73-1.61,1.62-4.41,5.29,2.32,1.75-4.64,3.33-1.02,2.88-3.46,6.43-1.41-.28-6.16,2.34-.02,5.26-1.41-3.54-5.87,2.02-2.21,2.34-2.82.11-.21-2.19-2.59-1.95-3.23.13-.34,5.44-1.77,6.04-.6.47-.35-.08-.67-.19-1.61,2.33-3.87,6.42-6.21,10.14-8.47.52-.32.96.66,1.17.2-.28-4.36,4.17-.1,4.48-.2.9-.29.24-2,1.17-2.42,2.5-1.12,3.46,5.51,3.9-4.03,6.95,7.75,2.45-.69,7.41,2.42,1.66-1.2-2.36-2.98.39-4.43,2.48,1.46,2.14-3.94,6.24.81.46-.16-4.19-7.06,4.48-4.64-3.67-2.79-2.92-4.38-3.51-5.04,2.24-3.33,10.04-12.67,13.84-10.08,1.9-1.69,3.3-4.6,6.24-4.03,2.14-4.84,7.79-3.74,8.19-4.03.49-.35-.24-1.91.78-2.42.79-.39,2.15.49,2.34.4,1.59-.74,1.07-3.53,6.04-1.21,1.43.67.09,2.87,2.92-1.61,5.43,2.56,2.42-3.19,6.63,0,1.02-9.43,4.61-.64,5.07-.81.86-.31,0-6.29,4.68-.4.35-6.64,4.32.23,5.07-.4.55-.46-.16-2.78.39-3.23.48-.38,5.88,4.09,6.24,4.03.74-.12.93-2.69,1.56-2.82.67-.14,3.6,4.76,3.9,4.84,1.29.34,2.49-3.75,3.12,2.02,3.66-5.51,2.18,4.31,4.48-.4Z"/><path class="cls-32" d="m79.29,36.6c1.56,5.76,8.23,8.81,12.48,4.03-2.39,35.3.65,106.93-.39,148.56-.1,3.91-1.04,8.01-1.17,11.89-2.76,1.79-5.21,5.62-6.63,4.84-2.48-7.97-14.71-14.44-8.77-12.9.44-2.98-3.54-5.44-2.92-6.45,7.61,3.86.38-7.94-3.51-14.31,1.03-1.42,15.23,8.04-1.17-11.89.16-.8-.66-1.02-.19-1.21.61-.25,2.43,2,2.92,1.01-3.06-6.3.39-2.84.78-3.63.28-.56-.95-1.55-1.17-4.64-1.72-24.51,1.3-79.39,0-108.04,3.84-.79,7.6-3.33,8.97-7.26.26,0,.52,0,.78,0Z"/><path class="cls-32" d="m130.37,36.6c0,2.28.01,4.57,0,6.85-.01,2.33-.31,4.57-.39,6.85-17.83,9.77-18.02,22.1,0,4.43v138.68c0,.4,0,.81,0,1.21-11.67,6.1-10.9,10.99-11.89,23.38l-7.6-15.32c-.2-53.35.15-106.7,0-160.05,3.24-.03,7.27.38,9.94-2.02,3.67,4.84,8.58,1.31,9.16-4.03.26,0,.52,0,.78,0Z"/><path class="cls-32" d="m65.25,44.67v92.72c-1.1-3.48-2.65-6.96-3.7-10.48-.69-.19-3.6,5.16-3.7,10.48-1.43,1.26-11.26,9.86-6.43,11.29,1.33.39,3.9-2.12,1.75,2.42-.78,1.66-5.83,7.26-6.63,11.29-.15.78,2.12,1.5-.78,2.42.03-40.38-.96-81,0-121.35,4.32.49,8.02-2.41,9.55-6.45,2.82,6.98,7.57,5.49,9.94,7.66Z"/><path class="cls-29" d="m58.23,228.1c.51.28,1.06.5,1.56.81,3.79,2.33,4.89,5.59,5.26,5.64,1.24.18.59-5.88,5.07,0,2.51-3.9,4.91,4.04,5.85,4.03.61,0,.75-3.04,2.73-2.02,2.34,1.21,1.46,6.1,5.65,6.65,1.55,5.47,2.93,2.58,5.07,4.23,2.22,1.71,2.02,5.9,1.17,8.26l4.29,5.04c.04,5.4.78,10.9.39,16.33-.33.96-2.79-1.88-4.48,3.83-.71-1.34-1.56-2.66-2.73-3.63-7.29-6.07-5.85,1.24-2.14-7.46-.34-1.06-4.3-.72-5.85-.81,4.64-3.82,1.71-8.84-2.53-3.43-2.09-5.12-4.07,1.28-3.12-6.45-7,1.78-3.63,2.53-5.46-3.23-8.11,2.33.86-1.09-8.58-3.63-1.29,5.17-1.16-1.28-4.68,1.21-1.22-5.34-3.61-1.09-3.9-1.21-.16-.06-.57-2.17-1.95-2.82-1.43-.67-1.12,1.22-4.09-1.21,0-5.38,0-10.75,0-16.13.95-.36.95-.85,0-1.21,0-1.21,0-2.42,0-3.63,1.95,3.63,1.72,1.22,2.92-1.61,7.46,13.63,1.1-3.67,8.58,6.05.03-3.52.94-3.41.97-3.63Z"/><path class="cls-43" d="m445.06,334.13c-.08.79.05,1.62,0,2.42-61.61.02-123.22-.02-184.84,0-1.33-3.06,6.41-.38,6.63-2.42h178.21Z"/><path class="cls-13" d="m445.06,37.81c.24,1.16-.05,5.7,0,8.06-4.45,8.08-9.34,17.33-7.41,27.01-1.19,5.44-3.34,10.6-4.29,16.13-.77-15.94-3.19-32.13-2.53-47.97.44.57,1.16.6,1.75.81.15.05,1.63,1.37,2.92,1.21.66-.08,7.45-4.85,9.55-5.24Z"/><path class="cls-43" d="m172.48,336.55c-42.24-.03-84.49.02-126.73,0-.05-.93.08-1.89,0-2.82,41.98,1.23,83.98-.09,125.95,0,2.97,0,3.33-.39,3.51-.4,1.68,1.02-.78,1.95-2.73,3.23Z"/><path class="cls-25" d="m200.17,334.13c5.04.03,14.46,2.06,18.72-.81,0,.28-.1.7.19.81,1.82.66,33.09-.5,38.6,0,.23-.39.65-.55.97-.81,2.41,1.48,5.46.08,8.19.81-.22,2.04-7.96-.64-6.63,2.42-29.25.01-58.49.02-87.74,0,1.95-1.28,4.41-2.21,2.73-3.23.05,0-.03-.34.58-.81,2.09,2.66,16.91,1.57,24.37,1.61Z"/><path class="cls-13" d="m445.06,112.4c0,1.34,0,2.69,0,4.03-1.5,1.66-4.1,6.49,0,5.64.01,8.73,0,17.47,0,26.2l-2.73,1.21c-1.29-9.41-2.54-18.83-3.9-28.22,1-1.09,2.02-4.62,2.34-6.25,1.87-9.54-2.19-6.43,4.29-2.62Z"/><path class="cls-11" d="m445.06,59.99c-9.68,4.86-6.33,7.99-7.41,12.9-1.93-9.68,2.96-18.93,7.41-27.01.1,4.7-.03,9.41,0,14.11Z"/><path class="cls-19" d="m45.75,232.13c0-.4,0-.81,0-1.21.95.36.95.85,0,1.21Z"/><path class="cls-13" d="m405.28,53.13c2.44,3.68,6.23,10.38,10.92,10.08.07,6.78-.05,13.57,0,20.36,1.69,7.85,1.13,15.87,1.56,23.79.23,4.26,1.31,8.65,1.56,12.9.9,15.63,1.38,31.34,2.34,46.97h-.39c-4.93.55-1.47-.92-3.51-7.86-.69-2.36-5.14-8.81-5.85-12.9-.72-1.05-6.02,8.35-6.63,9.68-6.61,14.35-.4,8.94,0,9.68.87,10.84-5.94,7.04-7.6,14.31,10.26-3.71-6.81,8.2-2.34,9.27.76.18,6.91-2.82,8.38-3.23-2.27,3.42-4.29,6.62-5.85,10.48-.79,1.94.23,2.17,0,3.02-1.98,1.02-3.1,3.27-4.68,4.64-1.37,1.18-4.17,2.96-5.85,3.83l-.39-142.11c1.73-.77,6.92-8.11,8.77-10.08,1.54,3.17,4.73,3.92,7.21,1.41,1.18-1.19,1.35-4.39,2.34-4.23Z"/><path class="cls-28" d="m334.31,93.04c-2.78,34.99,1.46,70.06,2.73,105.02.16,4.5-.49,9.09-.39,13.51q-4.68,4.84-9.36,9.68c-1.73-4.98-5.17-25.82-6.24-32.45-7.13-44.43-10.25-89.43-10.14-134.45.39-.58,3.97-1.05,8.19-10.89-1.18,37.14.72,74.52.19,111.67l4.48-.2.39-111.07c3.51.8,9.01-2.9,9.36-2.22.33,17.12.1,34.29.78,51.4Z"/><path class="cls-13" d="m367.07,64.02c-1.24,5.61,1.23,98.54-.39,114.49-4.59-13.63-8.38-45.72-8.97-60.67-.23-5.84-.47-48.69,0-51.2.08-.42,3.28-6.38,3.9-7.46,1.92,2.01,2.5,4.03,5.46,4.84Z"/><path class="cls-30" d="m342.89,251.89c.59.66-.16,2.25,3.51,5.04-8.67-2.42-4.02,4.48-4.48,4.64-4.1-4.75-3.76.65-6.24-.81-2.75,1.45,1.27,3.23-.39,4.43-4.96-3.1-.46,5.33-7.41-2.42-.44,9.54-1.39,2.91-3.9,4.03-.93.41-.27,2.13-1.17,2.42-.31.1-4.77-4.16-4.48.2-.21.46-.64-.52-1.17-.2-8.26-5.75-13.89-8.73-19.5-17.74,1.82-3.68,4-7.15,6.82-10.08l2.92,6.65c-.51-3.04-.98-5.63,0-8.67,1.37.67,1.15,1.25,2.14,1.21l.19-3.23c2.98-2.4,4.09,4.82,4.48,4.84.64.03,3.06-8.13,5.07,7.26,4.21-17.35,5.25-5.31,5.85-4.84.1.08,1.15-1.78,2.34-1.21,1.01.49.28,2.01.78,2.42.36.3,4.38-4.81,4.29,4.84,3.19-5.98,6.23,1.01,5.85,6.05,1.72-1.06,1.12-8.62,4.48-4.84Z"/><path class="cls-27" d="m411.13,202.3c.16,2.28,1.68,7.86,1.75,11.29,1.48-2.48,3.63-13.16,6.43-10.28,3.35,3.43-1.08,12.66,4.68,2.22.49,8.68-.69,17.53.39,26.2-2.3,4.72-.83-5.11-4.48.4-.63-5.76-1.83-1.68-3.12-2.02-.3-.08-3.23-4.98-3.9-4.84-.63.13-.82,2.7-1.56,2.82-.36.06-5.76-4.42-6.24-4.03-.55.44.16,2.76-.39,3.23-.75.63-4.72-6.24-5.07.4-4.69-5.89-3.82.09-4.68.4-.46.17-4.05-8.62-5.07.81-4.21-3.19-1.2,2.56-6.63,0-2.83,4.48-1.5,2.28-2.92,1.61.51-4.7,1.78-9.17,4.09-13.3,2.6,17-.21,6.07,3.31-3.02.88-2.26,4.3-6.03,5.46-8.67,3.66,17.5,1.03,8.35,6.43-3.23,2.94,11.96.07,7.84,5.07-1.21,1.99,5.03,1.94.16,2.53.6,1.07.8-.3,6.29,1.56,1.01.35-1,.38-2,1.17-2.82.1,1.06.16,2.05,1.17,2.42Z"/><path class="cls-29" d="m133.1,279.3c.07,5.41.76,10.89.39,16.33,8.11,1.76,5.8,8.17,6.43,8.67,1.6-1.52,1.92-2.93,3.31-1.01,2.08,11.58,1.92-5.83,1.95-15.92,1.19,1.3,2.91,1.86,4.29,2.82,2.26,1.57,4.31,2.96,6.63,4.43,9.34,5.94,7.12,5.96,7.6,6.05.11.02,1.05-1.23,1.17-1.21.57.08,5.05,8.33,5.65,9.88,1.96,2.17,4.55,3.28,7.02,4.64,2.03,1.11,4.17,2.18,6.24,3.23.96,10.46,2.51,1.65,3.9,3.02,1.06,2.02.3,12.97,2.34,6.25,2.56-2.34,4.21,4.94,4.87,5.24,2.28,1.05.71-3.94,5.26,2.42-7.46-.04-22.28,1.05-24.37-1.61-.61.47-.54.8-.58.81-.18,0-.54.41-3.51.4.76-7.25-6.83-3.81-8.58-5.44-2.68-2.51,2.11-2.69-.58-4.23-1.34-.77-7.27.37-9.75-1.21,1.1-1.02,2.79-.67,1.75-2.62,5.02-1.97-1.42-4.02-4.09-1.01,1.69-8.96-2.92-2.64-4.29-3.23-.37-.16,1.53-4.9-5.07-1.61.06-5.41-1.92-3.5-6.24-3.63,5.34-8.06-.37-4.65-.58-5.04-.22-.4,4.12-7.34-3.31-3.02-.1-8.9-4.27.81-3.31-4.64-3.14-1.07-1.45-4.02-4.48-.6-3.87-2.53-2.65-7.21-6.24-1.21-6.2-8.46-2.88,3.84-5.26.2-1.95-2.96-.36-24.57-.39-29.63,4,.74,5.72-1,7.99,4.03,1.62-3.25,2.54,2.22,5.46,3.23.52.18,2.53-2.8,8.38,5.24Z"/><path class="cls-35" d="m128.42,261.56c.06.78.38,5.09.58,5.24.17.13,2.43-1.21,4.09-.81.02,4.42-.06,8.92,0,13.3-5.86-8.04-7.86-5.06-8.38-5.24-2.92-1.01-3.84-6.48-5.46-3.23-2.27-5.03-4-3.29-7.99-4.03-.04-6.83-.34-13.71-.39-20.56,1.91-.47,6.02,5.3,6.43,5.24,1.99-8.68,2.41,2.25,11.11,10.08Z"/><path class="cls-10" d="m269.97,259.95c-3.45,9.4-.38,8.09,1.17,15.92h.78c.22-3.04.69-6.15,1.56-9.07,3.55-11.87,5.75-8.34,9.55,3.23.45-2.23.63-4.7,1.36-6.85,1.79-5.27,2.67-2.72,3.31,2.82,5.84-8.39,3.92,16.62,5.85-.81,1.4-.44,3.28,6.93,3.12,8.06,1.42-10.21,6.65-1.41,6.24,4.03,1.59-9.46,3.02-8.24,4.09.4.12.94.66,1.26.19,1.61-.6-1.16-5.92.27-6.04.6-.24.63,2.06,3.02,1.95,3.23-.32.61-5.88-3.05-2.34,2.82-2.92,1.39-5.55-4.75-5.26,1.41-3.55-2.05-3.1.39-6.43,1.41,3.53,6.96-.13.23-1.75,4.64-4.23-1.37-2.08,1.33-2.73,1.61-.58.25-3.93-2.12-3.31,1.01.58,2.95,4.24,2.22-2.92,1.81-.74,5.41-8.43-1.4-1.36,6.65-.69,1.2-2.11-.8-3.31.2-.95.79.34,1.95-.39,2.42-.43.28-10.36-5.6-4.48.6-3.86-.89-2.25,2.61-3.31,2.62-.87,0,.18-11.4-10.92,4.84-3.99-1.43-.64,5.06-1.56,5.64-.3.19-2.93-5.7-3.9,1.21-5.21-14.19-3.37-.42-3.9,0-5.3-6.69-3.34-.45-3.7.6-.41,1.19-6.59,2.58-8.77.2-.75,2.68-2.82,4.37-4.87,6.25,3.55,8.22-1.93-2.95-8.97,4.23-4.26,2.87-13.68.83-18.72.81-4.56-6.36-2.98-1.37-5.26-2.42-.66-.3-2.32-7.58-4.87-5.24.13-.41-.66-3.85,3.31-7.66l2.73,5.24c.94-13.28,3.82-5.66,4.29-6.05.28-5.36,1.62-6.09,4.09-1.21.26.73.53,1.66.78,2.42.1.31-.23,1.3.58,2.42.55-.82-.16-1.6-.19-2.82-.28-10.04,7.02-17.77,6.43-7.26,3.87-9.51,5.48-3.74,5.85-4.03.78-.63.91-21.69,7.41-4.43-.29-3.03-.8-14.58,2.73-6.85.86-7.9,4.74-10.91,5.46-1.61,2.03-5.04,3.42-14.06,5.65-10.48,4.27,8.17,1.24,4.18,2.34-1.81.58-3.18,4.69-10.62,6.43-3.83.26-.05.61-3.98,1.36-5.24.07-.12,1.69-1.88,2.14-1.61,5.24,9.14,2.3,1.43,3.7-1.81,1.57-3.63.38,4.35,5.65,9.07.53-.37-.26-5.59,6.82-10.68.18-2.65-.16-5.24-.39-7.86l2.53-1.21.19.81Z"/><path class="cls-28" d="m288.69,164.4c1.14,1.23,6.75,8.62,7.02,9.47.58,1.83.15,9.12,1.17,5.44l3.51,52.61c.25,1.18-1.6,5.77-1.95,6.25-.51.69-3.78,2.5-5.07,4.03-5.47-16.96-11.17-65.36-13.26-85.06,2.88,2.32,6.05,4.51,8.58,7.26Z"/><path class="cls-11" d="m294.93,88.21c0,2.01,0,4.03,0,6.05-8.07,13.24-8.97,26.32-8.97,41.52q-4.48-3.63-8.97-7.26c-.79-15.27-.3-30.67-.39-45.96,5.04-.06,6.78-2.72,10.14-6.05q4.09,5.85,8.19,11.69Z"/><path class="cls-32" d="m285.96,135.78c0,9.64.48,19.25,2.73,28.62-2.53-2.74-5.7-4.94-8.58-7.26,0-.08-.76-1.24-.78-1.41-.9-8.72-1.89-18.51-2.34-27.21q4.48,3.63,8.97,7.26Z"/><path class="cls-32" d="m282.06,41.44c-1.07,5.29,3.77,3.52,7.02,2.42-.56,2.02,2.44,2.69,3.9,5.24-1.03.5-2.14,1.01-3.12,1.61-2.85,1.76-7.35,3.64-7.02,8.06l-6.63-.81c.19-14.31-2.2-14.17,5.85-16.53Z"/><path class="cls-31" d="m282.84,58.78c.23,3.17,2.84,2.86,3.51,4.03-.19.66-.25,4.42.78,4.43-.05.05-.33.75-.39.81-3.62,3.82-6.66,8.14-10.53,11.69.07-7.25-.09-14.52,0-21.77l6.63.81Z"/><path class="cls-35" d="m298.44,238.18c2.19.25,5.97-.34,7.6,0,1.73.36,1.28,1.17,1.36,1.21-.98,3.04-.51,5.63,0,8.67l-2.92-6.65c-2.83,2.93-5,6.4-6.82,10.08-2.02-3.24-3.11-5.62-4.29-9.27,1.29-1.53,4.56-3.34,5.07-4.03Z"/><path class="cls-35" d="m284.4,263.17c-.73,2.16-.91,4.62-1.36,6.85-3.81-11.57-6.01-15.1-9.55-3.23l-1.17-8.06c2.41-1.1,3.44-1.95,5.46-3.63,1.34-1.11,2.28-2.24,3.31-3.63,2.01.04,1.8,11.09,3.31,11.69Z"/><path class="cls-36" d="m69.54,43.86c1.3,28.66-1.72,83.53,0,108.04-.68.27-1.07-1-1.17-1.41-.94-3.78-1.6-6.86-2.73-10.68-.17-.59-.21-1.85-.39-2.42V44.67c.89-1.51,2.81-.5,4.29-.81Z"/><path class="cls-32" d="m175.99,70.07c.22,30.37-.28,60.75,0,91.11-.85-.51-5.01-5.07-5.07-5.44-.22-1.39,2.15,1.31,2.34-.4.07-.62-4.01-6.39-5.07-7.26,9.57,4.02-2.06-5.09-1.56-9.68,11.11,3.77,11.02-2.96,2.73-8.47-.33-5.65-4.02-8.81-4.29-10.89-.78-5.96,2.61-4.13,2.92-4.23,3.28-1.06-1.68-10.11-1.75-10.68-.26-2.07,1.44.58,1.95-.81,1.45-3.93-4.62-10.07-5.46-13.91,4.13-2,16.68-18.64,9.94-18.14-1.13.08-15.9,15.19-16.18,16.33-.79,3.2,3.16,3.09,5.07,2.62-3.78,7.75-3.87,17.29-6.63,25-.07-12.77.01-25.53,0-38.3,4.87-1.04,5.63-5.6,6.63-9.88.62-1.03,11.61-5.73,12.48-12.5.21-1.67-.55-3.09-.78-4.64.8-2.23,1.04-4.5,1.17-6.85,1.26,4.35.28,25.34.78,26.81.1.31.51.2.78.2Z"/><path class="cls-32" d="m154.55,64.82c1.03-4.65-2.48-22.85,2.73-24.19.59-.15.73-.92,1.56.2-1.01,14.65,9.36,16.47,5.07.81.53-1.4,2.84,3.33,3.12,5.24,1.9,13.19-3.49,12.19-12.48,17.94Z"/><path class="cls-31" d="m296.88,179.32c-1.02,3.67-.59-3.61-1.17-5.44-.27-.85-5.88-8.24-7.02-9.47-2.25-9.38-2.73-18.98-2.73-28.62,0-15.21.9-28.29,8.97-41.52,0,28.34,2.2,56.71,1.95,85.06Z"/><path class="cls-31" d="m295.32,68.45c.41,6.57-.38,13.21-.39,19.75q-4.09-5.85-8.19-11.69c.25-.25,3.18-4.66,4.29-5.64.3-.27,3.47-1.87,4.29-2.42Z"/><path class="cls-30" d="m266.46,255.92c.2,1.4.6,2.44.78,4.43.23,2.62.57,5.21.39,7.86-7.08,5.09-6.3,10.31-6.82,10.68-5.27-4.72-4.08-12.7-5.65-9.07-1.41,3.25,1.53,10.96-3.7,1.81-.46-.27-2.07,1.5-2.14,1.61-9.28.4.3-8.18,3.12-11.09,0-1.18-.6-.26-1.56-.2-.48.03-3.29,1.23-4.68-.2-.15-.64,8.26-4.81,9.36-8.47.82-2.74-.23-1.32-.78-1.41-.3-.05-1.93-.17-1.95-.6.83-1.22,8.59-17.82,9.55-17.13-.32,5.09,6.35,17.26,5.07,18.54-.27.28-1.61.35-1.75.6-.07.12.49.58.78,2.62Z"/><path class="cls-30" d="m273.48,266.8c-.87,2.92-1.34,6.03-1.56,9.07h-.78c-1.55-7.84-4.62-6.52-1.17-15.92.79-.37,1.54-.85,2.34-1.21l1.17,8.06Z"/><path class="cls-49" d="m205.24,319.21l.39-.4c.03,1.23.75,2,.19,2.82-.81-1.11-.49-2.11-.58-2.42Z"/></g><path class="cls-30" d="m445.06,59.99c.1,17.47-.02,34.94,0,52.41-6.48-3.81-2.42-6.91-4.29,2.62-.32,1.63-1.34,5.16-2.34,6.25-1.05-7.31-2.81-14.47-3.9-21.77l1.95-7.86-2.73,1.81c-.17-1.45-.24-2.98-.39-4.43.95-5.53,3.1-10.69,4.29-16.13,1.08-4.91-2.27-8.04,7.41-12.9Z"/><path class="cls-47" d="m445.06,152.71h-2.34c-.15-1.07-.24-2.17-.39-3.23l2.73-1.21c0,1.48,0,2.96,0,4.43Z"/><path class="cls-2" d="m445.06,122.07c-4.1.85-1.5-3.99,0-5.64,0,1.88,0,3.76,0,5.64Z"/><path class="cls-13" d="m434.53,99.5c-.16-2.02-.55-4.04-.78-6.05l2.73-1.81-1.95,7.86Z"/><path class="cls-15" d="m128.42,261.56c-8.71-7.83-9.13-18.76-11.11-10.08-.41.06-4.52-5.72-6.43-5.24-.12-14.52-.34-29.02-.39-43.54l7.6,15.32c1-12.4.22-17.29,11.89-23.38-.12,7.12-.77,7.08-.78,7.46-.17,9.27.17,18.55,0,27.82,0,.15-.78,2.68-.78,2.82-.11,7.13-.42,23.44,0,28.83Z"/><path class="cls-4" d="m266.46,255.92c-.29-2.04-.85-2.5-.78-2.62.14-.26,1.48-.33,1.75-.6,1.28-1.29-5.39-13.45-5.07-18.54-.96-.68-8.73,15.92-9.55,17.13.02.44,1.65.55,1.95.6-1.71,7.39-10.44,7.49-14.04,13.3-3.84-9.59-3.1-11.82-11.31-19.96h6.63q-4.68-3.83-9.36-7.66c-.25-1.73,5.07.4,6.24-1.21-7.19-7.87-3.18-6.04-3.12-6.85.03-.43-3.47-2.03-3.51-2.42-.18-1.84,9.82-3.49,2.14-7.86q4.19-1.51,8.38-3.02c-2.03-.74-2.59-1.72-2.73-1.81-.06-.93.08-1.9,0-2.82-.07-.8.14-.82-.39-1.61,3.12-2.02,1.95-5.11,2.34-6.85.15-.7-.04-.62,0-.81.61-2.63,1.9-5.75,2.53-8.47,6.74,8.88-1.21-1.65,9.16-14.31,4.2-5.12,10.07-7.63,15.21-11.49,1.99,27.24,5.27,54.41,7.41,81.64.13,3.93.23,5.47-3.9,6.25Z"/><path class="cls-32" d="m145.19,39.02c.61,1.11,1.15,1.13,1.17,1.21.07.32.27.4.39,1.21.43,2.99-.38,50.43-.39,60.47-.03,29.69.3,59.41,0,89.1l-1.56-.4c-.21-50.73-.9-101.46-.78-152.19l1.17.6Z"/><path class="cls-32" d="m155.33,193.03c0-5.64-.03-11.29,0-16.93,1.85,2.65,3.4,2.43,3.51,2.62.48.89-2.27,12.62-3.51,14.31Z"/><path class="cls-41" d="m408.79,202.7c-1.86,5.28-.49-.2-1.56-1.01-.59-.45-.55,4.43-2.53-.6-5,9.05-2.13,13.17-5.07,1.21-5.4,11.57-2.77,20.73-6.43,3.23-.08-.37.05-.82,0-1.21,1.58-1.36,2.7-3.62,4.68-4.64.23-.85-.79-1.08,0-3.02,7.67-3.13,13.08-5.22,10.92,6.05Z"/><path class="cls-47" d="m421.27,167.22c-9.96,7.9-10.42,17.58-10.14,29.83.04,1.73-.12,3.52,0,5.24-1.01-.37-1.07-1.36-1.17-2.42-.41-4.44,1.8-12.25-3.31-14.11-2.24-.81-1.86.11-2.92.4-1.47.4-7.62,3.41-8.38,3.23-4.47-1.07,12.6-12.98,2.34-9.27,1.66-7.27,8.47-3.47,7.6-14.31-.4-.73-6.61,4.67,0-9.68.61-1.32,5.91-10.73,6.63-9.68.71,4.09,5.16,10.54,5.85,12.9,2.04,6.94-1.42,8.42,3.51,7.86Z"/><path class="cls-29" d="m422.83,185.37c-2.82-3.89-9.15,8.52-11.7,11.69-.28-12.25.17-21.94,10.14-29.83h.39c.23,3.78,1.31,9.57,1.56,13.91.16,2.74-.4,3.96-.39,4.23Z"/><path class="cls-29" d="m409.96,199.88c-.79.83-.82,1.82-1.17,2.82,2.16-11.27-3.25-9.18-10.92-6.05,1.56-3.86,3.58-7.07,5.85-10.48,1.06-.29.69-1.22,2.92-.4,5.12,1.86,2.9,9.67,3.31,14.11Z"/><path class="cls-29" d="m422.83,185.37c.24,4.76,1.7,9.47,1.17,14.31-2.46-.65-.23,1.76,0,5.85-5.76,10.44-1.33,1.21-4.68-2.22-2.81-2.88-4.96,7.8-6.43,10.28-.08-3.43-1.59-9.01-1.75-11.29-.12-1.72.04-3.51,0-5.24,2.55-3.17,8.88-15.58,11.7-11.69Z"/><path class="cls-39" d="m262.56,155.53c-4.76,3.4-18.36,18.86-15.99,9.88.27-1.01,12.87-12.89,15.21-13.91.01.21.59,1.09.78,4.03Z"/><path class="cls-39" d="m261,141.83c-4.04,9.22-12.76,10.11-8.58,3.43.96-1.54,5.49-3.91,8.19-7.46.05,1.27.33,2.69.39,4.03Z"/><path class="cls-1" d="m204.46,316.79c-2.47-4.88-3.81-4.15-4.09,1.21-.47.39-3.35-7.24-4.29,6.05l-2.73-5.24c-3.98,3.81-3.19,7.25-3.31,7.66-2.04,6.72-1.28-4.23-2.34-6.25-1.39-1.37-2.94,7.43-3.9-3.02-.39-4.3.06-13.7,0-19.35,3.66.86,3.77,10.02,7.6,10.89,2.36.53,4.22-4.7,7.02-3.23.56.29,5.63,10.14,6.04,11.29Z"/><path class="cls-28" d="m250.86,261.97c-9.19,10.73-4.92,12.28-9.75,6.25,1.27-.81.25-1.42-.39-3.02,3.6-5.81,12.33-5.92,14.04-13.3.55.09,1.6-1.33.78,1.41-1.1,3.66-9.51,7.82-9.36,8.47,1.39,1.43,4.2.23,4.68.2Z"/><path class="cls-13" d="m191.2,216.01c-1.43,1.31,1.12,1.42,1.17,2.62.02.43-3.3,4.79-4.09,7.46-1.87-3.94-.32-8.31-1.36-12.5.85.8,1.79,1.5,2.53,2.42,1.59-1.63,1.64.02,1.75,0Z"/><path class="cls-23" d="m239.16,284.14c-2.23-3.58-3.62,5.45-5.65,10.48-.72-9.3-4.6-6.29-5.46,1.61-3.52-7.73-3.02,3.82-2.73,6.85-6.5-17.26-6.62,3.8-7.41,4.43-.37.3-1.98-5.48-5.85,4.03.58-10.52-6.71-2.79-6.43,7.26l-.39.4c-.25-.76-.52-1.69-.78-2.42-.41-1.15-5.49-10.99-6.04-11.29-2.8-1.48-4.66,3.75-7.02,3.23-3.83-.86-3.94-10.03-7.6-10.89-.01-1.34.01-2.69,0-4.03,3.14.16-.3-2.23,1.36-4.03,1.12-1.21,16.64-8.04,6.43-7.86-1.21-2.53,7.12-2.87-4.29-4.03,1.36-1.66,8.15-3.61,8.77-4.23,2.22-2.24-7.1-1.45.19-3.02-5.81-1.54,1.75-2.65,4.68-4.84-.01-1.39-8.89.76,3.12-6.85l-8.19,1.21c1.5-2.29,13.13-7.45,13.65-8.06,1.64-1.94-8.25,1.45-8.19,0l6.24-6.85-5.85.4c-.31-.4,3.42-3.8,3.9-4.23,1.16-1.04,8.84-5.69,7.21-6.85-10.48,3.32-2.47.2,1.36-8.26.06,1.65-.25,3.24.39,4.84,1.05,2.62,19.56,17.38,5.65,11.09-2.85.72,8.94,9.13,7.41,10.08-20.54-12.02-8.18,4.8,2.92,15.12.24,1.4-6.95-1.21-7.41-.4q6.82,5.64,13.65,11.29l-5.46,1.61c6.96,8.02,4.35,1.99,6.82,2.22,1.28.12.91,1.9.97,2.02Z"/><path class="cls-28" d="m205.63,241.4c-.48.43-4.21,3.83-3.9,4.23l5.85-.4-6.24,6.85c-.06,1.45,9.83-1.94,8.19,0-.52.61-12.15,5.77-13.65,8.06l8.19-1.21c-12,7.61-3.13,5.46-3.12,6.85-2.93,2.19-10.49,3.3-4.68,4.84-7.29,1.57,2.02.79-.19,3.02-.62.63-7.41,2.58-8.77,4.23,11.41,1.17,3.08,1.5,4.29,4.03,10.21-.18-5.32,6.65-6.43,7.86-1.66,1.8,1.78,4.19-1.36,4.03-.12-14.51.14-29.03,0-43.54,8.62-6.64,6.98-14.2,13.06-20.16l8.77,11.29Z"/><path class="cls-32" d="m236.04,203.11c-.39,1.74.79,4.84-2.34,6.85-.56-.84-17.88-13.45-9.16-12.9,1.71.11,9.38,4.7,11.5,6.05Z"/><path class="cls-28" d="m236.04,202.3c-.04.19.15.11,0,.81-2.13-1.34-9.79-5.94-11.5-6.05-8.72-.55,8.61,12.06,9.16,12.9.53.8.32.81.39,1.61l-8.97-2.62c-.24.7,8.16,4.92,8.97,5.44.14.09.7,1.07,2.73,1.81q-4.19,1.51-8.38,3.02c7.68,4.37-2.33,6.02-2.14,7.86.04.39,3.54,1.99,3.51,2.42-.06.82-4.07-1.02,3.12,6.85-1.17,1.61-6.49-.52-6.24,1.21q4.68,3.83,9.36,7.66h-6.63c8.21,8.13,7.47,10.36,11.31,19.96.64,1.6,1.66,2.21.39,3.02,4.83,6.03.55,4.48,9.75-6.25.96-.05,1.56-.98,1.56.2-2.82,2.9-12.4,11.49-3.12,11.09-.76,1.26-1.11,5.19-1.36,5.24-1.75-6.79-5.85.65-6.43,3.83-1.1,5.99,1.93,9.99-2.34,1.81-.06-.12.3-1.9-.97-2.02-2.47-.23.13,5.8-6.82-2.22l5.46-1.61q-6.82-5.64-13.65-11.29c.46-.8,7.65,1.8,7.41.4-11.1-10.32-23.46-27.14-2.92-15.12,1.53-.95-10.25-9.36-7.41-10.08,13.9,6.3-4.61-8.46-5.65-11.09-.64-1.6-.33-3.19-.39-4.84-3.83,8.46-11.84,11.58-1.36,8.26,1.63,1.17-6.06,5.82-7.21,6.85l-8.77-11.29c-6.08,5.96-4.44,13.51-13.06,20.16-.13-13.57-.26-27.15-.39-40.72,1.4,1.08,2.24,2.83,3.51,4.03,1.05,4.18-.5,8.56,1.36,12.5.79-2.67,4.11-7.03,4.09-7.46-.05-1.2-2.6-1.31-1.17-2.62,2.04-.43,5.32-4.23.58-1.21-5.52-6.02.35-6.09,6.43-13.51,0-1.65-12.75,5.29-12.87,3.23l12.87-12.9c-21.06,8.42-.58-3.43,0-6.45.06-.3.09-.83-.19-1.01q-4.19,1.51-8.38,3.02c18.53-15.17,4.99-6.87,4.29-8.47,11.37-10.18,15.96-15.39.97-6.25l-.58-.6,12.09-12.5c-14.94,5.21.43-.58.58-8.26-1.2,1.51-6.03,5.46-7.41,5.64-5.62.74,13.29-13.06,7.21-13.91,1.72-8.9-.35-1.84-4.09-.6-9.6,3.16,4.77-7.05,6.63-14.11-1.33-.65-5.28,6.1,2.73-12.9-.42,3.71,11.02,17.29,2.53,13.1.06,8.42,8.39,17.15,8.19,18.14-.57,2.88-7.07-4.15-7.8-2.82,2.44,7.41,22.84,18.42.19,7.46.09,5.3,11.53,10.3,5.85,10.08-12.23-6.56,6.48,8.28,6.43,9.47-.1,2.82-6.18-1.73-7.6-2.22-9.76-3.34,7.73,10.44,13.06,15.12-.83,1.75-10.48-6.1-13.45-3.02-2.65,2.74,4.47,5.02,8.38,9.47-.84,1.33-11.02-5.15,8.19,12.3Z"/><path class="cls-9" d="m234.09,211.57c.08.93-.06,1.89,0,2.82-.81-.53-9.21-4.75-8.97-5.44l8.97,2.62Z"/><path class="cls-20" d="m181.84,36.6v11.29c-.19,53.89,1.04,107.78,1.56,161.66.13,13.57.26,27.15.39,40.72.14,14.51-.12,29.03,0,43.54.01,1.34-.01,2.69,0,4.03.06,5.65-.39,15.05,0,19.35-2.07-1.04-4.21-2.11-6.24-3.23-.06-2.68.08-5.38,0-8.06,1.15-5.46.84-11.15.78-16.73-.32-30.97-1.17-61.96-1.56-92.93-.02-1.61.02-3.23,0-4.84-.03-2.39-.36-4.82-.39-7.26-.03-2.96.03-5.91,0-8.87-.04-3.49.03-6.99,0-10.48-.03-3.1-.39-3.45-.39-3.63-.28-30.36.22-60.75,0-91.11v-33.46c1.95,0,3.9,0,5.85,0Z"/><path class="cls-34" d="m95.66,36.6c-.3,57.31.41,114.64,0,171.94-.12,17.41-.9,34.77-.78,52.21l-4.29-5.04c.85-2.37,1.05-6.55-1.17-8.26-.58-4-.43-8.07-.39-12.09.12-11.44.79-22.85,1.17-34.27.13-3.88,1.07-7.98,1.17-11.89,1.04-41.63-2-113.26.39-148.56.09-1.33-.06-2.7,0-4.03,1.3,0,2.6,0,3.9,0Z"/><path class="cls-37" d="m218.11,36.6c-5.81,6.63-15.58,8.12-23.4,4.84-.03-.05-.74-.74-.78-.81-.87-1.44-1.45-2.85-2.73-4.03,8.97,0,17.94,0,26.91,0Z"/><path class="cls-37" d="m78.51,36.6c-1.37,3.92-5.13,6.47-8.97,7.26-1.48.3-3.4-.71-4.29.81-2.37-2.17-7.12-.68-9.94-7.66-1.54,4.04-5.24,6.94-9.55,6.45.05-2.28-.04-4.57,0-6.85,10.92-.04,21.84.05,32.76,0Z"/><path class="cls-37" d="m129.59,36.6c-.59,5.34-5.49,8.88-9.16,4.03-2.68,2.4-6.7,1.98-9.94,2.02v-6.05c6.37-.01,12.74,0,19.11,0Z"/><path class="cls-21" d="m91.76,36.6c-.06,1.34.09,2.7,0,4.03-4.25,4.78-10.92,1.73-12.48-4.03,4.16-.02,8.32.01,12.48,0Z"/><path class="cls-46" d="m175.99,36.6v33.46c-.27,0-.68.11-.78-.2-.5-1.47.48-22.46-.78-26.81.12-2.14-.09-4.31,0-6.45.52,0,1.04,0,1.56,0Z"/><path class="cls-37" d="m174.43,36.6c-.09,2.14.12,4.31,0,6.45-.13,2.36-.37,4.62-1.17,6.85-.64-4.35-2.13-9.13-3.51-13.3,1.56,0,3.12,0,4.68,0Z"/><path class="cls-24" d="m146.75,36.6l-.39,3.63c-.02-.08-.56-.1-1.17-1.21-.17-.31-.43-1.96-.78-2.42.78,0,1.56,0,2.34,0Z"/><path class="cls-34" d="m435.31,238.99c-6.6-.04-4.14-4.25-6.04-4.84-3.39-1.05-1.22,4.86-4.87-2.42-1.08-8.67.1-17.53-.39-26.2-.23-4.09-2.46-6.5,0-5.85.53-4.84-.93-9.56-1.17-14.31-.01-.27.55-1.49.39-4.23-.25-4.33-1.33-10.12-1.56-13.91-.96-15.63-1.44-31.33-2.34-46.97-.25-4.25-1.33-8.64-1.56-12.9-.43-7.92.13-15.93-1.56-23.79-.05-6.79.07-13.57,0-20.36-.06-6.32-1.72-24.12,1.17-19.96-.07,36.94,6.8,73.41,10.53,110.06,2.9,28.49,4.01,57.22,7.41,85.67Z"/><path class="cls-40" d="m319.88,40.64c1.11.7,4.03,3.17,4.29,3.23l-.39,111.07-4.48.2c.52-37.16-1.37-74.54-.19-111.67.06-1.84-.37-3.11.78-2.82Z"/><path class="cls-35" d="m337.43,236.97c-3.39-3-8.65-11.42-10.14-15.72q4.68-4.84,9.36-9.68s.77-.13.78.2c.17,8.39-.12,16.8,0,25.2Z"/><path class="cls-34" d="m298.83,66.44c-.29,57.15,5.62,114.1,10.92,170.94l-.19,3.23c-1,.04-.77-.54-2.14-1.21-.08-.04.36-.85-1.36-1.21-1.63-.34-5.42.25-7.6,0,.35-.48,2.2-5.07,1.95-6.25l-3.51-52.61c.25-28.36-1.95-56.72-1.95-85.06,0-2.01,0-4.04,0-6.05,0-6.54.8-13.18.39-19.75.76-.51,2.82-3,3.51-2.02Z"/><path class="cls-34" d="m337.43,236.97c-.12-8.39.17-16.8,0-25.2,0-.33-.78-.16-.78-.2-.1-4.42.55-9.01.39-13.51-1.27-34.97-5.51-70.03-2.73-105.02,1.31,33.08,5.53,61.58,10.14,94.14.51,18.51,3.03,36.96,3.31,55.43-3.98-1.47-7.1-2.78-10.33-5.64Z"/><path class="cls-20" d="m336.65,36.6c6.09,3,13.75,4.57,19.5,0,1.69,0,3.38,0,5.07,0-2.39,2.63-7.14,9.23-1.56,10.89-.05.02.16.66-.19.81-14.03.22-18.48,23.8-8.58,20.16,3.41-1.25,3.78-8.33,6.43-12.3,2.5-3.73,10.11-8.18,10.14-8.87.1-2.92-4.75,1.62-4.29-1.41,1.94-2.1,2.61-6.52,2.34-9.27,7.02,0,14.04-.01,21.06,0-2.48,3.93-14.04,11.77-15.79,14.11-1.64,2.19,6.7.99,12.48-3.63,2.83-2.26,6.33-6.59,6.43-10.48,1.69,0,3.38,0,5.07,0l.19,5.24.97-5.24c11.44.02,22.88-.11,34.32,0-.6,4.19.49,3.43,2.34,5.24-.6-.2-1.31-.24-1.75-.81-.66,15.84,1.76,32.03,2.53,47.97.15,1.46.22,2.99.39,4.43.23,2.01.62,4.03.78,6.05,1.09,7.3,2.85,14.46,3.9,21.77,1.36,9.4,2.61,18.82,3.9,28.22.15,1.06.24,2.16.39,3.23.67,4.85,1.15,9.76,2.34,14.51.02,28.89.04,57.79,0,86.68-5.16,1.73-.66-1.3-1.56-6.65-.89-5.31-4.87-3.22-5.07,1.21-1.42,1.81.32-6.06-3.12-9.47-3.4-28.45-4.51-57.18-7.41-85.67-3.72-36.65-10.6-73.12-10.53-110.06-2.89-4.16-1.23,13.64-1.17,19.96-4.69.3-8.48-6.4-10.92-10.08-3.58-5.4-4.86-5.39-4.48-13.3-6.48,2.98-8.17,16.53-14.82,8.87-.95,2.8-3.31,19.24.97,17.34l.39,142.11c1.68-.87,4.48-2.65,5.85-3.83.05.39-.08.84,0,1.21-1.15,2.63-4.58,6.4-5.46,8.67-3.52,9.09-.71,20.02-3.31,3.02-2.31,4.13-3.58,8.6-4.09,13.3-4.97-2.32-4.45.47-6.04,1.21-.19.09-1.55-.8-2.34-.4-1.02.5-.29,2.07-.78,2.42-.4.29-6.05-.81-8.19,4.03-2.94-.56-4.33,2.34-6.24,4.03-3.8-2.59-11.6,6.75-13.84,10.08-3.36-3.78-2.76,3.78-4.48,4.84.38-5.04-2.66-12.03-5.85-6.05.09-9.65-3.93-4.54-4.29-4.84-.5-.41.23-1.93-.78-2.42-1.19-.57-2.24,1.29-2.34,1.21-.6-.47-1.64-12.51-5.85,4.84-2.01-15.38-4.43-7.22-5.07-7.26-.4-.02-1.51-7.24-4.48-4.84-5.3-56.83-11.2-113.78-10.92-170.94.61-2.54,9.47-6.43,10.72-8.06,1.13-1.48.53-2.81,1.36-4.03-.11,45.02,3.01,90.02,10.14,134.45,1.06,6.63,4.51,27.48,6.24,32.45,1.49,4.3,6.75,12.72,10.14,15.72,3.23,2.86,6.35,4.17,10.33,5.64-.29-18.47-2.81-36.92-3.31-55.43-4.61-32.55-8.83-61.06-10.14-94.14-.68-17.11-.45-34.28-.78-51.4-.35-.68-5.85,3.02-9.36,2.22-.26-.06-3.18-2.52-4.29-3.23-1.7-1.08-1.87-3.48-7.21.4-4.85,3.53-7.06,11.97-16.18,18.95v-7.26c1.88-2.1,3.66-4.27,5.46-6.45,2.37-2.88,6.12-4.81,5.46-9.68,9.75,0,19.5,0,29.25,0Z"/><path class="cls-6" d="m445.06,152.71c0,4.84,0,9.68,0,14.51-1.19-4.75-1.67-9.67-2.34-14.51h2.34Z"/><path class="cls-18" d="m395.92,36.6l-.97,5.24-.19-5.24c.39,0,.78,0,1.17,0Z"/><path class="cls-40" d="m366.68,178.51c1.62-15.96-.85-108.89.39-114.49.2-.91,2.98-4.52,4.29-4.84,1.34,42.21.08,85.04-.58,126.99-1.52.72-3.66-6.36-4.09-7.66Z"/><path class="cls-39" d="m371.36,59.18c-1.31.31-4.09,3.93-4.29,4.84-2.96-.8-3.54-2.82-5.46-4.84.78-1.35,1.08-3.5,2.53-4.43.33-.21,6.38-1.87,7.41-2.02.73,2.55-.21,6.13-.19,6.45Z"/><path class="cls-20" d="m285.18,36.6c-.54,1.95-2.93,3.89-3.12,4.84-8.05,2.36-5.66,2.22-5.85,16.53-.09,7.25.07,14.52,0,21.77-.03.74.39,2.68.39,2.82.09,15.29-.4,30.69.39,45.96.45,8.7,1.44,18.5,2.34,27.21.02.17.77,1.33.78,1.41,2.09,19.71,7.79,68.11,13.26,85.06,1.18,3.66,2.27,6.04,4.29,9.27,5.61,9.01,11.24,11.98,19.5,17.74-3.72,2.26-7.81,4.6-10.14,8.47-1.07-8.64-2.5-9.86-4.09-.4.41-5.44-4.82-14.24-6.24-4.03.16-1.13-1.72-8.5-3.12-8.06-1.93,17.42-.01-7.58-5.85.81-.64-5.55-1.53-8.09-3.31-2.82-1.51-.6-1.31-11.65-3.31-11.69-1.04,1.39-1.97,2.52-3.31,3.63-4.35-35.46-10.75-70.79-13.65-106.43-.54-6.64-1.31-13.3-1.56-19.96-.28-7.45.69-32.43-.39-36.49,2.64-.74,2.13-8.3,3.9-14.72-.74-4.27-3.67-7.21-5.85-10.68-.11-1.07-.13-3.49-1.17-3.23,6.62-6.96,2.77-15.17,3.12-16.73,3.57-3.93,9.12-5.33,11.7-10.28,3.77,0,7.54,0,11.31,0Z"/><path class="cls-34" d="m277.77,255.11c-2.02,1.68-3.05,2.53-5.46,3.63-.79.36-1.55.84-2.34,1.21l-.19-.81-2.53,1.21c-.18-1.99-.58-3.04-.78-4.43,4.13-.78,4.03-2.32,3.9-6.25-2.14-27.23-5.42-54.4-7.41-81.64-.17-2.27-.23-4.57-.39-6.85,4.46,2.73.14-6.76,1.56-12.5,2.9,35.64,9.3,70.97,13.65,106.43Z"/><path class="cls-34" d="m262.17,92.24c1.08,4.06.11,29.04.39,36.49.25,6.66,1.02,13.32,1.56,19.96-1.42,5.74,2.9,15.23-1.56,12.5-.13-1.86.12-3.78,0-5.64-.19-2.94-.77-3.83-.78-4.03-.19-3.23-.63-6.49-.78-9.68-.06-1.35-.34-2.76-.39-4.03-.13-3.05-.32-6.23-.39-9.27-.05-1.92,0-4.08,0-6.05-.03-6.41,1.15-12.93,0-19.35.32-1.75.89-3.94,0-5.64.56-2.09.42-5.19,0-7.26,1.12.05,1.68,1,1.95,2.02Z"/><path class="cls-39" d="m260.22,103.12c-3.02,16.53-12.34,16.14-10.92,9.47.2-.93,9.2-8.77,10.92-15.12.89,1.7.32,3.9,0,5.64Z"/><path class="cls-39" d="m260.22,128.52c-22.49,18.91-18.22,7,0-6.05,0,1.96-.05,4.13,0,6.05Z"/><path class="cls-15" d="m89.03,235.36c-.55-.9-7.59-6.02-6.82-6.45,10.53,3.95,2.28-4.23-4.09-7.86,7.46-1.08-.77-6.74-1.17-9.68-.26-1.9,1.7-1.66,1.56-2.82-.05-.38-4.49-4.81-5.46-5.04-.42-.93-.68-2.08.39-1.21q5.07,1.81,10.14,3.63c1.42.78,3.87-3.05,6.63-4.84-.38,11.42-1.05,22.83-1.17,34.27Z"/><path class="cls-20" d="m144.41,36.6c.35.46.61,2.11.78,2.42l-1.17-.6c-.12,50.73.57,101.46.78,152.19.03,7.53-.03,15.05,0,22.58.09,24.71.47,49.47.39,74.18-.03,10.1.13,27.5-1.95,15.92-1.39-1.92-1.71-.51-3.31,1.01-.63-.5,1.67-6.9-6.43-8.67.37-5.44-.32-10.91-.39-16.33-.06-4.39.02-8.89,0-13.3-.35-74.44.39-148.89,0-223.35-.01-1.94.29-4.31-.39-6.05,3.9,0,7.8,0,11.7,0Z"/><path class="cls-5" d="m132.71,36.6c.68,1.73.38,4.11.39,6.05-1.57-.29-1.11.78-1.17.81-.27.12-1.07-.08-1.56,0,.01-2.28,0-4.57,0-6.85.78,0,1.56,0,2.34,0Z"/><path class="cls-34" d="m133.1,42.65c.39,74.45-.35,148.91,0,223.35-1.67-.41-3.93.93-4.09.81-.21-.15-.52-4.46-.58-5.24-.42-5.39-.11-21.7,0-28.83,0-.15.78-2.68.78-2.82.17-9.27-.17-18.55,0-27.82,0-.38.66-.34.78-7.46,0-.4,0-.81,0-1.21,2.7.44-.51-4.83,2.73-5.44-.15-48.17.2-96.4-.78-144.53.06-.03-.4-1.09,1.17-.81Z"/><path class="cls-34" d="m131.93,43.46c.98,48.13.63,96.36.78,144.53-3.24.61-.03,5.89-2.73,5.44V54.75c1.84-2.11,0-4.19,0-4.43.08-2.28.38-4.52.39-6.85.49-.08,1.29.12,1.56,0Z"/><path class="cls-39" d="m129.98,54.75c-18.02,17.67-17.83,5.34,0-4.43,0,.24,1.84,2.32,0,4.43Z"/><path class="cls-31" d="m146.36,191.01c-.05,4.56.27,18.87-.78,21.97-.11.31-.52.2-.78.2-.03-7.53.03-15.05,0-22.58l1.56.4Z"/><path class="cls-36" d="m177.55,305.91c-.4-13.91-1.25-27.79-.78-41.73l-.78-1.01c.24-3.6.03-7.28,0-10.89-.13-14.21.46-28.54,0-42.73-.13-4.03-.59-8.05-.39-12.09l1.17-1.21c.39,30.97,1.24,61.96,1.56,92.93.06,5.58.37,11.27-.78,16.73Z"/><path class="cls-32" d="m176.38,164.81c.03,3.49-.04,6.99,0,10.48-1.38-2.43-13.22-12.13-7.21-13.71,3.04-.8,4.66,2.33,7.21,3.23Z"/><path class="cls-32" d="m176.38,184.16c.03,2.44.36,4.87.39,7.26-1.39-.25-8.22-11.15-8.19-11.89.09-2.07,8.22-1.13,7.8,4.64Z"/><path class="cls-13" d="m159.61,228.91c-.16,2.36-1.21,3.35-.39,4.43-1.2,1.31-2.65,2.33-3.51,4.03-.08-12.9-.37-25.79-.39-38.7,1.52-.11,1.8-2.41,3.51-1.41.49,5.43-.74,29.24,0,31.45.11.31.52.2.78.2Z"/><path class="cls-20" d="m155.33,36.6l1.95,4.03c-5.21,1.33-1.7,19.54-2.73,24.19-.06,1.28.39,2.81.39,4.03,0,2.41-.39,2.68-.39,2.82,0,3.44.39,4.98.39,5.24.01,12.77-.07,25.53,0,38.3,0,.81,0,1.61,0,2.42.02,4.43,0,8.87,0,13.3,0,1.08,0,2.15,0,3.23,0,3.62.39,7.32.39,10.89,0,.08-.39-.44-.39,1.61,0,3.32-.32,6.81.39,10.08-1.01,1.73.01,2.3,0,2.42-.48,4.4-.36,11.08-.39,15.72-.01,1.56.39,1.15.39,1.21-.03,5.64,0,11.29,0,16.93,0,1.88,0,3.76,0,5.64.02,12.91.31,25.8.39,38.7.03,5.64-.04,11.29,0,16.93.08,13.44-.28,26.88.39,40.32-2.32-1.48-4.37-2.86-6.63-4.43q-.39-119.43-.78-238.87c-1.31-3.02.93-8.69-1.56-9.88h-.39c-.12-.81-.32-.89-.39-1.21l.39-3.63c2.86,0,5.72,0,8.58,0Z"/><path class="cls-34" d="m149.48,290.19c-1.38-.96-3.09-1.52-4.29-2.82.08-24.71-.3-49.47-.39-74.18.26,0,.67.11.78-.2,1.05-3.11.73-17.42.78-21.97.3-29.69-.03-59.41,0-89.1l1.56-.2c-.65-11.38.86-54.01,0-58.86-.04-.24-.98-.56-.78-1.41,2.49,1.18.25,6.86,1.56,9.88q.39,119.43.78,238.87Z"/><path class="cls-48" d="m146.36,101.91c0-10.05.82-57.48.39-60.47h.39c-.2.85.74,1.17.78,1.41.86,4.85-.65,47.48,0,58.86l-1.56.2Z"/><path class="cls-32" d="m155.33,145.05c0-3.57-.39-7.26-.39-10.89,11-2.64,3.85,6.25.39,10.89Z"/><path class="cls-32" d="m154.94,130.94c0-4.43.02-8.87,0-13.3,5.3-4.13,1.31.24,4.68,3.43-1.69,3.15-2.77,7.43-4.68,9.88Z"/><path class="cls-30" d="m175.99,161.18c0,.18.36.53.39,3.63-2.55-.9-4.18-4.02-7.21-3.23-6,1.58,5.83,11.28,7.21,13.71.03,2.96-.03,5.91,0,8.87.43-5.77-7.71-6.71-7.8-4.64-.03.75,6.8,11.64,8.19,11.89.02,1.61-.02,3.23,0,4.84l-1.17,1.21q-3.02-3.43-6.04-6.85c-4.25,11.05-2.36-1.57-5.46-1.61-3.88-.05-3.55,15.38-3.7,18.14-.35,6.05-.33,12.06-.78,18.14-.09,1.2.08,2.43,0,3.63-.26,0-.67.11-.78-.2-.74-2.2.49-26.02,0-31.45-1.71-1-1.99,1.3-3.51,1.41,0-1.88,0-3.76,0-5.64,1.24-1.7,3.99-13.43,3.51-14.31-.11-.19-1.66.02-3.51-2.62,0-.06-.4.35-.39-1.21,2.32-.77,4.91-12.27,3.7-12.5-.91-.18-2.7,3.29-.58-5.44l-2.73,2.22c.01-.12-1.01-.69,0-2.42,2.17-4,3.53-8.56,4.29-13.1l-4.68,3.02c0-2.05.39-1.53.39-1.61,3.46-4.63,10.61-13.53-.39-10.89,0-1.08,0-2.15,0-3.23,1.91-2.44,2.99-6.73,4.68-9.88-3.37-3.19.62-7.56-4.68-3.43,0-.81,0-1.61,0-2.42,2.76-7.71,2.85-17.24,6.63-25,.07-.02-.16-.16,1.17-.81.83,3.84,6.91,9.98,5.46,13.91-.51,1.39-2.21-1.27-1.95.81.07.57,5.04,9.62,1.75,10.68-.31.1-3.7-1.72-2.92,4.23.27,2.07,3.96,5.23,4.29,10.89,8.29,5.5,8.38,12.24-2.73,8.47-.5,4.58,11.13,13.69,1.56,9.68,1.06.87,5.14,6.64,5.07,7.26-.19,1.72-2.56-.99-2.34.4.06.37,4.21,4.93,5.07,5.44Z"/><path class="cls-32" d="m154.94,174.88c.03-4.64-.09-11.33.39-15.72l2.73-2.22c-2.12,8.73-.33,5.27.58,5.44,1.21.23-1.39,11.73-3.7,12.5Z"/><path class="cls-32" d="m155.33,156.74c-.71-3.27-.39-6.76-.39-10.08l4.68-3.02c-.76,4.54-2.12,9.1-4.29,13.1Z"/><path class="cls-39" d="m169.75,36.6c1.38,4.18,2.87,8.96,3.51,13.3.23,1.55.99,2.97.78,4.64-.87,6.77-11.86,11.47-12.48,12.5-1,4.28-1.76,8.83-6.63,9.88,0-.26-.39-1.8-.39-5.24,1.9-1.32,4.03-6.44.39-2.82,0-1.22-.45-2.75-.39-4.03,8.99-5.75,14.38-4.75,12.48-17.94-.28-1.91-2.59-6.65-3.12-5.24,4.29,15.67-6.08,13.84-5.07-.81-.83-1.12-.97-.35-1.56-.2l-1.95-4.03c4.81,0,9.62,0,14.43,0Z"/><path class="cls-32" d="m154.55,71.68c0-.14.38-.41.39-2.82,3.64-3.62,1.51,1.5-.39,2.82Z"/><path class="cls-39" d="m256.71,36.6c-1.14,12.24-14.38,17.44-20.28,26.61-1.9-.1-1.87-1.22-3.9-1.21-1.55-2.34.98-8.32.58-8.47-2.4,2.22-1.54,5.63-1.75,8.47-.02.31-.06.44-.39.4-.36-1.41-.44-3.15-.58-3.23-6.26,16.62-18.99,14.93-11.5,4.64,2.7-3.71,11.51-7.72,15.99-17.34l-.58-.6c-6.94,4.24-11.54-1.58-.97-3.63.12.03.26-.01.39,0,3.4.33,10.73-4.99,10.53,1.61-1.74.58-5.16.55-7.21.81-.24.3-.57.28-.39.81,1.55,4.59,15.4-2.37,14.62-8.47v-.4c1.82,0,3.64,0,5.46,0Z"/><path class="cls-20" d="m265.29,36.6c-5.47,8.37-6.25,9.41-9.75,18.54-3.03-3.42-3.1,5.19-2.34-5.44-7.37,4.02-2.93,6.21-7.8,13.51-3.79-3.13-5.78.17-8.97,0,5.9-9.17,19.13-14.37,20.28-26.61,2.86,0,5.72,0,8.58,0Z"/><path class="cls-39" d="m307.41,36.6c.66,4.87-3.09,6.79-5.46,9.68-.41-.2-.81-.53-1.17-.81-1.57-1.22-2.64-2.28-3.9-3.83l-.39-1.81c-2.26.89-5.22,3.29-7.41,4.03-3.25,1.1-8.09,2.87-7.02-2.42.19-.95,2.57-2.89,3.12-4.84,7.41,0,14.82,0,22.23,0Z"/><path class="cls-20" d="m389.68,36.6c-.11,3.89-3.6,8.22-6.43,10.48-5.78,4.62-14.12,5.82-12.48,3.63,1.75-2.34,13.31-10.18,15.79-14.11,1.04,0,2.08,0,3.12,0Z"/><path class="cls-39" d="m365.51,36.6c.27,2.76-.4,7.17-2.34,9.27-2.15,2.32-3.11,1.44-3.51,1.61-5.58-1.65-.83-8.25,1.56-10.89,1.43,0,2.86,0,4.29,0Z"/><path class="cls-20" d="m243.06,36.6c.45.75,1.35,1.02,1.56,0,2.21,0,4.42,0,6.63,0v.4c-3.01,1.98-3.47,5.66-7.02,6.85.21-6.6-7.13-1.28-10.53-1.61-1.68-1.7,2.28-2.13,5.07-5.64,1.43,0,2.86,0,4.29,0Z"/><path class="cls-16" d="m430.24,36.6c4.94.05,9.88-.04,14.82,0,.05.39-.08.83,0,1.21-2.1.39-8.89,5.16-9.55,5.24-1.3.16-2.77-1.16-2.92-1.21-1.85-1.81-2.94-1.06-2.34-5.24Z"/><path class="cls-39" d="m356.15,36.6c-5.75,4.57-13.41,3-19.5,0,6.5,0,13,0,19.5,0Z"/><path class="cls-24" d="m238.77,36.6c-2.79,3.51-6.75,3.94-5.07,5.64-.13-.01-.27.03-.39,0-2.85-.62-2.67-3.45-3.9-5.64,3.12,0,6.24,0,9.36,0Z"/><path class="cls-7" d="m244.62,36.6c-.21,1.02-1.11.75-1.56,0,.52,0,1.04,0,1.56,0Z"/><path class="cls-18" d="m319.88,40.64c-1.15-.29-.72.98-.78,2.82-4.22,9.84-7.8,10.31-8.19,10.89-.83,1.22-.23,2.55-1.36,4.03-1.25,1.63-10.11,5.52-10.72,8.06-.69-.99-2.75,1.5-3.51,2.02-.81.55-3.99,2.15-4.29,2.42l-4.29-2.82c.06-.06.34-.75.39-.81,1.64-1.69,2.98-3.64,5.07-4.84,1.18-.76,3.31-1.67,4.29-2.42,9.13-6.98,11.33-15.42,16.18-18.95,5.34-3.88,5.51-1.48,7.21-.4Z"/><path class="cls-16" d="m405.28,53.13c-.99-.16-1.16,3.04-2.34,4.23-2.48,2.51-5.67,1.76-7.21-1.41-1.85,1.97-7.04,9.31-8.77,10.08-4.28,1.91-1.93-14.53-.97-17.34,6.65,7.66,8.34-5.89,14.82-8.87-.38,7.91.9,7.91,4.48,13.3Z"/><path class="cls-16" d="m359.66,47.49c.4-.17,1.36.71,3.51-1.61-.46,3.03,4.39-1.51,4.29,1.41-.02.69-7.64,5.14-10.14,8.87-2.66,3.97-3.03,11.04-6.43,12.3-9.9,3.64-5.46-19.94,8.58-20.16.35-.15.15-.78.19-.81Z"/><path class="cls-16" d="m301.95,46.28c-1.79,2.18-3.58,4.35-5.46,6.45-1.61,1.8-3.44,3.4-5.07,5.24-.66.75-4.54,4.14-4.68,4.43-.25-4.23,5.2-7.86,3.12-11.69.98-.6,2.09-1.11,3.12-1.61,3.11-1.53,2.95-1.94,3.12-2.02.24-.1,1.51,1.04,4.68-1.61.36.28.76.61,1.17.81Z"/><path class="cls-31" d="m296.49,59.99c-.98.75-3.11,1.65-4.29,2.42l-.78-4.43c1.63-1.84,3.46-3.44,5.07-5.24v7.26Z"/><path class="cls-39" d="m245.4,63.21c-4.84,7.25-11.81,9.35-14.43-.81.33.04.37-.1.39-.4,1.36,1.82,1.07,0,1.17,0,2.03,0,2,1.11,3.9,1.21,3.19.17,5.18-3.13,8.97,0Z"/><path class="cls-39" d="m291.03,70.87c-1.11.99-4.04,5.4-4.29,5.64-3.36,3.33-5.1,5.99-10.14,6.05,0-.14-.42-2.08-.39-2.82,3.87-3.55,6.91-7.87,10.53-11.69l4.29,2.82Z"/><path class="cls-39" d="m273.87,36.6c-2.58,4.95-8.12,6.35-11.7,10.28-.35,1.56,3.5,9.77-3.12,16.73l-.78,1.01c.61.75,1.86,2.07,1.95,2.22,2.18,3.47,5.11,6.41,5.85,10.68-1.77,6.41-1.26,13.98-3.9,14.72-.27-1.01-.83-1.97-1.95-2.02-2.03-9.96-1.8-2.65-2.34-.6-1.53,5.82-6.41-.47-7.21-11.09-.81,10.58-7.74,10.7-12.09,12.5-.39.16-6.14,5.83-4.87-1.01.69-3.71,8.29-5.59,9.16-6.25.74-.56,1.53-2.9,2.73-3.63,2.46-1.5,6.14,1.17,3.9-6.05-9.57,6.4,6.14-8.32,2.92-12.7.73-3.02,2.98-5.89,3.12-6.25,3.5-9.13,4.28-10.17,9.75-18.54,2.86,0,5.72,0,8.58,0Z"/><path class="cls-32" d="m260.22,66.84c-.09-.15-1.34-1.47-1.95-2.22l.78-1.01c1.04-.27,1.06,2.15,1.17,3.23Z"/><path class="cls-32" d="m254.18,65.23c3.27,9.43,7.23,10.41,7.21,11.09-.03,1.1-2.25-1.3-3.31,3.43-1.27-4.83-4.2-9.35-3.9-14.51Z"/><path class="cls-32" d="m244.23,43.86c3.55-1.19,4.01-4.88,7.02-6.85.78,6.1-13.07,13.06-14.62,8.47-.18-.53.15-.51.39-.81,2.05-.26,5.47-.22,7.21-.81Z"/><path class="cls-32" d="m232.54,62c-.1,0,.19,1.82-1.17,0,.21-2.84-.64-6.24,1.75-8.47.39.15-2.13,6.13-.58,8.47Z"/><path class="cls-13" d="m296.49,39.83l-.39,7.26c-.17.07,0,.49-3.12,2.02-1.46-2.55-4.46-3.22-3.9-5.24,2.19-.74,5.15-3.15,7.41-4.03Z"/><path class="cls-20" d="m300.78,45.47c-3.17,2.65-4.44,1.51-4.68,1.61l.39-7.26.39,1.81c1.26,1.55,2.33,2.61,3.9,3.83Z"/><path class="cls-32" d="m292.2,62.41c-2.09,1.2-3.43,3.15-5.07,4.84-1.03-.02-.97-3.78-.78-4.43,0-.03.12.16.39-.4.14-.29,4.02-3.69,4.68-4.43l.78,4.43Z"/><path class="cls-39" d="m286.74,62.41c-.27.56-.38.38-.39.4-.67-1.17-3.27-.86-3.51-4.03-.33-4.42,4.16-6.31,7.02-8.06,2.08,3.83-3.37,7.46-3.12,11.69Z"/><path class="cls-16" d="m191.2,36.6c1.28,1.18,1.86,2.59,2.73,4.03-.61,1.84-1.33,3.7-1.56,5.64-4.12-3.86-9.37-9.12-8.19-4.03l-1.17.4c.26-2.04-.33-4.03-.39-6.05,2.86,0,5.72,0,8.58,0Z"/><path class="cls-14" d="m182.62,36.6c.06,2.02.65,4.01.39,6.05-.1.81-.61,1.47-1.17,2.02v-8.06c.26,0,.52,0,.78,0Z"/><path class="cls-39" d="m190.81,61.6c1.79.21,1.48-.4,1.56-.4,4.89.05,5.68,5.27,4.68-4.43.13-.02.26.01.39,0-.13,4.25,6.08,3.32,6.63,11.89,2.63,2.97,12.56,8.82,11.31,13.3-1.64,5.88-7.59-2.83-9.55-4.64-2.26-2.07-6.78-2.07-7.8-10.89-3.28,7.51-6.54,1.89-7.21-4.84Z"/><path class="cls-39" d="m194.71,41.44c5.58,10.5-2,3.49-.78,9.07.33,1.51,5.12,5.11,7.02,5.64-2.08.09-3.33.59-3.51.6-.13.01-.26-.02-.39,0-.33.04-4.71-.84-5.46,2.62-.16.72-.21,2.09.78,1.81-.08,0,.23.61-1.56.4-.11-1.13,1.76-3.91-2.14-7.26-.02,12.33-5.74,12.51-6.43.2-.12-2.09,2.17-5.23-.39-6.65v-3.23c.56-.54,1.07-1.2,1.17-2.02l1.17-.4c.35,1.49,2.03,1.8,2.73,3.02,1.27,2.21,1.24,4.77,1.75,5.04.22.11,3.72.26,4.09-.6.46-1.08-.41-3.26-.39-3.43.23-1.94.95-3.8,1.56-5.64.04.07.75.76.78.81Z"/><path class="cls-39" d="m230.78,70.87c10.66-2.41-4.14,14.74-8.97,10.89-2.68-2.14,8.24-10.72,8.97-10.89Z"/><path class="cls-39" d="m249.89,91.84c3.71.02-1.21,9.17-5.46,10.89-10.51,4.25.19-10.92,5.46-10.89Z"/><path class="cls-39" d="m189.45,68.86c8.46,9.87-1.66,18.61-3.31,11.89-.97-3.91,1.46-8.54,3.31-11.89Z"/><path class="cls-39" d="m207.38,55.55c14.16-.98,9.1,11.52-4.87,1.01,2.14-.05,4.63-.99,4.87-1.01Z"/><path class="cls-32" d="m192.37,46.28c-.02.17.85,2.35.39,3.43-.37.87-3.88.72-4.09.6-.51-.27-.48-2.83-1.75-5.04-.7-1.22-2.38-1.53-2.73-3.02-1.18-5.09,4.07.17,8.19,4.03Z"/><path class="cls-32" d="m197.05,56.76c1,9.71.21,4.49-4.68,4.43-.99.28-.94-1.09-.78-1.81.75-3.46,5.13-2.58,5.46-2.62Z"/><path class="cls-35" d="m57.84,193.43c-.02,1.01.19,6.14-.19,6.45-8.14-7.81-.07.71.19,1.81.31,1.28.58,25.1.39,26.41-.03.22-.94.11-.97,3.63-7.48-9.72-1.12,7.58-8.58-6.05-1.2,2.83-.97,5.24-2.92,1.61-.01-13.17,0-26.34,0-39.51,5.7-6.25,8.84,1.04,12.09,5.64Z"/><path class="cls-30" d="m65.25,137.39c.18.57.22,1.83.39,2.42.17,1.68-1.64-.52-3.51,1.01.53,4.08-1.75,27.7-1.17,29.03.22.49,1.5-.19,1.56.6-.42,1.08-.58,2.25-1.56,3.02-.1,6.11.14,12.24,0,18.34-.11,5,.2,35.15-.39,36.89-.1.31-.51.2-.78.2-.5-.3-1.05-.52-1.56-.81.19-1.31-.08-25.12-.39-26.41-.26-1.1-8.34-9.62-.19-1.81.39-.31.18-5.44.19-6.45.05-2.69.24-9.6,0-11.09-.52-3.25-6.38-10.86-3.51-14.92l3.12,10.08h.78v-16.13l-12.48,4.64c0-.4,0-.81,0-1.21,2.9-.92.63-1.64.78-2.42,5.11.05,3.88-4.48,10.92-2.22.2-.36-2.65-6.55-3.12-7.46,3.99.66,5.71,12,5.07-3.02-.17-3.99-1.64-8.31-1.56-12.3.11-5.32,3.02-10.67,3.7-10.48,1.05,3.52,2.6,7,3.7,10.48Z"/><path class="cls-27" d="m57.84,193.43c-3.25-4.6-6.39-11.9-12.09-5.64,0-7.26,0-14.51,0-21.77l12.48-4.64v16.13h-.78l-3.12-10.08c-2.87,4.05,2.99,11.67,3.51,14.92.24,1.48.05,8.39,0,11.09Z"/><path class="cls-35" d="m71.88,186.58c-.62,1.01,3.37,3.47,2.92,6.45-5.94-1.53,6.3,4.93,8.77,12.9q-5.07-1.81-10.14-3.63l-.19-2.42c-.5-.29-4.27-.23-4.68,0-.9.51-9.37,14.17-6.24,13.71,1.54-.23,3.09-12,13.26-6.85-.34-1.35-1.98-2-2.53-3.23.96.23,5.41,4.66,5.46,5.04.14,1.16-1.82.92-1.56,2.82.4,2.93,8.63,8.6,1.17,9.68,6.38,3.63,14.63,11.81,4.09,7.86-.77.43,6.27,5.55,6.82,6.45-.04,4.03-.19,8.09.39,12.09-2.14-1.66-3.52,1.24-5.07-4.23-4.2-.55-3.31-5.44-5.65-6.65-1.98-1.03-2.12,2.01-2.73,2.02-.94.01-3.34-7.93-5.85-4.03-4.48-5.88-3.83.18-5.07,0-.38-.05-1.47-3.32-5.26-5.64.27,0,.68.11.78-.2.59-1.74.28-31.89.39-36.89,1.91-.62,3.94-7.47,4.48-7.66,2.88.93,5.42,2.77,6.43,2.42Z"/><path class="cls-27" d="m71.88,186.58c-1.02.35-3.56-1.49-6.43-2.42-.54.19-2.57,7.04-4.48,7.66.14-6.11-.1-12.23,0-18.34.98-.77,1.14-1.95,1.56-3.02,1.5-3.89,3.66-5.02,4.68-10.08,16.4,19.93,2.2,10.47,1.17,11.89,3.89,6.37,11.12,18.17,3.51,14.31Z"/><path class="cls-30" d="m69.54,151.9c.22,3.09,1.45,4.08,1.17,4.64-.39.78-3.84-2.67-.78,3.63-.5.99-2.32-1.26-2.92-1.01-.47.19.36.41.19,1.21-1.02,5.05-3.18,6.19-4.68,10.08-.06-.79-1.34-.11-1.56-.6-.58-1.32,1.7-24.94,1.17-29.03,1.87-1.53,3.68.67,3.51-1.01,1.13,3.83,1.79,6.9,2.73,10.68.1.41.49,1.68,1.17,1.41Z"/><path class="cls-30" d="m54.33,152.71c-.25-.49-.76-1.27-1.17-1.61,2.15-4.54-.43-2.03-1.75-2.42-4.83-1.43,5-10.03,6.43-11.29-.08,3.99,1.39,8.31,1.56,12.3.64,15.03-1.08,3.68-5.07,3.02Z"/><path class="cls-27" d="m54.33,152.71c.47.91,3.32,7.1,3.12,7.46-7.04-2.26-5.8,2.27-10.92,2.22.8-4.02,5.84-9.63,6.63-11.29.41.35.92,1.13,1.17,1.61Z"/><path class="cls-35" d="m73.44,202.3c-1.07-.87-.81.28-.39,1.21.55,1.22,2.19,1.87,2.53,3.23-10.16-5.15-11.72,6.63-13.26,6.85-3.13.46,5.34-13.2,6.24-13.71.41-.23,4.18-.29,4.68,0l.19,2.42Z"/><path class="cls-13" d="m175.99,209.56c.46,14.2-.13,28.52,0,42.73-1.56-5.63-.45-11.71-.78-17.54-6.33-6.47-5.86-20.31-8.19-16.53-.67,1.08-2.37,7.72-3.51,9.88l-3.9-2.82c.45-6.08.43-12.09.78-18.14-.14,12.57,4.89,1.61,8.38.4,1.04-.36.74,4.42,6.24-6.45.73,3.75-.66,8.65.97,8.47Z"/><path class="cls-15" d="m175.6,197.46c-.2,4.04.26,8.06.39,12.09-1.63.18-.24-4.72-.97-8.47-5.5,10.87-5.2,6.09-6.24,6.45-3.49,1.2-8.52,12.17-8.38-.4.16-2.77-.18-18.2,3.7-18.14,3.09.04,1.21,12.66,5.46,1.61q3.02,3.43,6.04,6.85Z"/><path class="cls-39" d="m162.73,89.42c-1.33.65-1.1.79-1.17.81-1.9.47-5.86.58-5.07-2.62.28-1.14,15.05-16.24,16.18-16.33,6.74-.5-5.82,16.14-9.94,18.14Z"/><path class="cls-23" d="m175.99,263.17l.78,1.01c-.47,13.94.38,27.81.78,41.73.08,2.68-.06,5.38,0,8.06-2.46-1.35-5.06-2.46-7.02-4.64-.6-1.55-5.08-9.8-5.65-9.88-.12-.02-1.06,1.23-1.17,1.21-.48-.09,1.73-.11-7.6-6.05-.67-13.43-.31-26.88-.39-40.32,2.37.57,7.9-9.77,9.16-9.27,2.14,8.34,4.66,12.65,11.11,18.14Z"/><path class="cls-28" d="m175.99,252.29c.03,3.61.24,7.29,0,10.89-6.45-5.5-8.98-9.8-11.11-18.14-1.27-.5-6.8,9.84-9.16,9.27-.04-5.64.03-11.29,0-16.93.85-1.7,2.31-2.72,3.51-4.03,1.54-1.68,3.2-3.17,4.29-5.24,1.14-2.16,2.84-8.79,3.51-9.88,2.33-3.78,1.86,10.06,8.19,16.53.33,5.83-.78,11.91.78,17.54Z"/><path class="cls-13" d="m163.51,228.1c-1.09,2.07-2.75,3.56-4.29,5.24-.82-1.09.23-2.07.39-4.43.08-1.2-.09-2.43,0-3.63l3.9,2.82Z"/><path class="cls-17" d="m1.01,66.05c-.66,19.28.14,112.9-1.01,132.34V62.01c.44,1.31.85,2.74,1.01,4.04Z"/><path class="cls-12" d="m442.97,138.18c3.3-.9,3.74-4.12,4.54-6.83,7.84-26.61,5.86-72.3,6.48-101.22,4.04-3.09,8.49-6.78,12.31-10.09-1.32,12.83-.31,25.74-.65,38.59-.39,14.8-.9,29.49-2.59,44.23-1.76,3.78-1.96,7.89-2.59,11.87-.08.47-1.22.12-1.3.59-.68,4.31.12,11.68-2.59,15.43-.14,3.96-.58,8.28-1.3,12.17-1.56,8.5-2.45,17.1-4.54,25.53-2.27,9.17-3.03,16.8-7.78,14.84,0-15.04.03-30.08,0-45.12Z"/><path class="cls-12" d="m442.97,40.82c.02-.15,1,.37.65-2.97,3.68-2.3,6.95-5.11,10.37-7.72-.62,28.91,1.36,74.61-6.48,101.22-.8,2.71-1.23,5.93-4.54,6.83-.03-18.41-.82-90.33,0-97.36Z"/><path class="cls-44" d="m481.2,6.2v10.17c-4.62,3.28-10.63,2.07-12.96,5.16-.29,12.35.4,24.76,0,37.1h-2.59c.33-12.85-.67-25.75.65-38.59,5.11-4.43,9.54-9.61,14.9-13.84Z"/><path class="cls-12" d="m442.97,183.3c4.75,1.96,5.51-5.67,7.78-14.84.57.06,1.67-.24,1.94.3.72,1.43.32,28.07,0,31.46-.77,8.13-4.25,16.33-5.83,24.34-1.3,6.59.93,11.57-3.24,10.39.02-17.23-.65-34.42-.65-51.65Z"/><path class="cls-44" d="m481.2,16.37v351.08c-1.7-1.77-5.28-3.95-7.77-6.06-1.31-1.1-2.33-1.61-3.24-2.37-3.51-2.91-6.76-5.51-10.37-8.31-4.87-3.77-9.37-8.11-14.26-11.87-.28-2.28-.23-3.22-3.24-3.57.46-33.43,1.26-66.89,1.3-100.32,4.17,1.17,1.93-3.8,3.24-10.39,1.58-8.01,5.06-16.21,5.83-24.34.32-3.4.72-30.04,0-31.47-.27-.53-1.37-.24-1.95-.29,2.09-8.42,2.99-17.03,4.54-25.53q.65,1.93,1.3,3.86c.9-12.24,2.37-23.08,7.13-34.43.25-.61-1.51-3.87,1.29-1.78.89,22.33.21,44.76.65,67.08,0,.19,1.29,3.37,1.3,3.56.15,9.24-.22,18.66-.65,27.9h1.29q-.64-57.58-1.29-115.17c.96-11.74,1.56-23.55,1.94-35.32.4-12.34-.29-24.75,0-37.1,2.33-3.09,8.34-1.88,12.96-5.16Z"/><path class="cls-44" d="m465.65,58.63h2.59c-.38,11.77-.98,23.58-1.94,35.32q.65,57.58,1.3,115.17h-1.3c.43-9.24.8-18.66.65-27.9,0-.19-1.29-3.37-1.3-3.56-.44-22.32.24-44.75-.65-67.08-2.8-2.09-1.04,1.18-1.3,1.78-4.76,11.35-6.22,22.19-7.13,34.43l-1.3-3.86c.71-3.89,1.16-8.21,1.3-12.17,2.71-3.75,1.91-11.12,2.59-15.43.08-.47,1.22-.12,1.3-.59.63-3.99.83-8.09,2.59-11.87,1.7-14.74,2.21-29.42,2.59-44.23Z"/><path class="cls-44" d="m454.63,281.55c.04-19.93.97-39.75,1.62-59.66.46,16.27,2.28,110.51.32,116.06-.11.31-1.12,1.19-1.3.59.73-18.98-.69-38.03-.65-56.99Z"/><path class="cls-26" d="m12.68,360.21c-.94.77-1.72,1.67-2.59,2.37-2.51,2.04-5.37,3.75-7.82,5.87H0v-170.06c1.15-19.44.35-113.06,1.01-132.34-.16-1.3-.57-2.73-1.01-4.04V0h.97c.27.15.58.34.91.56.18.11.36.24.55.36.34.24.7.5,1.09.79.24.16.48.34.73.52,2.2,1.59,3.83,4.38,6.48,5.64q-.97,140.11-1.94,280.21c3.5,10.43-.2,64.38.65,67.67,1.32,5.13,7.9-5.31,3.24,4.46Z"/><path class="cls-45" d="m39.9,235.54c.16-41.75.09-83.51,0-125.26-.06-26.12.23-52.24-.65-78.36,1.11.55,4.87.34,5.51.59.21.09.87,3.07,2.59,3.56,1.69.48,10.51-.68,10.69,1.78-13.22-.89-9.07,1.89-9.72,2.37-.32.24-1.14-1.23-1.94-.3,1.18,55.5.65,111.02.65,166.52v130.01c-2.35.16-4.13-.42-6.48.59l-1.94-1.78c2.27-33.16,1.17-66.49,1.3-99.73Z"/><path class="cls-44" d="m28.23,24.2c3.21,2.3,6.2,4.6,9.72,6.53.08.04.09.59,1.3,1.19.87,26.12.59,52.24.65,78.36-1.71-5.06.07-10.65-.65-15.73-.08-.53-2.66.25,0-2.37-3.05-1.41-3.94,1.72-5.83.59-4.4-2.61-6.69-60.41-5.18-68.57Z"/><path class="cls-45" d="m481.2,0v6.2c-5.36,4.23-9.79,9.41-14.9,13.84-3.83,3.32-8.28,7.01-12.32,10.1-3.41,2.61-6.68,5.41-10.36,7.71-36.72.07-73.45-.09-110.17,0-91.8.24-183.61-.17-275.41,0-.18-2.46-9-1.29-10.69-1.78-1.72-.49-2.38-3.47-2.59-3.56-.64-.25-4.4-.04-5.51-.59-1.21-.6-1.22-1.15-1.3-1.19v-.59c.36.17,2.62.48,4.21,1.78,133.71.83,267.42.9,401.13,0,1.48-.27,15.88-13.83,18.47-16.03,1.37-1.16,2.57-2.43,3.89-3.56,1.13-.97,2.15-2.04,3.24-2.97,3.13-2.66,7.91-6.76,11.34-9.36h.97Z"/><path class="cls-45" d="m480.23,0c-3.43,2.6-8.21,6.7-11.34,9.36q-1.78-1.78-3.56-3.56c-47.94,1.21-95.94-.91-143.87,0-15.23.28-32.2-.12-46.65,2.37-1.94.34-3.04,2.34-3.24,2.38-7.17,1.4-116.64-.93-137.39-.6q.33-1.18.65-2.37h99.15c9.91-8.48-16.44-2.5-17.17-7.13,53.69-.13,107.35.68,161.03,1.19,1.08-.05,2.13-.1,3.14-.15.76-.04,1.49-.07,2.2-.11,2.16-.11,4.14-.2,5.99-.29.66-.04,1.29-.07,1.92-.1.37-.02.74-.03,1.11-.05.54-.03,1.07-.05,1.58-.08,1.08-.05,2.1-.1,3.09-.15.99-.05,1.94-.09,2.86-.14,1.53-.07,2.96-.14,4.36-.21.28-.02.56-.03.84-.04.12-.01.24-.01.36-.02.43-.02.85-.04,1.28-.06.05-.01.1-.01.15-.01.47-.02.95-.05,1.42-.07,1.1-.06,2.21-.11,3.34-.16h68.75Z"/><path class="cls-45" d="m411.48,0c-1.13.05-2.24.1-3.34.16-.47.02-.95.05-1.42.07-.05,0-.1,0-.15.01-.43.02-.85.04-1.28.06-.12.01-.24.01-.36.02-.28,0-.56.02-.84.04-1.4.07-2.83.14-4.36.21-.92.05-1.87.09-2.86.14-.99.05-2.01.1-3.09.15-.51.03-1.04.05-1.58.08-.37.02-.74.03-1.11.05-.63.03-1.26.06-1.92.1-1.85.09-3.83.18-5.99.29-.71.03-1.45.07-2.2.11-1.01.05-2.06.1-3.14.15-53.68-.51-107.34-1.32-161.03-1.19-27.42.07-54.88.45-82.3.6-21.75.11-43.66.43-65.13-.6C48.1,5.28,25.22-.92,4.25,2.23c-.25-.18-.49-.36-.73-.52-.39-.29-.75-.55-1.09-.79-.19-.13-.38-.25-.55-.36-.33-.22-.64-.41-.91-.56h410.51Z"/><path class="cls-38" d="m134.51,1.05c27.43-.14,54.88-.52,82.3-.59.73,4.62,27.08-1.35,17.17,7.12h-99.15l-.65,2.37c20.75-.33,130.21,2,137.38.59.2-.04,1.31-2.04,3.24-2.37,14.46-2.5,31.42-2.09,46.66-2.37,47.93-.91,95.93,1.21,143.86,0l3.56,3.56c-1.09.93-2.11,2-3.24,2.97q-47.79.89-95.58,1.78c-1.44,2.62,1.91.94,1.62,2.97-9.28.72-5.75,2.33-6.16,2.37-.48.06-6.99-.33-9.72,0-5.36.64-11.97,2.54-17.5,2.97-14.2,1.1-32.63.97-47.31,1.19-87.62,1.3-175.46-2.32-263.1-1.78,1.69,1.58,9.45,8.02,10.04,8.31v.59c-3.52-1.93-6.51-4.23-9.72-6.53-1.29-.93-2.6-2.01-3.89-2.97-2.84-2.12-5.81-5.8-7.13-5.05-.88,56.23,2.83,112.37,3.24,168.6,2.5,28.42,3.55,58.21,7.78,85.49v72.13c-3.15,2.47-8.68,10.37-10.37,6.83.35-78.82-.98-157.91-.97-236.57l-.32,3.27h-1.3c.29-23.95-2.25-47.91-2.59-71.83-.16-10.99,1.68-22.34,1.3-33.24-.01-.39-2.4-1.3-1.94-2.97,33.91-4.7,84.34-1.55,113.73-4.45,2.93-.29,6.06-1.23,8.75-2.37Z"/><path class="cls-38" d="m371.69,17.08c29.74-2.31,60.25-.15,90.08-1.19-2.59,2.2-17,15.76-18.47,16.03-133.71.9-267.42.83-401.13,0-1.59-1.29-3.85-1.61-4.21-1.78-.6-.29-8.35-6.73-10.04-8.31,87.64-.54,175.47,3.08,263.1,1.78,14.68-.22,33.1-.09,47.31-1.19,5.52-.43,12.14-2.32,17.5-2.97,2.73-.33,9.24.06,9.72,0,.41-.05-3.13-1.65,6.16-2.37Z"/><path class="cls-45" d="m465.65,12.33c-1.32,1.13-2.52,2.4-3.89,3.56-29.82,1.04-60.34-1.12-90.08,1.19.29-2.02-3.06-.35-1.62-2.97q47.79-.89,95.58-1.78Z"/><path class="cls-45" d="m134.51,1.05c-2.69,1.14-5.82,2.09-8.75,2.37-29.39,2.91-79.82-.24-113.73,4.45-.45,1.67,1.93,2.58,1.94,2.97.38,10.91-1.45,22.26-1.3,33.24.34,23.92,2.89,47.88,2.59,71.83h1.3l.32-3.27c0,78.66,1.32,157.75.97,236.57,1.69,3.54,7.22-4.36,10.37-6.83,3.26-2.55,6.58-5.22,10.37-7.12l1.94,1.78c-.66.29-8.8,8.22-10.37,9.5-4.15,1.24-6.81,5.51-9.72,7.72-2.62,1.99-5.22,3.85-7.78,5.94,4.66-9.76-1.91.67-3.24-4.45-.85-3.3,2.85-57.25-.65-67.68q.97-140.1,1.94-280.2c-2.66-1.27-4.29-4.05-6.48-5.64C25.22-.92,48.1,5.28,69.38.45c21.47,1.03,43.38.71,65.13.59Z"/><path class="cls-42" d="m24.34,21.23c-.44,0-1.18-.14-1.3.3-2.23,8.58,2.18,65.73,3.24,79.55.04.55,1.9.05,1.94.59,1.74,21.82-1.85,103.92,0,113.39.11.58,1.81.02,1.94.59.41,1.74,1.95,13.17,4.86,10.98.69-.52-.15-3.38,1.3-3.56,3.61-.46,2.5,10.48,3.56,12.47-.13,33.24.97,66.57-1.3,99.73-3.79,1.91-7.11,4.57-10.37,7.12v-72.13c-4.22-27.27-5.28-57.07-7.78-85.49-.41-56.22-4.12-112.37-3.24-168.6,1.32-.76,4.28,2.93,7.13,5.05Z"/><path class="cls-33" d="m24.34,21.23c1.29.96,2.59,2.04,3.89,2.97-1.51,8.16.78,65.95,5.18,68.57,1.89,1.12,2.78-2.01,5.83-.59-2.66,2.62-.08,1.84,0,2.37.72,5.08-1.07,10.68.65,15.73.09,41.75.16,83.51,0,125.26-1.07-1.99.04-12.92-3.56-12.47-1.44.18-.61,3.04-1.3,3.56-2.91,2.18-4.45-9.24-4.86-10.98-.14-.58-1.83-.02-1.94-.59-1.85-9.47,1.74-91.57,0-113.39-.04-.55-1.9-.05-1.94-.59-1.06-13.82-5.47-70.97-3.24-79.55.11-.44.86-.3,1.3-.3Z"/><path class="cls-22" d="m481.2,367.45v1H13.04c-1.08-2.15-1.38-2.75-2.95-5.87.87-.7,1.65-1.6,2.59-2.37,2.55-2.09,5.16-3.95,7.77-5.94v.59q-1.45,1.78-2.91,3.57c34.55-1,69.13-.65,103.68-.6,4.04.01,8.93,1.19,12.96,1.19,56.82-.06,113.62-3.34,170.43-1.19q17.02-.89,34.03-1.78c24.24,1.77,48.64.6,72.9,1.78,20.49,1,41.41,6.13,61.89,3.56,2.49,2.11,6.07,4.29,7.77,6.06Z"/><path class="cls-44" d="m13.04,368.45H2.27c2.45-2.12,5.31-3.83,7.82-5.87,1.57,3.12,1.87,3.72,2.95,5.87Z"/><path class="cls-33" d="m336.69,335.87c13.6,4.73,31.09,1.54,46.33,1.78.12,0,1.83,1.19,1.94,1.19,16.29.24,44.87-1.46,58.97,0,.5.05,1.67,2.43,1.62,0,4.89,3.76,9.39,8.11,14.26,11.87-12.72-1.39-25.41-2.6-38.23-2.97-35.25-1.02-70.69.87-105.95,0-12.32-.31-24.65-1.73-36.94-2.37-5.31-.28-24.22.51-25.92,0-.4-.12-5.36-4.89-3.24-5.94-19.02-.6-38.03-.65-57.03-1.19-.31,0,1.19-1.39-5.18,0-7.41-1.77-19.7-.44-28.51-.59-3.41-.06-7.61-1.14-11.02-1.19-33.57-.48-67.19.38-100.77,0v-.59c96.56.04,193.11-.05,289.67,0Z"/><path class="cls-33" d="m415.1,354.27c.1-.02-.28-1.61.32-1.78,4.84-.1,7.96.17,6.16-4.75,12.82.37,25.51,1.58,38.23,2.97,3.62,2.8,6.86,5.41,10.37,8.31-18.55,1.09-37.7-1.61-55.73-3.86l.65-.89Z"/><path class="cls-33" d="m338.64,354.86c10.42-.02,72.72.09,76.47-.59l-.65.89c18.03,2.25,37.18,4.95,55.73,3.86.91.76,1.93,1.27,3.24,2.37-20.48,2.57-41.4-2.56-61.89-3.56-24.25-1.19-48.66-.01-72.9-1.78v-1.19Z"/><path class="cls-38" d="m442.32,335.27c3.01.35,2.96,1.28,3.24,3.56.05,2.43-1.12.05-1.62,0-14.1-1.46-42.68.24-58.97,0-.12,0-1.83-1.19-1.94-1.19-15.24-.24-32.73,2.95-46.33-1.78,15.75,0,100.39-1.2,105.63-.59Z"/><path class="cls-44" d="m40.54,337.05c2.35-1.01,4.13-.44,6.48-.59,33.58.38,67.19-.48,100.77,0,3.4.05,7.61,1.13,11.02,1.19,8.82.15,21.1-1.18,28.51.59,6.37-1.39,4.88,0,5.18,0,18.99.54,38.01.59,57.03,1.19-2.12,1.04,2.84,5.82,3.24,5.94,1.7.51,20.61-.28,25.92,0,12.29.65,24.62,2.07,36.94,2.37,35.26.87,70.7-1.02,105.95,0,1.8,4.92-1.32,4.65-6.16,4.75-.61.17-.22,1.76-.32,1.78-3.75.68-66.04.57-76.47.59-39.1.08-78.17-.76-117.29-.59,4.88-2.62,2.65.34,6.16-4.16.42-.53,1.2.96,1.62.3,1.63-2.57-4.93-1.31-4.21-3.86-65.01,1.59-129.78-3.76-194.73,0,1.57-1.28,9.71-9.21,10.37-9.5Z"/><path class="cls-12" d="m30.18,346.55c64.95-3.76,129.72,1.59,194.73,0-.72,2.55,5.84,1.29,4.21,3.86-.42.66-1.2-.83-1.62-.3-3.51,4.49-1.27,1.54-6.16,4.16-10.81.05-21.92,1.14-32.73,1.19-56.05.22-112.12.28-168.16-.59v-.59c2.91-2.21,5.57-6.48,9.72-7.72Z"/><path class="cls-44" d="m20.45,354.86c56.04.87,112.12.82,168.16.59,10.81-.04,21.91-1.14,32.73-1.19,39.12-.17,78.19.68,117.29.59v1.19q-17.01.89-34.02,1.78c-56.82-2.15-113.62,1.13-170.43,1.19-4.04,0-8.92-1.18-12.96-1.19-34.56-.06-69.14-.4-103.68.59l2.92-3.56Z"/><path class="cls-8" d="m476.38,47.55c0,.14,0,.27,0,.4,0,.02.03.05.05.07l.26.26c.09.09.14.2.14.34v2.1c0,.22-.13.38-.34.45,0,0-.02,0-.03.01h-4.25s-.03-.01-.05-.02c-.18-.06-.31-.22-.32-.41v-5.75s0-.05,0-.08c.01-.06.05-.09.11-.09.06,0,.1.04.1.1,0,.02,0,.05,0,.07v5.67c0,.06,0,.12.03.17.04.08.12.12.22.12h4.07c.16,0,.25-.1.25-.27v-2.08c0-.07-.02-.14-.08-.19-.09-.09-.18-.18-.27-.27-.07-.07-.11-.16-.11-.26,0-.15,0-.3,0-.45,0-.08.04-.12.12-.12.11,0,.22,0,.33,0,0-.17,0-.34,0-.51,0-.04-.04-.09-.07-.13-.16-.21-.32-.43-.48-.64-.08-.11-.13-.24-.13-.38,0-.42,0-.83,0-1.26,0-.19-.09-.28-.28-.28h-3.32c-.19,0-.28.09-.28.28,0,.02,0,.05,0,.07,0,.06-.03.1-.1.1-.06,0-.1-.03-.11-.09-.06-.3.16-.58.46-.58h3.39c.27,0,.46.2.46.47v1.27c0,.11.03.2.09.28.16.21.31.42.47.62.08.11.13.23.12.36,0,.13,0,.26,0,.38,0,.15-.09.24-.24.24-.07,0-.14,0-.21,0Z"/><path class="cls-8" d="m476.37,50.27c0,.06-.06.09-.12.08-.13-.02-.26-.05-.39-.07-.64-.1-1.29-.13-1.94-.1-.48.01-.97.07-1.45.16-.1.02-.16,0-.16-.08,0-.06.03-.11.13-.13.63-.12,1.27-.17,1.91-.17s1.27.05,1.9.17c.02,0,.04,0,.06.01.05.02.08.06.07.12Z"/><path class="cls-8" d="m472.96,48.97c0,.07.06.12.16.12h.51c.09,0,.13.04.13.11s-.05.11-.13.11h-.74c-.11,0-.15-.06-.11-.16,0-.01,0-.03,0-.05-.04-.13-.02-.24.06-.34-.11-.16-.11-.31-.02-.43.06-.08.15-.13.25-.14h.58c.07,0,.11.04.11.1s-.04.11-.11.11c-.16,0-.33,0-.5,0h-.08c-.06,0-.11.06-.1.12,0,.06.03.1.09.12.04,0,.08,0,.12,0,.15,0,.31,0,.46,0,.08,0,.13.04.13.11,0,.06-.04.1-.13.1-.17,0-.34,0-.52,0-.09,0-.15.04-.15.12Z"/><path class="cls-8" d="m475.55,47.82c-.07-.26-.25-.41-.51-.46-.27-.05-.5.02-.68.23-.13.15-.14.32-.14.51,0,.1.04.14.15.14h.53c.18,0,.36,0,.55,0,.08,0,.13-.03.13-.1,0-.1,0-.21-.02-.32Zm-.19.21h-.23c-.21,0-.41,0-.62,0-.07,0-.08-.02-.08-.08.01-.22.21-.38.46-.39.27,0,.48.18.47.43,0,0,0,.02,0,.04Z"/><path class="cls-8" d="m475.5,49.21c-.05.09-.14.15-.24.16-.07,0-.13-.02-.14-.09,0-.06.03-.11.1-.12.08-.02.14-.08.14-.18,0-.08,0-.16-.04-.22-.04-.09-.15-.09-.2-.01-.04.05-.06.12-.09.18-.03.07-.05.14-.09.21-.08.17-.23.26-.38.24-.16-.02-.29-.16-.32-.34,0-.04,0-.08,0-.1,0-.15.05-.27.15-.37.06-.05.13-.08.21-.08.06,0,.09.04.1.09,0,.05-.02.09-.07.11-.16.06-.23.25-.13.4.06.09.16.1.22.01.04-.06.07-.14.1-.21.03-.07.05-.15.09-.21.08-.15.2-.23.37-.2.16.02.24.14.29.28.05.16.03.31-.05.45Z"/><path class="cls-8" d="m473.3,44.88s-.08,0-.12,0c-.33.01-.53.36-.38.65.1.18.25.25.45.24h.05c.26,0,.45-.19.45-.45s-.19-.45-.46-.45Zm0,.68h-.05c-.16,0-.25-.05-.29-.17-.04-.15.06-.29.21-.3.04,0,.08,0,.12,0,.14,0,.24.11.24.24s-.1.23-.24.23Z"/><path class="cls-8" d="m473.41,47.57c-.05,0-.11,0-.16.01-.28,0-.47-.15-.5-.4-.01-.13.02-.24.11-.33.04-.05.1-.06.15-.02.04.03.05.09.02.15-.03.05-.06.12-.06.17,0,.1.08.19.18.21.07.01.15.01.21,0,.16-.03.24-.21.15-.35,0,0-.01-.02-.02-.03-.04-.06-.03-.12.02-.16.04-.04.11-.02.16.03.21.25.07.65-.25.72Z"/><path class="cls-8" d="m473.66,46.64c-.27,0-.54,0-.8,0-.03,0-.08-.03-.09-.06,0-.03.01-.08.02-.12,0,0,.02-.02.03-.03-.09-.17-.09-.33.02-.49.05-.08.12-.09.17-.05.05.04.05.1,0,.17-.05.08-.06.16-.02.25.04.08.12.13.21.13.14,0,.29,0,.43,0,.04,0,.08.02.11.05.05.06,0,.16-.08.16Z"/><path class="cls-8" d="m475.32,45.36s-.1.04-.15,0c-.11-.1-.21-.21-.31-.31-.02-.02-.03-.04-.06-.08-.13.13-.24.24-.35.35-.02.01-.03.03-.05.04-.05.03-.1.03-.14,0-.04-.04-.05-.1,0-.14.15-.16.31-.31.47-.47.04-.04.1-.04.15,0,.15.15.3.3.45.45.04.05.04.11,0,.16Z"/><path class="cls-8" d="m473.76,47.87c0,.07-.04.11-.13.11h-.74c-.08,0-.13-.04-.13-.11,0-.06.05-.11.13-.11h.74c.08,0,.13.04.13.11Z"/><path class="cls-8" d="m475.28,53.86c-.57.14-.94.63-.94,1.23v3.71c0,.43,0,.86,0,1.3.02.79.78,1.36,1.54,1.17.56-.14.94-.64.94-1.24v-3.47c0-.51,0-1.01,0-1.52,0-.57-.4-1.05-.96-1.18-.05-.02-.1-.02-.16-.03h-.26c-.05,0-.11.02-.16.04Zm1.23,1.21c0,.83,0,1.66,0,2.5v2.47c0,.46-.31.83-.76.93-.55.11-1.09-.31-1.12-.88v-5.01c0-.45.3-.83.73-.93.58-.13,1.13.31,1.13.91Z"/><path class="cls-8" d="m475.58,55.06c.07,0,.13.04.15.1.01.04.01.07.01.11v4.55s0,.07-.01.1c-.02.07-.07.12-.15.11-.07,0-.13-.04-.14-.11,0-.03,0-.06,0-.08v-4.59s0-.07,0-.1c.02-.07.07-.1.14-.1Z"/><path class="cls-8" d="m473.52,55.34v.31s-.01.03-.03.03h-.08s0,.03,0,.03c0,.08,0,.17,0,.25,0,.05-.02.08-.05.11-.17.17-.34.33-.51.5-.01.01-.02.03-.02.05,0,.09,0,.18,0,.27,0,.02,0,.03.02.04.08.05.13.11.13.21s-.05.17-.13.22c-.02.01-.05.01-.07.02h-.06s-.08-.02-.12-.05c-.12-.09-.12-.26,0-.36,0,0,0,0,.01-.01,0,0-.01-.01-.02-.02-.15-.15-.29-.3-.44-.44-.03-.03-.04-.06-.04-.1,0-.13,0-.26,0-.4,0-.02,0-.03-.02-.04-.07-.05-.1-.14-.08-.22.03-.08.1-.14.18-.14.09,0,.16.05.19.14.03.08,0,.17-.08.21-.01,0-.02.02-.02.03,0,.12,0,.24,0,.36,0,0,0,.02.01.03.12.12.23.24.35.36,0,0,0,0,0,0v-1.56s-.12,0-.12,0c-.03,0-.05-.02-.04-.05.08-.19.15-.38.23-.57,0,0,.01-.02.02-.02,0,0,.02.01.03.02.08.19.16.38.23.57.01.03,0,.05-.03.05h-.14s0,1.15,0,1.15c0,0,.01,0,.02-.01.12-.12.24-.23.36-.35.01-.01.02-.03.02-.05v-.25s-.08,0-.08,0c-.02,0-.03,0-.03-.03v-.31s0-.03.03-.03c.11,0,.23,0,.34,0,.02,0,.03,0,.03.03Z"/><path class="cls-8" d="m473.19,59.42c-.15-.02-.26.08-.33.28l-.08.28c-.09.26-.24.39-.44.37-.15,0-.27-.08-.36-.21s-.14-.28-.14-.46c0-.18.05-.32.15-.43s.23-.16.39-.15v.2c-.11,0-.19.03-.26.1s-.1.17-.1.29c0,.13.03.23.09.32s.14.13.23.15c.14.02.24-.07.3-.26l.06-.21.04-.11c.09-.25.25-.37.46-.35.14,0,.26.07.35.19s.14.26.15.45v.07c0,.12-.02.23-.07.33s-.11.17-.19.22-.17.07-.28.07v-.2c.11,0,.2-.04.27-.11s.1-.18.1-.31c0-.13-.03-.24-.09-.34s-.14-.15-.24-.16Z"/><path class="cls-8" d="m473.19,57.74c-.15-.02-.26.08-.33.28l-.08.28c-.09.26-.24.39-.44.37-.15,0-.27-.08-.36-.21s-.14-.28-.14-.46c0-.18.05-.32.15-.43s.23-.16.39-.15v.2c-.11,0-.19.03-.26.1s-.1.17-.1.29c0,.13.03.23.09.32s.14.13.23.15c.14.02.24-.07.3-.26l.06-.21.04-.11c.09-.25.25-.37.46-.35.14,0,.26.07.35.19s.14.26.15.45v.07c0,.12-.02.23-.07.33s-.11.17-.19.22-.17.07-.28.07v-.2c.11,0,.2-.04.27-.11s.1-.18.1-.31c0-.13-.03-.24-.09-.34s-.14-.15-.24-.16Z"/><line class="cls-50" x1="40.6" y1="379.23" x2="440.6" y2="379.23"/><line class="cls-50" x1="491.2" y1="334.23" x2="491.2" y2="34.23"/><path class="cls-3" d="m492.99,345.21h.73c.4,0,.75-.07,1.05-.21s.53-.34.69-.59.24-.53.24-.86c0-.55-.15-.97-.46-1.28s-.75-.46-1.33-.46c-.55,0-1,.16-1.34.48s-.52.75-.52,1.27h-.7c0-.44.11-.84.33-1.21s.53-.65.93-.85.83-.3,1.31-.3c.77,0,1.38.21,1.83.63s.67,1,.67,1.73c0,.41-.13.79-.39,1.13s-.62.6-1.07.78c.53.15.93.4,1.21.76s.41.79.41,1.29c0,.73-.24,1.32-.71,1.76s-1.11.67-1.91.67c-.51,0-.97-.1-1.4-.3s-.75-.49-.98-.85-.35-.79-.35-1.27h.7c0,.54.19.99.57,1.33s.87.51,1.46.51,1.08-.16,1.42-.47.51-.76.51-1.35-.18-1.01-.55-1.31-.9-.45-1.61-.45h-.7v-.6Z"/><path class="cls-3" d="m503.22,346.3c0,1.2-.22,2.12-.66,2.74s-1.09.93-1.95.93-1.49-.31-1.94-.92-.68-1.5-.69-2.67v-1.53c0-1.2.22-2.11.67-2.72s1.1-.93,1.95-.93,1.49.3,1.93.89.68,1.47.69,2.63v1.56Zm-.7-1.53c0-.98-.16-1.71-.48-2.21s-.8-.75-1.44-.75-1.11.24-1.43.73-.48,1.21-.49,2.16v1.68c0,.97.17,1.72.5,2.23s.81.77,1.44.77,1.1-.25,1.42-.76.49-1.24.49-2.21v-1.64Z"/><path class="cls-3" d="m509.87,346.3c0,1.2-.22,2.12-.66,2.74s-1.09.93-1.95.93-1.49-.31-1.94-.92-.68-1.5-.69-2.67v-1.53c0-1.2.22-2.11.67-2.72s1.1-.93,1.95-.93,1.49.3,1.93.89.68,1.47.69,2.63v1.56Zm-.7-1.53c0-.98-.16-1.71-.48-2.21s-.8-.75-1.44-.75-1.11.24-1.43.73-.48,1.21-.49,2.16v1.68c0,.97.17,1.72.5,2.23s.81.77,1.44.77,1.1-.25,1.42-.76.49-1.24.49-2.21v-1.64Z"/><path class="cls-3" d="m515.05,343.52l.02,1.03c.23-.38.53-.67.88-.86s.74-.29,1.17-.29c1,0,1.63.41,1.9,1.23.23-.39.53-.7.91-.91s.8-.32,1.25-.32c1.36,0,2.05.74,2.08,2.23v4.23h-.7v-4.18c0-.57-.13-.99-.37-1.26s-.63-.41-1.17-.41c-.5,0-.93.17-1.28.49s-.54.71-.58,1.16v4.2h-.7v-4.23c0-.54-.13-.95-.38-1.22s-.64-.4-1.16-.4c-.44,0-.82.13-1.14.38s-.55.63-.7,1.12v4.35h-.7v-6.34h.67Z"/><path class="cls-3" d="m525.68,343.52l.02,1.03c.23-.38.53-.67.88-.86s.74-.29,1.17-.29c1,0,1.63.41,1.9,1.23.23-.39.53-.7.91-.91s.8-.32,1.25-.32c1.36,0,2.05.74,2.08,2.23v4.23h-.7v-4.18c0-.57-.13-.99-.37-1.26s-.63-.41-1.17-.41c-.5,0-.93.17-1.28.49s-.54.71-.58,1.16v4.2h-.7v-4.23c0-.54-.13-.95-.38-1.22s-.64-.4-1.16-.4c-.44,0-.82.13-1.14.38s-.55.63-.7,1.12v4.35h-.7v-6.34h.67Z"/><path class="cls-3" d="m448.61,378.95h1.33v.59h-1.33v2.16h-.7v-2.16h-4.01v-.4l3.95-5.98h.77v5.78Zm-3.86,0h3.15v-4.88l-.31.54-2.84,4.34Z"/><path class="cls-3" d="m456.1,378.14c0,1.2-.22,2.12-.66,2.74s-1.09.93-1.95.93-1.49-.31-1.94-.92-.68-1.5-.69-2.67v-1.53c0-1.2.22-2.11.67-2.72s1.1-.93,1.95-.93,1.49.3,1.93.89.68,1.47.69,2.63v1.56Zm-.7-1.53c0-.98-.16-1.71-.48-2.21s-.8-.75-1.44-.75-1.11.24-1.43.73-.48,1.21-.49,2.16v1.68c0,.97.17,1.72.5,2.23s.81.77,1.44.77,1.1-.25,1.42-.76.49-1.24.49-2.21v-1.64Z"/><path class="cls-3" d="m462.75,378.14c0,1.2-.22,2.12-.66,2.74s-1.09.93-1.95.93-1.49-.31-1.94-.92-.68-1.5-.69-2.67v-1.53c0-1.2.22-2.11.67-2.72s1.1-.93,1.95-.93,1.49.3,1.93.89.68,1.47.69,2.63v1.56Zm-.7-1.53c0-.98-.16-1.71-.48-2.21s-.8-.75-1.44-.75-1.11.24-1.43.73-.48,1.21-.49,2.16v1.68c0,.97.17,1.72.5,2.23s.81.77,1.44.77,1.1-.25,1.42-.76.49-1.24.49-2.21v-1.64Z"/><path class="cls-3" d="m467.92,375.35l.02,1.03c.23-.38.53-.67.88-.86s.74-.29,1.17-.29c1,0,1.63.41,1.9,1.23.23-.39.53-.7.91-.91s.8-.32,1.25-.32c1.36,0,2.05.74,2.08,2.23v4.23h-.7v-4.18c0-.57-.13-.99-.37-1.26s-.63-.41-1.17-.41c-.5,0-.93.17-1.28.49s-.54.71-.58,1.16v4.2h-.7v-4.23c0-.54-.13-.95-.38-1.22s-.64-.4-1.16-.4c-.44,0-.82.13-1.14.38s-.55.63-.7,1.12v4.35h-.7v-6.34h.67Z"/><path class="cls-3" d="m478.56,375.35l.02,1.03c.23-.38.53-.67.88-.86s.74-.29,1.17-.29c1,0,1.63.41,1.9,1.23.23-.39.53-.7.91-.91s.8-.32,1.25-.32c1.36,0,2.05.74,2.08,2.23v4.23h-.7v-4.18c0-.57-.13-.99-.37-1.26s-.63-.41-1.17-.41c-.5,0-.93.17-1.28.49s-.54.71-.58,1.16v4.2h-.7v-4.23c0-.54-.13-.95-.38-1.22s-.64-.4-1.16-.4c-.44,0-.82.13-1.14.38s-.55.63-.7,1.12v4.35h-.7v-6.34h.67Z"/></g></svg>