<?xml version="1.0" encoding="UTF-8"?><svg id="Layer_2" xmlns="http://www.w3.org/2000/svg" xmlns:xlink="http://www.w3.org/1999/xlink" viewBox="0 0 423.77 494.35"><defs><style>.cls-1{fill:#5e661e;}.cls-1,.cls-2,.cls-3,.cls-4,.cls-5,.cls-6,.cls-7,.cls-8,.cls-9,.cls-10,.cls-11,.cls-12,.cls-13,.cls-14,.cls-15,.cls-16,.cls-17,.cls-18,.cls-19,.cls-20,.cls-21,.cls-22,.cls-23,.cls-24,.cls-25,.cls-26,.cls-27,.cls-28,.cls-29,.cls-30,.cls-31,.cls-32,.cls-33,.cls-34,.cls-35,.cls-36,.cls-37,.cls-38,.cls-39,.cls-40,.cls-41,.cls-42,.cls-43,.cls-44,.cls-45,.cls-46,.cls-47,.cls-48,.cls-49,.cls-50,.cls-51,.cls-52,.cls-53,.cls-54,.cls-55,.cls-56,.cls-57,.cls-58,.cls-59,.cls-60,.cls-61,.cls-62,.cls-63{stroke-width:0px;}.cls-2{fill:#776522;}.cls-3{fill:#4d4d4d;}.cls-4{fill:#8f8475;}.cls-64{fill:none;stroke:#4d4d4d;stroke-linecap:round;stroke-miterlimit:10;}.cls-5{fill:url(#linear-gradient);}.cls-6{fill:#b7a67c;}.cls-7{fill:#bab447;}.cls-8{fill:#2f435c;}.cls-9{fill:url(#linear-gradient-6);}.cls-10{fill:#5d3c2d;}.cls-11{fill:#647927;}.cls-12{fill:#a67c52;}.cls-13{fill:#a5a33a;}.cls-14{fill:#3d5463;}.cls-15{fill:#a7b9bf;}.cls-16{fill:#857f21;}.cls-17{fill:#9abbcf;}.cls-18{fill:#976037;}.cls-19{fill:url(#linear-gradient-5);}.cls-20{fill:#cde8e7;}.cls-21{fill:#554a1c;}.cls-22{fill:#404532;}.cls-23{fill:#ad7f60;}.cls-24{fill:#2f2e36;}.cls-25{fill:#4b4e49;}.cls-26{fill:#4d87bd;}.cls-27{fill:#281620;}.cls-28{fill:#284979;}.cls-29{fill:#342823;}.cls-30{fill:#50363b;}.cls-31{fill:#2c3516;}.cls-32{fill:#718b9b;}.cls-33{fill:url(#linear-gradient-2);}.cls-34{fill:#884f32;}.cls-35{fill:#592c2a;}.cls-36{fill:#746d1d;}.cls-37{fill:url(#linear-gradient-7);}.cls-38{fill:#2b190e;}.cls-39{fill:url(#linear-gradient-3);}.cls-40{fill:#29345a;}.cls-41{fill:#909536;}.cls-42{fill:#a497cc;}.cls-43{fill:#3a3b3f;}.cls-44{fill:#8299a3;}.cls-45{fill:#cad5d8;}.cls-46{fill:#e9dbce;}.cls-47{fill:#646a78;}.cls-48{fill:#905736;}.cls-49{fill:#336ca0;}.cls-50{fill:#375b90;}.cls-51{fill:#6099ca;}.cls-52{fill:#633824;}.cls-53{fill:#96a6a9;}.cls-54{fill:#587597;}.cls-55{fill:#4b303f;}.cls-56{fill:#3b3753;}.cls-57{fill:#744730;}.cls-58{fill:#9a6949;}.cls-59{fill:url(#linear-gradient-4);}.cls-60{fill:#472917;}.cls-61{fill:#6b3b2e;}.cls-62{fill:#788a2c;}.cls-63{fill:#42101e;}</style><linearGradient id="linear-gradient" x1="157.3" y1="107.98" x2="150.49" y2="146.59" gradientTransform="translate(-36.33 -719.04) scale(1.39 8.71)" gradientUnits="userSpaceOnUse"><stop offset="0" stop-color="#464f99"/><stop offset="1" stop-color="#29327e"/></linearGradient><linearGradient id="linear-gradient-2" x1="210.02" y1="419.94" x2="203.29" y2="458.07" gradientTransform="matrix(1,0,0,1,0,0)" xlink:href="#linear-gradient"/><linearGradient id="linear-gradient-3" x1="81.2" y1="386.51" x2="72.5" y2="438.03" gradientUnits="userSpaceOnUse"><stop offset="0" stop-color="#394723"/><stop offset="1" stop-color="#292f17"/></linearGradient><linearGradient id="linear-gradient-4" x1="309.63" y1="47.46" x2="304.92" y2="203.13" gradientUnits="userSpaceOnUse"><stop offset="0" stop-color="#6a9fc9"/><stop offset="1" stop-color="#4276af"/></linearGradient><linearGradient id="linear-gradient-5" x1="264.29" y1="47.52" x2="270.77" y2="128.9" gradientUnits="userSpaceOnUse"><stop offset="0" stop-color="#70a1c9"/><stop offset="1" stop-color="#5088bb"/></linearGradient><linearGradient id="linear-gradient-6" x1="251.77" y1="307.1" x2="242.27" y2="307.74" gradientUnits="userSpaceOnUse"><stop offset="0" stop-color="#373655"/><stop offset="1" stop-color="#482d3c"/></linearGradient><linearGradient id="linear-gradient-7" x1="574.88" y1="383.68" x2="240.27" y2="487.08" gradientTransform="translate(446.4 -144.05) rotate(90)" gradientUnits="userSpaceOnUse"><stop offset="0" stop-color="#a67759"/><stop offset="1" stop-color="#905837"/></linearGradient></defs><g id="Layer_1-2"><g id="Background"><rect class="cls-5" x="30.97" y="44.35" width="300" height="400"/><path class="cls-33" d="m252.33,433.15c4.21,1.1,3.06.94.4-.78-5.88-3.82-11.33-8.6-15.73-11.32-.03-.5.62-.48,1.01-.39,4.85,1.1,29.58,10.13,38.71,12.88,12.37,3.73,25.03,6.48,37.3,10.54-72.15.56-144.37.11-216.53,0,1.56-1.76,2.96-3.64,4.44-5.46,10.43-12.89,23.17-23.31,12.1-40.2,46.11,11.54,92.32,22.73,138.3,34.74Z"/><path class="cls-27" d="m41.45,44.38v61.28c0,3.9,0,7.81,0,11.71,0,2.99,0,5.99,0,8.98,0,4.29,0,8.59,0,12.88,0,.26,0,.52,0,.78,0,5.2,0,10.41,0,15.61,0,1.95,0,3.9,0,5.85,0,1.3,0,2.6,0,3.9,0,1.82,0,3.64,0,5.46,0,3.02-.4,5.99-.4,8.98,0,21.72.39,43.46.4,65.18,0,1.17,0,2.34,0,3.51,0,1.69,0,3.38,0,5.07.02,32.66.36,65.32.4,97.97,0,6.21-.42,12.49-.4,18.74,0,3.01.4,3.34.4,3.51.05,20.47-.87,40.99-.4,61.48.25.58,11.25,3.97,12.3,4.1,2.79.35,26.41-.15,31.45-.39,5.26-.25,15.21-2.12,16.73-.39-1.47,1.82-2.88,3.7-4.44,5.46-22.18-.03-44.35.03-66.53,0V44.38c3.49-.05,6.99.06,10.48,0Z"/><path class="cls-34" d="m297.09,44.38c-.3,18.27.4,36.58,0,54.84,0,.35-1.2.04-1.21.39-.35,16.4-.43,32.94-.4,49.38-.36.04-1-.17-1.21.2-.95,1.64.31,32.5.4,37.47.06,3.22-1,6.79-.81,10.15.15,2.63.68,8.47,2.42,9.56.09,5.33,1.05,10.67,0,16v.78c-1.1.11-2.91.81-4.03,1.17-.3-2-1.76-3.34-2.42-5.46,2.06.59,3.28-2.49,2.02-4.29v-.39c.39-.49.43-.1.81-1.17.72-2.07.48-7.45.4-9.95,0-.29-.8-.54-.81-.59-.2-4.01.48-8.12-.4-12.1,2.82-3.64.43-7.01.4-7.42,0-.13.01-.26,0-.39.6-4.43,1.07-12.93-.81-10.93,1.89-6.09.18-110.07.81-127.25,1.61,0,3.23,0,4.84,0Z"/><path class="cls-18" d="m285.8,44.38v40.2q.2,46.25.4,92.51c-1.4,1.09-3.46,1.83-3.63,1.95l.4-2.73c-.19-4.38-.77-8.9-.81-13.27,0-.05.81-.31.81-.59-.05-5.48-.79-11.12-.81-16.59,0-2.65.41-5.47.4-8.2-.06-31.1.04-62.19,0-93.29,1.08,0,2.15,0,3.23,0Z"/><path class="cls-61" d="m297.9,44.38q.4,70.94.81,141.88c.31,3.75.77,5.37,2.02,8.78-.84.41-.86-1.19-1.41-.78-.85.62-.03,19.49.2,20.49.05.22.82.53.81.98,0,.03-.45-.09-.4.39-2.43,2.59,2.46,7.04-3.63,6.25,1.05-5.33.09-10.68,0-16-.34-19.1-.77-38.28-.81-57.38-.03-16.43.05-32.98.4-49.38,0-.35,1.2-.04,1.21-.39.4-18.26-.3-36.57,0-54.84.27,0,.54,0,.81,0Z"/><path class="cls-46" d="m168.06,376.94c-4.14,4.54-9.21,4.31-6.45,11.32,3.38,8.6,45.45,19.67,56.05,23.81,4.4,1.72,11.34,4.49,15.32,6.64,1.42.77,2.66,1.49,4.03,2.34,4.39,2.72,9.85,7.5,15.73,11.32l-.4.78c-45.98-12-92.2-23.2-138.3-34.74-1.14-.25-3.02-2.29-3.23-3.12-.74-3.05.35-8.02,2.42-10.54,4.74-5.78,15.44-5.86,22.18-7.42,10.82-.5,21.87.22,32.66-.39Z"/><path class="cls-42" d="m252.33,433.15l.4-.78c2.66,1.72,3.81,1.88-.4.78Z"/><path class="cls-18" d="m297.09,307.46c.02.52-.03,1.04,0,1.56,1.77,26.56-.48,53.42.4,80.02-2.23-.02-4.29.43-6.45-.59,1.9-6.92,1.01-13.94,1.21-20.88.47-16.56.77-33,.81-49.57,0-3.48-.34-7.1.4-10.54.96-.15,3.03.07,3.63,0Z"/><path class="cls-61" d="m301.93,386.7c-.42.24-2.64,1.72-2.42,2.34-.67.03-1.35,0-2.02,0-.89-26.59,1.36-53.45-.4-80.02,2.48-.23,1.71,2.8,2.82,4.1q.2,36.69.4,73.38l1.61.2Z"/><path class="cls-61" d="m300.72,240.72q.2,3.32.4,6.64c-2.13,3.08-.48,7.65-.4,11.32.03,1.33.37,2.86.4,4.29.21,9.42-1.69,24.8,2.82,25.37-1.15,1.5-5.34,2.73-7.66,3.51q-.2-25.37-.4-50.74c1.27-.17,3.58-.08,4.84-.39Z"/><path class="cls-10" d="m303.54,208.32c.74,5.15-2.54,12.13,2.82,15.22v.39c-3.32-.41-6.71-1.11-10.08-.78v-.78c6.09.8,1.2-3.65,3.63-6.25.7-.33,2.19,2.04,2.82.98.58-.96-1-8.65.81-8.78Z"/><path class="cls-30" d="m303.54,207.93v.39c-1.81.13-.23,7.82-.81,8.78-.64,1.07-2.12-1.31-2.82-.98-.04-.48.39-.36.4-.39,1.95-5.7.27-12.32-.4-18.54l1.21,5.85c.87,1.63,1.67,3.18,2.42,4.88Z"/><path class="cls-7" d="m292.25,182.56c-.18-2.06.46-4.5-.4-6.44q-3.23,8.49-6.45,16.98c-.57.16-.38.38-.4.39-3.23.81-18.17,3.16-18.95-.98-.58-3.07,9.42-8.32,16.53-13.47.17-.12,2.23-.87,3.63-1.95,1.78-1.38,4.54-3.2,5.24-5.46,1.88-2,1.41,6.5.81,10.93Z"/><path class="cls-34" d="m295.48,148.99c.04,19.1.47,38.28.81,57.38-1.74-1.1-2.27-6.93-2.42-9.56-.19-3.36.87-6.93.81-10.15-.1-4.98-1.35-35.84-.4-37.47.21-.36.85-.15,1.21-.2Z"/><path class="cls-49" d="m292.25,202.47c-1.08.86-3.73,1.05-4.03,1.17-1.59-.8-.49-6.09-.81-9.95.44-.66,1.05-1.21,1.61-1.76.12-.11,2.25-.82,2.82-1.56.88,3.98.2,8.09.4,12.1Z"/><path class="cls-41" d="m292.25,182.56c.01.13,0,.26,0,.39l-4.03,8.98c-.8.22-1.65.84-2.82,1.17q3.23-8.49,6.45-16.98c.87,1.94.22,4.38.4,6.44Z"/><path class="cls-2" d="m291.85,190.37c-.57.74-2.71,1.45-2.82,1.56-.26.03-.6-.06-.81,0l4.03-8.98c.03.41,2.41,3.78-.4,7.42Z"/><path class="cls-41" d="m292.65,213c-.37,1.07-.42.68-.81,1.17-2.78,3.48-4.59.92-4.03-.59.12-.31,2.42-.36,4.23-4.88l.6,4.29Z"/><path class="cls-63" d="m289.83,218.86c-.15-.5-.34-1.04-.4-1.56.68-.39,1.97-1.91,2.42-2.73,1.26,1.8.05,4.88-2.02,4.29Z"/><path class="cls-61" d="m315.23,307.46c.09,5.64-.46,11.38,1.61,16.78.43,1.12,2.03,4.25,3.23,4.49q-.2-10.44-.4-20.88c1.58.19,3.25.3,4.84.39v54.65c-.22.03-1.44.37-4.44.78v-30.64c-.09-.37-1.18-.9-1.21-.98-1.09-2.66-4.1-8.69-5.65-10.54,1.08-1.44-.18-12.26-.81-14.83,2.25.51,2.68.76,2.82.78Z"/><path class="cls-35" d="m303.54,306.29c-.32,2.9.4,4.45.4,4.68,0,.52,0,1.04,0,1.56-.1,17.73-1,35.56-.4,53.28.01.32.8.15.81.2.23,6.27-.56,12.83.81,19.13-.17.06-2.96,1.41-3.23,1.56l-1.61-.2q-.2-36.69-.4-73.38c-1.11-1.3-.34-4.33-2.82-4.1-.03-.52.02-1.04,0-1.56,2.09-.25,4.31-1.07,6.45-1.17Z"/><path class="cls-34" d="m320.07,363.67c-.94.13-1.89.26-2.82.39-.46-4.29.61-29.41,0-30.84.9.14,1.7-.13,1.61-1.17.03.07,1.11.61,1.21.98v30.64Z"/><path class="cls-34" d="m289.02,191.93c-.57.55-1.17,1.1-1.61,1.76.32,3.86-.78,9.16.81,9.95-.17.07-.2.34-3.23,1.56v-11.71s-.17-.23.4-.39c1.17-.34,2.02-.95,2.82-1.17.21-.06.55.03.81,0Z"/><path class="cls-7" d="m277.33,282.09c-.03.05.05.59-.4,1.17l-4.23,1.17c-6.18-3.54-14.34.04-20.77-2.34.02-.32-1.15-1.35-.81-2.93.5-.4.85-.84,1.21-1.37.43-.63,9.95-10.5,10.69-10.93,6.91-2.95,22.99-7.41,28.02-10.54,1.63.83-3.03,9.82-4.03,11.12-2.97,3.88-15.68,10.02-12.9,12.88-5.78,3.5-.52,3.93,3.23,1.76Z"/><path class="cls-34" d="m295.88,241.11q.2,25.37.4,50.74c-1.27.43-2.56,1.09-3.83,1.56-.69-1.33.2-2.67.2-3.9,0-4.23,0-8.46,0-12.69-.13-.31-.85-.21-1.21-.2.55-.32,1.18-.52,1.21-.59.98-2.35.15-16.38,0-20.1-.02-.51-.4-.36-.4-.39-.23-5.13.76-11.96-.81-14.05,1.43-.2,2.95-.19,4.44-.39Z"/><path class="cls-61" d="m287.41,218.08l.4,8.2c-.13.07-1.6,1.07-2.42,1.56v-9.37c.74-.35,1.92-.35,2.02-.39Z"/><path class="cls-2" d="m291.44,276.63c-.24.14-1.2-.31-1.21.39v.39c-2.95.9-9.94,4.44-13.31,5.85.46-.58.37-1.12.4-1.17,1.16-1.78,4.13-7.67,5.04-8.2,4.19-2.42,8.36,3.07,10.28-17.96.15,3.72.98,17.75,0,20.1-.03.07-.66.27-1.21.59Z"/><path class="cls-13" d="m292.65,255.94c-1.92,21.03-6.1,15.54-10.28,17.96-.91.53-3.88,6.42-5.04,8.2-3.74,2.17-9.01,1.75-3.23-1.76-2.77-2.87,9.93-9,12.9-12.88,1-1.3,5.66-10.29,4.03-11.12.06-.04.22-.47,1.21-.78,0,.03.38-.12.4.39Z"/></g><path class="cls-21" d="m316.44,272.33c1.75,1.02,3.47,1.07,3.63,1.17,2.93,1.9,4.64,4.37,8.06,6.25.85.46,1.8,1.19,2.82,1.17,0,9.11,0,18.22,0,27.32-3.8.14-2.65.8-2.82.78-.11-.01-1.89-.72-2.02-.78-2.47-1.19-4.88-5.84-4.84-8.39,4.4-1.2,5.35-5.66,5.65-9.37-.57-.93-1.02-1.57-2.02-2.15-1.46-.84-2.55-.6-3.63-.78-2.15-.35-3.9-.4-6.05-.39.11-.66-.53-1.23-1.01-1.56-12.23-8.63-6.97-7.53-7.86-12.3-.06-.34-3.21-4.82-3.63-5.85-.49-1.21-.55-4.68-1.61-4.49-.03-1.43-.37-2.96-.4-4.29q.2-3.32.4-6.64c.81,1.83,8.75,13.5,10.89,17.37,1.99,2.21,2.51,1.8,4.44,2.93Z"/><path class="cls-26" d="m292.25,44.38c-.63,17.18,1.09,121.15-.81,127.25-.7,2.26-3.46,4.09-5.24,5.46q-.2-46.25-.4-92.51c2.92-.18-.11-5.8,5.65-7.22v-32.98c.27,0,.54,0,.81,0Z"/><path class="cls-51" d="m291.44,44.38v32.98c-5.75,1.42-2.73,7.04-5.65,7.22v-40.2c1.88,0,3.76,0,5.65,0Z"/><path class="cls-49" d="m306.36,223.54c-5.36-3.09-2.09-10.07-2.82-15.22v-.39c1.95,4.42,8.45,11.59,2.82,15.61Z"/><path class="cls-31" d="m317.65,396.85c4.36,1.97,8.46,4.24,13.31,4.68-.04,14.18.03,28.36,0,42.55-5.64.03-11.29-.04-16.94,0-12.26-4.06-24.93-6.81-37.3-10.54-9.12-2.75-33.86-11.78-38.71-12.88-.39-.09-1.03-.11-1.01.39-1.37-.85-2.61-1.57-4.03-2.34-.03-.51.35-.38.81-.39,14.76-.49,10.74-5.36,20.97-9.37,6.57-2.58,13.53-2.35,20.36-3.51,7.79-1.33,14.56-4.93,22.78-2.73,5.16-1.5,15.3-5.22,19.76-5.85Z"/><path class="cls-7" d="m292.25,367.57c-.2,6.94.69,13.97-1.21,20.88,2.16,1.02,4.23.56,6.45.59.67,0,1.35.03,2.02,0,9.48-.36,21.85-4.84,31.45-6.64,0,3.64,0,7.29,0,10.93-10.48,0-20.75.95-31.05,2.73,1.32-1.75-10.7-.53-15.52,0-10.56,1.15-35.38,6.02-43.95,11.32-1.88,1.16-3.1,2.8-4.64,4.29-12.59-3.26-24.85-7.61-37.3-11.32-8.33-2.48-28.51-6.2-34.68-10.54-1.33-.94-1.05-2.46-2.22-1.56-2.75-7.01,2.31-6.78,6.45-11.32.4-.02,2.63-1.24,7.86-1.56,22.49-.16,44.77-3.44,67.14-5.07,3.05-.22,6.19-.18,9.27-.39,13.3-.92,26.63-1.33,39.92-2.34Z"/><path class="cls-7" d="m330.96,362.5c0,5.85,0,11.71,0,17.56-5.95,1.68-21.77,3.68-25.81,5.07-1.36-6.3-.58-12.85-.81-19.13,4.34-.38,8.61-1.35,12.9-1.95.93-.13,1.89-.26,2.82-.39,2.99-.41,4.21-.75,4.44-.78.18-.02,2.18.16,3.63,0,.19-.02.92-.63,2.82-.39Z"/><path class="cls-62" d="m330.96,393.34c0,1.82,0,3.64,0,5.46-4.53-1.79-8.44-2.64-13.31-1.95-4.45.63-14.59,4.35-19.76,5.85-.79-3.41-7.77-3.56-10.89-3.51-.35-.71,1.5-1.13,1.81-1.17,3.52-.51,7.31-1.3,11.09-1.95,10.3-1.78,20.56-2.74,31.05-2.73Z"/><path class="cls-1" d="m330.96,380.06c0,.78,0,1.56,0,2.34-9.61,1.8-21.98,6.28-31.45,6.64-.22-.62,2-2.1,2.42-2.34.27-.15,3.06-1.5,3.23-1.56,4.03-1.4,19.86-3.39,25.81-5.07Z"/><path class="cls-1" d="m330.96,398.8c0,.91,0,1.82,0,2.73-4.84-.44-8.95-2.71-13.31-4.68,4.86-.69,8.78.16,13.31,1.95Z"/><path class="cls-13" d="m235.8,411.68c-8.62,8.36-.46,4.98-18.14.39-10.59-4.14-52.67-15.21-56.05-23.81,1.17-.89.88.62,2.22,1.56,6.16,4.34,26.34,8.06,34.68,10.54,12.45,3.71,24.7,8.06,37.3,11.32Z"/><path class="cls-62" d="m299.91,396.07c-3.78.65-7.57,1.44-11.09,1.95-.31.05-2.16.46-1.81,1.17-4.84.07-27.49,4.33-32.66,5.85-8.54,2.52-14.86,6.62-20.56,13.27-.45.02-.84-.12-.81.39-3.98-2.14-10.93-4.92-15.32-6.64,17.68,4.59,9.52,7.97,18.14-.39,1.54-1.49,2.76-3.13,4.64-4.29,8.57-5.3,33.39-10.17,43.95-11.32,4.82-.53,16.84-1.75,15.52,0Z"/><path class="cls-1" d="m287.01,399.19c3.12-.04,10.1.1,10.89,3.51-8.22-2.2-14.99,1.41-22.78,2.73-6.83,1.16-13.8.94-20.36,3.51l-.4-3.9c5.17-1.53,27.82-5.79,32.66-5.85Z"/><path class="cls-11" d="m254.75,408.95c-10.23,4.01-6.21,8.87-20.97,9.37,5.71-6.66,12.02-10.75,20.56-13.27l.4,3.9Z"/><path class="cls-39" d="m71.69,383.58c.06.03-.14.86.6,1.17,2.85,1.17,8.9,4.2,11.49,3.9-.96.19.89,1.14,1.01,1.17,8.53,2.14,17.35,3.86,26.01,5.46.2.84,2.08,2.87,3.23,3.12,11.07,16.89-1.67,27.31-12.1,40.2-1.53-1.73-11.48.14-16.73.39-5.04.24-28.66.74-31.45.39-1.05-.13-12.05-3.52-12.3-4.1-.47-20.48.45-41,.4-61.48,9.68,3.01,20.5,5.99,29.84,9.76Z"/><path class="cls-7" d="m60.4,356.64c.52.14,1.1.25,1.61.39,1.6,2.07-.3,1.47.2,1.95.55.52,12.4,4.29,14.11,5.85.71-.54-.59-3.42,1.01-3.12.02,3.73.52,18.46-.81,20.69-11.72-3.89-23.46-8.71-35.08-12.1-.01-6.24.41-12.53.4-18.74,6.19,1.66,12.37,3.38,18.55,5.07Z"/><path class="cls-41" d="m76.53,382.41c-.36.61-.8.26-.81.78-1.5-.1-2.57.52-4.03.39-9.34-3.77-20.16-6.74-29.84-9.76,0-.18-.4-.5-.4-3.51,11.62,3.39,23.36,8.21,35.08,12.1Z"/><path class="cls-41" d="m112.82,383.97l.4.78c-2.07,2.52-3.16,7.49-2.42,10.54-8.66-1.6-17.48-3.32-26.01-5.46-.11-.03-1.97-.98-1.01-1.17.5-.31.67-.32,1.21-.39,7.69,2.44,16.68,1.94,24.39,5.07.67.27.79-2.89,1.01-5.07.28-2.82,2.31-3.19-2.82-1.56.7-1.59,3.09-.76,5.24-2.73Z"/><path class="cls-22" d="m135.4,377.33c-6.74,1.55-17.43,1.63-22.18,7.42l-.4-.78c.2-.18,1.53-2.77,3.23-4.29,1.94.18,16.51-5.94,25-5.07,2.82.26-1.06,1.68-5.65,2.73Z"/><path class="cls-7" d="m64.43,357.82c4.12,1.14,8.27,2.39,12.5,3.12,0,.37.4.41.4.78-1.6-.29-.3,2.58-1.01,3.12-1.72-1.57-13.56-5.33-14.11-5.85-.51-.48,1.4.11-.2-1.95.79.22,1.63.56,2.42.78Z"/><path class="cls-41" d="m104.35,369.14c1.43.25,3.07.17,4.44.39,5.01.8,9.92,1.26,14.92,1.95,1.33.18,2.7.59,4.03.78,2.58.37,5.08.73,7.66,1.17-7.81.39-15.27,3.36-22.98,4.68-8.31-2.08-16.77-4.76-25.4-5.07-.09-2.6.07-5.21,0-7.81,5.79,1.17,11.52,2.88,17.34,3.9Z"/><path class="cls-1" d="m135.4,373.43c2.82.48,6.06,0,5.65,1.17-8.49-.86-23.06,5.25-25,5.07-.99-.77-2.44-1.26-3.63-1.56,7.71-1.33,15.17-4.29,22.98-4.68Z"/><path class="cls-7" d="m112.42,378.11c1.19.3,2.64.79,3.63,1.56-1.7,1.52-3.03,4.11-3.23,4.29-2.15,1.97-4.54,1.14-5.24,2.73-.5,1.13.55,1.13,2.82,1.56-.22,2.18-.33,5.34-1.01,5.07-7.72-3.13-16.71-2.64-24.39-5.07.14-.02,1.12-.97,2.62-1.17,15.43-2.09,17.39-1.04.4-3.12-1.72-1.57-.86-6.53-1.01-10.93,8.63.31,17.09,2.99,25.4,5.07Z"/><path class="cls-21" d="m110.4,388.26c-2.27-.43-3.32-.43-2.82-1.56,5.14-1.63,3.1-1.26,2.82,1.56Z"/><path class="cls-59" d="m316.44,44.38v168.62c-3.58-3.02-11.46-6.24-15.73-17.96-1.24-3.41-1.71-5.03-2.02-8.78q-.4-70.94-.81-141.88c6.18.02,12.37-.06,18.55,0Z"/><path class="cls-49" d="m327.73,44.38v177.4l-.81.2-2.82-2.93.4-174.67c1.07.03,2.17-.08,3.23,0Z"/><path class="cls-55" d="m327.73,44.38c1.06.08,2.16-.06,3.23,0,.02,59.98-.03,119.96,0,179.94-1.41-.46-2.82-1.51-4.03-2.34l.81-.2V44.38Z"/><path class="cls-17" d="m120.88,44.38c-1.27,4.07,5.59,7.07.6,7.81,1.88,8.71,6.92-1.52,6.25,6.05-3.74,2.84.57,12.45-1.41,12.69-.2.02-2.21-3.53-1.41.39-.35-.07-.52.58-1.01.39-2.54-.99.36-13.56-5.04-18.54-2.24,6.51-1.2,26.07-1.61,27.71-.4,1.61-5.1,9.82-6.45,11.12-8.65-2.59-10.68-11.33-23.79-17.17,5.29,3.04,19.06,8.17,24.8,6.25,5.22-1.75-11.27-5.36-10.69-6.83.12-.29,1.4.26,2.02-1.76,4.49,1.16,12.05-4.15,10.48-8.78l1.21-.78-2.02-5.07c2.6-.46,2.66-5.86,2.02-8.2,2.97,1.09,4.02-2.96,4.03-5.27.67,0,1.34,0,2.02,0Z"/><path class="cls-55" d="m330.96,308.24c-.01,18.09.02,36.17,0,54.26-1.9-.24-2.63.37-2.82.39v-53.87c.17.02-.98-.64,2.82-.78Z"/><path class="cls-55" d="m330.96,259.84c0,7.03,0,14.05,0,21.08-1.02.02-1.97-.71-2.82-1.17-.03-.38.05-.79,0-1.17-.44-3.16-.86-15.72-.4-18.35,0-.05.61-.73.81-.78.65.29,1.69.44,2.42.39Z"/><path class="cls-51" d="m129.76,109.18c.9,4.99,6.47,8.31,11.49,7.42,1.6-.28,1.05-2.36,2.62-.78-.05.39-1.16,2.13-1.21,2.54-.69,5.81,3.75,3.33-1.41,11.12-4.94-2.45-11.3-9.05-6.65.98l2.82,2.15c-1.7,3.89,1.08,4.21,1.21,4.49.05.11-.91.81,0,2.34,2.03,3.42-.34-5.47,3.23-1.76-1.06,5.37,3.04,7.66,3.43,7.42.21-.13.83-4.18,1.81.59.1.47-.88,4.07,1.21,6.64-5.09,4.45,2.93,9.12-.81,8.98,1.78,3.08-.44.93-.6.98-1.18.36,2.79,3.26,4.03,3.51,1.68.34,5.25-2.11,4.23,3.32-.14.72-1.03.26-1.21,4.49-2.85-2.62-1.67,1.11-3.43-.78.02,3.51.93,3.86,3.43,1.95.36,5.25,2.2,6.63,2.02,10.54-.03.65-.72,2.8-1.21,3.51-.11.16-.61.89-1.01.78-3.74-4.67-7.05-9.12-9.88-14.64-4-7.79-20.32-50.12-22.18-52.3-.52-.61-1.33-1.35-2.22-.98-1.09.45-3.88,17.53-3.83,19.91-7.98-5.34-3.82-3.61-4.84-4.88-1.33-1.66-9.82-9.91-12.1-12.1-6.56-6.31-14.3-10.42-17.74-19.13-.02-.86.21-.63.81,0,4.16,4.38,4.65,15.01,24.39,11.9.36.54,1.72,1.12,2.22,1.17,8.56.96,3.45-2.64-.4-8.78,1.87-1.01,5.27-.68,6.85-1.76,3.12-2.13,2.03-23.43,3.43-23.81,2.07,4.19,9.28,22.96,11.49,24.98Z"/><path class="cls-17" d="m124.92,71.32c2.5.5.06.99,1.01,1.56,1.4.84,1.61-2.39,3.02,2.34-4.3-1.46-5.86,4.77-5.24,8,.83,4.35,10.73,5.11,9.27,11.71-.48,2.16-2.62.39-2.82.78-2.2,4.28,8.76,12.83,8.87,13.66.36,2.65-2.05.57-2.22.59-1.4.11-1.51.78-1.61.78-1.28.02-1.16-.68-2.02-.78-.21-.02-.55,1.83-3.43-.78-2.22-2.02-9.42-20.8-11.49-24.98-1.4.38-.3,21.68-3.43,23.81-5.96-3.42-12.23-6.25-18.14-9.76q4.44-2.73,8.87-5.46c1.27.17,2.83.97,4.23.78,1.25-.91.94-1.5,1.01-1.56,1.35-1.3,6.05-9.51,6.45-11.12.41-1.64-.62-21.2,1.61-27.71,5.4,4.98,2.5,17.55,5.04,18.54.49.19.66-.46,1.01-.39Z"/><path class="cls-17" d="m128.95,75.22c1.15,3.85.24,11.33,2.62,10.54.29-.1.72-3.61,3.02.59.16.29-.37,2.68,3.23,5.46-1.16,1.79-1.89,5.97-.81,7.81,1.88,3.17,3.87-5.18,6.05,1.56,1.65,5.1-1.42,4.02-2.02,4.68-.86,4.51,4.17.23,2.82,9.95-1.58-1.58-1.02.5-2.62.78-5.02.89-10.59-2.43-11.49-7.42,2.87,2.61,3.22.76,3.43.78.86.1.73.8,2.02.78.11,0,.21-.67,1.61-.78.17-.01,2.57,2.06,2.22-.59-.11-.83-11.07-9.38-8.87-13.66.2-.39,2.35,1.37,2.82-.78,1.46-6.6-8.44-7.36-9.27-11.71-.62-3.23.94-9.46,5.24-8Z"/><path class="cls-45" d="m153.95,173.58c-.01.29-.02.89,0,1.17-2.5,1.9-3.41,1.56-3.43-1.95,1.76,1.89.58-1.84,3.43.78Z"/><path class="cls-46" d="m118.87,44.38c-.01,2.31-1.07,6.36-4.03,5.27.64,2.34.59,7.73-2.02,8.2l2.02,5.07-1.21.78c1.56,4.63-6,9.95-10.48,8.78-4.46-1.16-17.53-12.81-20.97-16.78.69-1.22,4.37,4.8,8.27,5.85,1.97.53,15.12,1.13,12.9-2.73-.5-.87-15.33-9.11-17.14-11.12,2.77.92,22.69,5.27,20.97,0-.47-1.45-7.6-1.23-8.47-3.32,6.72,0,13.44,0,20.16,0Z"/><path class="cls-45" d="m160,187.24c-.69,5.16-.52,1.23-1.41,1.17-1.66-.1,2.39,3.75-3.23,7.03l-.6-6.64c.49-.71,1.18-2.86,1.21-3.51,1.54,3.73.93-.1,1.21-.59.22-.37.77-.14.81-.2l.4,2.93c-.16-2.83,1.32-6.83,4.64-7.22,2.71-6.3,2.92-2.84,1.01,1.76-3.08.61-3.67,2.54-4.03,5.27Z"/><path class="cls-15" d="m141.85,137.67c-3.57-3.72-1.19,5.17-3.23,1.76-.91-1.54.05-2.24,0-2.34-.13-.28-2.91-.6-1.21-4.49,1.39-3.16,4.89-2.84,6.85-.59-.58,1.27-2.22,4.64-2.42,5.66Z"/><path class="cls-46" d="m197.5,44.38c-2.24,5-10.62,5.86-10.89,6.44-.66,1.44,2.02,3.69,2.02,3.9,0,2.04-8.16,1.62-9.48-.2-.9.1,1.39,10.27,3.23,10.93.77.28,1.91-.8,2.02-.78,1.54.32-1.49.76,3.83.78-2.06,1.86-2.71,4.6-4.03,6.83-.19.33-4.94,1.82-.81,5.85q-2.22-.39-4.44-.78c-.83,2.95-.28,6.11,2.02,8.39-11.36-.89-3.37,7.52-4.03,10.93-.17.87-7.71,8.94.81,15.61-3.97,1.74-2.51,0-3.02,0-1.62.02-1.74,8.79,5.44,7.42-1.61,2.22-5.42,4.52-5.65,5.07-2.82-2.08-.82,3.16-6.05.98.19,2.27,3.17,5.96,2.82,7.42-.65,2.71-10.55-.66-6.05,6.64-2.57,4.84.14,9.28-.4,14.25-2.13,5.03-.57,9.03-2.82,2.93-1.78,4.29-.49,9.38,4.03,11.32-2.9.83-2.53,3.47-4.44,4.68-.95,5.17.76,4.04.81,4.29.53,2.8-1.19,1.69-4.44,7.22-.04.06-.59-.17-.81.2-.28.48.33,4.31-1.21.59.18-3.91-1.65-5.29-2.02-10.54-.02-.29-.01-.88,0-1.17.18-4.23,1.07-3.76,1.21-4.49,1.02-5.43-2.55-2.98-4.23-3.32-1.24-.25-5.21-3.15-4.03-3.51.16-.05,2.39,2.1.6-.98,3.73.14-4.28-4.53.81-8.98-2.09-2.56-1.11-6.17-1.21-6.64-.98-4.77-1.61-.72-1.81-.59-.39.24-4.49-2.05-3.43-7.42.2-1.02,1.84-4.39,2.42-5.66-1.97-2.25-5.47-2.58-6.85.59l-2.82-2.15c-4.64-10.03,1.71-3.43,6.65-.98,5.17-7.79.72-5.31,1.41-11.12.05-.41,1.16-2.14,1.21-2.54,1.35-9.72-3.69-5.44-2.82-9.95.6-.66,3.67.42,2.02-4.68-2.18-6.75-4.17,1.61-6.05-1.56-1.09-1.84-.36-6.02.81-7.81-3.6-2.78-3.07-5.18-3.23-5.46-2.3-4.19-2.74-.68-3.02-.59-2.38.79-1.47-6.69-2.62-10.54-1.41-4.73-1.62-1.5-3.02-2.34-.95-.57,1.49-1.06-1.01-1.56-.8-3.92,1.21-.37,1.41-.39,1.98-.24-2.33-9.84,1.41-12.69.67-7.57-4.37,2.66-6.25-6.05,4.98-.74-1.87-3.73-.6-7.81,25.54-.03,51.07-.02,76.61,0Z"/><path class="cls-53" d="m161.41,168.12c.42-.1,1.35.78,1.41.98.55,1.78-.59,1.86-1.41-.98Z"/><path class="cls-15" d="m53.55,44.38c2.24,2.09,10.77,1.85,13.71,1.17,1,.74-5.91,6.02-7.46,7.03-8.28,5.36-14.55,4.98-11.09,8.2,2.6,2.42,11.02,3.94,14.52,3.51-4.23,5.29-18.03,11.63-18.75,12.49-1.2,1.42-.52,1.11.2,1.95,2.39,2.77,11.72,5.88,15.73,5.85l-18.95,11.71v-51.91c4.03-.07,8.07.03,12.1,0Z"/><path class="cls-15" d="m41.45,117.37c0-3.9,0-7.81,0-11.71,5.17,6.41,16.57-.36,16.94.59-4.93,4.65-11.11,7.71-16.94,11.12Z"/><path class="cls-49" d="m316.85,256.33l-.4,16c-1.93-1.12-2.44-.72-4.44-2.93-2.13-3.87-10.08-15.54-10.89-17.37-2.95-6.64,2.54-.16,7.46,1.95,1.61.69,6.07,1.4,8.27,2.34Z"/><path class="cls-49" d="m304.35,239.16c1.3,1.24,3.05,3.23,4.03,4.68-.21.69-3.39,3.43-3.63,3.51-.63.2-2.55-.14-3.63,0q-.2-3.32-.4-6.64c.88-.22,3.48-1.43,3.63-1.56Z"/><path class="cls-7" d="m306.36,223.93c4.44.55,4.97,2.54,7.06.39,1.27.8.72,1.19.2,2.34-1.76,3.96-10.57,9.86-14.92,11.9.33,1.52,4.17-.74,6.45-.59-.17.31-.74,1.11-.81,1.17-.15.13-2.75,1.34-3.63,1.56-1.26.31-3.57.22-4.84.39-1.48.2-3,.19-4.44.39-3.48.48-6.83.16-10.08,1.56-3.6.68-9.28-1.88-8.06-6.05.21-.72,10.68-8.32,12.1-9.17.82-.49,2.29-1.49,2.42-1.56,1.25-.66,3.1-1.53,4.44-1.95,1.12-.36,2.93-1.07,4.03-1.17,3.37-.32,6.76.37,10.08.78Z"/><path class="cls-41" d="m305.15,237.99c-2.28-.16-6.12,2.11-6.45.59,4.35-2.05,13.16-7.95,14.92-11.9,4.99,2.58-1.52,5.26-1.61,5.66-.03.14,1.49,1.09.81,2.73-.19.45-5.56-4.24-7.66,2.93Z"/><path class="cls-21" d="m300.72,195.05c4.27,11.72,12.15,14.94,15.73,17.96,1.01.85,2.08,1.67,3.23,2.34,1.93,2.91,3.4,2.73,3.63,2.93.21.18-.86.64,3.63,3.71,1.22.83,2.62,1.88,4.03,2.34,0,11.84,0,23.68,0,35.52-.73.05-1.77-.1-2.42-.39-5.19-2.31-5.35-1.05-8.87-1.95-.15-.04-.2-.4-2.82-1.17-2.19-.95-6.65-1.65-8.27-2.34-4.92-2.11-10.41-8.59-7.46-1.95q-.2,3.32-.4,6.64c-.08-3.67-1.72-8.24.4-11.32,1.08-.14,3,.2,3.63,0-2.86,1.13,4.94,3.38,5.44,3.12,2.49-1.24-.88-5.25-1.81-6.64-.98-1.45-2.73-3.44-4.03-4.68.07-.06.64-.86.81-1.17,2.1-7.16,7.47-2.47,7.66-2.93.68-1.64-.84-2.59-.81-2.73.09-.4,6.6-3.08,1.61-5.66.51-1.15,1.07-1.54-.2-2.34-2.09,2.15-2.62.16-7.06-.39v-.39c5.63-4.02-.87-11.2-2.82-15.61-.75-1.69-1.55-3.25-2.42-4.88l-1.21-5.85c.68,6.22,2.35,12.84.4,18.54.01-.44-.76-.76-.81-.98-.23-1.01-1.05-19.87-.2-20.49.56-.41.57,1.19,1.41.78Z"/><path class="cls-21" d="m304.75,247.35c.24-.08,3.42-2.82,3.63-3.51.93,1.38,4.3,5.4,1.81,6.64-.51.25-8.3-1.99-5.44-3.12Z"/><path class="cls-49" d="m289.43,217.3c.07.52.25,1.06.4,1.56.66,2.12,2.12,3.47,2.42,5.46-1.33.42-3.18,1.29-4.44,1.95l-.4-8.2c1.63-.8,1.92-.73,2.02-.78Z"/><path class="cls-50" d="m326.12,308.24c.12.06,1.91.77,2.02.78v53.87c-1.45.16-3.45-.02-3.63,0v-54.65h1.61Z"/><path class="cls-50" d="m315.23,287.17c-3.92.01-7.32.4-11.29,1.17-4.51-.57-2.62-15.95-2.82-25.37,1.06-.19,1.12,3.28,1.61,4.49.42,1.03,3.57,5.52,3.63,5.85.89,4.77-4.37,3.66,7.86,12.3.48.34,1.12.91,1.01,1.56Z"/><path class="cls-50" d="m308.38,320.34c.09.06.31-.06.4,0,.2.13,1.28,2.74,4.03,1.56-1.12,10.96,4.18,10.71,4.44,11.32.61,1.42-.46,26.55,0,30.84-4.3.6-8.57,1.57-12.9,1.95,0-.04-.8.12-.81-.2-.6-17.72.3-35.55.4-53.28.85,3.14,1.69,5.82,4.44,7.81Z"/><path class="cls-50" d="m327.73,260.23c-.46,2.62-.03,15.19.4,18.35-6.7,0-3.19-13.95-3.63-19.71.22-.38,3.72.13,3.23,1.37Z"/><path class="cls-28" d="m127.74,372.26c-1.33-.19-2.7-.6-4.03-.78.14-35.65.13-71.3.4-106.95.56-.05,2.93.45,3.23-.2.69-1.53-.82-24.78.4-29.08v137Z"/><path class="cls-50" d="m127.74,235.25c-1.22,4.29.29,27.55-.4,29.08-.29.65-2.67.15-3.23.2.07-9.24.36-18.47.4-27.71.82-.22,2.04-1.13,2.42-1.95.05.06.86-.21.81.39Z"/><path class="cls-7" d="m292.65,213l-.6-4.29c-1.82,4.52-4.12,4.57-4.23,4.88-.56,1.5,1.25,4.06,4.03.59v.39c-.45.82-1.74,2.35-2.42,2.73-.09.05-.38-.02-2.02.78-.09.05-1.28.04-2.02.39-3.16,1.5-.19,3.09-2.82,8-2.04,3.8-11.8,8.63-14.52,16.98-3.71-.18-7.54-.89-11.09-1.95-1.84.78-4.74,2.63-5.04,2.73-2.68.93-5.7,2.57-8.47.78-2.86-1.85-1.99-4.65,0-6.64.38-.38,8.11-5.82,8.87-6.25,8.49-4.75,31.01-10.67,31.05-12.3.06-2.34-11.14,1.48-14.72.98-2.39-.34-4.23-2.45-3.83-4.68.6-3.35,16.49-9.45,20.16-10.93,3.03-1.22,3.06-1.5,3.23-1.56.3-.12,2.95-.31,4.03-1.17,0,.05.8.3.81.59.07,2.51.32,7.88-.4,9.95Z"/><path class="cls-2" d="m285.4,218.47v9.37c-1.42.85-11.89,8.46-12.1,9.17-1.21,4.17,4.46,6.73,8.06,6.05-4.39.29-8.91.6-13.31.39,2.71-8.35,12.48-13.18,14.52-16.98,2.64-4.91-.33-6.5,2.82-8Z"/><path class="cls-50" d="m303.94,310.98c0-.23-.72-1.78-.4-4.68.83-.04,1.6,0,2.42-.2l-2.02,4.88Z"/><path class="cls-61" d="m324.51,44.38l-.4,174.67,2.82,2.93c-4.49-3.07-3.42-3.53-3.63-3.71-.23-.19-1.7-.02-3.63-2.93V44.38c1.61.02,3.23-.04,4.84,0Z"/><path class="cls-34" d="m319.67,44.38v170.96c-1.15-.67-2.22-1.49-3.23-2.34V44.38c1.07.01,2.15-.02,3.23,0Z"/><path class="cls-61" d="m328.54,259.45c-.19.05-.8.73-.81.78.5-1.23-3.01-1.74-3.23-1.37.44,5.76-3.07,19.71,3.63,19.71.05.38-.03.79,0,1.17-3.43-1.88-5.14-4.35-8.06-6.25q-.2-8-.4-16c3.52.9,3.68-.36,8.87,1.95Z"/><path class="cls-34" d="m319.67,257.5q.2,8,.4,16c-.16-.1-1.88-.15-3.63-1.17l.4-16c2.62.77,2.67,1.13,2.82,1.17Z"/><path class="cls-34" d="m319.67,307.85q.2,10.44.4,20.88c-1.19-.24-2.8-3.37-3.23-4.49q.2-8.39.4-16.78c.78.12,1.67.3,2.42.39Z"/><path class="cls-50" d="m317.25,307.46q-.2,8.39-.4,16.78c-2.08-5.4-1.53-11.15-1.61-16.78.61.11,1.39-.09,2.02,0Z"/><path class="cls-7" d="m315.23,287.17c2.15,0,3.9.04,6.05.39v.39c-1.79.55-4.77.14-5.85.39-3.88.91-13.53,8.22-25.81,8.98-1.55.7-18.56,19.98-25.2,20.88q2.42.49,4.84.98c-2.87,0-7.55.59-5.65-3.71.78-1.76,26.07-21.6,29.03-25.96,0,1.23-.89,2.57-.2,3.9,1.27-.47,2.56-1.13,3.83-1.56,2.32-.79,6.51-2.01,7.66-3.51,3.97-.77,7.37-1.16,11.29-1.17Z"/><path class="cls-2" d="m293.46,307.07v.39c-.74,3.44-.4,7.06-.4,10.54-9.62,5.51-3.28-2.98-8.06-1.95-.23-3.03,7.2-5.05,7.66-9.37.39.1.45.35.81.39Z"/><path class="cls-36" d="m292.65,306.68c-.46,4.31-7.89,6.34-7.66,9.37-.09.02.47.24-1.61.78-4.18,1.08-4.85,1.1-8.87,1.56,3.14-.71,14.48-13.52,15.52-13.66.16-.02,2.11,1.82,2.62,1.95Z"/><path class="cls-7" d="m321.28,287.95c2.47,2.14-.33,1.05-.6,1.17-9.83,4.36-18.97,18.96-27.22,17.96-.35-.04-.42-.29-.81-.39-.51-.13-2.46-1.97-2.62-1.95-1.04.14-12.39,12.95-15.52,13.66-1.9.22-2.92.78-5.24.78q-2.42-.49-4.84-.98c6.65-.9,23.65-20.19,25.2-20.88,12.28-.76,21.93-8.07,25.81-8.98,1.08-.25,4.05.16,5.85-.39Z"/><path class="cls-41" d="m324.91,288.34c1.48,2.89.21,1.36,0,1.76-4.37,7.98-10.39,6.84-14.52,15.81-.03.06-.39-.01-.81,1.17-1.6,4.61-1.21,8.49-1.21,13.27-2.74-1.98-3.58-4.67-4.44-7.81,0-.52,0-1.04,0-1.56l2.02-4.88c-.81.2-1.59.16-2.42.2-2.14.1-4.37.92-6.45,1.17-.6.07-2.67-.15-3.63,0v-.39c8.25,1.01,17.39-13.59,27.22-17.96.28-.12,3.07.97.6-1.17v-.39c1.08.18,2.17-.06,3.63.78Z"/><path class="cls-16" d="m326.12,308.24h-1.61c-1.59-.09-3.26-.2-4.84-.39-.75-.09-1.64-.27-2.42-.39-.63-.09-1.4.11-2.02,0-.14-.02-.57-.27-2.82-.78-1.11-.25-1.14-.78-2.02-.78,4.13-8.97,10.14-7.83,14.52-15.81.21-.39,1.48,1.14,0-1.76.99.57,1.45,1.22,2.02,2.15-.3,3.7-1.25,8.16-5.65,9.37-.04,2.55,2.37,7.21,4.84,8.39Z"/><path class="cls-2" d="m312.41,306.68c.63,2.57,1.88,13.39.81,14.83-.02.02-.38.38-.4.39-2.75,1.17-3.83-1.44-4.03-1.56,1.27-2.69,3.08-14.24.81-13.27.41-1.18.78-1.11.81-1.17.87,0,.91.53,2.02.78Z"/><path class="cls-16" d="m308.78,320.34c-.1-.06-.32.06-.4,0,0-4.78-.4-8.66,1.21-13.27,2.28-.97.47,10.58-.81,13.27Z"/><path class="cls-7" d="m318.86,332.05c.09,1.04-.72,1.31-1.61,1.17-.26-.61-5.56-.36-4.44-11.32.03-.01.39-.37.4-.39,1.54,1.85,4.55,7.87,5.65,10.54Z"/><path class="cls-50" d="m124.51,236.81c-.05,9.24-.33,18.47-.4,27.71-.27,35.65-.26,71.3-.4,106.95-5-.69-9.91-1.15-14.92-1.95-.23-31.88-.59-63.76-.81-95.63-.03-4.13.44-8.35.4-12.49.56.12.84.76,1.01.78,4.37.6,6.67-1.84,6.65-2.54-.02-.82-11.86-8.79-13.31-10.15l4.44-1.17c-6.07-5.44-12.6-10.52-17.34-17.17l.6-.59c3.11,2.2,16.79,8.11,19.35,8.2,8.82.3-1.68-6.58.4-7.03,4.31,2.33,9.2,6.44,14.31,5.07Z"/><path class="cls-50" d="m104.35,369.14c-5.81-1.03-11.55-2.73-17.34-3.9-.69-26.77-1.11-53.64-.81-80.41,11.34-10.21,8.97-.5,18.95-4.1q-.4,44.2-.81,88.41Z"/><path class="cls-49" d="m117.26,176.31c.95,3.77-1.12,1.99-2.22,2.73-2.74,1.85,1.46,2.2,1.61,2.34.38.37,2.58,5.66,8.47,3.51,1.2.23,2.67,8.64,2.22,9.95-.43,1.25-3.3.97-1.21,3.71-.92-.76-8.06-4.96-8.06-5.66,0-.49,2.82-1.96,2.82-2.34,0-1.15-16.5-14.78-16.53-16.39-.04-2.18,11.37,1.97,12.9,2.15Z"/><path class="cls-50" d="m61.21,255.16l-.81,101.49c-6.18-1.7-12.36-3.42-18.55-5.07-.05-32.65-.38-65.31-.4-97.97,2.02.76,3.27,2.96,5.65,3.9.28.11.76,1.3,2.62.39,4.54-2.22-2.64-8.03-5.85-12.1,13.99,9.15,16.58,2.09,17.34,9.37Z"/><path class="cls-40" d="m66.05,256.33v36.89c-.07.29-1.41.06-1.61.78-.87,3.08,1.11,55.11,0,63.82-.79-.22-1.63-.56-2.42-.78-.51-.14-1.1-.25-1.61-.39l.81-101.49c1.65.35,2.94,1.65,4.84,1.17Z"/><path class="cls-50" d="m76.13,223.15c.01,20.41.71,40.86.81,61.28.04,9.75.38,19.54.4,29.27.04,15.73-.5,31.48-.4,47.23-4.23-.74-8.38-1.98-12.5-3.12,1.11-8.71-.87-60.74,0-63.82.2-.72,1.54-.49,1.61-.78v-36.89c.19-.05,2.74-2.36,2.82-2.54,2.47-5.46-7.04-5.04-5.24-9.37.24-.57,8.77.48,9.68-2.73,1.14-4.03-4.96-4.89-5.24-5.85-.19-1.07,1.08-1.64,2.02-2.93.06-.09,1.44-.55,1.21-1.76-.25-.57-4.03-1.41-4.84-1.76-.86-6.26,1.82-3.43,5.44-4.68.72-.25,4.33-3.45,4.23-1.56Z"/><path class="cls-50" d="m76.93,154.07c-.53,7.02-.39,14.05-.4,21.08-.02,13.4-.41,26.81-.4,40.2-4.7.4-8.64-2.76-12.5-4.68q3.53.39,7.06.78l.6-.59c-5.72-6.84-2.31-3.68.4-4.1,3.2-.49,4.85-5.99-7.66-9.56-.09-1.3,7.05.36,2.82-6.64-2.21-3.66-8.03-4.06-11.69-5.27.09-.8-.14-1.61-.4-2.34,1.82-.59,7.65-5.38,8.47-6.44.21-.27,3.54-6.34,2.02-5.66,2.25-2.66,4.34-6.33,6.05-9.37,1.15-2.03,2.15-4.17,3.23-6.25.73-.54,1.34-1.36,2.42-1.17Z"/><path class="cls-24" d="m47.1,257.5c-2.37-.94-3.62-3.14-5.65-3.9,0-1.69,0-3.38,0-5.07,3.81.91,12.17,10.75,5.65,8.98Z"/><path class="cls-24" d="m43.87,245.79c3.2,4.07,10.39,9.88,5.85,12.1-1.86.91-2.34-.28-2.62-.39,6.53,1.78-1.84-8.07-5.65-8.98,0-1.17,0-2.34,0-3.51,1.94.78.89-.66,1.41-.78.09-.02.33.7,1.01,1.56Z"/><path class="cls-43" d="m55.16,185.29c3.66,1.2,9.48,1.61,11.69,5.27,4.23,7-2.91,5.34-2.82,6.64,12.51,3.57,10.86,9.07,7.66,9.56,4.52-4.6-10.99-3.76-9.48-11.32-6.04-3.74-15.42-13.92-21.17-15.61,0-2.99.4-5.96.4-8.98,3.6,1.12,8.01,10.72,12.7,14.83,1.19.17.96-.41,1.01-.39Z"/><path class="cls-25" d="m45.89,169.68c1.2,1.43,2.56,3.16,3.63,4.68,1.17,1.67,3.08,4.51,4.03,6.25.39.71.94,1.61,1.21,2.34.27.73.49,1.55.4,2.34-.05-.02.18.56-1.01.39-4.69-4.11-9.1-13.71-12.7-14.83,0-1.82,0-3.64,0-5.46h.4c1.15,1.55,2.8,2.83,4.03,4.29Z"/><path class="cls-24" d="m71.69,206.76c-2.72.42-6.12-2.74-.4,4.1l-.6.59q-3.53-.39-7.06-.78c-13.94-6.95,3.44,6.12,12.5,8.98.9,1.09,0,2.46,0,3.51.1-1.89-3.51,1.31-4.23,1.56-3.62,1.26-6.31-1.58-5.44,4.68-3.32-1.43-2.29-1.5-2.42-1.56,2.47-3.94-13.05-7.78-17.34-9.17,3.83,2.59,8.77,5.94,12.9,8-4.85.38,5.61,3.86,10.48,6.25-.94,1.29-2.21,1.86-2.02,2.93.28.96,6.38,1.83,5.24,5.85-.91,3.21-9.44,2.17-9.68,2.73-1.8,4.33,7.71,3.91,5.24,9.37-.08.17-2.64,2.49-2.82,2.54-1.9.48-3.19-.82-4.84-1.17-.76-7.28-3.35-.22-17.34-9.37-.68-.87-.92-1.58-1.01-1.56-.52.13.53,1.56-1.41.78-.01-21.73-.4-43.46-.4-65.18,5.75,1.69,15.13,11.88,21.17,15.61-1.51,7.56,14,6.72,9.48,11.32Z"/><path class="cls-43" d="m63.63,210.66c3.86,1.92,7.8,5.08,12.5,4.68,0,1.42.37,2.85,0,4.29-9.06-2.86-26.44-15.93-12.5-8.98Z"/><path class="cls-28" d="m64.03,227.84c-.22-.1-.3.89-4.44-1.17-4.14-2.06-9.08-5.41-12.9-8,4.29,1.39,19.81,5.23,17.34,9.17Z"/><path class="cls-43" d="m59.6,226.67c4.13,2.06,4.21,1.07,4.44,1.17.13.06-.9.13,2.42,1.56.8.35,4.59,1.19,4.84,1.76.23,1.21-1.15,1.67-1.21,1.76-4.87-2.39-15.33-5.86-10.48-6.25Z"/><path class="cls-50" d="m46.49,236.42c.63-.11,9.84,5.13,11.29,5.85,2.12,1.06,5.39.4,4.64,3.71-2.21-1.05-15.25-7.81-15.93-8.39-.45-.39-.83-1.02,0-1.17Z"/><path class="cls-50" d="m108.38,261.41c.03,4.14-.43,8.36-.4,12.49-3.86-2.48-8.43-4.84-11.89-7.81-2.99-2.55-12.06-12.54-8.06-12.49,1.09.01,12.44,6.07,20.36,7.81Z"/><path class="cls-50" d="m79.35,44.38c.29,1.1,2.68,1.22,2.42,0,5.64-.01,11.29,0,16.94,0,.87,2.09,7.99,1.87,8.47,3.32,1.73,5.27-18.2.92-20.97,0,1.8,2.02,16.63,10.25,17.14,11.12,2.22,3.86-10.93,3.27-12.9,2.73-3.9-1.05-7.57-7.08-8.27-5.85-.72-.84-1.4-1.8-2.42-2.34-.34-3.36-1.96-5.33-.81-6.44-2.29-1.43-2.26,3.54-2.42,8-2.58,2.7-6.24,6.23-9.68,7.81,3.81-5.28,9.43-11.87,9.68-18.35.94,0,1.88,0,2.82,0Z"/><path class="cls-44" d="m76.53,44.38c-.25,6.48-5.87,13.07-9.68,18.35-1.15.53-2.32,1.4-3.63,1.56-3.49.43-11.91-1.1-14.52-3.51,10.17-3.35,20.59-7.58,27.02-16.39.27,0,.54,0,.81,0Z"/><path class="cls-53" d="m75.72,44.38c-6.42,8.81-16.85,13.05-27.02,16.39-3.46-3.22,2.81-2.84,11.09-8.2,1.55-1,8.46-6.28,7.46-7.03.6-.14,1.63.28,1.61-1.17,2.28,0,4.57,0,6.85,0Z"/><path class="cls-44" d="m68.87,44.38c.02,1.46-1.01,1.03-1.61,1.17-2.94.68-11.46.92-13.71-1.17,5.11-.03,10.22.02,15.32,0Z"/><path class="cls-20" d="m81.77,44.38c.26,1.22-2.13,1.1-2.42,0,.81,0,1.61,0,2.42,0Z"/><path class="cls-50" d="m76.93,154.07c-1.08-.19-1.69.63-2.42,1.17-1.61,1.21-3.76,4.57-4.64,5.07-.42.24-.74-.52-1.01-.39-1.15-1.86-8.21.64-12.7,1.95-3.97,1.16-4.84,3.69-14.31,3.51h-.4c0-1.3,0-2.6,0-3.9,1.09-.75,2.76-6.01,3.02-6.25.5-.45,5.9-1.19,12.5-5.07,5.3-3.12,20.52-16.19,18.35-22.25.3-.49.69-2.51,1.61-3.12-.04,9.76.03,19.52,0,29.27Z"/><path class="cls-50" d="m76.93,124.01c-1.49-.55-5.77,6.96-6.65,7.03-1.41.1-1.08-2.46-2.02-2.34-.37.04-1.05,2.12-5.65,4.68-4.85,2.7-10.06,2.79-11.69,7.81l-9.48-1.17c0-.26,0-.52,0-.78,11.88-12.68,24.9-18.47,31.85-34.74,1.41-3.31,1.51-5.2,1.61-5.46.34-.93.99-2.25,2.02-2.73-.01,9.24.04,18.48,0,27.71Z"/><path class="cls-44" d="m73.31,104.49c-6.95,16.27-19.97,22.06-31.85,34.74,0-4.29,0-8.59,0-12.88,9.51-4.38,20.29-9.3,27.42-16.98,1.64-1.76,3.14-5.23,4.44-4.88Z"/><path class="cls-44" d="m74.51,98.64s-.09.43.4.39c-.1.27-.2,2.15-1.61,5.46-1.3-.36-2.8,3.11-4.44,4.88-7.13,7.68-17.91,12.6-27.42,16.98,0-2.99,0-5.99,0-8.98,5.82-3.42,12.01-6.47,16.94-11.12-.37-.94-11.76,5.83-16.94-.59v-3.51c10.4-7.42,22.91-11.37,33.06-19.13-.18,1.57-.24,2.99-.81,4.49-3.65,9.7-20.99,17.7-8.27,12.69,6.53-2.57,6.12-5.57,9.07-1.56Z"/><path class="cls-44" d="m74.51,83.03c-10.15,7.76-22.66,11.71-33.06,19.13v-5.85l18.95-11.71,1.61-.39c2.92-.32,5.69-1.03,8.47-1.95,1.57-.52,3.03-1.19,4.23-2.34.68,1.8-.18,2.92-.2,3.12Z"/><path class="cls-44" d="m76.93,124.01c0,.26,0,.52,0,.78-.93.62-1.31,2.63-1.61,3.12-6.17,10.06-24.21,20.55-33.87,27.71,0-5.2,0-10.41,0-15.61l9.48,1.17c1.63-5.02,6.85-5.11,11.69-7.81,4.6-2.56,5.28-4.64,5.65-4.68.93-.11.61,2.44,2.02,2.34.88-.06,5.16-7.57,6.65-7.03Z"/><path class="cls-32" d="m41.45,161.48c0-1.95,0-3.9,0-5.85,9.66-7.16,27.7-17.65,33.87-27.71,2.17,6.06-13.05,19.13-18.35,22.25-6.6,3.88-12,4.62-12.5,5.07-.26.23-1.93,5.5-3.02,6.25Z"/><path class="cls-28" d="m79.76,53.36c.1.95-.38,6.82,0,10.93.47,5.05.27,6.06,5.24,9.37.71.48,1.3.76,2.02,1.17,13.11,5.84,15.14,14.58,23.79,17.17-.07.06.24.65-1.01,1.56-1.4.19-2.96-.61-4.23-.78-1.34-.18-2.65-.51-3.83-1.17-5.72,2.68-13.18.42-17.74-3.51-1.21-1.05-8.65-10.04-1.81-.59,1.6,2.22,3.52,3.63,5.65,5.27-.53.32,1.08,2.98,1.61,3.71,3.34,4.59,17.54,18.7,18.55,20.69.16.31-1.58-.49.4,1.37-.5-.06-1.86-.63-2.22-1.17-19.74,3.1-20.24-7.52-24.39-11.9-.6-.63-.83-.86-.81,0,3.44,8.7,11.18,12.82,17.74,19.13,2.28,2.19,10.77,10.44,12.1,12.1,1.02,1.27-3.14-.46,4.84,4.88,2.21,1.48,5.57,2.52.81,4.68-1.13.51-3.87.79-5.24.78-3.69-.03-10.05-2.06-14.11-2.54-.49.87,7.45,7.76,8.47,8.78,4,4.01,11.29,10.34,11.29,11.12,0,.18-2.55,2.23-2.22,2.93.27.57,11.23,4.96,11.49,5.66,1.4,3.8-6.67,3.57-8.87,3.32-1.53-.17-12.94-4.33-12.9-2.15.03,1.61,16.54,15.25,16.53,16.39,0,.38-2.83,1.85-2.82,2.34,0,.7,7.14,4.9,8.06,5.66,2.74,2.25,3.21,2.3,2.02,3.9-5.78,7.78-18.39-3.21-19.96-2.73,2.56,7.5,22.77,16.08,23.79,17.17,1.18,1.28.1,2.94-1.21,3.51-4.89,2.13-20.38-2.25-25.81-4.29l-.6.59c3.6,4.65,21.22,16.31,22.58,18.15-.38.82-1.6,1.73-2.42,1.95-5.12,1.36-10-2.75-14.31-5.07-2.09.45,8.42,7.32-.4,7.03-2.57-.09-16.24-6-19.35-8.2l-.6.59c4.74,6.66,11.27,11.73,17.34,17.17l-4.44,1.17c1.45,1.36,13.29,9.33,13.31,10.15.02.69-2.28,3.14-6.65,2.54-.17-.02-.45-.66-1.01-.78-7.92-1.74-19.27-7.79-20.36-7.81-3.99-.05,5.08,9.94,8.06,12.49,3.47,2.96,8.04,5.32,11.89,7.81.21,31.88.58,63.75.81,95.63-1.37-.22-3.01-.14-4.44-.39q.4-44.2.81-88.41c-9.99,3.59-7.62-6.11-18.95,4.1q-1.01-52.99-2.02-105.97l-7.66-3.71c0-7.03-.12-14.06.4-21.08.03-9.76-.04-19.52,0-29.27,0-.26,0-.52,0-.78.04-9.24-.01-18.48,0-27.71,0-1.69,0-3.38,0-5.07,0-5.46-.42-10.98-.4-16.39.02-5.18-.07-10.46,0-15.61.02-1.43-.05-2.87,0-4.29.16-4.46.13-9.43,2.42-8-1.15,1.11.47,3.08.81,6.44Z"/><path class="cls-50" d="m96.69,98.25c5.92,3.51,12.18,6.34,18.14,9.76-1.58,1.08-4.99.74-6.85,1.76,3.85,6.14,8.96,9.75.4,8.78-1.98-1.86-.25-1.05-.4-1.37-1.01-1.99-15.2-16.09-18.55-20.69-.53-.73-2.14-3.39-1.61-3.71,2.73,2.11,5.9,3.7,8.87,5.46Z"/><path class="cls-51" d="m105.56,92.78q-4.44,2.73-8.87,5.46c-2.97-1.76-6.14-3.35-8.87-5.46-2.12-1.64-4.04-3.05-5.65-5.27-6.84-9.46.6-.46,1.81.59,4.56,3.93,12.02,6.19,17.74,3.51,1.18.66,2.49.99,3.83,1.17Z"/><path class="cls-50" d="m76.93,91.22c-1.69,2.06-2.24,4.82-2.42,7.42-2.95-4.01-2.55-1.01-9.07,1.56-12.72,5.02,4.62-2.99,8.27-12.69.57-1.5.63-2.92.81-4.49.02-.21.88-1.33.2-3.12-1.2,1.15-2.66,1.82-4.23,2.34l6.05-7.42c-.02,5.42.41,10.94.4,16.39Z"/><path class="cls-32" d="m76.93,96.3c-1.02.49-1.67,1.8-2.02,2.73-.49.04-.37-.35-.4-.39.18-2.59.73-5.36,2.42-7.42,0,1.69,0,3.38,0,5.07Z"/><path class="cls-44" d="m62.02,84.2l-1.61.39c-4.01.03-13.34-3.09-15.73-5.85,2.88-1.26,6.12-1.56,9.07-2.73,8.85-3.53,15.07-9.94,21.98-16-1.8,9.19-7.5,17.16-13.71,24.2Z"/><path class="cls-53" d="m76.53,59.22c-1.14-.19-.73.71-.81.78-6.9,6.06-13.13,12.48-21.98,16-2.95,1.18-6.19,1.47-9.07,2.73-.72-.84-1.4-.53-.2-1.95.72-.86,14.52-7.2,18.75-12.49,1.31-.16,2.47-1.03,3.63-1.56,3.44-1.58,7.1-5.11,9.68-7.81-.05,1.43.02,2.86,0,4.29Z"/><path class="cls-54" d="m76.53,59.22c-.07,5.15.02,10.44,0,15.61l-6.05,7.42c-2.77.92-5.55,1.63-8.47,1.95,6.2-7.04,11.91-15.01,13.71-24.2.08-.07-.34-.97.81-.78Z"/><path class="cls-44" d="m74.51,155.24c-1.08,2.07-2.08,4.21-3.23,6.25-6.65,5.19-14.23,9.05-21.77,12.88-1.07-1.52-2.43-3.25-3.63-4.68,6.36-4.46,15.63-6.36,22.98-9.76.27-.13.59.63,1.01.39.88-.5,3.02-3.87,4.64-5.07Z"/><path class="cls-32" d="m68.87,159.92c-7.35,3.4-16.63,5.3-22.98,9.76-1.23-1.47-2.88-2.75-4.03-4.29,9.47.18,10.34-2.35,14.31-3.51,4.5-1.31,11.55-3.81,12.7-1.95Z"/><path class="cls-44" d="m71.29,161.48c-1.71,3.04-3.8,6.71-6.05,9.37-3.25,3.84-7.41,7.05-11.69,9.76-.95-1.73-2.86-4.58-4.03-6.25,7.55-3.83,15.13-7.69,21.77-12.88Z"/><path class="cls-50" d="m54.76,182.95c-.27-.73-.82-1.64-1.21-2.34,4.28-2.71,8.44-5.92,11.69-9.76,1.52-.68-1.81,5.39-2.02,5.66-.81,1.06-6.65,5.85-8.47,6.44Z"/><path class="cls-50" d="m82.18,55.7c3.43,3.97,16.51,15.63,20.97,16.78-.61,2.01-1.9,1.46-2.02,1.76-.59,1.47,15.9,5.08,10.69,6.83-5.73,1.92-19.51-3.2-24.8-6.25-.72-.41-1.3-.7-2.02-1.17l-5.24-9.37c-.38-4.1.1-9.98,0-10.93,1.02.54,1.7,1.51,2.42,2.34Z"/><path class="cls-17" d="m85,73.66c-4.97-3.31-4.78-4.31-5.24-9.37l5.24,9.37Z"/><path class="cls-54" d="m111.21,147.04c-1.91,2.87-4.59,7.53-5.65,6.25-1.01-1.02-8.96-7.91-8.47-8.78,4.06.47,10.42,2.51,14.11,2.54Z"/><path class="cls-35" d="m86.21,284.82c-.3,26.77.12,53.63.81,80.41.07,2.6-.09,5.21,0,7.81.15,4.4-.71,9.36,1.01,10.93,16.99,2.09,15.03,1.03-.4,3.12-1.5.2-2.48,1.15-2.62,1.17-.54.07-.71.09-1.21.39-2.59.3-8.64-2.73-11.49-3.9-.75-.31-.54-1.15-.6-1.17,1.46.13,2.53-.49,4.03-.39,1.14.07,1.99,1.14,3.43.78.77-.23,2.5-4.13,2.62-4.88.92-5.52-1.26-49.33-.81-64.6,1.14-4.81,2.34-28.66,2.02-30.25-.25-1.24-3.52-3.81-6.05.2-.09-20.43-.79-40.87-.81-61.28,0-1.05.9-2.43,0-3.51.37-1.44,0-2.88,0-4.29,0-13.39.39-26.8.4-40.2l7.66,3.71q1.01,52.99,2.02,105.97Z"/><path class="cls-18" d="m80.97,314.49c-.45,15.27,1.72,59.08.81,64.6-.12.75-1.86,4.65-2.62,4.88-1.44.36-2.29-.71-3.43-.78,0-.53.45-.17.81-.78,1.32-2.23.83-16.95.81-20.69,0-.37-.4-.41-.4-.78-.1-15.74.44-31.5.4-47.23,1.99-1.95,1.75.45,3.63.78Z"/><path class="cls-61" d="m80.97,314.49c-1.88-.33-1.64-2.73-3.63-.78-.02-9.74-.36-19.52-.4-29.27,2.53-4.01,5.79-1.44,6.05-.2.33,1.59-.87,25.44-2.02,30.25Z"/><path class="cls-50" d="m258.78,44.38c11.67,2.51,12.9,13.79-1.81,7.81-3.25,6.45,17.04,16.57,17.14,19.71.18,6.13-17.25,3.26-20.97,1.95-.18,3.55,12.9,16.11,12.9,17.17,0,2.81-8.31-1.03-10.08,3.12-1.83,4.29,15.78,8.03,13.31,18.35-.1.41-1.31,2.21-1.81,2.54-5.45,3.5-16.17-6.51-16.73-5.27,8.25,11.57,20.41,19.51,31.85,27.91,0,2.72-.41,5.54-.4,8.2-7.95.32-14.68-.32-21.98-3.51-2.07-.91-5.3-5.28-5.85-.98-1.02,8.02,21.01,19.14,27.82,21.66.04,4.37.61,8.89.81,13.27-1.72-.11.05,1.22-.81,2.54-.18.27-1.82.88-2.42,1.37q-6.96-.2-13.91-.39c-3.43-1.52-8.39-9.54-12.1-7.81-2.07.97-.83,2.29-1.01,3.51-.66,4.46,0,3.88,0,4.1-.33,10.6.48,21.42-.81,31.81-4.28.53-1.2,10.21-4.03,12.1-.24-1.84-2.79-10.25-4.44-10.54-.15-6.13-.81-28.14-1.21-31.62-.31-2.73-1.93-4.35-5.04-4.68-4.12-.44-5.89,1.86-6.45,1.95-.9.15-5.88-1.42-10.48-.78-.39-.34-.93-.61-1.41-.78-.49-.17-2.68-3.15-9.68-3.12.64-.21,2.09-1.18,2.22-1.17,3.1.12,1.45,5.16,12.1-3.51,2.8-2.28,18.58-19.09,17.94-21.27-.03-.09-1.6.27-1.61-1.17-.04-5.26,6.38-10.83-.81-4.1,1.31-4.9-3.33,2.45-7.86,3.12-2.66.4-7.64-1.27-14.72-1.56,7.97-5.1,23.07-12.95,18.55-23.81.11-.07-.33-.47,1.61-1.95,4.24-3.24,5.53-3.08,7.66-8.2.03-.07,1.1-.64,1.21-.98.47-2.56-2.17-7.03-2.82-14.25-.03-.38.6-.52.4-.98-7.14.05-16.91,9.58-22.18,3.32,1.12-.23,17.91-8.5,20.56-9.95.71-10.68-5.05-2.79-2.02-10.34.52-1.29,1.85-2.49,1.41-2.73-2.94.06-8.29,1.56-9.48-1.17,10.27-3.82,8.01-9.88,13.31-7.22.32-2.66.21-5.35.4-8,.34-4.55.69-9.09.4-13.66,4.44,0,8.87,0,13.31,0Z"/><path class="cls-17" d="m211.61,44.38c-10.75,2.52-7.32,8.62,2.22,7.03,3.35,5.36,10,4.14,15.52,3.12,2.81-.52,6.74-1.8,9.27-3.12.6-.17,1.83.18,2.42,0,.5,2.12,1.52,1.72,1.61,2.73-8.25,6.12-35.33,13.59-35.89,15.42-.18.58.15,1.42.4,1.95,1.02,2.16,13.64,3.78,16.73,4.1,3.3-2.82,7.08-2.2,7.46-2.34,1.19,2.73,6.54,1.23,9.48,1.17.44.24-.89,1.44-1.41,2.73-5.76,2.89-34.11,9.95-35.68,10.93-2.09,1.3,1.97,5.22,3.43,6.25-1.97.25-2.12-.44-2.22-.39-.48.22-5.7,6.78-6.85,7.81-4.41,3.92-8.04,5.52-8.47,5.85-2.89,2.26.21,3.7-7.46,7.22-.03,1.74-1.03,3.52-2.02,4.88-7.18,1.37-7.06-7.4-5.44-7.42.52,0-.95,1.74,3.02,0,3.06,2.4.25.54,1.61-3.32,1.25-3.54,7.93-4.19,8.06-10.93-3.72,2.7-7.24,1.62-10.48-1.37.67-3.41-7.33-11.81,4.03-10.93,2.88-3.77,6.35-.28,7.66-8.78-4.44-.23.58-7.89,1.61-11.32.13-.62-1.17-.19-2.02-.2-5.32-.02-2.29-.46-3.83-.78-.11-.02-1.24,1.06-2.02.78-1.83-.66-4.13-10.83-3.23-10.93,1.32,1.82,9.48,2.23,9.48.2,0-.22-2.68-2.46-2.02-3.9.27-.58,8.64-1.44,10.89-6.44,4.7,0,9.41,0,14.11,0Z"/><path class="cls-19" d="m282.57,44.38c.04,31.1-.06,62.19,0,93.29-11.45-8.4-23.6-16.34-31.85-27.91.56-1.24,11.28,8.77,16.73,5.27.51-.32,1.72-2.13,1.81-2.54,2.47-10.32-15.13-14.05-13.31-18.35,1.77-4.15,10.08-.31,10.08-3.12,0-1.07-13.08-13.63-12.9-17.17,3.72,1.31,21.15,4.18,20.97-1.95-.09-3.15-20.39-13.26-17.14-19.71,14.71,5.99,13.49-5.3,1.81-7.81,7.93,0,15.86-.02,23.79,0Z"/><path class="cls-54" d="m245.48,44.38c.29,4.57-.07,9.11-.4,13.66l-4.03.98c.13-.98,1.64-4.62,1.61-4.88-.09-1.01-1.11-.61-1.61-2.73,2.59-.78,3.27-4.77,2.82-7.03.54,0,1.08,0,1.61,0Z"/><path class="cls-17" d="m207.17,94.35c3.29,2.32,9.8,3.93,13.71,3.12,5.26,6.26,15.03-3.27,22.18-3.32.2.45-.44.6-.4.98-8.7,3.78-16.96,8.62-25.6,12.49-12.64,5.66-28.45,7.02-5.85,12.1,2.93-1.25,5.78-1.47,8.87-1.95,1.7-.26,2.25-.59,3.23-.78,3.01,3.65,9.04,1.24,13.31,1.56-1.94,1.48-1.51,1.88-1.61,1.95-7.71,5.13-37.29,15.06-39.31,16.78-2.36,2.02,1.1,5.61,2.42,6.25,2.4,1.16,4.96.62,7.46.78,2.01.13,3.78-.08,5.65,0,1.47.06,2.96-.04,4.44,0-1.64,3.53-1.87,7.25-2.02,7.61-.12.29-4.41,1.56-.4,3.32-4.4,1.41-27.92,7.83-29.23,8.59-3.44,1.99,1.86,4.66,4.23,5.85-.09.04.2.96-.2,1.17-.76.07-1.83-.11-2.02,0-4.65,2.84-14.67,14.53-19.76,14.44-4.11-.07-1.59-3.36-6.25,1.95.36-2.73.95-4.66,4.03-5.27,1.91-4.6,1.71-8.05-1.01-1.76-3.32.39-4.8,4.4-4.64,7.22l-.4-2.93c3.24-5.53,4.97-4.42,4.44-7.22-.05-.25-1.76.87-.81-4.29,1.91-1.22,1.54-3.85,4.44-4.68-4.52-1.93-5.81-7.03-4.03-11.32,2.25,6.11.69,2.1,2.82-2.93,2.12-4.99.3,1.72.4,2.15.56,2.4,1.88-6.04,3.63-8.59.62-.9,11.87-10.65,13.71-16.78,1.26-4.21-.34.56-7.46-.2-1.06-1.09-1.01-4.88-.6-5.85.23-.55,4.04-2.85,5.65-5.07.98-1.36,1.99-3.14,2.02-4.88,7.67-3.52,4.57-4.96,7.46-7.22.43-.34,4.06-1.94,8.47-5.85,1.15-1.03,6.38-7.58,6.85-7.81.1-.05.25.64,2.22.39Z"/><path class="cls-15" d="m174.51,124.79c-.41.97-.45,4.76.6,5.85,7.12.76,8.72-4.01,7.46.2-1.84,6.14-13.09,15.89-13.71,16.78-1.75,2.54-3.07,10.99-3.63,8.59-.1-.42,1.71-7.14-.4-2.15.54-4.97-2.17-9.41.4-14.25-4.5-7.3,5.39-3.93,6.05-6.64.35-1.45-2.63-5.14-2.82-7.42,5.23,2.18,3.23-3.06,6.05-.98Z"/><path class="cls-15" d="m177.74,112.3c-8.52-6.68-.98-14.74-.81-15.61,3.24,2.99,6.77,4.07,10.48,1.37-.13,6.74-6.81,7.39-8.06,10.93-1.36,3.85,1.45,5.72-1.61,3.32Z"/><path class="cls-15" d="m180.96,85.76c-2.29-2.28-2.85-5.44-2.02-8.39q2.22.39,4.44.78c-4.13-4.04.61-5.53.81-5.85,1.33-2.23,1.97-4.97,4.03-6.83.85,0,2.15-.43,2.02.2-1.03,3.43-6.05,11.09-1.61,11.32-1.32,8.5-4.78,5.02-7.66,8.78Z"/><path class="cls-51" d="m154.75,188.8l.6,6.64c5.61-3.28,1.56-7.13,3.23-7.03.89.05.73,3.99,1.41-1.17,4.66-5.31,2.14-2.02,6.25-1.95,5.09.09,15.11-11.6,19.76-14.44.18-.11,1.26.07,2.02,0,.4-.21.12-1.13.2-1.17.26-.11,3.71-.73,5.44-1.56.04,5.53,2.77,7.6,7.66,8.98,2.88-.43,5.14-2.23,7.86-3.12,6.99-.03,9.18,2.95,9.68,3.12q-2.22.1-4.44.2c-1.13,5.17-5.77,10.31-6.05,15.22-1.73,1.24-2.22,2.36-3.23,4.1-9.07,2.11-18.1,4.33-27.22,6.25-.85,1.52,1.28,1.29,4.23,5.85-2.81,4.18-6.85,5.32-10.28,7.81-3.11,2.25-5.71,5.24-6.05,5.46-.47.31-2.92.88-4.03,1.56-1.23.75-4.68,4.07-5.65,3.9-1.73-2.51-2.35-1.82-2.42-1.95-.37-.7.58-13.62.2-15.81-5.35-4.29-4.7-9.08-5.24-10.15-2.67-1.79-5.75-8.38-7.26-11.71-2.21-4.9-4.07-12.42-6.05-17.17-.19-.45-1.83-1.51-2.02-1.95-1.28-3.09-.59-5.74-4.03-9.37-6.66-26.42-8.69-14.2-10.28-13.08-.51.36-3.15,1.26-2.62,0,4.76-2.17,1.41-3.2-.81-4.68-.05-2.37,2.74-19.45,3.83-19.91.89-.37,1.7.37,2.22.98,1.86,2.18,18.18,44.52,22.18,52.3,2.83,5.52,6.14,9.97,9.88,14.64.4.11.9-.62,1.01-.78Z"/><path class="cls-50" d="m243.46,213c.21,8.45-.15,16.92,0,25.37-1.99,1.99-2.86,4.79,0,6.64-.11,27.97-.37,55.94-.4,83.92-.91-20.55-.17-41.12-.4-61.67-.05-4.55.2-9.12-.2-13.66-9.69.9-13.76,10.41-22.18,8.2-3.83-3.74-7.27,1.72-11.69-2.34-2.07-.33-4.96,1.98-5.24,1.95-.27-.03-3.93-3.31-2.62-3.9.84-.17,10.76-7.32,12.3-8.59,9.78-8.08,17.51-17.94,22.78-29.27.05-.1.85-.83,1.21-1.95,2-6.17-2.99,1.08-11.69.78-2.35-.08-4.85-1.3-6.25-1.17-.57.05-9.42,4.25-10.48,4.29-.51.02-11.25-2.01-7.06-3.51,6.78-1.68,20.14-9.51,25.2-14.44,4.1-4,12.46-15.86,14.72-21.08.15-.35.41-1.12.81-1.17.4,3.47,1.06,25.48,1.21,31.62Z"/><path class="cls-6" d="m209.19,173.97c-2.72.89-4.98,2.69-7.86,3.12-4.89-1.38-7.62-3.45-7.66-8.98-1.74.83-5.19,1.45-5.44,1.56-2.37-1.19-7.68-3.87-4.23-5.85,1.31-.76,24.83-7.18,29.23-8.59,5.59-1.79,11.28-3.29,16.73-5.46,3.04-2.37,6.25-4.38,9.07-7.03,7.19-6.74.76-1.16.81,4.1.01,1.44,1.59,1.08,1.61,1.17.64,2.18-15.14,18.99-17.94,21.27-10.64,8.67-8.99,3.63-12.1,3.51-.13,0-1.58.96-2.22,1.17Z"/><path class="cls-6" d="m239.43,77.17c-3.03,7.55,2.73-.34,2.02,10.34-2.65,1.45-19.44,9.72-20.56,9.95-3.9.81-10.42-.8-13.71-3.12-1.46-1.03-5.52-4.95-3.43-6.25,1.58-.98,29.93-8.04,35.68-10.93Z"/><path class="cls-26" d="m242.25,181.39c-.39.05-.65.82-.81,1.17-9.8,7.71-21.27,11.17-33.27,14.05-.25.06-1.47-.36-3.02,0,1.01-1.74,1.49-2.86,3.23-4.1.28-4.92,4.92-10.05,6.05-15.22q2.22-.1,4.44-.2c.48.17,1.02.44,1.41.78,4.6-.64,9.58.93,10.48.78.56-.09,2.33-2.39,6.45-1.95,3.11.33,4.73,1.96,5.04,4.68Z"/><path class="cls-6" d="m242.66,54.14c.02.26-1.49,3.9-1.61,4.88l4.03-.98c-.2,2.65-.09,5.35-.4,8-5.3-2.65-3.03,3.4-13.31,7.22-.38.14-4.16-.48-7.46,2.34-3.09-.32-15.71-1.94-16.73-4.1-.25-.53-.58-1.38-.4-1.95.56-1.82,27.63-9.3,35.89-15.42Z"/><path class="cls-26" d="m282.17,145.87c.02,5.47.76,11.11.81,16.59,0,.28-.81.54-.81.59-6.81-2.52-28.84-13.64-27.82-21.66.55-4.3,3.78.07,5.85.98,7.3,3.19,14.02,3.83,21.98,3.51Z"/><path class="cls-51" d="m239.03,142.75c-2.82,2.65-6.03,4.66-9.07,7.03-5.46,2.17-11.15,3.68-16.73,5.46-4.01-1.76.29-3.03.4-3.32.15-.37.38-4.08,2.02-7.61.27,0,.54-.01.81,0,7.07.29,12.06,1.96,14.72,1.56,4.53-.67,9.18-8.03,7.86-3.12Z"/><path class="cls-49" d="m279.75,180.22c-14.36,11.54-12.02,6.67-27.02-4.68.18-1.22-1.06-2.54,1.01-3.51,3.71-1.74,8.67,6.28,12.1,7.81q6.96.2,13.91.39Z"/><path class="cls-54" d="m244.27,110.35c-2.13,5.12-3.43,4.96-7.66,8.2-4.27-.33-10.3,2.08-13.31-1.56,9.82-1.92,10.24-.96,20.97-6.64Z"/><path class="cls-49" d="m128.14,202.47c.15,4.03,2,5.43,3.63,8.78.1.2-.71,1.49,1.21,3.9,2.44,3.07,1.38.45,2.22.59,6.48,1.04,11.14,21.05,17.14,23.61.15,2.75,1.55,2.89,1.61,3.12.29,1.06-.69,20.71-.4,21.86.05.2,1.34-.64,1.61,3.12l.6.59c7.51-2.38,12.17-9.27,19.35-11.71,3.71-4.84,3.11.89,6.65,1.17,1.69.13,9.98-2.87,12.3-3.9,2.29-.03,3.51,4.53,6.65,3.9-1.31.59,2.35,3.87,2.62,3.9.28.03,3.17-2.28,5.24-1.95,4.42,4.07,7.87-1.39,11.69,2.34,8.42,2.21,12.49-7.3,22.18-8.2.4,4.54.15,9.11.2,13.66-.73.39-1.18,1.3-1.61,1.95-3.31,1.52-6.42,3.48-9.68,5.07-4.28,2.1-8.8,3.8-13.1,5.85-7.59.57-18.57,1.97-25.81,3.9-3.4.91-24.65,8.38-23.99,11.12.13.56,8.93,6.61,9.48,6.83,5.19,2.09,12.33-.84,12.9-.39,1.05.83-2.02,3.25,4.23,4.29-.5.79,3.81,1.16,4.64,1.17,10.1.13,14.97,1.14,23.39-4.29.26-.17,2.33-.92,2.22-.39-1.17.82-6.78,7.13-9.48,9.37-19.38,16.06-54.06,24.28-55.04,27.13-.86,2.49,5.25,3.52,9.07,6.05,2.16,1.43,4.71,3.39,6.65,5.07.94.82,2.87,8.12,12.3,6.64,4-3.68,8.19.93,13.31-4.68.69,3.33,1.37,5.48,4.23,7.42,2.13,1.44,3.94,2.11,6.45,2.73.04,0-.14.72.2.78,3.53.59,5.77-1.35,6.85-1.17,6.27,6.31,7.88,1.47,17.34,1.17l5.44-8.59c0,5.28.84,10.69.4,16-22.36,1.63-44.64,4.91-67.14,5.07-5.23.32-7.46,1.54-7.86,1.56-10.79.61-21.84-.11-32.66.39,4.58-1.06,8.47-2.47,5.65-2.73.42-1.17-2.82-.69-5.65-1.17-2.58-.44-5.08-.8-7.66-1.17v-137c.05-.6-.76-.33-.81-.39-1.36-1.84-18.98-13.5-22.58-18.15l.6-.59c5.43,2.05,20.92,6.42,25.81,4.29,1.31-.57,2.39-2.24,1.21-3.51-1.02-1.1-21.23-9.67-23.79-17.17,1.57-.48,14.18,10.51,19.96,2.73Z"/><path class="cls-56" d="m247.9,223.54c.4,3.09-1,9.86,1.01,10.15,3.28.47,2.07-6.09,3.43-6.25v4.68c-.76.43-8.49,5.86-8.87,6.25-.15-8.45.21-16.92,0-25.37,1.64.29,4.2,8.7,4.44,10.54Z"/><path class="cls-56" d="m252.33,215.74c-.04,3.9.03,7.81,0,11.71-1.35.16-.15,6.72-3.43,6.25-2.01-.29-.61-7.06-1.01-10.15,2.83-1.89-.25-11.57,4.03-12.1.66,1.22.42,2.9.4,4.29Z"/><path class="cls-9" d="m251.93,244.23l.4,33.57c-.36.53-.71.96-1.21,1.37-.34,1.58.82,2.61.81,2.93-.79,16.47-.44,66.59,0,85.09.02.95-.21,1.88.4,2.73-3.08.21-6.22.17-9.27.39.43-5.32-.4-10.72-.4-16,0-8.43.39-16.92.4-25.37.03-27.98.29-55.95.4-83.92,2.77,1.79,5.78.15,8.47-.78Z"/><path class="cls-50" d="m293.06,318c-.03,16.57-.34,33.01-.81,49.57-13.29,1.01-26.62,1.42-39.92,2.34-.62-.85-.38-1.79-.4-2.73,6.69.41,11.04-1.27,16.33-5.07,8.87,4.4,5.36,1.76,11.29,0,1.98-.59,7.94-1.23,9.07-2.54-.03-1.83,3.54-7.76,3.63-8.2.67-3.33-.5-20.98,0-27.32-3.95-2.29-11.44-5.6-8.87-7.22,2.09-.54,1.52-.76,1.61-.78,4.79-1.03-1.55,7.46,8.06,1.95Z"/><path class="cls-6" d="m243.86,44.38c.45,2.26-.23,6.25-2.82,7.03-.59.18-1.82-.17-2.42,0-1.61.46-5.59.75-9.27,3.12-5.52,1.02-12.18,2.24-15.52-3.12-9.53,1.59-12.97-4.51-2.22-7.03,10.75,0,21.5-.01,32.26,0Z"/><path class="cls-47" d="m238.62,51.41c-2.53,1.32-6.46,2.6-9.27,3.12,3.68-2.37,7.67-2.66,9.27-3.12Z"/><path class="cls-6" d="m242.66,95.13c.65,7.21,3.29,11.69,2.82,14.25-.11.33-1.18.91-1.21.98-10.73,5.67-11.15,4.71-20.97,6.64-.98.19-1.53.52-3.23.78-2.52-1.07-6.98-.09-8.87,1.95-22.6-5.08-6.8-6.44,5.85-12.1,8.64-3.87,16.9-8.71,25.6-12.49Z"/><path class="cls-47" d="m220.08,117.76c-3.09.48-5.94.7-8.87,1.95,1.89-2.04,6.35-3.02,8.87-1.95Z"/><path class="cls-6" d="m234.99,120.5c4.53,10.86-10.58,18.71-18.55,23.81-.27-.01-.54,0-.81,0-1.47-.04-2.96.06-4.44,0-1.95-.37-3.73-1.09-5.65,0-2.5-.16-5.06.38-7.46-.78-1.32-.64-4.78-4.22-2.42-6.25,2.02-1.73,31.61-11.65,39.31-16.78Z"/><path class="cls-8" d="m211.2,144.31c-1.86-.08-3.63.13-5.65,0,1.91-1.09,3.7-.37,5.65,0Z"/><path class="cls-26" d="m182.17,208.71c6.33,9.78,3.96,3.77,7.46,3.51.45-.03.88,5.47,6.85,2.34,2.09.43-2.33,5.34,5.04,3.51-4.2,1.51,6.55,3.53,7.06,3.51,1.06-.04,9.92-4.24,10.48-4.29,1.4-.13,3.9,1.09,6.25,1.17-.07,4.8-2.98-1.34-2.02,5.66,1.69,2.79,11.55-5.84,13.71-6.44-.36,1.12-1.16,1.85-1.21,1.95-19.33,11.8-41.25,19.18-63.1,25.37-2.09,1.39,6.25,8.71,9.07,12.49-3.54-.28-2.94-6.01-6.65-1.17-7.18,2.44-11.85,9.33-19.35,11.71l-.6-.59c-.27-3.77-1.56-2.93-1.61-3.12-.28-1.15.7-20.8.4-21.86-.06-.23-1.46-.37-1.61-3.12-6-2.56-10.66-22.57-17.14-23.61-.83-.13.22,2.49-2.22-.59-1.92-2.42-1.11-3.71-1.21-3.9-1.63-3.36-3.48-4.75-3.63-8.78,1.2-1.61.73-1.66-2.02-3.9-2.09-2.74.78-2.46,1.21-3.71.46-1.31-1.02-9.72-2.22-9.95-5.89,2.15-8.09-3.15-8.47-3.51-.15-.14-4.35-.49-1.61-2.34,1.09-.74,3.17,1.04,2.22-2.73,2.21.25,10.27.49,8.87-3.32-.26-.7-11.22-5.09-11.49-5.66-.33-.69,2.22-2.75,2.22-2.93,0-.78-7.29-7.11-11.29-11.12,1.05,1.28,3.74-3.38,5.65-6.25,1.38.01,4.11-.27,5.24-.78-.53,1.26,2.11.36,2.62,0,1.59-1.12,3.63-13.35,10.28,13.08,3.44,3.63,2.76,6.27,4.03,9.37.18.44,1.83,1.51,2.02,1.95,1.98,4.76,3.83,12.27,6.05,17.17,1.5,3.33,4.59,9.92,7.26,11.71.55,1.06-.11,5.85,5.24,10.15.38,2.19-.57,15.1-.2,15.81.07.14.69-.56,2.42,1.95.97.17,4.42-3.15,5.65-3.9,1.11-.68,3.56-1.25,4.03-1.56.34-.23,2.93-3.21,6.05-5.46,3.43-2.49,7.48-3.63,10.28-7.81Z"/><path class="cls-6" d="m241.45,182.56c-2.26,5.22-10.61,17.07-14.72,21.08-5.06,4.93-18.42,12.76-25.2,14.44-7.37,1.82-2.95-3.08-5.04-3.51-5.97,3.13-6.41-2.38-6.85-2.34-3.5.26-1.13,6.27-7.46-3.51-2.96-4.57-5.09-4.33-4.23-5.85,9.12-1.92,18.15-4.13,27.22-6.25,1.56-.36,2.78.06,3.02,0,11.99-2.88,23.47-6.34,33.27-14.05Z"/><path class="cls-6" d="m235.8,219.64c-5.28,11.34-13,21.2-22.78,29.27-1.54,1.27-11.46,8.42-12.3,8.59-3.14.63-4.36-3.93-6.65-3.9-2.32,1.03-10.61,4.04-12.3,3.9-2.82-3.78-11.16-11.1-9.07-12.49,21.86-6.19,43.77-13.57,63.1-25.37Z"/><path class="cls-49" d="m237.01,217.69c-2.16.6-12.02,9.23-13.71,6.44-.96-6.99,1.95-.86,2.02-5.66,8.7.3,13.69-6.95,11.69-.78Z"/><path class="cls-50" d="m264.83,216.13c-.4,2.23,1.44,4.35,3.83,4.68,3.58.5,14.77-3.32,14.72-.98-.04,1.62-22.55,7.54-31.05,12.3v-4.68c.03-3.9-.04-7.81,0-11.71q6.25.2,12.5.39Z"/><path class="cls-50" d="m279.75,180.22c.6-.48,2.24-1.09,2.42-1.37.86-1.32-.91-2.65.81-2.54l-.4,2.73c-7.11,5.14-17.11,10.39-16.53,13.47.78,4.13,15.72,1.79,18.95.98v11.71c-3.68,1.48-19.56,7.58-20.16,10.93q-6.25-.2-12.5-.39c.02-1.39.26-3.07-.4-4.29,1.28-10.39.48-21.21.81-31.81,0-.22-.66.37,0-4.1,15,11.36,12.66,16.22,27.02,4.68Z"/><path class="cls-50" d="m283.58,193.88c1.06.2,1.11,13.16-.81,11.71-.11-1.75-.93-12.04.81-11.71Z"/><path class="cls-50" d="m243.06,328.93c0,8.45-.4,16.94-.4,25.37l-5.44,8.59c-9.46.3-11.06,5.14-17.34-1.17-1.08-.18-3.32,1.76-6.85,1.17-.34-.06-.16-.77-.2-.78,2.83.41,2.52-4.34,8.06-8.39-3.09-5.67,1.23-6.35-4.64-12.69-.88-.02-5.34,10.25-13.51,9.56.76,3.45,1.17,6.03,3.63,8.78-2.86-1.93-3.54-4.09-4.23-7.42-5.11,5.62-9.31,1-13.31,4.68-9.43,1.48-11.36-5.82-12.3-6.64,12.77-2.45,14.26-3.38,22.98-12.3,9.35-9.55,19.87-25.08,27.22-36.11-.29-.14-1.13.58-1.41.78.11-.53-1.95.22-2.22.39-8.41,5.44-13.29,4.42-23.39,4.29-.83-.01-5.14-.39-4.64-1.17,7.19,1.2,9.54-3.99,16.33-3.12,3.83-1.36,17.43-15.04,19.56-17.76,2.88-3.68,5.35-9.06,8.06-13.08.61-.9,1.4-1.8,2.02-2.73.43-.65.88-1.57,1.61-1.95.23,20.55-.51,41.12.4,61.67Z"/><path class="cls-6" d="m176.53,350.01c-1.94-1.69-4.5-3.65-6.65-5.07-3.82-2.53-9.93-3.56-9.07-6.05.98-2.85,35.65-11.07,55.04-27.13,2.7-2.24,8.31-8.54,9.48-9.37.28-.2,1.12-.92,1.41-.78-7.35,11.03-17.87,26.56-27.22,36.11-8.73,8.91-10.21,9.85-22.98,12.3Z"/><path class="cls-4" d="m212.82,362.11c-2.51-.62-4.32-1.29-6.45-2.73-2.46-2.75-2.87-5.33-3.63-8.78,8.17.69,12.63-9.58,13.51-9.56,5.87,6.34,1.55,7.01,4.64,12.69-5.55,4.05-5.23,8.8-8.06,8.39Z"/><path class="cls-17" d="m241.04,269.21c-.62.93-1.41,1.83-2.02,2.73-.14-1.61-.73-.41-.81-.39-2.09.65-3.85,2.31-6.05,2.73-.25.05-.55-.02-.81,0,3.26-1.6,6.37-3.56,9.68-5.07Z"/><path class="cls-6" d="m239.03,271.94c-2.72,4.02-5.18,9.4-8.06,13.08-2.13,2.72-15.73,16.4-19.56,17.76-6.79-.87-9.14,4.33-16.33,3.12-6.26-1.05-3.19-3.47-4.23-4.29-.58-.45-7.71,2.48-12.9.39-.55-.22-9.34-6.27-9.48-6.83-.66-2.75,20.59-10.21,23.99-11.12,7.24-1.94,18.22-3.34,25.81-3.9,4.31-2.05,8.82-3.76,13.1-5.85.26-.02.56.05.81,0l-1.01,6.64,7.06-9.37c.07-.02.67-1.22.81.39Z"/><path class="cls-49" d="m238.22,271.55l-7.06,9.37,1.01-6.64c2.19-.42,3.96-2.08,6.05-2.73Z"/><path class="cls-50" d="m292.65,289.51c-2.96,4.35-28.25,24.2-29.03,25.96-1.91,4.3,2.77,3.7,5.65,3.71,2.32,0,3.34-.56,5.24-.78,4.02-.46,4.69-.49,8.87-1.56-2.56,1.62,4.92,4.94,8.87,7.22-.5,6.35.67,23.99,0,27.32-.09.44-3.66,6.37-3.63,8.2-1.13,1.31-7.09,1.95-9.07,2.54-5.93,1.76-2.42,4.4-11.29,0-5.29,3.81-9.64,5.49-16.33,5.07-.44-18.5-.79-68.62,0-85.09,6.43,2.38,14.59-1.2,20.77,2.34l4.23-1.17c3.37-1.42,10.36-4.95,13.31-5.85.35-.11,1.15-.38,1.21-.39.02,0-.02-.39,0-.39.36-.02,1.08-.11,1.21.2,0,4.23,0,8.46,0,12.69Z"/><path class="cls-50" d="m291.65,278.97c.83.24.82,9.3.6,9.95-.31.95-13.1,11.99-15.12,13.47-2.47-7.17,8.88-18.6,14.52-23.42Z"/><path class="cls-14" d="m291.44,277.02c-.06.01-.86.28-1.21.39v-.39h1.21Z"/><path class="cls-34" d="m291.44,276.63s.02.39,0,.39h-1.21c0-.7.97-.25,1.21-.39Z"/><path class="cls-50" d="m268.06,243.45c4.39.21,8.92-.1,13.31-.39,3.25-1.4,6.6-1.08,10.08-1.56,1.56,2.09.58,8.92.81,14.05-.99.31-1.15.74-1.21.78-5.04,3.13-21.11,7.59-28.02,10.54-.73.43-10.26,10.3-10.69,10.93l-.4-33.57c.3-.11,3.2-1.96,5.04-2.73,3.55,1.06,7.38,1.78,11.09,1.95Z"/><path class="cls-50" d="m290.44,248.13c1.7-.69.8,3.17,1.01,6.83-13.18,7.34-.21-1.53-1.01-6.83Z"/><path class="cls-29" d="m302.4,1.01c-19.28-.66-112.9.14-132.34-1.01h136.38c-1.31.44-2.74.85-4.04,1.01Z"/><path class="cls-23" d="m230.27,442.97c.9,3.3,4.12,3.74,6.83,4.54,26.61,7.84,72.3,5.86,101.22,6.48,3.09,4.04,6.78,8.49,10.09,12.31-12.83-1.32-25.74-.31-38.59-.65-14.8-.39-29.49-.9-44.23-2.59-3.78-1.76-7.89-1.96-11.87-2.59-.47-.08-.12-1.22-.59-1.3-4.31-.68-11.68.12-15.43-2.59-3.96-.14-8.28-.58-12.17-1.3-8.5-1.56-17.1-2.45-25.53-4.54-9.17-2.27-16.8-3.03-14.84-7.78,15.04,0,30.08.03,45.12,0Z"/><path class="cls-23" d="m327.63,442.97c.15.02-.37,1,2.97.65,2.3,3.68,5.11,6.95,7.72,10.37-28.91-.62-74.61,1.36-101.22-6.48-2.71-.8-5.93-1.23-6.83-4.54,18.41-.03,90.33-.82,97.36,0Z"/><path class="cls-58" d="m362.25,481.2h-10.17c-3.28-4.62-2.07-10.63-5.16-12.96-12.35-.29-24.76.4-37.1,0v-2.59c12.85.33,25.75-.67,38.59.65,4.43,5.11,9.61,9.54,13.84,14.9Z"/><path class="cls-23" d="m185.15,442.97c-1.96,4.75,5.67,5.51,14.84,7.78-.06.57.24,1.67-.3,1.94-1.43.72-28.07.32-31.46,0-8.13-.77-16.33-4.25-24.34-5.83-6.59-1.3-11.57.93-10.39-3.24,17.23.02,34.42-.65,51.65-.65Z"/><path class="cls-58" d="m352.08,481.2H1c1.77-1.7,3.95-5.28,6.06-7.77,1.1-1.31,1.61-2.33,2.37-3.24,2.91-3.51,5.51-6.76,8.31-10.37,3.77-4.87,8.11-9.37,11.87-14.26,2.28-.28,3.22-.23,3.57-3.24,33.43.46,66.89,1.26,100.32,1.3-1.17,4.17,3.8,1.93,10.39,3.24,8.01,1.58,16.21,5.06,24.34,5.83,3.4.32,30.04.72,31.47,0,.53-.27.24-1.37.29-1.95,8.42,2.09,17.03,2.99,25.53,4.54q-1.93.65-3.86,1.3c12.24.9,23.08,2.37,34.43,7.13.61.25,3.87-1.51,1.78,1.29-22.33.89-44.76.21-67.08.65-.19,0-3.37,1.29-3.56,1.3-9.24.15-18.66-.22-27.9-.65v1.29q57.58-.64,115.17-1.29c11.74.96,23.55,1.56,35.32,1.94,12.34.4,24.75-.29,37.1,0,3.09,2.33,1.88,8.34,5.16,12.96Z"/><path class="cls-58" d="m309.82,465.65v2.59c-11.77-.38-23.58-.98-35.32-1.94q-57.58.65-115.17,1.3v-1.3c9.24.43,18.66.8,27.9.65.19,0,3.37-1.29,3.56-1.3,22.32-.44,44.75.24,67.08-.65,2.09-2.8-1.18-1.04-1.78-1.3-11.35-4.76-22.19-6.22-34.43-7.13l3.86-1.3c3.89.71,8.21,1.16,12.17,1.3,3.75,2.71,11.12,1.91,15.43,2.59.47.08.12,1.22.59,1.3,3.99.63,8.09.83,11.87,2.59,14.74,1.7,29.42,2.21,44.23,2.59Z"/><path class="cls-58" d="m86.9,454.63c19.93.04,39.75.97,59.66,1.62-16.27.46-110.51,2.28-116.06.32-.31-.11-1.19-1.12-.59-1.3,18.98.73,38.03-.69,56.99-.65Z"/><path class="cls-38" d="m8.24,12.68c-.77-.94-1.67-1.72-2.37-2.59C3.83,7.58,2.12,4.72,0,2.27V0h170.06c19.44,1.15,113.06.35,132.34,1.01,1.3-.16,2.73-.57,4.04-1.01h62.01v.97c-.15.27-.34.58-.56.91-.11.18-.24.36-.36.55-.24.34-.5.7-.79,1.09-.16.24-.34.48-.52.73-1.59,2.2-4.38,3.83-5.64,6.48q-140.11-.97-280.21-1.94c-10.43,3.5-64.38-.2-67.67.65-5.13,1.32,5.31,7.9-4.46,3.24Z"/><path class="cls-60" d="m132.91,39.9c41.75.16,83.51.09,125.26,0,26.12-.06,52.24.23,78.36-.65-.55,1.11-.34,4.87-.59,5.51-.09.21-3.07.87-3.56,2.59-.48,1.69.68,10.51-1.78,10.69.89-13.22-1.89-9.07-2.37-9.72-.24-.32,1.23-1.14.3-1.94-55.5,1.18-111.02.65-166.52.65H31.99c-.16-2.35.42-4.13-.59-6.48q.89-.97,1.78-1.94c33.16,2.27,66.49,1.17,99.73,1.3Z"/><path class="cls-58" d="m344.25,28.23c-2.3,3.21-4.6,6.2-6.53,9.72-.04.08-.59.09-1.19,1.3-26.12.87-52.24.59-78.36.65,5.06-1.71,10.65.07,15.73-.65.53-.08-.25-2.66,2.37,0,1.41-3.05-1.72-3.94-.59-5.83,2.61-4.4,60.41-6.69,68.57-5.18Z"/><path class="cls-60" d="m368.45,481.2h-6.2c-4.23-5.36-9.41-9.79-13.84-14.9-3.32-3.83-7.01-8.28-10.1-12.32-2.61-3.41-5.41-6.68-7.71-10.36-.07-36.72.09-73.45,0-110.17-.24-91.8.17-183.61,0-275.41,2.46-.18,1.29-9,1.78-10.69.49-1.72,3.47-2.38,3.56-2.59.25-.64.04-4.4.59-5.51.6-1.21,1.15-1.22,1.19-1.3h.59c-.17.36-.48,2.62-1.78,4.21-.83,133.71-.9,267.42,0,401.13.27,1.48,13.83,15.88,16.03,18.47,1.16,1.37,2.43,2.57,3.56,3.89.97,1.13,2.04,2.15,2.97,3.24,2.66,3.13,6.76,7.91,9.36,11.34v.97Z"/><path class="cls-60" d="m368.45,480.23c-2.6-3.43-6.7-8.21-9.36-11.34q1.78-1.78,3.56-3.56c-1.21-47.94.91-95.94,0-143.87-.28-15.23.12-32.2-2.37-46.65-.34-1.94-2.34-3.04-2.38-3.24-1.4-7.17.93-116.64.6-137.39q1.18.33,2.37.65v99.15c8.48,9.91,2.5-16.44,7.13-17.17.13,53.69-.68,107.35-1.19,161.03.05,1.08.1,2.13.15,3.14.04.76.07,1.49.11,2.2.11,2.16.2,4.14.29,5.99.04.66.07,1.29.1,1.92.02.37.03.74.05,1.11.03.54.05,1.07.08,1.58.05,1.08.1,2.1.15,3.09.05.99.09,1.94.14,2.86.07,1.53.14,2.96.21,4.36.02.28.03.56.04.84.01.12.01.24.02.36.02.43.04.85.06,1.28.01.05.01.1.01.15.02.47.05.95.07,1.42.06,1.1.11,2.21.16,3.34v68.75Z"/><path class="cls-60" d="m368.45,411.48c-.05-1.13-.1-2.24-.16-3.34-.02-.47-.05-.95-.07-1.42,0-.05,0-.1-.01-.15-.02-.43-.04-.85-.06-1.28-.01-.12-.01-.24-.02-.36,0-.28-.02-.56-.04-.84-.07-1.4-.14-2.83-.21-4.36-.05-.92-.09-1.87-.14-2.86-.05-.99-.1-2.01-.15-3.09-.03-.51-.05-1.04-.08-1.58-.02-.37-.03-.74-.05-1.11-.03-.63-.06-1.26-.1-1.92-.09-1.85-.18-3.83-.29-5.99-.03-.71-.07-1.45-.11-2.2-.05-1.01-.1-2.06-.15-3.14.51-53.68,1.32-107.34,1.19-161.03-.07-27.42-.45-54.88-.6-82.3-.11-21.75-.43-43.66.6-65.13-4.83-21.28,1.37-44.16-1.78-65.13.18-.25.36-.49.52-.73.29-.39.55-.75.79-1.09.13-.19.25-.38.36-.55.22-.33.41-.64.56-.91v410.51Z"/><path class="cls-52" d="m367.4,134.51c.14,27.43.52,54.88.59,82.3-4.62.73,1.35,27.08-7.12,17.17v-99.15l-2.37-.65c.33,20.75-2,130.21-.59,137.38.04.2,2.04,1.31,2.37,3.24,2.5,14.46,2.09,31.42,2.37,46.66.91,47.93-1.21,95.93,0,143.86l-3.56,3.56c-.93-1.09-2-2.11-2.97-3.24q-.89-47.79-1.78-95.58c-2.62-1.44-.94,1.91-2.97,1.62-.72-9.28-2.33-5.75-2.37-6.16-.06-.48.33-6.99,0-9.72-.64-5.36-2.54-11.97-2.97-17.5-1.1-14.2-.97-32.63-1.19-47.31-1.3-87.62,2.32-175.46,1.78-263.1-1.58,1.69-8.02,9.45-8.31,10.04h-.59c1.93-3.52,4.23-6.51,6.53-9.72.93-1.29,2.01-2.6,2.97-3.89,2.12-2.84,5.8-5.81,5.05-7.13-56.23-.88-112.37,2.83-168.6,3.24-28.42,2.5-58.21,3.55-85.49,7.78H26.05c-2.47-3.15-10.37-8.68-6.83-10.37,78.82.35,157.91-.98,236.57-.97l-3.27-.32v-1.3c23.95.29,47.91-2.25,71.83-2.59,10.99-.16,22.34,1.68,33.24,1.3.39-.01,1.3-2.4,2.97-1.94,4.7,33.91,1.55,84.34,4.45,113.73.29,2.93,1.23,6.06,2.37,8.75Z"/><path class="cls-52" d="m351.37,371.69c2.31,29.74.15,60.25,1.19,90.08-2.2-2.59-15.76-17-16.03-18.47-.9-133.71-.83-267.42,0-401.13,1.29-1.59,1.61-3.85,1.78-4.21.29-.6,6.73-8.35,8.31-10.04.54,87.64-3.08,175.47-1.78,263.1.22,14.68.09,33.1,1.19,47.31.43,5.52,2.32,12.14,2.97,17.5.33,2.73-.06,9.24,0,9.72.05.41,1.65-3.13,2.37,6.16Z"/><path class="cls-60" d="m356.12,465.65c-1.13-1.32-2.4-2.52-3.56-3.89-1.04-29.82,1.12-60.34-1.19-90.08,2.02.29.35-3.06,2.97-1.62q.89,47.79,1.78,95.58Z"/><path class="cls-60" d="m367.4,134.51c-1.14-2.69-2.09-5.82-2.37-8.75-2.91-29.39.24-79.82-4.45-113.73-1.67-.45-2.58,1.93-2.97,1.94-10.91.38-22.26-1.45-33.24-1.3-23.92.34-47.88,2.89-71.83,2.59v1.3l3.27.32c-78.66,0-157.75,1.32-236.57.97-3.54,1.69,4.36,7.22,6.83,10.37,2.55,3.26,5.22,6.58,7.12,10.37q-.89.97-1.78,1.94c-.29-.66-8.22-8.8-9.5-10.37-1.24-4.15-5.51-6.81-7.72-9.72-1.99-2.62-3.85-5.22-5.94-7.78,9.76,4.66-.67-1.91,4.45-3.24,3.3-.85,57.25,2.85,67.68-.65l280.2,1.94c1.27-2.66,4.05-4.29,5.64-6.48,3.15,20.96-3.05,43.84,1.78,65.13-1.03,21.47-.71,43.38-.59,65.13Z"/><path class="cls-57" d="m347.22,24.34c0-.44.14-1.18-.3-1.3-8.58-2.23-65.73,2.18-79.55,3.24-.55.04-.05,1.9-.59,1.94-21.82,1.74-103.92-1.85-113.39,0-.58.11-.02,1.81-.59,1.94-1.74.41-13.17,1.95-10.98,4.86.52.69,3.38-.15,3.56,1.3.46,3.61-10.48,2.5-12.47,3.56-33.24-.13-66.57.97-99.73-1.3-1.91-3.79-4.57-7.11-7.12-10.37h72.13c27.27-4.22,57.07-5.28,85.49-7.78,56.22-.41,112.37-4.12,168.6-3.24.76,1.32-2.93,4.28-5.05,7.13Z"/><path class="cls-48" d="m347.22,24.34c-.96,1.29-2.04,2.59-2.97,3.89-8.16-1.51-65.95.78-68.57,5.18-1.12,1.89,2.01,2.78.59,5.83-2.62-2.66-1.84-.08-2.37,0-5.08.72-10.68-1.07-15.73.65-41.75.09-83.51.16-125.26,0,1.99-1.07,12.92.04,12.47-3.56-.18-1.44-3.04-.61-3.56-1.3-2.18-2.91,9.24-4.45,10.98-4.86.58-.14.02-1.83.59-1.94,9.47-1.85,91.57,1.74,113.39,0,.55-.04.05-1.9.59-1.94,13.82-1.06,70.97-5.47,79.55-3.24.44.11.3.86.3,1.3Z"/><path class="cls-37" d="m1,481.2H0V13.04c2.15-1.08,2.75-1.38,5.87-2.95.7.87,1.6,1.65,2.37,2.59,2.09,2.55,3.95,5.16,5.94,7.77h-.59q-1.78-1.45-3.57-2.91c1,34.55.65,69.13.6,103.68-.01,4.04-1.19,8.93-1.19,12.96.06,56.82,3.34,113.62,1.19,170.43q.89,17.02,1.78,34.03c-1.77,24.24-.6,48.64-1.78,72.9-1,20.49-6.13,41.41-3.56,61.89-2.11,2.49-4.29,6.07-6.06,7.77Z"/><path class="cls-58" d="m0,13.04V2.27c2.12,2.45,3.83,5.31,5.87,7.82-3.12,1.57-3.72,1.87-5.87,2.95Z"/><path class="cls-48" d="m32.58,336.69c-4.73,13.6-1.54,31.09-1.78,46.33,0,.12-1.19,1.83-1.19,1.94-.24,16.29,1.46,44.87,0,58.97-.05.5-2.43,1.67,0,1.62-3.76,4.89-8.11,9.39-11.87,14.26,1.39-12.72,2.6-25.41,2.97-38.23,1.02-35.25-.87-70.69,0-105.95.31-12.32,1.73-24.65,2.37-36.94.28-5.31-.51-24.22,0-25.92.12-.4,4.89-5.36,5.94-3.24.6-19.02.65-38.03,1.19-57.03,0-.31,1.39,1.19,0-5.18,1.77-7.41.44-19.7.59-28.51.06-3.41,1.14-7.61,1.19-11.02.48-33.57-.38-67.19,0-100.77h.59c-.04,96.56.05,193.11,0,289.67Z"/><path class="cls-48" d="m14.18,415.1c.02.1,1.61-.28,1.78.32.1,4.84-.17,7.96,4.75,6.16-.37,12.82-1.58,25.51-2.97,38.23-2.8,3.62-5.41,6.86-8.31,10.37-1.09-18.55,1.61-37.7,3.86-55.73l.89.65Z"/><path class="cls-48" d="m13.59,338.64c.02,10.42-.09,72.72.59,76.47l-.89-.65c-2.25,18.03-4.95,37.18-3.86,55.73-.76.91-1.27,1.93-2.37,3.24-2.57-20.48,2.56-41.4,3.56-61.89,1.19-24.25.01-48.66,1.78-72.9h1.19Z"/><path class="cls-52" d="m33.18,442.32c-.35,3.01-1.28,2.96-3.56,3.24-2.43.05-.05-1.12,0-1.62,1.46-14.1-.24-42.68,0-58.97,0-.12,1.19-1.83,1.19-1.94.24-15.24-2.95-32.73,1.78-46.33,0,15.75,1.2,100.39.59,105.63Z"/><path class="cls-58" d="m31.4,40.54c1.01,2.35.44,4.13.59,6.48-.38,33.58.48,67.19,0,100.77-.05,3.4-1.13,7.61-1.19,11.02-.15,8.82,1.18,21.1-.59,28.51,1.39,6.37,0,4.88,0,5.18-.54,18.99-.59,38.01-1.19,57.03-1.04-2.12-5.82,2.84-5.94,3.24-.51,1.7.28,20.61,0,25.92-.65,12.29-2.07,24.62-2.37,36.94-.87,35.26,1.02,70.7,0,105.95-4.92,1.8-4.65-1.32-4.75-6.16-.17-.61-1.76-.22-1.78-.32-.68-3.75-.57-66.04-.59-76.47-.08-39.1.76-78.17.59-117.29,2.62,4.88-.34,2.65,4.16,6.16.53.42-.96,1.2-.3,1.62,2.57,1.63,1.31-4.93,3.86-4.21-1.59-65.01,3.76-129.78,0-194.73,1.28,1.57,9.21,9.71,9.5,10.37Z"/><path class="cls-23" d="m21.9,30.18c3.76,64.95-1.59,129.72,0,194.73-2.55-.72-1.29,5.84-3.86,4.21-.66-.42.83-1.2.3-1.62-4.49-3.51-1.54-1.27-4.16-6.16-.05-10.81-1.14-21.92-1.19-32.73-.22-56.05-.28-112.12.59-168.16h.59c2.21,2.91,6.48,5.57,7.72,9.72Z"/><path class="cls-58" d="m13.59,20.45c-.87,56.04-.82,112.12-.59,168.16.04,10.81,1.14,21.91,1.19,32.73.17,39.12-.68,78.19-.59,117.29h-1.19q-.89-17.01-1.78-34.02c2.15-56.82-1.13-113.62-1.19-170.43,0-4.04,1.18-8.92,1.19-12.96.06-34.56.4-69.14-.59-103.68l3.56,2.92Z"/><path class="cls-12" d="m320.9,476.38c-.14,0-.27,0-.4,0-.02,0-.05.03-.07.05l-.26.26c-.09.09-.2.14-.34.14h-2.1c-.22,0-.38-.13-.45-.34,0,0,0-.02-.01-.03v-4.25s.01-.03.02-.05c.06-.18.22-.31.41-.32h5.75s.05,0,.08,0c.06.01.09.05.09.11,0,.06-.04.1-.1.1-.02,0-.05,0-.07,0h-5.67c-.06,0-.12,0-.17.03-.08.04-.12.12-.12.22v4.07c0,.16.1.25.27.25h2.08c.07,0,.14-.02.19-.08.09-.09.18-.18.27-.27.07-.07.16-.11.26-.11.15,0,.3,0,.45,0,.08,0,.12.04.12.12,0,.11,0,.22,0,.33.17,0,.34,0,.51,0,.04,0,.09-.04.13-.07.21-.16.43-.32.64-.48.11-.08.24-.13.38-.13.42,0,.83,0,1.26,0,.19,0,.28-.09.28-.28v-3.32c0-.19-.09-.28-.28-.28-.02,0-.05,0-.07,0-.06,0-.1-.03-.1-.1,0-.06.03-.1.09-.11.3-.06.58.16.58.46v3.39c0,.27-.2.46-.47.46h-1.27c-.11,0-.2.03-.28.09-.21.16-.42.31-.62.47-.11.08-.23.13-.36.12-.13,0-.26,0-.38,0-.15,0-.24-.09-.24-.24,0-.07,0-.14,0-.21Z"/><path class="cls-12" d="m318.18,476.37c-.06,0-.09-.06-.08-.12.02-.13.05-.26.07-.39.1-.64.13-1.29.1-1.94-.01-.48-.07-.97-.16-1.45-.02-.1,0-.16.08-.16.06,0,.11.03.13.13.12.63.17,1.27.17,1.91s-.05,1.27-.17,1.9c0,.02,0,.04-.01.06-.02.05-.06.08-.12.07Z"/><path class="cls-12" d="m319.48,472.96c-.07,0-.12.06-.12.16v.51c0,.09-.04.13-.11.13s-.11-.05-.11-.13v-.74c0-.11.06-.15.16-.11.01,0,.03,0,.05,0,.13-.04.24-.02.34.06.16-.11.31-.11.43-.02.08.06.13.15.14.25v.58c0,.07-.04.11-.1.11s-.11-.04-.11-.11c0-.16,0-.33,0-.5v-.08c0-.06-.06-.11-.12-.1-.06,0-.1.03-.12.09,0,.04,0,.08,0,.12,0,.15,0,.31,0,.46,0,.08-.04.13-.11.13-.06,0-.1-.04-.1-.13,0-.17,0-.34,0-.52,0-.09-.04-.15-.12-.15Z"/><path class="cls-12" d="m320.63,475.55c.26-.07.41-.25.46-.51.05-.27-.02-.5-.23-.68-.15-.13-.32-.14-.51-.14-.1,0-.14.04-.14.15v.53c0,.18,0,.36,0,.55,0,.08.03.13.1.13.1,0,.21,0,.32-.02Zm-.21-.19v-.23c0-.21,0-.41,0-.62,0-.07.02-.08.08-.08.22.01.38.21.39.46,0,.27-.18.48-.43.47,0,0-.02,0-.04,0Z"/><path class="cls-12" d="m319.24,475.5c-.09-.05-.15-.14-.16-.24,0-.07.02-.13.09-.14.06,0,.11.03.12.1.02.08.08.14.18.14.08,0,.16,0,.22-.04.09-.04.09-.15.01-.2-.05-.04-.12-.06-.18-.09-.07-.03-.14-.05-.21-.09-.17-.08-.26-.23-.24-.38.02-.16.16-.29.34-.32.04,0,.08,0,.1,0,.15,0,.27.05.37.15.05.06.08.13.08.21,0,.06-.04.09-.09.1-.05,0-.09-.02-.11-.07-.06-.16-.25-.23-.4-.13-.09.06-.1.16-.01.22.06.04.14.07.21.1.07.03.15.05.21.09.15.08.23.2.2.37-.02.16-.14.24-.28.29-.16.05-.31.03-.45-.05Z"/><path class="cls-12" d="m323.57,473.3s0-.08,0-.12c-.01-.33-.36-.53-.65-.38-.18.1-.25.25-.24.45v.05c0,.26.19.45.45.45s.45-.19.45-.46Zm-.68,0v-.05c0-.16.05-.25.17-.29.15-.04.29.06.3.21,0,.04,0,.08,0,.12,0,.14-.11.24-.24.24s-.23-.1-.23-.24Z"/><path class="cls-12" d="m320.88,473.41c0-.05,0-.11-.01-.16,0-.28.15-.47.4-.5.13-.01.24.02.33.11.05.04.06.1.02.15-.03.04-.09.05-.15.02-.05-.03-.12-.06-.17-.06-.1,0-.19.08-.21.18-.01.07-.01.15,0,.21.03.16.21.24.35.15,0,0,.02-.01.03-.02.06-.04.12-.03.16.02.04.04.02.11-.03.16-.25.21-.65.07-.72-.25Z"/><path class="cls-12" d="m321.81,473.66c0-.27,0-.54,0-.8,0-.03.03-.08.06-.09.03,0,.08.01.12.02,0,0,.02.02.03.03.17-.09.33-.09.49.02.08.05.09.12.05.17-.04.05-.1.05-.17,0-.08-.05-.16-.06-.25-.02-.08.04-.13.12-.13.21,0,.14,0,.29,0,.43,0,.04-.02.08-.05.11-.06.05-.16,0-.16-.08Z"/><path class="cls-12" d="m323.09,475.32s-.04-.1,0-.15c.1-.11.21-.21.31-.31.02-.02.04-.03.08-.06-.13-.13-.24-.24-.35-.35-.01-.02-.03-.03-.04-.05-.03-.05-.03-.1,0-.14.04-.04.1-.05.14,0,.16.15.31.31.47.47.04.04.04.1,0,.15-.15.15-.3.3-.45.45-.05.04-.11.04-.16,0Z"/><path class="cls-12" d="m320.58,473.76c-.07,0-.11-.04-.11-.13v-.74c0-.08.04-.13.11-.13.06,0,.11.05.11.13v.74c0,.08-.04.13-.11.13Z"/><path class="cls-12" d="m314.59,475.28c-.14-.57-.63-.94-1.23-.94h-3.71c-.43,0-.86,0-1.3,0-.79.02-1.36.78-1.17,1.54.14.56.64.94,1.24.94h3.47c.51,0,1.01,0,1.52,0,.57,0,1.05-.4,1.18-.96.02-.05.02-.1.03-.16v-.26c0-.05-.02-.11-.04-.16Zm-1.21,1.23c-.83,0-1.66,0-2.5,0h-2.47c-.46,0-.83-.31-.93-.76-.11-.55.31-1.09.88-1.12h5.01c.45,0,.83.3.93.73.13.58-.31,1.13-.91,1.13Z"/><path class="cls-12" d="m313.39,475.58c0,.07-.04.13-.1.15-.04.01-.07.01-.11.01h-4.55s-.07,0-.1-.01c-.07-.02-.12-.07-.11-.15,0-.07.04-.13.11-.14.03,0,.06,0,.08,0h4.59s.07,0,.1,0c.07.02.1.07.1.14Z"/><path class="cls-12" d="m313.11,473.52h-.31s-.03-.01-.03-.03v-.08s-.03,0-.03,0c-.08,0-.17,0-.25,0-.05,0-.08-.02-.11-.05-.17-.17-.33-.34-.5-.51-.01-.01-.03-.02-.05-.02-.09,0-.18,0-.27,0-.02,0-.03,0-.04.02-.05.08-.11.13-.21.13s-.17-.05-.22-.13c-.01-.02-.01-.05-.02-.07v-.06s.02-.08.05-.12c.09-.12.26-.12.36,0,0,0,0,0,.01.01,0,0,.01-.01.02-.02.15-.15.3-.29.44-.44.03-.03.06-.04.1-.04.13,0,.26,0,.4,0,.02,0,.03,0,.04-.02.05-.07.14-.1.22-.08.08.03.14.1.14.18,0,.09-.05.16-.14.19-.08.03-.17,0-.21-.08,0-.01-.02-.02-.03-.02-.12,0-.24,0-.36,0,0,0-.02,0-.03.01-.12.12-.24.23-.36.35,0,0,0,0,0,0h1.56s0-.12,0-.12c0-.03.02-.05.05-.04.19.08.38.15.57.23,0,0,.02.01.02.02,0,0-.01.02-.02.03-.19.08-.38.16-.57.23-.03.01-.05,0-.05-.03v-.14s-1.15,0-1.15,0c0,0,0,.01.01.02.12.12.23.24.35.36.01.01.03.02.05.02h.25s0-.08,0-.08c0-.02,0-.03.03-.03h.31s.03,0,.03.03c0,.11,0,.23,0,.34,0,.02,0,.03-.03.03Z"/><path class="cls-12" d="m309.03,473.19c.02-.15-.08-.26-.28-.33l-.28-.08c-.26-.09-.39-.24-.37-.44,0-.15.08-.27.21-.36s.28-.14.46-.14c.18,0,.32.05.43.15s.16.23.15.39h-.2c0-.11-.03-.19-.1-.26s-.17-.1-.29-.1c-.13,0-.23.03-.32.09s-.13.14-.15.23c-.02.14.07.24.26.3l.21.06.11.04c.25.09.37.25.35.46,0,.14-.07.26-.19.35s-.26.14-.45.15h-.07c-.12,0-.23-.02-.33-.07s-.17-.11-.22-.19-.07-.17-.07-.28h.2c0,.11.04.2.11.27s.18.1.31.1c.13,0,.24-.03.34-.09s.15-.14.16-.24Z"/><path class="cls-12" d="m310.71,473.19c.02-.15-.08-.26-.28-.33l-.28-.08c-.26-.09-.39-.24-.37-.44,0-.15.08-.27.21-.36s.28-.14.46-.14c.18,0,.32.05.43.15s.16.23.15.39h-.2c0-.11-.03-.19-.1-.26s-.17-.1-.29-.1c-.13,0-.23.03-.32.09s-.13.14-.15.23c-.02.14.07.24.26.3l.21.06.11.04c.25.09.37.25.35.46,0,.14-.07.26-.19.35s-.26.14-.45.15h-.07c-.12,0-.23-.02-.33-.07s-.17-.11-.22-.19-.07-.17-.07-.28h.2c0,.11.04.2.11.27s.18.1.31.1c.13,0,.24-.03.34-.09s.15-.14.16-.24Z"/><line class="cls-64" x1="380.88" y1="40.6" x2="380.88" y2="440.6"/><line class="cls-64" x1="334.23" y1="489.97" x2="34.23" y2="489.97"/><path class="cls-3" d="m340.1,489.59h.73c.4,0,.75-.07,1.05-.21s.53-.34.69-.59.24-.53.24-.86c0-.55-.15-.97-.46-1.28s-.75-.46-1.33-.46c-.55,0-1,.16-1.34.48s-.52.75-.52,1.27h-.7c0-.44.11-.84.33-1.21s.53-.65.93-.85.83-.3,1.31-.3c.77,0,1.38.21,1.83.63s.67,1,.67,1.73c0,.41-.13.79-.39,1.13s-.62.6-1.07.78c.53.15.93.4,1.21.76s.41.79.41,1.29c0,.73-.24,1.32-.71,1.76s-1.11.67-1.91.67c-.51,0-.97-.1-1.4-.3s-.75-.49-.98-.85-.35-.79-.35-1.27h.7c0,.54.19.99.57,1.33s.87.51,1.46.51,1.08-.16,1.42-.47.51-.76.51-1.35-.18-1.01-.55-1.31-.9-.45-1.61-.45h-.7v-.6Z"/><path class="cls-3" d="m350.34,490.68c0,1.2-.22,2.12-.66,2.74s-1.09.93-1.95.93-1.49-.31-1.94-.92-.68-1.5-.69-2.67v-1.53c0-1.2.22-2.11.67-2.72s1.1-.93,1.95-.93,1.49.3,1.93.89.68,1.47.69,2.63v1.56Zm-.7-1.53c0-.98-.16-1.71-.48-2.21s-.8-.75-1.44-.75-1.11.24-1.43.73-.48,1.21-.49,2.16v1.68c0,.97.17,1.72.5,2.23s.81.77,1.44.77,1.1-.25,1.42-.76.49-1.24.49-2.21v-1.64Z"/><path class="cls-3" d="m356.99,490.68c0,1.2-.22,2.12-.66,2.74s-1.09.93-1.95.93-1.49-.31-1.94-.92-.68-1.5-.69-2.67v-1.53c0-1.2.22-2.11.67-2.72s1.1-.93,1.95-.93,1.49.3,1.93.89.68,1.47.69,2.63v1.56Zm-.7-1.53c0-.98-.16-1.71-.48-2.21s-.8-.75-1.44-.75-1.11.24-1.43.73-.48,1.21-.49,2.16v1.68c0,.97.17,1.72.5,2.23s.81.77,1.44.77,1.1-.25,1.42-.76.49-1.24.49-2.21v-1.64Z"/><path class="cls-3" d="m362.16,487.89l.02,1.03c.23-.38.53-.67.88-.86s.74-.29,1.17-.29c1,0,1.63.41,1.9,1.23.23-.39.53-.7.91-.91s.8-.32,1.25-.32c1.36,0,2.05.74,2.08,2.23v4.23h-.7v-4.18c0-.57-.13-.99-.37-1.26s-.63-.41-1.17-.41c-.5,0-.93.17-1.28.49s-.54.71-.58,1.16v4.2h-.7v-4.23c0-.54-.13-.95-.38-1.22s-.64-.4-1.16-.4c-.44,0-.82.13-1.14.38s-.55.63-.7,1.12v4.35h-.7v-6.34h.67Z"/><path class="cls-3" d="m372.8,487.89l.02,1.03c.23-.38.53-.67.88-.86s.74-.29,1.17-.29c1,0,1.63.41,1.9,1.23.23-.39.53-.7.91-.91s.8-.32,1.25-.32c1.36,0,2.05.74,2.08,2.23v4.23h-.7v-4.18c0-.57-.13-.99-.37-1.26s-.63-.41-1.17-.41c-.5,0-.93.17-1.28.49s-.54.71-.58,1.16v4.2h-.7v-4.23c0-.54-.13-.95-.38-1.22s-.64-.4-1.16-.4c-.44,0-.82.13-1.14.38s-.55.63-.7,1.12v4.35h-.7v-6.34h.67Z"/><path class="cls-3" d="m385.6,451.46h1.33v.59h-1.33v2.16h-.7v-2.16h-4.01v-.4l3.95-5.98h.77v5.78Zm-3.86,0h3.15v-4.88l-.31.54-2.84,4.34Z"/><path class="cls-3" d="m393.09,450.65c0,1.2-.22,2.12-.66,2.74s-1.09.93-1.95.93-1.49-.31-1.94-.92-.68-1.5-.69-2.67v-1.53c0-1.2.22-2.11.67-2.72s1.1-.93,1.95-.93,1.49.3,1.93.89.68,1.47.69,2.63v1.56Zm-.7-1.53c0-.98-.16-1.71-.48-2.21s-.8-.75-1.44-.75-1.11.24-1.43.73-.48,1.21-.49,2.16v1.68c0,.97.17,1.72.5,2.23s.81.77,1.44.77,1.1-.25,1.42-.76.49-1.24.49-2.21v-1.64Z"/><path class="cls-3" d="m399.74,450.65c0,1.2-.22,2.12-.66,2.74s-1.09.93-1.95.93-1.49-.31-1.94-.92-.68-1.5-.69-2.67v-1.53c0-1.2.22-2.11.67-2.72s1.1-.93,1.95-.93,1.49.3,1.93.89.68,1.47.69,2.63v1.56Zm-.7-1.53c0-.98-.16-1.71-.48-2.21s-.8-.75-1.44-.75-1.11.24-1.43.73-.48,1.21-.49,2.16v1.68c0,.97.17,1.72.5,2.23s.81.77,1.44.77,1.1-.25,1.42-.76.49-1.24.49-2.21v-1.64Z"/><path class="cls-3" d="m404.91,447.87l.02,1.03c.23-.38.53-.67.88-.86s.74-.29,1.17-.29c1,0,1.63.41,1.9,1.23.23-.39.53-.7.91-.91s.8-.32,1.25-.32c1.36,0,2.05.74,2.08,2.23v4.23h-.7v-4.18c0-.57-.13-.99-.37-1.26s-.63-.41-1.17-.41c-.5,0-.93.17-1.28.49s-.54.71-.58,1.16v4.2h-.7v-4.23c0-.54-.13-.95-.38-1.22s-.64-.4-1.16-.4c-.44,0-.82.13-1.14.38s-.55.63-.7,1.12v4.35h-.7v-6.34h.67Z"/><path class="cls-3" d="m415.55,447.87l.02,1.03c.23-.38.53-.67.88-.86s.74-.29,1.17-.29c1,0,1.63.41,1.9,1.23.23-.39.53-.7.91-.91s.8-.32,1.25-.32c1.36,0,2.05.74,2.08,2.23v4.23h-.7v-4.18c0-.57-.13-.99-.37-1.26s-.63-.41-1.17-.41c-.5,0-.93.17-1.28.49s-.54.71-.58,1.16v4.2h-.7v-4.23c0-.54-.13-.95-.38-1.22s-.64-.4-1.16-.4c-.44,0-.82.13-1.14.38s-.55.63-.7,1.12v4.35h-.7v-6.34h.67Z"/></g></svg>