<?xml version="1.0" encoding="UTF-8"?><svg id="Layer_2" xmlns="http://www.w3.org/2000/svg" xmlns:xlink="http://www.w3.org/1999/xlink" viewBox="0 0 667.35 742.74"><defs><style>.cls-1{fill:#4d4d4d;font-family:Roboto-Light, Roboto;font-size:12px;font-weight:300;}.cls-2{fill:#550b54;}.cls-2,.cls-3,.cls-4,.cls-5,.cls-6,.cls-7,.cls-8,.cls-9,.cls-10,.cls-11,.cls-12,.cls-13,.cls-14,.cls-15,.cls-16,.cls-17,.cls-18,.cls-19,.cls-20,.cls-21,.cls-22,.cls-23,.cls-24,.cls-25,.cls-26{stroke-width:0px;}.cls-27{fill:none;stroke:#4d4d4d;stroke-linecap:round;stroke-miterlimit:10;}.cls-3{fill:url(#linear-gradient);}.cls-4{fill:#0090b3;}.cls-5{fill:#a67c52;}.cls-6{fill:#d67b4c;}.cls-7{fill:#4e1a3b;}.cls-8{fill:#ad7f60;}.cls-9{fill:#25c9c6;}.cls-10{fill:#342823;}.cls-11{fill:#eea252;}.cls-12{fill:#7c1297;}.cls-13{fill:#bf5b44;}.cls-14{fill:#2b190e;}.cls-15{fill:#b14740;}.cls-16{fill:#64e4c1;}.cls-17{fill:#905736;}.cls-18{fill:#cb6a4a;}.cls-19{fill:#391237;}.cls-20{fill:#d3f5be;}.cls-21{fill:#633824;}.cls-22{fill:#721273;}.cls-23{fill:#744730;}.cls-24{fill:#9a6949;}.cls-25{fill:#e28e4c;}.cls-26{fill:#472917;}</style><linearGradient id="linear-gradient" x1="593.66" y1="574.27" x2="89.72" y2="730.01" gradientTransform="translate(669.82 55.16) rotate(90)" gradientUnits="userSpaceOnUse"><stop offset="0" stop-color="#a67759"/><stop offset="1" stop-color="#905837"/></linearGradient></defs><g id="Layer_1-2"><g id="Background"><rect class="cls-20" x="49" y="68.87" width="502.4" height="600"/><path class="cls-4" d="m502.75,69.07q-.67,21.53-1.35,43.05c-14.82,7.87-24.16,20.73-37.12,30.46q-.34,7.32-.67,14.64c-5.81,1.64-11.7,2.83-17.55,4.39-.24-1.23,2.54-1.76.34-2.34-9.78-2.58-178.5,1.99-204.51,0-3.41-9.63,2.93-22.5-9.45-27.53-4.52-1.83-24.5-3.88-25.31-5.56-4.39-28.85,6.38-36.29-22.27-42.76v-14.35c105.96-.12,211.94-.39,317.9,0Z"/><path class="cls-16" d="m78.89,69.07c.27,1.34-.51,7.09.34,7.61,1.51.93,25.21-1.02,37.12.59,24.88,3.35,20.53,23.47,21.94,40.71,37.78,3.33,29,5.74,33.07,35.73l1.69,2.05c46.13-1.04,24.8,17.77,33.07,44.52l199.44.59c-.8,6.27-1.79,12.49-2.7,18.74h-249.73c-.54-4.62-.65-9.17-1.35-13.76-3.23-3.32-7.33-5.59-11.47-7.91-15.24-8.55-33.4-11.85-49.95-17.86l-2.7-50.37c-1.07-2.94-32.9-16.11-38.47-17.86.07-14.25-.05-28.51,0-42.76,9.9-.05,19.8.06,29.7,0Z"/><path class="cls-9" d="m184.86,69.07v14.35c28.66,6.47,17.88,13.91,22.27,42.76.81,1.68,20.79,3.73,25.31,5.56,12.38,5.03,6.04,17.9,9.45,27.53,26.01,1.99,194.72-2.58,204.51,0,2.21.58-.58,1.11-.34,2.34-8.34,2.23-37.23,8.19-39.15,16.11-.27,1.13-.19,14.05-1.35,23.14l-199.44-.59c-8.27-26.75,13.05-45.56-33.07-44.52l-1.69-2.05c-4.07-29.99,4.7-32.4-33.07-35.73-1.4-17.24,2.95-37.36-21.94-40.71-11.92-1.6-35.61.35-37.12-.59-.84-.52-.07-6.28-.34-7.61,35.32-.23,70.65.04,105.97,0Z"/><path class="cls-20" d="m402.86,219.6c-2.54,17.5-5.61,34.92-8.1,52.42-18.05,7.27-39.22,9.14-53.99,21.67q-1.35,8.79-2.7,17.57-6.75,4.69-13.5,9.37-1.69,18.74-3.37,37.49c-5.17,3.65-20.58,2.22-22.27,8.2-.46,1.62-.47,23.77-1.35,33.39-4.63,50.55-12.4,100.94-12.82,151.7-10.78,3.61-3.61,5.41-7.42,7.32-.21-3.12-.54-23.31-1.35-24.31-.52-.64-3.04-.15-4.05-.29.17-4.81-1.21-43.79-2.02-45.98-4.25-4.71-13.98-3.89-16.2-9.96-1.95-28.91-7.69-57.4-10.8-86.1-4.76-6.83-5.9-9.57-14.17-12.59-1.81-.66-6.93-.62-8.1-2.05-.24-7.3-4.42-13.98-5.4-19.04-3.51-18.18-1.55-45.97-10.12-70.58-2.53-3.62-37.68-8.64-44.55-11.13-4.9-18.74-5.2-38.06-7.42-57.11h249.73Z"/></g><path class="cls-12" d="m550,69.07q-.67,42.17-1.35,84.34c-15.27,9.04-32.29,15.93-46.91,24.6-16.19,9.6-36.83,25.56-55.68,35.44-2.96,4.47-1.09,42.02-5.4,54.47-1.25,3.61-33.85,54.88-39.15,67.36-12.66,35.04-28.04,48.31-24.3,87.86-7.03,28.93-32.17,49.89-56.02,69.41-5.09,4.17-10.08,5.4-16.2,12.59-6.28,7.39-8.34,12.66-9.45,21.38-.53,4.2-2.12,25.16-1.35,27.82.12.42,3.02,2.32,3.37,3.22,5.66,14.38,4.04,36.21,3.37,51.54-4.91-3.28-16.39-10.71-20.92-12.89-1.53-12.46-1.84-24.99-2.7-37.49,3.81-1.91-3.35-3.71,7.42-7.32.42-50.77,8.19-101.15,12.82-151.7.88-9.62.89-31.76,1.35-33.39,1.69-5.98,17.11-4.55,22.27-8.2q1.69-18.74,3.37-37.49,6.75-4.69,13.5-9.37,1.35-8.79,2.7-17.57c14.78-12.53,35.95-14.4,53.99-21.67,2.49-17.5,5.56-34.92,8.1-52.42.91-6.25,1.9-12.48,2.7-18.74,1.16-9.09,1.08-22,1.35-23.14,1.91-7.92,30.8-13.88,39.15-16.11,5.85-1.56,11.74-2.75,17.55-4.39q.34-7.32.67-14.64c12.96-9.73,22.3-22.58,37.12-30.46q.67-21.53,1.35-43.05c15.75.06,31.5-.04,47.25,0Z"/><path class="cls-2" d="m550,69.07h1.35c.05,27.72-.07,55.45,0,83.17-1.63,1.28-2.58,1.1-2.7,1.17q.67-42.17,1.35-84.34Z"/><path class="cls-7" d="m271.92,534.14c1.01.15,3.53-.35,4.05.29.81.99,1.14,21.19,1.35,24.31.86,12.5,1.17,25.03,2.7,37.49-4.56-2.19-7.28-3.17-12.15-4.69-.1-.85,1.23-.4,1.35-.88.74-2.93-.26-42.43,0-52.13.15-5.42,2.69-4.1,2.7-4.39Z"/><path class="cls-19" d="m109.94,542.92c9.87,7.82,18.33,17.18,28.01,25.19,29.77,11.73,61.76,45.63,82.34,53.3,12.3,4.58,32.66,7.38,45.9,12.89,17.91,12.79,36.82,23.75,56.36,34.56-91.12.05-182.23-.04-273.35,0-.04-54.67.06-109.34,0-164,21.45,14.71,39.69,21.39,60.74,38.07Z"/><path class="cls-11" d="m551.35,460.34c0,1.76,0,3.51,0,5.27-7.74,3.69-14.94,8.05-22.27,12.3-2.87,1.66-6.69,2.93-9.45,4.69-3.79.58-2.35-1.55-3.04-1.76-21.3,10.3-58.8,30.94-77.62,43.34-43.35,28.56-70.99,78.65-85.38,91.67-8.93,8.08-26.07,11.07-25.65,12.3,5.14,1.97,9.79,4.6,14.85,6.74,1.63.69,6,3.64,7.09,3.51,14.16-9.27,29.08-17.59,41.51-28.7,45.22-29.62,105.29-52.5,159.96-65.02,0,1.56,0,3.12,0,4.69-10.24,3.08-20.91,7.95-29.7,13.47-3.14-1.05-5.19,2.24-7.76,3.51-24.66,12.24-57.3,20.38-83.69,32.8-15.91,10.78-55.51,26.47-66.14,34.56-13.17,10.02-5.53,7.82-1.69,10.54,1.17.83,2.27,1.91,4.72,3.51,4.73,3.09,9.23,6.39,14.51,8.79,54.17-31.19,111.16-58.76,169.75-83.17,0,1.17,0,2.34,0,3.51-14.12,5.91-28.69,11.17-42.52,17.57-8.98,4.15-16.95,9.13-25.65,13.47-11.46,5.72-23.51,11.03-34.76,16.99-11.58,6.13-22.19,13.76-33.75,19.91-3.19,1.7-29.57,12.9-29.36,14.35,2.64,1.53,5.44,2.89,8.1,4.39,2.97,1.67,6.33,2.96,8.77,5.27-4.27,0-8.55,0-12.82,0q-30.54-16.11-61.08-32.21c-45.38-17.45-82.21-32.62-121.49-59.74-30.56-12.44-58.4-28.89-88.08-42.76-6.54-3.06-17.12-8.82-19.57-8.2-16.32-9.52-34.31-17.02-49.95-27.53,0-1.56,0-3.12,0-4.69,13.81,6.47,27.62,13.05,41.17,19.91,5.91,2.99,11.63,6.36,17.55,9.37,17.74,9.03,35.43,18.16,53.32,26.94,3.85,1.89,7.6,3.98,11.47,5.86,10.99,5.33,21.83,10.88,33.07,15.81,19.95,8.75,18.92,8.06,39.15,14.06,1.77.53,3.6,1.22,5.4,1.76,5.68,1.68,11.86,2.33,17.55,4.1,4.87,1.52,7.59,2.5,12.15,4.69,4.54,2.18,16.02,9.61,20.92,12.89,2,1.34,4.11,2.74,6.07,4.1,2.15,1.49,13.37,11.49,14.51,11.71,7.26-1.63,19.12-4.48,24.97-8.2,6.71-4.27,27.49-31.63,33.41-39.54,3.84-5.13,7.86-13.23,10.8-17.28,6.19-8.53,9.47-13.19,18.22-20.5,23.5-19.62,108.77-66.27,142.41-79.07Z"/><path class="cls-25" d="m389.36,668.85c-10.8,0-21.6,0-32.4,0-10.74-7.9-24.57-12.6-36.78-18.74-17.31-8.7-32.51-19.15-52.65-24.01-53.07-25.55-101.86-57.25-150.17-89.03q.67-1.46,1.35-2.93c29.68,13.87,57.52,30.32,88.08,42.76,39.28,27.12,76.11,42.29,121.49,59.74q30.54,16.11,61.08,32.21Z"/><path class="cls-15" d="m350.89,668.85c-9.45,0-18.9,0-28.35,0-19.53-10.81-38.45-21.77-56.36-34.56-13.24-5.51-33.6-8.3-45.9-12.89-20.58-7.67-52.58-41.57-82.34-53.3-9.68-8.01-18.14-17.37-28.01-25.19,1.97,1.13,6.83,1.03,8.44,1.76,4.37,1.97,38.18,24.89,46.57,29.87,29.79,17.7,60.94,33.76,91.12,50.96,23.43,5.59,42.09,19.26,62.77,29.29,10.41,5.05,21.98,8.41,32.06,14.06Z"/><path class="cls-13" d="m99.14,525.94c6.08,3.55,11.41,8.41,18.22,11.13,48.31,31.78,97.1,63.48,150.17,89.03,20.13,4.86,35.33,15.31,52.65,24.01,12.22,6.14,26.05,10.84,36.78,18.74-2.02,0-4.05,0-6.07,0-10.08-5.64-21.65-9.01-32.06-14.06-20.68-10.03-39.34-23.69-62.77-29.29-30.17-17.2-61.32-33.26-91.12-50.96-8.39-4.99-42.21-27.91-46.57-29.87-1.61-.73-6.46-.63-8.44-1.76-21.06-16.69-39.29-23.36-60.74-38.07,0-2.15,0-4.3,0-6.44,15.63,10.51,33.63,18.01,49.95,27.53Z"/><path class="cls-25" d="m118.71,534.14q-.67,1.46-1.35,2.93c-6.81-2.72-12.14-7.58-18.22-11.13,2.46-.62,13.03,5.14,19.57,8.2Z"/><path class="cls-19" d="m80.24,182.7c1.38,36.83,1.96,73.59,0,110.41q2.02,33.97,4.05,67.94c.04,50.96,6.58,101.62,6.07,152.58-13.55-6.86-27.36-13.45-41.17-19.91-.11-120.85-.38-241.71,0-362.56q9.62.59,19.24,1.17c1.98.35,9.04,4.59,9.79,6.15,1.74,3.66,1.75,36.95,2.02,44.22Z"/><path class="cls-12" d="m140.31,197.93l8.77,6.74c.22,2.48-23.09-8.31-25.31-9.08-11.65-4.05-24.1-6.62-35.77-10.54-2.71-.91-4.45-3.24-7.76-2.34-.27-7.27-.29-40.56-2.02-44.22-.74-1.57-7.81-5.8-9.79-6.15q-9.62-.59-19.24-1.17c.01-3.9-.02-7.81,0-11.71,2.31-.29,36.78,12.78,35.77,9.08l-35.77-16.11c0-.2,0-.39,0-.59,5.57,1.76,37.41,14.92,38.47,17.86l2.7,50.37c16.55,6.02,34.7,9.32,49.95,17.86Z"/><path class="cls-12" d="m49.19,119.44c.01-2.34-.01-4.69,0-7.03l35.77,16.11c1.01,3.7-33.46-9.37-35.77-9.08Z"/><path class="cls-22" d="m140.31,197.93c4.14,2.32,8.25,4.59,11.47,7.91.7,4.59.81,9.15,1.35,13.76,2.23,19.05,2.53,38.36,7.42,57.11,6.86,2.49,42.01,7.51,44.55,11.13,8.57,24.61,6.62,52.4,10.12,70.58-3.32,3.24-.01,3.57,0,3.81.85,15.36-.15,30.94.67,46.27.38,7.11,1.62,14.27,2.02,21.38,2.85,49.91,5.39,99.82,9.45,149.65.29.6,1.77.13,2.02.29,1.26.82,13.88,5.08,14.51,4.69,1.15-.71-.66-5.88,1.01-7.03.12,2.64.36,5.58,0,8.2-20.23-6-19.2-5.31-39.15-14.06-5.88-21.99-1.31-141.27-3.37-148.48-.4-1.39-6.39-6.2-6.75-7.03-1.61-3.66-3.12-26.91-4.05-33.97-12.38-8.45-8.58-23.59-10.12-35.73-17.86-5.11-11.41-4.77-17.21-19.04q1.18,46.13,2.36,92.25,2.02,19.33,4.05,38.66,1.01,48.76,2.02,97.52c-3.88-1.88-7.62-3.96-11.47-5.86q-2.7-41.73-5.4-83.47c-7.01-24.72-7.65-59.55-7.42-85.52.04-4.2,2.36-23.54,1.35-25.77-.18-.41-7.39-3.82-8.1-5.27-3.16-31.21-3.98-62.39-3.37-93.72l-10.8-12.89q-1.35-14.35-2.7-28.7l-1.69-1.46q-14-4.25-28.01-8.49c9.75,105.45,11.58,211.16,14.17,316.88l-1.35,1.46c-5.92-3.01-11.64-6.38-17.55-9.37.51-50.96-6.03-101.62-6.07-152.58q-2.02-33.97-4.05-67.94c1.96-36.81,1.38-73.58,0-110.41,3.31-.9,5.06,1.43,7.76,2.34,11.67,3.93,24.12,6.49,35.77,10.54,2.22.77,25.53,11.55,25.31,9.08l-8.77-6.74Z"/><path class="cls-19" d="m161.23,549.95c-17.89-8.79-35.58-17.92-53.32-26.94l1.35-1.46c-2.59-105.72-4.42-211.42-14.17-316.88q14,4.25,28.01,8.49l1.69,1.46q1.35,14.35,2.7,28.7l10.8,12.89c-.61,31.33.21,62.5,3.37,93.72.71,1.46,7.91,4.86,8.1,5.27,1.01,2.24-1.31,21.57-1.35,25.77-.23,25.96.42,60.8,7.42,85.52q2.7,41.73,5.4,83.47Z"/><path class="cls-19" d="m205.78,571.62c-11.24-4.93-22.08-10.49-33.07-15.81q-1.01-48.76-2.02-97.52-2.02-19.33-4.05-38.66-1.18-46.13-2.36-92.25c5.81,14.27-.65,13.92,17.21,19.04,1.55,12.14-2.26,27.28,10.12,35.73.93,7.06,2.44,30.31,4.05,33.97.36.83,6.35,5.64,6.75,7.03,2.06,7.21-2.51,126.5,3.37,148.48Z"/><path class="cls-22" d="m228.73,379.51c.46,2.6-7.41-1.98-8.77-.29.12,16.33-1.15,32.61.67,48.91l-2.7,1.76c-.41-7.11-1.64-14.27-2.02-21.38-.82-15.33.17-30.91-.67-46.27-.01-.24-3.32-.57,0-3.81.98,5.06,5.16,11.73,5.4,19.04,1.17,1.43,6.28,1.39,8.1,2.05Z"/><path class="cls-12" d="m228.73,379.51c8.27,3.02,9.41,5.76,14.17,12.59,3.11,28.7,8.85,57.19,10.8,86.1,2.22,6.07,11.95,5.24,16.2,9.96.81,2.19,2.2,41.17,2.02,45.98-.01.3-2.55-1.03-2.7,4.39-.26,9.7.74,49.2,0,52.13-.12.48-1.45.02-1.35.88-5.68-1.77-11.87-2.42-17.55-4.1-2.03-8.54-3.91-41.15-5.4-44.81-.18-.45-1.49-1.37-2.02-.59-1.05,1.52,1.82,30.81,2.02,35.44-1.67,1.14.13,6.32-1.01,7.03-.63.39-13.26-3.87-14.51-4.69-.46-50.68-3.88-101.21-8.77-151.7-1.83-16.3-.55-32.58-.67-48.91,1.36-1.68,9.23,2.89,8.77.29Z"/><path class="cls-2" d="m250.33,587.44c-1.8-.53-3.63-1.23-5.4-1.76.36-2.62.12-5.56,0-8.2-.21-4.62-3.07-33.91-2.02-35.44.54-.78,1.84.14,2.02.59,1.48,3.66,3.37,36.27,5.4,44.81Z"/><path class="cls-2" d="m229.4,579.82c-.26-.17-1.73.31-2.02-.29-4.06-49.83-6.6-99.74-9.45-149.65l2.7-1.76c4.89,50.5,8.31,101.02,8.77,151.7Z"/><path class="cls-19" d="m551.35,544.68c-54.67,12.51-114.74,35.39-159.96,65.02-.08-7.59,3.13-15.71,4.72-23.43,29.28-12.34,31.66-9.17,33.75-39.83,2.08-1.49,5.3-5.53,7.76-7.03,8.91-5.43,29.41-11.18,44.55-28.7,26.85-5.73,44.66-25.31,69.18-35.14-.02,23.04.03,46.08,0,69.12Z"/><path class="cls-19" d="m551.35,581.58c-.07,29.09.05,58.18,0,87.27-40.05.04-80.09-.05-120.14,0,.05-8.77,8.31-11.18,15.52-18.45,5.45-5.49,9.83-11.83,16.2-16.69,21.03-9.85,55.18-43.22,88.42-52.13Z"/><path class="cls-7" d="m551.35,410.55c-10.33,4.17-22.6,8.07-32.4,12.89,5.43-15.5,6.86-31.63,8.1-47.74,4.06-52.75,2.11-105.92,4.05-158.73q10.12-14.2,20.25-28.41c.11,74,.04,147.99,0,221.99Z"/><path class="cls-19" d="m551.35,573.38c-58.59,24.41-115.58,51.98-169.75,83.17-5.28-2.39-9.79-5.7-14.51-8.79q6.24-3.81,12.49-7.61,37.12-16.11,74.24-32.21c13.05-10.02,42.6-24.36,58.38-28.7,7.95-2.19,9.93-1.02,18.56-1.17,6.04-1.02,13.87-15.4,20.59-18.74,0,4.69,0,9.37,0,14.06Z"/><path class="cls-13" d="m551.35,475.56c-24.52,9.83-42.33,29.42-69.18,35.14-15.13,17.52-35.64,23.27-44.55,28.7-2.46,1.5-5.68,5.53-7.76,7.03-15.03,10.78-26.61,20.25-35.1,36.02-.21,1.4,1.39,3.61,1.35,3.81-1.6,7.72-4.8,15.84-4.72,23.43-12.43,11.11-27.35,19.43-41.51,28.7-1.09.13-5.46-2.83-7.09-3.51q20.25-18.89,40.5-37.78c37.15-63.14,46.02-54.64,92.13-82.88,15.31-9.37,32.49-24.19,44.21-31.63,2.76-1.75,6.58-3.02,9.45-4.69,8.93.77,14.06-5.13,22.27-8.79,0,2.15,0,4.3,0,6.44Z"/><path class="cls-7" d="m551.35,439.25c0,7.03,0,14.06,0,21.09-33.64,12.8-118.91,59.45-142.41,79.07,1.06-5.71,6.24-12.57,11.14-16.4,5.35-4.18,78.61-43.78,102.59-61.5,9.68-7.15,17.09-17.08,28.68-22.26Z"/><path class="cls-7" d="m551.35,170.99c0,2.15,0,4.3,0,6.44-10.5,5.61-21.24,11.04-31.05,17.57-.42-14.32,19.47-18,31.05-24.01Z"/><path class="cls-11" d="m551.35,414.65c0,3.71,0,7.42,0,11.13-27.54,13.45-46.96,26.24-69.18,45.69-28.1,17.19-94.78,47.3-100.23,75.27q-1.01-1.32-2.02-2.64c.72-6.7,5.65-18.51,10.12-23.72,5.75-6.7,43.01-33.26,53.32-40.71,7.68-5.55,15.54-10.93,23.29-16.4l1.01-2.93c2.49.12,4.12-4.05,4.72-4.69,1.37-1.44,5.66-5.43,7.42-7.03,4.25-3.85,8.62-7.32,13.5-10.54,4.43-2.92,13.84-6.93,18.9-10.54.08.54,2.85,1.2,3.04,1.17,1.95-.32,29.12-14.04,36.11-14.06Z"/><path class="cls-25" d="m551.35,434.56c-15.52,5.76-26.55,16.94-39.48,25.77-30.59,20.89-62.03,41.5-95.17,59.16-14.54,12.42-25.78,27.18-37.46,41.59.2-5.63,1.25-11.31.67-16.99q1.01,1.32,2.02,2.64c5.45-27.96,72.13-58.08,100.23-75.27,22.22-19.45,41.64-32.23,69.18-45.69,0,2.93,0,5.86,0,8.79Z"/><path class="cls-13" d="m551.35,434.56c0,1.56,0,3.12,0,4.69-11.59,5.18-19,15.11-28.68,22.26-23.98,17.72-97.24,57.32-102.59,61.5-4.9,3.83-10.08,10.69-11.14,16.4-8.75,7.31-12.04,11.97-18.22,20.5q-5.57,5.27-11.14,10.54c-1.14.03-.49-5.22-.34-9.37,11.68-14.4,22.91-29.17,37.46-41.59,33.14-17.65,64.58-38.27,95.17-59.16,12.94-8.83,23.97-20.01,39.48-25.77Z"/><path class="cls-11" d="m551.35,410.55c0,1.37,0,2.73,0,4.1-6.98.02-34.16,13.74-36.11,14.06-.18.03-2.96-.63-3.04-1.17,2.42-1.04,4.45-2.97,6.75-4.1,9.8-4.82,22.07-8.72,32.4-12.89Z"/><path class="cls-7" d="m443.36,479.66c-10.31,7.44-47.57,34.01-53.32,40.71-4.47,5.21-9.41,17.03-10.12,23.72.57,5.68-.47,11.35-.67,16.99-.15,4.15-.8,9.4.34,9.37q5.57-5.27,11.14-10.54c-2.94,4.05-6.96,12.15-10.8,17.28-5.92,7.91-26.7,35.27-33.41,39.54-5.85,3.72-17.72,6.57-24.97,8.2-1.14-.22-12.36-10.22-14.51-11.71,1.9-20.64,1.47-41.44,2.7-62.09.82.1,2.48-.24,3.04-.59,5.92-3.69-2.54-42.13,34.42-31.63l4.72-.59c6.98-8.89,16.72-16.26,23.96-24.89,5.73-6.83,9.76-14.54,14.85-21.67.81-1.13,4.41-3.37,4.72-4.1,1.79-4.14-9.01,1.17,0-8.2.47-.48,6.64-5.05,7.09-4.98v5.27q10.29-8.05,20.59-16.11c1.18-2.29,7.63-41.42,8.1-46.86,1.81-20.95-1.11-48.98.67-67.36,3.69-38.03,29.01-10.4,34.42-50.37,4.06-29.97-7.67-39.79,22.27-37.49-5.36,46.92-2.2,94.34-8.1,141.16-12.37,30.73-14.28,46.56-14.17,79.07-.73,2.09-21.37,13.62-22.95,17.86Z"/><path class="cls-25" d="m519.63,482.59c-11.72,7.43-28.9,22.25-44.21,31.63-46.11,28.24-54.98,19.74-92.13,82.88q-20.25,18.89-40.5,37.78c-5.05-2.14-9.71-4.76-14.85-6.74-.42-1.23,16.72-4.22,25.65-12.3,14.39-13.01,42.03-63.1,85.38-91.67,18.82-12.4,56.32-33.04,77.62-43.34.69.21-.75,2.34,3.04,1.76Z"/><path class="cls-15" d="m551.35,559.32c-6.72,3.34-14.54,17.72-20.59,18.74-8.63.16-10.61-1.02-18.56,1.17,7.41-8.06,18.37-12.95,28.35-18.16,3.63-1.89,7.06-4.11,10.8-5.86,0,1.37,0,2.73,0,4.1Z"/><path class="cls-13" d="m551.35,549.37c0,1.95,0,3.9,0,5.86-3.74,1.74-7.17,3.96-10.8,5.86-1.68-3.18-11.52,4.96-22.95,5.27.77-.82,3.52-3.18,4.05-3.51,8.79-5.52,19.45-10.39,29.7-13.47Z"/><path class="cls-18" d="m551.35,469.12c-8.21,3.65-13.34,9.56-22.27,8.79,7.33-4.25,14.53-8.61,22.27-12.3,0,1.17,0,2.34,0,3.51Z"/><path class="cls-25" d="m521.65,562.84c-.53.33-3.28,2.7-4.05,3.51-18.22,15.87-41.88,21.21-62.43,33.97q-12.15,4.69-24.3,9.37c-20.85,14.62-47.12,20.89-68.51,34.56-3.84-2.72-11.49-.53,1.69-10.54,10.63-8.08,50.23-23.78,66.14-34.56,26.4-12.42,59.03-20.56,83.69-32.8,2.57-1.28,4.62-4.56,7.76-3.51Z"/><path class="cls-15" d="m540.55,561.08c-9.98,5.21-20.94,10.1-28.35,18.16-15.78,4.34-45.33,18.68-58.38,28.7q-37.12,16.11-74.24,32.21-6.24,3.81-12.49,7.61c-2.45-1.6-3.56-2.69-4.72-3.51,21.39-13.67,47.66-19.94,68.51-34.56q12.15-4.69,24.3-9.37c20.55-12.77,44.21-18.11,62.43-33.97,11.42-.32,21.26-8.45,22.95-5.27Z"/><path class="cls-15" d="m462.93,633.71c-6.37,4.87-10.74,11.2-16.2,16.69-7.21,7.27-15.48,9.68-15.52,18.45-9,.01-18,0-27,0,5.42-7.84,12.9-14.74,21.6-19.91,1.92-1.14,23.94-12.42,25.31-12.89.41-.14,7.67-.83,8.77-.59.66-1.19,1.92-1.24,3.04-1.76Z"/><path class="cls-15" d="m551.35,576.9c0,1.56,0,3.12,0,4.69-33.24,8.91-67.38,42.28-88.42,52.13-1.11.52-2.37.57-3.04,1.76-1.1-.24-8.36.45-8.77.59-1.37.46-23.39,11.75-25.31,12.89l-.67-1.76c9.12-4.93,17.61-10.78,26.66-15.81,10.43-5.81,31.39-15.49,38.47-19.91,4.61-2.88,20.01-14.47,18.56-16.99,13.83-6.4,28.4-11.66,42.52-17.57Z"/><path class="cls-13" d="m425.81,648.94c-8.7,5.18-16.18,12.08-21.6,19.91-.67,0-1.35,0-2.02,0-2.45-2.31-5.81-3.6-8.77-5.27,4.74-4.42,14.53-7.35,20.92-10.54,3.7-1.85,7.19-3.9,10.8-5.86l.67,1.76Z"/><path class="cls-6" d="m483.18,607.94l1.35.29c-17.74,17.09-46.2,24.91-65.81,39.54-1.63,1.22-4.78,3.54-4.39,5.27-6.39,3.19-16.18,6.12-20.92,10.54-2.66-1.5-5.45-2.87-8.1-4.39-.21-1.45,26.17-12.65,29.36-14.35,11.55-6.16,22.16-13.78,33.75-19.91,11.25-5.96,23.3-11.26,34.76-16.99Z"/><path class="cls-18" d="m425.13,647.18c-3.61,1.95-7.1,4.01-10.8,5.86-.39-1.73,2.75-4.05,4.39-5.27,19.61-14.62,48.07-22.45,65.81-39.54l-1.35-.29c8.7-4.34,16.67-9.32,25.65-13.47,1.44,2.52-13.95,14.1-18.56,16.99-7.08,4.43-28.04,14.11-38.47,19.91-9.05,5.04-17.54,10.88-26.66,15.81Z"/><path class="cls-15" d="m429.86,546.44c-2.08,30.66-4.47,27.49-33.75,39.83.04-.2-1.55-2.41-1.35-3.81,8.49-15.77,20.06-25.24,35.1-36.02Z"/><path class="cls-7" d="m491.95,224.87c-1.46,5.54-2.73,21.53-3.37,28.7-3.32,36.65-2.31,73.69-4.05,110.41-.77,8.13-2.62,15.8-4.72,23.72-6.5,24.5-9.15,19.65-11.47,51.54-.51,6.99.58,14.09-.67,21.09l-1.01,2.93c-7.75,5.48-15.6,10.85-23.29,16.4,1.58-4.25,22.22-15.77,22.95-17.86-.11-32.51,1.8-48.34,14.17-79.07,5.9-46.82,2.74-94.24,8.1-141.16-29.94-2.31-18.21,7.52-22.27,37.49-5.41,39.97-30.73,12.34-34.42,50.37-1.78,18.38,1.14,46.41-.67,67.36-.47,5.44-6.92,44.57-8.1,46.86q-10.29,8.05-20.59,16.11v-5.27c-.45-.07-6.62,4.49-7.09,4.98-9.01,9.37,1.79,4.06,0,8.2-.31.73-3.92,2.97-4.72,4.1-5.09,7.13-9.12,14.84-14.85,21.67-7.24,8.63-16.98,16.01-23.96,24.89l-4.72.59c-36.96-10.5-28.51,27.94-34.42,31.63-.56.35-2.22.69-3.04.59.5-8.49,1.65-16.96,1.35-25.48,8.93-11.51,9.38-13.63,25.99-11.42,6.04-9.38,13.06-9.63,14.17-10.54,2.06-1.7,19.95-28.66,37.46-36.61-.05-11.22,23.77-16.77,27.67-26.94,5.1-13.31,9.05-100.73,13.5-126.22,1.43-8.18-.12-8.5,5.4-15.81,7.06-1.86,18.81-2.11,22.27-9.08,4.1-8.24,4.25-50.52,5.4-55.64,1.89-8.47,21.17-7.16,29.02-8.49Z"/><path class="cls-11" d="m551.35,157.52c-27.59,9.1-48.17,31.17-62.43,39.24-10.63,6.02-29.53,11.92-40.83,19.04-2.49,4.08,3.76,43.12-8.1,62.97-25.81,36.84-45.81,76.97-58.72,118.61-2.16,19.17.24,42.84-13.5,58.87-1.36-4.16-5.84,4.95-8.77,7.91-3.17,3.2-31.31,27.51-33.41,28.41-.91.39-3.07-.78-4.39,0,23.85-19.51,48.99-40.48,56.02-69.41-3.74-39.55,11.64-52.82,24.3-87.86,5.3-12.48,37.9-63.74,39.15-67.36,4.31-12.46,2.44-50,5.4-54.47,18.85-9.88,39.49-25.83,55.68-35.44,14.62-8.67,31.64-15.56,46.91-24.6.12-.07,1.06.11,2.7-1.17,0,1.76,0,3.51,0,5.27Z"/><path class="cls-25" d="m551.35,157.52c0,2.73,0,5.47,0,8.2-21.79,8.79-39.87,22.33-57.37,36.31-2.78.27-1.93-1.78-5.06-.59-2.12.81-27.77,16.31-30.71,28.7-2.63,11.1-1.66,44.19-4.72,52.42-2.94,7.9-13.72,9-18.9,14.64-.04.04.91.57.67.88-5.52,7.32-3.97,7.63-5.4,15.81q-.67-2.64-1.35-5.27c.16-.35.7-5.21,1.35-7.32,4.82-6.84,9.07-14.47,10.12-22.55,11.86-19.84,5.61-58.89,8.1-62.97,11.3-7.12,30.2-13.02,40.83-19.04,14.26-8.07,34.85-30.15,62.43-39.24Z"/><path class="cls-15" d="m551.35,165.72c0,1.76,0,3.51,0,5.27-11.58,6.02-31.47,9.69-31.05,24.01-12,7.99-24.8,16.41-28.35,29.87-7.85,1.33-27.13.02-29.02,8.49-1.15,5.12-1.3,47.4-5.4,55.64-3.46,6.96-15.22,7.22-22.27,9.08.24-.31-.71-.84-.67-.88,5.18-5.64,15.95-6.75,18.9-14.64,3.07-8.23,2.09-41.32,4.72-52.42.58-.07,1.32.12,1.69,0,2.19-.74,28.6-25.29,34.08-28.11,17.5-13.99,35.58-27.53,57.37-36.31Z"/><path class="cls-15" d="m429.86,313.9c-4.45,25.49-8.4,112.91-13.5,126.22-3.9,10.17-27.73,15.72-27.67,26.94-17.51,7.94-35.39,34.91-37.46,36.61-1.11.92-8.13,1.16-14.17,10.54-16.61-2.21-17.05-.09-25.99,11.42.3,8.52-.85,16.99-1.35,25.48-1.23,20.65-.8,41.44-2.7,62.09-1.96-1.36-4.07-2.76-6.07-4.1.66-15.34,2.29-37.16-3.37-51.54.57-6.73-.94-27.33.67-31.34.24-.59,8.68-8.4,9.79-9.08,3.25-1.99,12.63-4.51,16.2-6.44,7.85-4.27,36.65-29.97,43.53-37.19,9.86-10.35,16.86-22.07,28.35-31.34,8.42-3.71,9.43-37.62,8.1-42.47-.12-.44-.9-.3-1.35-.29,1.76-15.51,1.72-31.1,4.05-46.57,5.76-15.25,14.81-29.22,21.6-44.22q.67,2.64,1.35,5.27Z"/><path class="cls-25" d="m428.51,308.63c-6.79,15-15.83,28.97-21.6,44.22-2.33,15.47-2.29,31.06-4.05,46.57-1.63,14.33-3.4,28.64-6.75,42.76-11.49,9.27-18.48,20.99-28.35,31.34-6.88,7.22-35.68,32.93-43.53,37.19-3.57,1.94-12.95,4.45-16.2,6.44-1.11.68-9.55,8.49-9.79,9.08-1.62,4.01-.11,24.61-.67,31.34-.35-.9-3.25-2.8-3.37-3.22-.77-2.66.81-23.62,1.35-27.82,2.65-5.93,3.79-8.93,9.11-13.47,13.88-11.84,36.4-15.75,63.11-56.82,13.73-16.02,11.34-39.69,13.5-58.87,12.91-41.64,32.91-81.77,58.72-118.61-1.06,8.08-5.3,15.71-10.12,22.55-.65,2.12-1.19,6.98-1.35,7.32Z"/><path class="cls-11" d="m367.76,456.24c-26.71,41.07-49.22,44.97-63.11,56.82-5.32,4.54-6.46,7.54-9.11,13.47,1.11-8.72,3.17-13.99,9.45-21.38,6.12-7.2,11.1-8.43,16.2-12.59,1.32-.78,3.47.39,4.39,0,2.1-.9,30.24-25.2,33.41-28.41,2.93-2.96,7.42-12.07,8.77-7.91Z"/><path class="cls-13" d="m493.98,202.03c-5.48,2.82-31.9,27.37-34.08,28.11-.36.12-1.11-.07-1.69,0,2.94-12.39,28.59-27.89,30.71-28.7,3.13-1.19,2.28.86,5.06.59Z"/><path class="cls-13" d="m396.11,442.18c3.35-14.12,5.12-28.43,6.75-42.76.45,0,1.23-.14,1.35.29,1.33,4.84.32,38.76-8.1,42.47Z"/><path class="cls-15" d="m551.35,188.56q-10.12,14.2-20.25,28.41c-1.94,52.82.01,105.98-4.05,158.73-1.24,16.11-2.67,32.24-8.1,47.74-2.3,1.13-4.33,3.06-6.75,4.1-5.06,3.61-14.47,7.62-18.9,10.54-.6-.06-1.74.24-2.02-.29-4.01-7.51,5.15-38.38,6.07-46.86.48-4.43-.17-10.63,0-15.52.43-12.05.05-24.25,0-36.31,3.58-3.71,4.86-22.53,5.4-30.75,1.12-17.23.48-74.99,1.35-79.66.06-.31,2.34-5.34,2.7-5.86,1.66-2.36,34.79-24.47,42.52-40.71.12-.07.97-1.67,2.02-1.76,0,2.73,0,5.47,0,8.2Z"/><path class="cls-11" d="m551.35,180.36c-1.05.09-1.91,1.69-2.02,1.76-16.03,9.9-50.18,33.21-53.32,50.37-3.09.32-.32,12.19-1.35,14.35-.1.21-4.16.32-4.72,1.76-.64,1.61,1.27,5.39-1.35,4.98.65-7.17,1.91-23.16,3.37-28.7,3.55-13.46,16.35-21.88,28.35-29.87,9.8-6.53,20.54-11.96,31.05-17.57,0,.98,0,1.95,0,2.93Z"/><path class="cls-25" d="m496,232.49c-2.44,13.34,1.26,83.45,1.35,106.6.05,12.06.43,24.27,0,36.31-2.1-.06-2.07,8.02-3.37,13.18-4.3,16.97-14.78,39.04-14.17,60.04-1.76,1.6-6.06,5.59-7.42,7.03-1.79-3.2,1.41-5.32-2.7-7.91,1.08-2,.59-4.07.67-6.15.72-17.91,9.88-34.74,11.47-52.42l-1.01.88-1.01-2.34c2.1-7.92,3.96-15.6,4.72-23.72,1.74-36.72.73-73.75,4.05-110.41,2.62.41.71-3.37,1.35-4.98.57-1.43,4.63-1.55,4.72-1.76,1.03-2.16-1.74-14.03,1.35-14.35Z"/><path class="cls-18" d="m549.32,182.12c-7.73,16.24-40.86,38.34-42.52,40.71-.36.51-2.64,5.55-2.7,5.86-.87,4.67-.23,62.42-1.35,79.66-.53,8.22-1.82,27.05-5.4,30.75-.09-23.15-3.79-93.26-1.35-106.6,3.14-17.16,37.29-40.48,53.32-50.37Z"/><path class="cls-13" d="m497.35,375.41c-.17,4.9.48,11.09,0,15.52-.92,8.48-10.08,39.34-6.07,46.86.28.53,1.43.24,2.02.29-4.88,3.22-9.25,6.69-13.5,10.54-.61-21,9.88-43.07,14.17-60.04,1.31-5.16,1.27-13.24,3.37-13.18Z"/><path class="cls-6" d="m470.35,441.59c-.08,2.08.4,4.15-.67,6.15,4.11,2.59.91,4.71,2.7,7.91-.61.64-2.24,4.8-4.72,4.69,1.25-6.99.17-14.1.67-21.09q1.01,1.17,2.02,2.34Z"/><path class="cls-11" d="m470.35,441.59q-1.01-1.17-2.02-2.34c2.32-31.9,4.98-27.04,11.47-51.54l1.01,2.34,1.01-.88c-1.59,17.68-10.75,34.52-11.47,52.42Z"/><path class="cls-10" d="m504.48,1.52c-32.16-.99-188.35.21-220.78-1.52h227.52c-2.19.66-4.57,1.28-6.74,1.52Z"/><path class="cls-8" d="m384.15,667.38c1.5,4.98,6.87,5.63,11.39,6.83,44.39,11.82,120.62,8.83,168.86,9.76,5.15,6.09,11.3,12.79,16.84,18.55-21.41-1.99-42.94-.47-64.37-.98-24.69-.58-49.2-1.35-73.78-3.91-6.3-2.65-13.16-2.95-19.81-3.91-.79-.11-.2-1.84-.99-1.95-7.2-1.03-19.49.18-25.75-3.91-6.6-.21-13.82-.88-20.3-1.95-14.18-2.34-28.54-3.7-42.59-6.83-15.29-3.41-28.02-4.56-24.76-11.72,25.09,0,50.18.04,75.27,0Z"/><path class="cls-8" d="m546.57,667.38c.25.03-.62,1.51,4.95.98,3.84,5.55,8.52,10.48,12.87,15.62-48.24-.93-124.46,2.05-168.86-9.76-4.51-1.2-9.89-1.86-11.39-6.83,30.72-.05,150.7-1.24,162.42,0Z"/><path class="cls-24" d="m604.32,724.98h-16.97c-5.47-6.96-3.45-16.02-8.61-19.53-20.6-.44-41.31.6-61.89,0v-3.9c21.44.5,42.96-1.01,64.38.98,7.39,7.7,16.03,14.37,23.09,22.45Z"/><path class="cls-8" d="m308.88,667.38c-3.26,7.15,9.46,8.3,24.76,11.72-.09.86.4,2.52-.5,2.93-2.38,1.09-46.83.49-52.49,0-13.57-1.16-27.25-6.41-40.6-8.79-11-1.96-19.3,1.4-17.33-4.88,28.74.03,57.42-.98,86.16-.98Z"/><path class="cls-24" d="m587.36,724.98H1.67c2.95-2.56,6.59-7.95,10.11-11.71,1.84-1.97,2.69-3.51,3.95-4.88,4.85-5.29,9.19-10.18,13.86-15.62,6.29-7.34,13.53-14.12,19.8-21.48,3.8-.42,5.37-.35,5.96-4.88,55.77.69,111.59,1.9,167.36,1.96-1.95,6.28,6.34,2.91,17.33,4.88,13.36,2.38,27.04,7.62,40.61,8.78,5.67.48,50.11,1.08,52.5,0,.88-.41.4-2.06.48-2.94,14.05,3.15,28.41,4.5,42.59,6.84q-3.22.98-6.44,1.96c20.42,1.36,38.5,3.57,57.44,10.74,1.02.38,6.46-2.27,2.97,1.94-37.25,1.34-74.67.32-111.91.98-.32,0-5.62,1.94-5.94,1.96-15.41.23-31.13-.33-46.54-.98v1.94q96.06-.96,192.13-1.94c19.59,1.45,39.29,2.35,58.92,2.92,20.59.6,41.29-.44,61.89,0,5.15,3.51,3.14,12.57,8.61,19.53Z"/><path class="cls-24" d="m516.85,701.55v3.91c-19.63-.57-39.33-1.48-58.93-2.93l-192.13,1.95v-1.95c15.42.65,31.13,1.2,46.55.98.31,0,5.63-1.95,5.94-1.95,37.23-.66,74.66.36,111.91-.98,3.49-4.22-1.96-1.57-2.97-1.95-18.94-7.17-37.02-9.37-57.44-10.74q3.22-.98,6.44-1.95c6.48,1.07,13.7,1.75,20.3,1.95,6.26,4.08,18.55,2.88,25.75,3.91.79.11.2,1.84.99,1.95,6.65.95,13.5,1.25,19.81,3.91,24.58,2.55,49.09,3.32,73.78,3.91Z"/><path class="cls-24" d="m144.97,684.95c33.24.06,66.32,1.47,99.53,2.44-27.13.69-184.36,3.43-193.62.49-.52-.17-1.99-1.69-.99-1.95,31.66,1.1,63.45-1.04,95.07-.98Z"/><path class="cls-14" d="m13.75,19.1c-1.28-1.42-2.79-2.59-3.95-3.9C6.39,11.42,3.54,7.11,0,3.42V0h283.7c32.43,1.73,188.61.53,220.78,1.52,2.17-.24,4.55-.86,6.74-1.52h103.45v1.46c-.25.41-.57.87-.93,1.37-.18.27-.4.54-.6.83-.4.51-.83,1.05-1.32,1.64-.27.36-.57.72-.87,1.1-2.65,3.31-7.31,5.77-9.41,9.76q-233.74-1.46-467.46-2.92c-17.4,5.27-107.4-.3-112.89.98-8.56,1.99,8.86,11.9-7.44,4.88Z"/><path class="cls-26" d="m221.73,60.11c69.65.25,139.32.14,208.97,0,43.58-.09,87.15.34,130.73-.98-.93,1.68-.56,7.33-.99,8.3-.14.32-5.12,1.31-5.94,3.91-.81,2.55,1.14,15.83-2.97,16.11,1.48-19.91-3.15-13.67-3.96-14.64-.4-.48,2.05-1.71.5-2.93-92.59,1.78-185.2.98-277.8.98H53.37c-.26-3.54.7-6.23-.99-9.76l2.97-2.93c55.32,3.42,110.93,1.76,166.38,1.95Z"/><path class="cls-24" d="m574.3,42.53c-3.84,4.83-7.67,9.34-10.89,14.64-.07.12-.98.14-1.98,1.95-43.57,1.32-87.15.89-130.73.98,8.43-2.58,17.77.11,26.24-.98.89-.11-.42-4.01,3.96,0,2.36-4.59-2.86-5.94-.99-8.79,4.36-6.63,100.78-10.08,114.39-7.81Z"/><path class="cls-26" d="m614.67,724.98h-10.34c-7.06-8.08-15.7-14.75-23.09-22.45-5.54-5.77-11.69-12.47-16.85-18.56-4.35-5.14-9.03-10.06-12.86-15.61-.12-55.32.15-110.66,0-165.98-.4-138.31.28-276.63,0-414.94,4.1-.27,2.15-13.56,2.97-16.11.82-2.59,5.79-3.59,5.94-3.9.42-.96.07-6.63.98-8.3,1-1.82,1.92-1.84,1.99-1.96h.98c-.28.54-.8,3.95-2.97,6.34-1.38,201.45-1.5,402.9,0,604.35.45,2.23,23.07,23.92,26.74,27.83,1.94,2.06,4.05,3.87,5.94,5.86,1.62,1.7,3.4,3.24,4.95,4.88,4.44,4.72,11.28,11.92,15.61,17.08v1.46Z"/><path class="cls-26" d="m614.67,723.52c-4.34-5.17-11.18-12.37-15.61-17.08q2.97-2.68,5.94-5.36c-2.02-72.23,1.52-144.54,0-216.76-.47-22.95.2-48.51-3.95-70.28-.57-2.92-3.9-4.58-3.97-4.88-2.34-10.8,1.55-175.73,1-206.99q1.97.5,3.95.98v149.38c14.15,14.93,4.17-24.77,11.89-25.87.22,80.89-1.13,161.73-1.99,242.61.08,1.63.17,3.21.25,4.73.07,1.14.12,2.24.18,3.31.18,3.25.33,6.24.48,9.02.07.99.12,1.94.17,2.89.03.56.05,1.11.08,1.67.05.81.08,1.61.13,2.38.08,1.63.17,3.16.25,4.66.08,1.49.15,2.92.23,4.31.12,2.31.23,4.46.35,6.57.03.42.05.84.07,1.27.02.18.02.36.03.54.03.65.07,1.28.1,1.93.02.08.02.15.02.23.03.71.08,1.43.12,2.14.1,1.66.18,3.33.27,5.03v103.58Z"/><path class="cls-26" d="m614.67,619.94c-.08-1.7-.17-3.37-.27-5.03-.03-.71-.08-1.43-.12-2.14,0-.08,0-.15-.02-.23-.03-.65-.07-1.28-.1-1.93-.02-.18-.02-.36-.03-.54-.02-.42-.03-.84-.07-1.27-.12-2.11-.23-4.26-.35-6.57-.08-1.39-.15-2.82-.23-4.31-.08-1.49-.17-3.03-.25-4.66-.05-.77-.08-1.57-.13-2.38-.03-.56-.05-1.11-.08-1.67-.05-.95-.1-1.9-.17-2.89-.15-2.79-.3-5.77-.48-9.02-.05-1.07-.12-2.18-.18-3.31-.08-1.52-.17-3.1-.25-4.73.85-80.87,2.2-161.72,1.99-242.61-.12-41.31-.75-82.68-1-123.99-.18-32.77-.72-65.78,1-98.13-8.06-32.06,2.29-66.53-2.97-98.13.3-.38.6-.74.87-1.1.48-.59.92-1.13,1.32-1.64.22-.29.42-.57.6-.83.37-.5.68-.96.93-1.37v618.48Z"/><path class="cls-21" d="m612.92,202.65c.24,41.32.87,82.69.99,123.99-7.71,1.1,2.26,40.81-11.88,25.87v-149.38l-3.96-.98c.55,31.26-3.34,196.18-.99,206.98.07.31,3.4,1.97,3.96,4.88,4.16,21.78,3.48,47.34,3.96,70.3,1.51,72.21-2.03,144.53,0,216.74q-2.97,2.68-5.94,5.37c-1.55-1.64-3.34-3.18-4.95-4.88q-1.49-72-2.97-144.01c-4.37-2.17-1.57,2.88-4.95,2.44-1.2-13.99-3.88-8.66-3.96-9.28-.1-.73.55-10.53,0-14.64-1.07-8.08-4.24-18.04-4.95-26.36-1.83-21.4-1.62-49.16-1.98-71.27-2.17-132.02,3.88-264.35,2.97-396.39-2.64,2.55-13.38,14.23-13.87,15.13h-.99c3.23-5.3,7.06-9.81,10.89-14.64,1.55-1.95,3.35-3.91,4.95-5.86,3.54-4.29,9.68-8.75,8.42-10.74-93.81-1.33-187.47,4.26-281.26,4.88-47.41,3.77-97.12,5.36-142.61,11.72H43.46c-4.12-4.74-17.3-13.08-11.39-15.62,131.49.52,263.44-1.47,394.66-1.46q-2.72-.24-5.45-.49v-1.95c39.96.44,79.93-3.39,119.83-3.91,18.33-.24,37.27,2.53,55.46,1.95.65-.02,2.16-3.61,4.95-2.93,7.84,51.09,2.58,127.06,7.43,171.34.48,4.41,2.05,9.13,3.96,13.18Z"/><path class="cls-21" d="m586.18,559.98c3.85,44.81.25,90.78,1.98,135.71-3.66-3.9-26.29-25.61-26.74-27.83-1.5-201.45-1.39-402.9,0-604.34,2.16-2.4,2.68-5.8,2.97-6.35.48-.9,11.22-12.59,13.87-15.13.9,132.04-5.14,264.37-2.97,396.39.36,22.11.15,49.88,1.98,71.27.71,8.32,3.88,18.29,4.95,26.36.55,4.11-.1,13.92,0,14.64.08.61,2.76-4.71,3.96,9.28Z"/><path class="cls-26" d="m594.1,701.55c-1.89-1.99-4-3.79-5.94-5.86-1.74-44.93,1.87-90.9-1.98-135.71,3.38.44.59-4.61,4.95-2.44q1.49,72,2.97,144.01Z"/><path class="cls-26" d="m612.92,202.65c-1.91-4.05-3.48-8.77-3.96-13.18-4.85-44.28.41-120.25-7.43-171.34-2.79-.68-4.3,2.91-4.95,2.93-18.19.58-37.13-2.19-55.46-1.95-39.9.52-79.88,4.35-119.83,3.91v1.95q2.72.24,5.45.49c-131.22,0-263.16,1.99-394.66,1.46-5.91,2.55,7.27,10.88,11.39,15.62,4.26,4.91,8.7,9.92,11.88,15.62l-2.97,2.93c-.48-1-13.72-13.26-15.85-15.62-2.07-6.25-9.19-10.26-12.87-14.64-3.32-3.94-6.43-7.87-9.9-11.72,16.29,7.02-1.12-2.89,7.43-4.88,5.5-1.28,95.5,4.3,112.9-.98q233.72,1.46,467.45,2.93c2.12-4,6.76-6.46,9.41-9.76,5.26,31.59-5.08,66.05,2.97,98.12-1.72,32.34-1.18,65.36-.99,98.12Z"/><path class="cls-23" d="m579.25,36.68c0-.66.24-1.78-.5-1.95-14.31-3.36-109.65,3.29-132.71,4.88-.91.06-.08,2.86-.99,2.93-36.4,2.63-173.36-2.79-189.16,0-.96.17-.03,2.72-.99,2.93-2.91.62-21.97,2.94-18.32,7.32.86,1.04,5.64-.22,5.94,1.95.76,5.44-17.48,3.76-20.8,5.37-55.45-.2-111.06,1.47-166.38-1.95-3.18-5.7-7.63-10.72-11.88-15.62h120.33c45.5-6.36,95.2-7.95,142.61-11.72,93.79-.62,187.46-6.21,281.26-4.88,1.27,1.99-4.88,6.45-8.42,10.74Z"/><path class="cls-17" d="m579.25,36.68c-1.61,1.95-3.4,3.91-4.95,5.86-13.61-2.27-110.03,1.18-114.39,7.81-1.87,2.85,3.35,4.19.99,8.79-4.38-4.01-3.08-.11-3.96,0-8.47,1.09-17.81-1.61-26.24.98-69.65.14-139.32.25-208.97,0,3.32-1.61,21.56.07,20.8-5.37-.31-2.18-5.08-.92-5.94-1.95-3.64-4.38,15.41-6.7,18.32-7.32.97-.21.03-2.76.99-2.93,15.8-2.79,152.75,2.63,189.16,0,.91-.07.08-2.87.99-2.93,23.06-1.59,118.39-8.24,132.71-4.88.74.17.5,1.29.5,1.95Z"/><path class="cls-3" d="m1.67,724.98H0V19.65c3.59-1.63,4.59-2.08,9.79-4.44,1.17,1.31,2.67,2.49,3.95,3.9,3.49,3.84,6.59,7.77,9.91,11.71h-.98q-2.97-2.18-5.96-4.38c1.67,52.05,1.08,104.15,1,156.21-.02,6.09-1.99,13.45-1.99,19.53.1,85.61,5.57,171.18,1.99,256.77q1.48,25.64,2.97,51.27c-2.95,36.52-1,73.28-2.97,109.83-1.67,30.87-10.23,62.39-5.94,93.24-3.52,3.75-7.16,9.15-10.11,11.71Z"/><path class="cls-24" d="m0,19.65V3.42c3.54,3.69,6.39,8,9.79,11.78-5.21,2.37-6.21,2.82-9.79,4.44Z"/><path class="cls-17" d="m54.36,507.26c-7.88,20.49-2.57,46.84-2.97,69.81,0,.18-1.98,2.75-1.98,2.93-.4,24.55,2.44,67.61,0,88.85-.09.75-4.05,2.51,0,2.44-6.28,7.36-13.53,14.15-19.81,21.48,2.32-19.17,4.33-38.29,4.95-57.6,1.71-53.11-1.46-106.51,0-159.63.51-18.55,2.88-37.14,3.96-55.65.47-8-.86-36.49,0-39.05.2-.6,8.16-8.07,9.9-4.88,1-28.65,1.08-57.3,1.98-85.92.01-.46,2.32,1.79,0-7.81,2.96-11.16.74-29.67.99-42.96.1-5.13,1.9-11.47,1.98-16.6.8-50.58-.64-101.23,0-151.82h.99c-.06,145.47.08,290.94,0,436.42Z"/><path class="cls-17" d="m23.66,625.4c.03.15,2.68-.43,2.97.49.16,7.29-.28,11.99,7.92,9.28-.62,19.31-2.63,38.44-4.95,57.6-4.67,5.45-9.02,10.33-13.87,15.62-1.81-27.95,2.68-56.79,6.44-83.96l1.49.98Z"/><path class="cls-17" d="m22.66,510.19c.04,15.7-.15,109.56.99,115.21l-1.49-.98c-3.75,27.17-8.25,56.01-6.44,83.96-1.26,1.38-2.12,2.91-3.96,4.88-4.28-30.85,4.27-62.37,5.94-93.24,1.98-36.54.02-73.31,2.97-109.84h1.98Z"/><path class="cls-21" d="m55.35,666.4c-.58,4.54-2.14,4.46-5.94,4.88-4.05.07-.09-1.69,0-2.44,2.44-21.24-.4-64.3,0-88.85,0-.18,1.98-2.75,1.98-2.93.4-22.97-4.91-49.32,2.97-69.81-.01,23.72,2,151.25.99,159.14Z"/><path class="cls-24" d="m52.38,61.08c1.69,3.54.73,6.22.99,9.76-.64,50.59.8,101.24,0,151.82-.08,5.13-1.88,11.47-1.98,16.6-.25,13.28,1.97,31.79-.99,42.96,2.32,9.6.01,7.35,0,7.81-.9,28.61-.98,57.27-1.98,85.92-1.74-3.19-9.7,4.28-9.9,4.88-.86,2.57.47,31.05,0,39.05-1.08,18.51-3.45,37.1-3.96,55.65-1.46,53.12,1.71,106.52,0,159.63-8.2,2.71-7.76-1.99-7.92-9.28-.29-.92-2.94-.34-2.97-.49-1.14-5.65-.95-99.5-.99-115.21-.14-58.91,1.27-117.78.99-176.71,4.37,7.36-.57,3.99,6.93,9.28.89.63-1.6,1.81-.5,2.44,4.29,2.46,2.18-7.43,6.44-6.35-2.65-97.94,6.27-195.52,0-293.39,2.13,2.36,15.37,14.62,15.85,15.62Z"/><path class="cls-8" d="m36.53,45.46c6.27,97.86-2.65,195.44,0,293.39-4.25-1.08-2.15,8.8-6.44,6.35-1.11-.63,1.38-1.81.5-2.44-7.5-5.28-2.57-1.92-6.93-9.28-.08-16.29-1.91-33.02-1.98-49.3-.37-84.44-.46-168.92.99-253.36h.99c3.69,4.38,10.8,8.4,12.87,14.64Z"/><path class="cls-24" d="m22.66,30.82c-1.45,84.43-1.36,168.92-.99,253.36.07,16.28,1.9,33.02,1.98,49.3.28,58.94-1.13,117.81-.99,176.71h-1.98q-1.49-25.63-2.97-51.26c3.59-85.6-1.88-171.17-1.98-256.77,0-6.08,1.97-13.44,1.98-19.53.09-52.06.67-104.16-.99-156.21q2.97,2.2,5.94,4.39Z"/><path class="cls-5" d="m542.46,717.77c-.14,0-.27,0-.4,0-.02,0-.05.03-.07.05l-.26.26c-.09.09-.2.14-.34.14h-2.1c-.22,0-.38-.13-.45-.34,0,0,0-.02-.01-.03v-4.25s.01-.03.02-.05c.06-.18.22-.31.41-.32h5.75s.05,0,.08,0c.06.01.09.05.09.11,0,.06-.04.1-.1.1-.02,0-.05,0-.07,0h-5.67c-.06,0-.12,0-.17.03-.08.04-.12.12-.12.22v4.07c0,.16.1.25.27.25h2.08c.07,0,.14-.02.19-.08.09-.09.18-.18.27-.27.07-.07.16-.11.26-.11.15,0,.3,0,.45,0,.08,0,.12.04.12.12,0,.11,0,.22,0,.33.17,0,.34,0,.51,0,.04,0,.09-.04.13-.07.21-.16.43-.32.64-.48.11-.08.24-.13.38-.13.42,0,.83,0,1.26,0,.19,0,.28-.09.28-.28v-3.32c0-.19-.09-.28-.28-.28-.02,0-.05,0-.07,0-.06,0-.1-.03-.1-.1,0-.06.03-.1.09-.11.3-.06.58.16.58.46v3.39c0,.27-.2.46-.47.46h-1.27c-.11,0-.2.03-.28.09-.21.16-.42.31-.62.47-.11.08-.23.13-.36.12-.13,0-.26,0-.38,0-.15,0-.24-.09-.24-.24,0-.07,0-.14,0-.21Z"/><path class="cls-5" d="m539.75,717.76c-.06,0-.09-.06-.08-.12.02-.13.05-.26.07-.39.1-.64.13-1.29.1-1.94-.01-.48-.07-.97-.16-1.45-.02-.1,0-.16.08-.16.06,0,.11.03.13.13.12.63.17,1.27.17,1.91s-.05,1.27-.17,1.9c0,.02,0,.04-.01.06-.02.05-.06.08-.12.07Z"/><path class="cls-5" d="m541.04,714.35c-.07,0-.12.06-.12.16v.51c0,.09-.04.13-.11.13s-.11-.05-.11-.13v-.74c0-.11.06-.15.16-.11.01,0,.03,0,.05,0,.13-.04.24-.02.34.06.16-.11.31-.11.43-.02.08.06.13.15.14.25v.58c0,.07-.04.11-.1.11s-.11-.04-.11-.11c0-.16,0-.33,0-.5v-.08c0-.06-.06-.11-.12-.1-.06,0-.1.03-.12.09,0,.04,0,.08,0,.12,0,.15,0,.31,0,.46,0,.08-.04.13-.11.13-.06,0-.1-.04-.1-.13,0-.17,0-.34,0-.52,0-.09-.04-.15-.12-.15Z"/><path class="cls-5" d="m542.19,716.95c.26-.07.41-.25.46-.51.05-.27-.02-.5-.23-.68-.15-.13-.32-.14-.51-.14-.1,0-.14.04-.14.15v.53c0,.18,0,.36,0,.55,0,.08.03.13.1.13.1,0,.21,0,.32-.02Zm-.21-.19v-.23c0-.21,0-.41,0-.62,0-.07.02-.08.08-.08.22.01.38.21.39.46,0,.27-.18.48-.43.47,0,0-.02,0-.04,0Z"/><path class="cls-5" d="m540.8,716.89c-.09-.05-.15-.14-.16-.24,0-.07.02-.13.09-.14.06,0,.11.03.12.1.02.08.08.14.18.14.08,0,.16,0,.22-.04.09-.04.09-.15.01-.2-.05-.04-.12-.06-.18-.09-.07-.03-.14-.05-.21-.09-.17-.08-.26-.23-.24-.38.02-.16.16-.29.34-.32.04,0,.08,0,.1,0,.15,0,.27.05.37.15.05.06.08.13.08.21,0,.06-.04.09-.09.1-.05,0-.09-.02-.11-.07-.06-.16-.25-.23-.4-.13-.09.06-.1.16-.01.22.06.04.14.07.21.1.07.03.15.05.21.09.15.08.23.2.2.37-.02.16-.14.24-.28.29-.16.05-.31.03-.45-.05Z"/><path class="cls-5" d="m545.13,714.69s0-.08,0-.12c-.01-.33-.36-.53-.65-.38-.18.1-.25.25-.24.45v.05c0,.26.19.45.45.45s.45-.19.45-.46Zm-.68,0v-.05c0-.16.05-.25.17-.29.15-.04.29.06.3.21,0,.04,0,.08,0,.12,0,.14-.11.24-.24.24s-.23-.1-.23-.24Z"/><path class="cls-5" d="m542.44,714.8c0-.05,0-.11-.01-.16,0-.28.15-.47.4-.5.13-.01.24.02.33.11.05.04.06.1.02.15-.03.04-.09.05-.15.02-.05-.03-.12-.06-.17-.06-.1,0-.19.08-.21.18-.01.07-.01.15,0,.21.03.16.21.24.35.15,0,0,.02-.01.03-.02.06-.04.12-.03.16.02.04.04.02.11-.03.16-.25.21-.65.07-.72-.25Z"/><path class="cls-5" d="m543.37,715.05c0-.27,0-.54,0-.8,0-.03.03-.08.06-.09.03,0,.08.01.12.02,0,0,.02.02.03.03.17-.09.33-.09.49.02.08.05.09.12.05.17-.04.05-.1.05-.17,0-.08-.05-.16-.06-.25-.02-.08.04-.13.12-.13.21,0,.14,0,.29,0,.43,0,.04-.02.08-.05.11-.06.05-.16,0-.16-.08Z"/><path class="cls-5" d="m544.65,716.71s-.04-.1,0-.15c.1-.11.21-.21.31-.31.02-.02.04-.03.08-.06-.13-.13-.24-.24-.35-.35-.01-.02-.03-.03-.04-.05-.03-.05-.03-.1,0-.14.04-.04.1-.05.14,0,.16.15.31.31.47.47.04.04.04.1,0,.15-.15.15-.3.3-.45.45-.05.04-.11.04-.16,0Z"/><path class="cls-5" d="m542.15,715.15c-.07,0-.11-.04-.11-.13v-.74c0-.08.04-.13.11-.13.06,0,.11.05.11.13v.74c0,.08-.04.13-.11.13Z"/><path class="cls-5" d="m536.15,716.68c-.14-.57-.63-.94-1.23-.94h-3.71c-.43,0-.86,0-1.3,0-.79.02-1.36.78-1.17,1.54.14.56.64.94,1.24.94h3.47c.51,0,1.01,0,1.52,0,.57,0,1.05-.4,1.18-.96.02-.05.02-.1.03-.16v-.26c0-.05-.02-.11-.04-.16Zm-1.21,1.23c-.83,0-1.66,0-2.5,0h-2.47c-.46,0-.83-.31-.93-.76-.11-.55.31-1.09.88-1.12h5.01c.45,0,.83.3.93.73.13.58-.31,1.13-.91,1.13Z"/><path class="cls-5" d="m534.95,716.97c0,.07-.04.13-.1.15-.04.01-.07.01-.11.01h-4.55s-.07,0-.1-.01c-.07-.02-.12-.07-.11-.15,0-.07.04-.13.11-.14.03,0,.06,0,.08,0h4.59s.07,0,.1,0c.07.02.1.07.1.14Z"/><path class="cls-5" d="m534.67,714.91h-.31s-.03-.01-.03-.03v-.08s-.03,0-.03,0c-.08,0-.17,0-.25,0-.05,0-.08-.02-.11-.05-.17-.17-.33-.34-.5-.51-.01-.01-.03-.02-.05-.02-.09,0-.18,0-.27,0-.02,0-.03,0-.04.02-.05.08-.11.13-.21.13s-.17-.05-.22-.13c-.01-.02-.01-.05-.02-.07v-.06s.02-.08.05-.12c.09-.12.26-.12.36,0,0,0,0,0,.01.01,0,0,.01-.01.02-.02.15-.15.3-.29.44-.44.03-.03.06-.04.1-.04.13,0,.26,0,.4,0,.02,0,.03,0,.04-.02.05-.07.14-.1.22-.08.08.03.14.1.14.18,0,.09-.05.16-.14.19-.08.03-.17,0-.21-.08,0-.01-.02-.02-.03-.02-.12,0-.24,0-.36,0,0,0-.02,0-.03.01-.12.12-.24.23-.36.35,0,0,0,0,0,0h1.56s0-.12,0-.12c0-.03.02-.05.05-.04.19.08.38.15.57.23,0,0,.02.01.02.02,0,0-.01.02-.02.03-.19.08-.38.16-.57.23-.03.01-.05,0-.05-.03v-.14s-1.15,0-1.15,0c0,0,0,.01.01.02.12.12.23.24.35.36.01.01.03.02.05.02h.25s0-.08,0-.08c0-.02,0-.03.03-.03h.31s.03,0,.03.03c0,.11,0,.23,0,.34,0,.02,0,.03-.03.03Z"/><path class="cls-5" d="m530.59,714.58c.02-.15-.08-.26-.28-.33l-.28-.08c-.26-.09-.39-.24-.37-.44,0-.15.08-.27.21-.36s.28-.14.46-.14c.18,0,.32.05.43.15s.16.23.15.39h-.2c0-.11-.03-.19-.1-.26s-.17-.1-.29-.1c-.13,0-.23.03-.32.09s-.13.14-.15.23c-.02.14.07.24.26.3l.21.06.11.04c.25.09.37.25.35.46,0,.14-.07.26-.19.35s-.26.14-.45.15h-.07c-.12,0-.23-.02-.33-.07s-.17-.11-.22-.19-.07-.17-.07-.28h.2c0,.11.04.2.11.27s.18.1.31.1c.13,0,.24-.03.34-.09s.15-.14.16-.24Z"/><path class="cls-5" d="m532.27,714.58c.02-.15-.08-.26-.28-.33l-.28-.08c-.26-.09-.39-.24-.37-.44,0-.15.08-.27.21-.36s.28-.14.46-.14c.18,0,.32.05.43.15s.16.23.15.39h-.2c0-.11-.03-.19-.1-.26s-.17-.1-.29-.1c-.13,0-.23.03-.32.09s-.13.14-.15.23c-.02.14.07.24.26.3l.21.06.11.04c.25.09.37.25.35.46,0,.14-.07.26-.19.35s-.26.14-.45.15h-.07c-.12,0-.23-.02-.33-.07s-.17-.11-.22-.19-.07-.17-.07-.28h.2c0,.11.04.2.11.27s.18.1.31.1c.13,0,.24-.03.34-.09s.15-.14.16-.24Z"/><line class="cls-27" x1="630.33" y1="62.49" x2="630.33" y2="662.49"/><line class="cls-27" x1="557.33" y1="737.09" x2="57.33" y2="737.09"/><text class="cls-1" transform="translate(623.22 675.01)"><tspan x="0" y="0">600 mm</tspan></text><text class="cls-1" transform="translate(564.39 739.49)"><tspan x="0" y="0">500 mm</tspan></text></g></svg>