<?xml version="1.0" encoding="UTF-8"?><svg id="Layer_2" xmlns="http://www.w3.org/2000/svg" xmlns:xlink="http://www.w3.org/1999/xlink" viewBox="0 0 779.71 636.25"><defs><style>.cls-1{fill:#1e1027;}.cls-1,.cls-2,.cls-3,.cls-4,.cls-5,.cls-6,.cls-7,.cls-8,.cls-9,.cls-10,.cls-11,.cls-12,.cls-13,.cls-14,.cls-15,.cls-16,.cls-17,.cls-18,.cls-19,.cls-20,.cls-21,.cls-22,.cls-23,.cls-24,.cls-25,.cls-26,.cls-27,.cls-28,.cls-29,.cls-30,.cls-31,.cls-32,.cls-33,.cls-34,.cls-35,.cls-36,.cls-37,.cls-38,.cls-39,.cls-40,.cls-41,.cls-42,.cls-43,.cls-44,.cls-45,.cls-46,.cls-47,.cls-48,.cls-49,.cls-50,.cls-51,.cls-52,.cls-53,.cls-54,.cls-55,.cls-56,.cls-57,.cls-58{stroke-width:0px;}.cls-2{fill:#a76a5e;}.cls-3{fill:#8a5046;}.cls-59{fill:#4d4d4d;font-family:Roboto-Light, Roboto;font-size:12px;font-weight:300;}.cls-4{fill:#ce9c77;}.cls-60{fill:none;stroke:#4d4d4d;stroke-linecap:round;stroke-miterlimit:10;}.cls-5{fill:url(#linear-gradient);}.cls-6{fill:#db9c86;}.cls-7{fill:#4771b2;}.cls-8{fill:#87614f;}.cls-9{fill:#db8a63;}.cls-10{fill:#482a2b;}.cls-11{fill:#f5d0a7;}.cls-12{fill:#c4ada3;}.cls-13{fill:#57262e;}.cls-14{fill:#723744;}.cls-15{fill:#a67c52;}.cls-16{fill:#e8e1d0;}.cls-17{fill:#7f6c7d;}.cls-18{fill:#1a4c6e;}.cls-19{fill:#2b1646;}.cls-20{fill:#ad7f60;}.cls-21{fill:#d3dddc;}.cls-22{fill:#59223a;}.cls-23{fill:#edb481;}.cls-24{fill:#3295b5;}.cls-25{fill:#99a9b2;}.cls-26{fill:#342823;}.cls-27{fill:#161426;}.cls-28{fill:#b26b51;}.cls-29{fill:#66729f;}.cls-30{fill:#b5806e;}.cls-31{fill:#090a0e;}.cls-32{fill:#a6a3ac;}.cls-33{fill:#c48278;}.cls-34{fill:#2b190e;}.cls-35{fill:#9e5a4b;}.cls-36{fill:#e4b39c;}.cls-37{fill:#735b70;}.cls-38{fill:#bf9685;}.cls-39{fill:#956a72;}.cls-40{fill:#905736;}.cls-41{fill:#3f183e;}.cls-42{fill:#a69197;}.cls-43{fill:#3c407c;}.cls-44{fill:#633824;}.cls-45{fill:#361a21;}.cls-46{fill:#d8d5d7;}.cls-47{fill:#6c413b;}.cls-48{fill:#43192b;}.cls-49{fill:#331029;}.cls-50{fill:#744730;}.cls-51{fill:#4a5793;}.cls-52{fill:#282c2f;}.cls-53{fill:#7a4f54;}.cls-54{fill:#9a6949;}.cls-55{fill:#3158a0;}.cls-56{fill:#92978c;}.cls-57{fill:#472917;}.cls-58{fill:#7db9cc;}</style><linearGradient id="linear-gradient" x1="648.82" y1="519.11" x2="144.88" y2="674.85" gradientUnits="userSpaceOnUse"><stop offset="0" stop-color="#a67759"/><stop offset="1" stop-color="#905837"/></linearGradient></defs><g id="Layer_1-2"><g id="Background"><rect class="cls-24" x="68.11" y="62.33" width="600" height="500"/><path class="cls-24" d="m68.17,112.04c.06-16.57-.05-33.14,0-49.71h599.87c.04,18.36-.06,36.72,0,55.08-32.98,1.01-66.05-1.71-99-1.34-17.4-11.27-11.5-3.98-16.7-2.69-.8.2-15.51-1.06-16.4-1.34-5.78-1.81-4.21-4.39-4.98-8.06-.69-3.34-4.82-1.33-7.91-1.34-.44,0-.15-1.36-.59-1.34-6.24.23-5.16,4.21-13.47,4.03-8.31,14.17-18.15-1.24-24.31,12.09-6.33,2.57-17.55-1.06-23.73-4.03l-1.46-2.02c5.18-2.71-1.32-5.57-4.1-6.72-.06-.03.44-.22-1.17-.67-1.38-.38-2.13-.5-3.51-.67-.19-.02-.39.02-.59,0-3.12-4.71-7.57-.12-8.2,0-.33.06-3.42-3.61-5.27,2.02-7.6,4.64-1.86,3.98-3.81,6.05-.56.59-6.71.83-14.94,3.36-5.36,1.65-13.82,6.18-19.04,4.7-1.49-.42-10.26-12.27-5.27-.67-11.11-5.35-9.38-.08-9.96,0-6.07.79-16.06-.59-22.85,0-10.36-7.11-25.53-.4-44.23-5.37-10.66-2.84-17.28-7.69-22.55-18.81l-1.17-.67c-.37.06-1.98,3.44-2.64,4.03-10.52,9.51-22.77,12.97-35.44,16.79-11.6-1.61-23.91-1.99-35.73-2.02-50.29-.09-100.56-.74-150.85-.67Z"/><path class="cls-27" d="m86.33,330.36c3.12,16.4,8.66,31.52,14.06,47.02,6.32,18.16,15.62,43.11,24.02,59.79,3.5,6.95,6.9,13.56,11.72,19.48,13.91,17.11,40.29,30.43,58,52.4,6.15,7.63,9.98,18,17.57,24.18,14.2,10.5,30.43,17.3,43.94,28.88-54.47-.04-108.98.52-163.44,0-1.16-9.79-7.01-31.09-7.62-37.95-.81-9.1-.33-141.29,0-163.91.08-5.34-.06-26.44.59-29.56.1-.5.78-.34,1.17-.34Z"/><path class="cls-9" d="m475.9,407.61c-.6.61-1.22,1.01-1.76,1.68-.06,1.25,4.96,2.74,5.86,3.02.09,34.42-2.37,78.45-.59,111.51.02.44-1.82,6.38.29,8.73,8.63,4.35,17.66,7.85,26.07,12.76q-2.64,8.4-5.27,16.79c-26.36.03-52.72-.01-79.08,0-37.17-25.12-93.89-37.5-28.12-82.62,17.52-12.02,53.09-29.55,73.81-44q-2.34-6.38-4.69-12.76c1.54-1.89,9.64-9.47,9.96-10.75.45-1.77-.98-28.2-1.17-33.92-.07-2.17.66-5.44.59-8.06.82.41,3.01-2.11,3.51-1.01.79,1.71-2.45,33.33.59,38.63Z"/><path class="cls-31" d="m69.35,167.13c4.74,37.93,7.07,76.19,11.13,114.2,1.75,16.36,2.79,32.89,5.86,49.04-.39,0-1.07-.16-1.17.34-.65,3.12-.51,24.21-.59,29.56-.33,22.61-.81,154.81,0,163.91.61,6.87,6.46,28.16,7.62,37.95-8-.08-16.01.06-24.02,0,.15-131.89-.2-263.77,0-395.66.53-.08.64.73,1.17.67Z"/><path class="cls-31" d="m668.04,161.08c.12,71.43.05,142.86,0,214.29-27.1-.59-14.92.42-15.82,8.4-.61,5.41-13.7,22.04-19.92,22.5.4-2,1.92-3.71,2.34-5.71,3.77-17.9,9.77-121.96,14.06-159.88,2.49-21.98,6.7-44.36,8.2-66.17,1.56-4.32,2.63-9.06,4.1-13.43,2.33-.15,4.7.11,7.03,0Z"/><path class="cls-55" d="m355.81,469.41c.96,8.22,2.91,16.59,1.76,24.85-6.03,7.98-6.52,12.67-7.62,22.17-.13,1.13-.58,4.18-1.76,4.37-1.39,23.64,38.85,27.2,55.65,41.31-22.07.01-44.13.01-66.2,0-18.24-14-36.98-10.72-24.6-35.27,1.78-3.52,8.97-11.18,11.13-14.78,8.44-14.04,11.73-24.25,23.73-36.61,2.39-2.47,7.74-7.81,7.91-6.05Z"/><path class="cls-27" d="m668.04,484.19c-.03,15,.11,30.01,0,45.01q-14.35,16.46-28.7,32.92c-15.03.15-30.07-.04-45.11,0,23.17-27.63,47.64-54.03,73.81-77.92Z"/><path class="cls-23" d="m668.04,529.2c-.08,10.97.06,21.94,0,32.92-9.57.07-19.14-.09-28.7,0q14.35-16.46,28.7-32.92Z"/><path class="cls-36" d="m354.05,286.7c.76.07,1.57.02,2.34,0,.04,1.54,2.26,3.59,4.1,6.05,4.6,6.13,3.84,6.43,4.1,6.72-4.49,2.18-9.59,2.66-14.35,1.34-12.18-3.36-2.57-3.08.88-6.72.74-3.06-3.29-8.12,2.93-7.39Z"/><path class="cls-32" d="m448.95,180.56c-.28,6.76-.21,13.35-.59,20.15-7.08.71-14.74-1.47-15.82,7.05l15.23,1.68c-.13,1.06.16,2.36,0,3.36q-7.76,5.71-15.52,11.42c-7.62-1.5-15.37-4.57-23.14-4.03l-1.17.67c-4.42-2.46-8.16-6.3-11.72-10.08.37-4.1,5.93-.41,7.03-3.02,1.11-2.64-5.05-20.46-19.33-13.1-1.43-2.11-8.43-11.01-8.79-12.09-.27-.8-.41-.96-.59-2.02h74.4Z"/><path class="cls-51" d="m495.82,169.14c-.73,24.69-.74,49.38-4.1,73.89-.63.48-1.26,1.85-1.76,2.69-.38.64-4.18,4.18-5.27,5.37q-2.05-40.98-4.1-81.95c5.07-.15,10.16.11,15.23,0Z"/><path class="cls-58" d="m439.58,341.78v.67c.64,6.56.17,18.96,1.17,23.85,1.17,5.72,1.22-6.02,1.76-9.07q2.64,2.35,5.27,4.7c.34,9.59.86-1.92,4.98-12.76,9.54,36.22,5.37,15.56,8.2,15.45,2.46,4.89,4.68,11.41,4.98,17.13,2.29-5.34,3.05-14.7,5.27-3.69.19,5.72,1.62,32.15,1.17,33.92-.32,1.27-8.42,8.85-9.96,10.75q2.34,6.38,4.69,12.76c-20.72,14.45-56.29,31.98-73.81,44-5.2,2.1-10.19,4.84-15.23,7.39-11.64,5.9-17.28,7.05-24.02,20.15-1.55,3.02-3.4,5.9-4.1,9.4,1.1-9.5,1.59-14.19,7.62-22.17,3.86-5.11,8.89-8.08,13.47-12.09,1.11-.97,3.05-1.2,4.1-3.02q-1.76-10.24-3.51-20.49c7.99-6.06,16.61-10.09,25.19-14.78,2.11-1.15,5.47-1.69,7.32-2.69,12.92-6.97,25.47-15.09,38.66-21.5,3.58-21.77,16.47-21.17,14.35-32.58-1.8-9.71-54.16-35.6-64.73-38.63-4.04-3.1,7.44-15.67-4.98-17.47-.16-1.72-.39-3.64-.59-5.37-.08-.65.1-1.37,0-2.02,15.84,11.61,34.66,13.88,52.72,18.14Z"/><path class="cls-19" d="m368.11,463.36c.14,5.48,3.14,12.86,2.93,18.81-4.58,4.01-9.61,6.98-13.47,12.09,1.16-8.26-.8-16.63-1.76-24.85.48-5.03,8.25-5.97,10.84-9.4.86.79-.61,3.85,1.46,3.36Z"/><path class="cls-43" d="m371.62,458.66q1.76,10.24,3.51,20.49c-1.05,1.82-2.99,2.05-4.1,3.02.21-5.95-2.79-13.33-2.93-18.81-.04-1.48-.8-1.72-.59-2.35,1.37-1.73,3.91-2.21,4.1-2.35Z"/><path class="cls-7" d="m378.07,486.88c-7.87,7.09-17.21,11.56-24.02,20.15,6.74-13.1,12.38-14.25,24.02-20.15Z"/><path class="cls-36" d="m447.19,228.25c-1.63,4.04-3.45,8.16-5.27,12.09-2.38,5.13-5.15,9.2-7.03,14.78-.03.08-.99-.26-1.17.34-1.84,6.08-2.64,23.4-4.1,31.24-1.81-2.02-1.94-7.96-2.34-11.76-7.29,2.24-34.42,14.2-38.96,17.8-4.65,3.7-7.24,7.52-5.57,14.11,4.68,18.43,55.25,31.63,56.82,34.93-18.06-4.26-36.88-6.53-52.72-18.14-.24-1.61,0-2.07-.59-4.03-3.52-11.66-14.07-12.34-20.5-18.81,3.85-2.66,8.5-7.68,12.3-10.08,10.75-6.76,30.68-12.61,43.06-17.47l-2.05-1.34c1.73-.58,6.48-1.02,7.03-2.35-.24-4.55.32-9.24,0-13.77-.1-1.44.07-2.92,0-4.37-.4-.91-2.45-1.29-3.51-1.68l12.3-16.12c1.6.51,8.96-6.06,9.37-6.72l2.93,1.34Z"/><path class="cls-9" d="m378.07,290.73c-3.8,2.39-8.46,7.42-12.3,10.08-.06-.06-.77-.9-1.17-1.34-.26-.28.5-.59-4.1-6.72,4.95-1.57,16.23-4.54,17.57-2.02Z"/><path class="cls-9" d="m378.07,290.73c-1.35-2.53-12.62.45-17.57,2.02-1.84-2.45-4.06-4.51-4.1-6.05,7.32-.16,53.17-11.58,62.68-14.78l2.05,1.34c-12.38,4.86-32.31,10.7-43.06,17.47Z"/><path class="cls-12" d="m396.23,210.79c-4.83-5.13-8.3-10.22-12.3-16.12,14.28-7.36,20.44,10.46,19.33,13.1-1.1,2.61-6.66-1.08-7.03,3.02Z"/><path class="cls-12" d="m448.37,200.71c-.02.32,1.07,1.04.59,6.38-.02.28-1.16,2.22-1.17,2.35l-15.23-1.68c1.08-8.53,8.73-6.34,15.82-7.05Z"/><path class="cls-6" d="m434.89,233.63l-12.3,16.12c-2.03-.75-10.54-2.01-13.47-2.02-.03-4.7.03-9.4,0-14.11h25.78Z"/><path class="cls-18" d="m380.7,470.75c.57-.29,4.1,2.38-1.76,6.05-.83-.43,1.5-5.92,1.76-6.05Z"/></g><path class="cls-36" d="m553.23,509.04c.07.42-.02.91,0,1.34-1.14,1.08-1.97-.91-2.93,1.01-1.16,2.31-11.29,43.38-14.06,50.72-4.49,0-8.98,0-13.47,0-.36-2.03-6.95-4.75-7.03-5.71-.04-.51,4.25-3.93,6.44-7.05,4.89-6.97,19.99-32.69,23.43-40.3.13-.28,2.6-2.36,2.93-5.37,5.55-.38,4.26,2.8,4.69,5.37Z"/><path class="cls-6" d="m553.23,510.39c.44,9.64-8.67,39.41-9.96,51.72-2.34,0-4.69,0-7.03,0,2.77-7.34,12.9-48.41,14.06-50.72.96-1.92,1.79.07,2.93-1.01Z"/><path class="cls-23" d="m668.04,375.37c0,.67,0,1.34,0,2.02-1.65.59-3.24,2.62-4.69,3.36-.14.07-1.18.13-2.93,1.34-.25.17-.49-.96-2.05,0-1.36,1.25-1.37,3.21-1.46,3.36-3.39,5.11-5.46,10.94-8.2,16.46.64.98,1.56,1.58,2.34,2.35,1.98,1.93,6.78,4.1,9.37,5.37,2.99,1.47,5.01,1.9,5.27,2.02.12.06.95,1.49,2.34,1.34,0,1.57,0,3.13,0,4.7-14.57,7.19-33.82,11.3-45.4,22.84l-24.02-2.02c-14.62,12.91-25.14,30.08-36.61,46.35-2.61.44-5.37,3.33-8.2,3.36-1.38-4.47-5.54-3.81-5.86-4.03-.13-.09,0-.69-2.34-2.02-5.21-2.94-8.02-3.69-13.47-5.37-.29-.09-3.85-2.31-5.57-2.69-1.38.93-.62,2.27-.88,3.36l-2.34-1.34c.65-3.35,1.68-6.2,1.76-6.72,5.79-1.32,7.61-4.77,11.13-8.73,12.55-14.12,23.55-33.07,39.25-42.99,9.1-5.75,24.71-10.59,34.86-15.45q9.23,2.35,18.45,4.7l3.51-.67c6.22-.47,19.31-17.09,19.92-22.5.9-7.98-11.28-8.99,15.82-8.4Z"/><path class="cls-8" d="m668.04,417.69c-.02,19.26.03,38.51,0,57.77-7.22,2.71-13.87,7.41-20.8,10.75-.19.09-1.6-2.28-2.64,2.02-3.9,1.44-7.84,2.36-11.72,4.03-2.17-2.9-21.95-6.19-27.24-6.72-6.2-.62-39.51-1.37-43.64-.67,11.47-16.27,21.99-33.44,36.61-46.35l24.02,2.02c11.58-11.54,30.83-15.65,45.4-22.84Z"/><path class="cls-47" d="m668.04,480.83c-7.9,2.28-15.66,4.53-23.43,7.39,1.04-4.29,2.45-1.92,2.64-2.02,6.93-3.34,13.57-8.04,20.8-10.75,0,1.79,0,3.58,0,5.37Z"/><path class="cls-47" d="m562.01,484.86c4.13-.69,37.44.06,43.64.67,5.29.53,25.07,3.81,27.24,6.72-.74.32-1.02,1.01-1.76,1.34l-77.33-3.36c-.08-.65.05-1.35,0-2.02,2.83-.03,5.59-2.92,8.2-3.36Z"/><path class="cls-9" d="m532.14,476.8l-9.96,72.55c-2.19,3.13-6.49,6.54-6.44,7.05.08.96,6.67,3.68,7.03,5.71-7.42,0-14.84,0-22.26,0q2.64-8.4,5.27-16.79c.15.09.43-.09.59,0,.43.25,7.03,7.11,8.2,5.71,3.89-19.17,7.77-59.19,11.13-73.56.26-1.09-.51-2.43.88-3.36,1.71.38,5.27,2.6,5.57,2.69Z"/><path class="cls-36" d="m525.69,477.47c-3.36,14.36-7.24,54.39-11.13,73.56-1.17,1.4-7.77-5.46-8.2-5.71,3.93-11.1,6.01-22.78,8.79-34.26,2.81-11.62,5.9-23.16,8.2-34.93l2.34,1.34Z"/><path class="cls-9" d="m553.81,488.22c.05.66-.08,1.36,0,2.02.57,4.85-.89,9.88-.59,14.44.07.99,2.68,4.58,0,4.37-.42-2.57.86-5.75-4.69-5.37l-.59-19.48c.31.22,4.48-.44,5.86,4.03Z"/><path class="cls-13" d="m668.04,412.98c-1.39.14-2.22-1.29-2.34-1.34-.78-9.73,1.91-30.05-2.34-30.9,1.44-.74,3.03-2.76,4.69-3.36,0,11.87.01,23.73,0,35.6Z"/><path class="cls-3" d="m663.36,380.74c4.25.85,1.56,21.17,2.34,30.9-.26-.12-2.28-.55-5.27-2.02v-27.54c1.75-1.21,2.79-1.27,2.93-1.34Z"/><path class="cls-23" d="m660.43,382.08v27.54c-2.59-1.27-7.39-3.44-9.37-5.37,3.11-4.18,8.46-19.08,5.86-18.81.1-.15.11-2.11,1.46-3.36,1.56-.96,1.8.17,2.05,0Z"/><path class="cls-9" d="m651.06,404.25c-.79-.77-1.71-1.37-2.34-2.35,2.74-5.52,4.81-11.35,8.2-16.46,2.6-.27-2.75,14.63-5.86,18.81Z"/><path class="cls-45" d="m393.3,479.49c-65.77,45.12-9.05,57.5,28.12,82.62-5.86,0-11.72,0-17.57,0-16.8-14.11-57.04-17.67-55.65-41.31,1.18-.18,1.63-3.23,1.76-4.37.7-3.51,2.55-6.38,4.1-9.4,6.81-8.59,16.15-13.06,24.02-20.15,5.04-2.55,10.03-5.29,15.23-7.39Z"/><path class="cls-33" d="m668.04,484.19c-26.17,23.89-50.64,50.29-73.81,77.92-5.66.01-11.33-.01-16.99,0,15.05-29.91,25.41-36.28,43.64-55.75,3.11-3.33,7.99-8.41,6.74-9.4,1.48.41,3.3-3.26,3.51-3.36.74-.33,1.02-1.03,1.76-1.34,3.87-1.67,7.82-2.59,11.72-4.03,7.77-2.86,15.53-5.11,23.43-7.39,0,1.12,0,2.24,0,3.36Z"/><path class="cls-36" d="m627.62,496.95c1.26.99-3.62,6.08-6.74,9.4-18.23,19.48-28.59,25.85-43.64,55.75-5.86.01-11.72,0-17.57,0q13.03-18.14,26.07-36.27c29.93-9.88,19.36-27.75,41.89-28.88Z"/><path class="cls-12" d="m668.04,126.82c.01,4.03,0,8.06,0,12.09-5.44,1.47-12.58,2.84-17.57,5.37-4.42,2.25-9.8,7.53-12.3,12.76-42.65-3.53-85.69,2.41-128.29.67-3.84-.16-7.8-1.27-11.72-.67-2.76-4.28-2.28,9.8-2.34,12.09-5.07.11-10.16-.15-15.23,0-8.53.26-17.29.41-25.78,1.34-.22.02-.18-1.12-4.39-.67l-1.46,1.68c-.09,3.01.13,6.06,0,9.07h-74.4c-.39-2.38.56-12.07-.29-12.76-20.02-1.3-16.93,2.6-17.87,2.69-.96.09-1.96-.06-2.93,0-18.95.52-37.88-1.36-56.82-1.34-38.85.03-77.73.73-116.58,1.34-.04-2.57,3.42-.58,4.98-2.02,1.07-.98.58-3.28.88-4.03.04-.1,1.56.07,1.76-1.01.17-.89.11-6.72-.29-7.05-1.09-.88-23.08.66-26.65.67-25.38.11-50.77-.08-76.16,0h-16.4c.02-8.73-.02-17.47,0-26.2,124.32-2.1,248.56,4.52,372.87,3.36,21.34-.2,46.73.4,67.37-.67,4.01-.21,16.05-1.51,16.11-2.69,6.91-.11,13.67-1.84,20.5-2.69-3.97,4.63,13.6-.86,20.8-1.34,33.85-2.26,68.32,1.68,102.22,0Z"/><path class="cls-11" d="m290.2,97.94q.44,8.06.88,16.12,12.74-.34,25.48-.67c18.7,4.97,33.87-1.74,44.23,5.37,6.79-.59,16.78.79,22.85,0,.58-.08-1.15-5.35,9.96,0-4.99-11.6,3.78.25,5.27.67,5.22,1.47,13.68-3.06,19.04-4.7-.71.99-.93,4.86-.29,5.37,2.94,2.39,63.33-1.83,72.05,0,25.23-4.09,50.77-2.35,76.16-2.69.17,0,2.82-1.34,3.22-1.34,32.96-.37,66.02,2.36,99,1.34,0,.9,0,1.79,0,2.69-2.01.71-6.31,3.74-7.91,4.03-9.39,1.72-77.72-1.3-96.66,0-6.02,1.82-12.26,3.26-18.45,4.03-6.83.85-13.6,2.58-20.5,2.69q-184.68-2.02-369.35-4.03l-86.99.67c.02-5.15-.02-10.3,0-15.45,50.29-.07,100.56.58,150.85.67,11.82.02,24.13.41,35.73,2.02,12.67-3.83,24.92-7.28,35.44-16.79Z"/><path class="cls-38" d="m524.52,130.85c-.06,1.18-12.1,2.48-16.11,2.69-20.64,1.08-46.03.47-67.37.67-124.31,1.16-248.55-5.46-372.87-3.36,0-1.12,0-2.24,0-3.36l86.99-.67q184.68,2.02,369.35,4.03Z"/><path class="cls-38" d="m668.04,120.1c0,2.24,0,4.48,0,6.72-33.91,1.68-68.38-2.26-102.22,0-7.2.48-24.77,5.98-20.8,1.34,6.19-.77,12.43-2.21,18.45-4.03,18.94-1.3,87.27,1.72,96.66,0,1.6-.29,5.9-3.32,7.91-4.03Z"/><path class="cls-38" d="m316.56,113.39q-12.74.34-25.48.67-.44-8.06-.88-16.12c.66-.6,2.27-3.97,2.64-4.03l1.17.67c5.27,11.12,11.89,15.97,22.55,18.81Z"/><path class="cls-11" d="m530.96,103.98c-1.62-.33-9.75-.81-10.25-.67-1.56.43-10.13,12.05-29.88,9.4-3.18.97-4.07,3.86-6.15,4.7,6.16-13.33,16,2.08,24.31-12.09,8.31.18,7.24-3.8,13.47-4.03.43-.02.15,1.34.59,1.34,3.09.02,7.21-1.99,7.91,1.34Z"/><path class="cls-38" d="m441.92,103.31c.93-.16,6.76-.14,8.2,0,.19.02.39-.02.59,0l3.51.67c1.62.45,1.11.65,1.17.67,1.75,1.9,5.34,4.39,4.1,6.72l1.46,2.02c6.18,2.97,17.39,6.6,23.73,4.03,2.08-.84,2.98-3.73,6.15-4.7,19.75,2.64,28.32-8.98,29.88-9.4.5-.14,8.63.35,10.25.67.76,3.68-.8,6.25,4.98,8.06.9.28,15.6,1.54,16.4,1.34,5.2-1.29-.71-8.58,16.7,2.69-.4,0-3.05,1.34-3.22,1.34-25.39.33-50.92-1.4-76.16,2.69-8.73-1.83-69.11,2.39-72.05,0-.64-.52-.42-4.38.29-5.37,8.22-2.53,14.38-2.77,14.94-3.36,1.95-2.07-3.79-1.41,3.81-6.05,2.97-1.81,1.85-1.41,5.27-2.02Z"/><path class="cls-16" d="m450.12,103.31c-1.44-.14-7.27-.16-8.2,0,.63-.12,5.09-4.71,8.2,0Z"/><path class="cls-21" d="m459.5,111.37c1.24-2.32-2.35-4.82-4.1-6.72,2.78,1.15,9.29,4.01,4.1,6.72Z"/><path class="cls-46" d="m441.92,103.31c-3.42.61-2.3.2-5.27,2.02,1.85-5.62,4.94-1.95,5.27-2.02Z"/><path class="cls-25" d="m454.22,103.98l-3.51-.67c1.39.17,2.13.29,3.51.67Z"/><path class="cls-37" d="m480.59,169.14q2.05,40.98,4.1,81.95c-9.59,10.46-16.97,13.45-29.29,18.14-1.66-.29-4.38-.42-5.27-.67.52-2.01,5.48-2.7,5.86-3.69,3.21-8.53-4.99-5.54-5.27-6.05-.27-.49,2.37-7.22,2.93-11.08,3.49-23.93-.17-52.59,1.17-77.25,8.49-.93,17.25-1.08,25.78-1.34Z"/><path class="cls-27" d="m632.31,406.27l-3.51.67c-2.58-14.79-12.7-48.45-13.47-60.12-.52-7.84,1.04-15.46,1.76-23.18,1.37-14.68,2.12-17.95,5.27-31.57.72-3.12,2.78-6.53,3.51-9.74,12.32-53.83,12.09-55.37,31.05-107.81-1.5,21.8-5.72,44.19-8.2,66.17-4.29,37.92-10.29,141.98-14.06,159.88-.42,2-1.94,3.71-2.34,5.71Z"/><path class="cls-25" d="m422.59,249.75c1.07.39,3.11.77,3.51,1.68.07,1.44-.1,2.93,0,4.37-4.39-1.2-12.49-3.69-16.4-4.03-.77.05-.55-.6-.59-1.34-.04-.89,0-1.79,0-2.69,2.93,0,11.44,1.27,13.47,2.02Z"/><path class="cls-51" d="m353.46,170.48v73.56c4.13.19,8.18.6,12.3,1.01l-.29,13.43h-15.82q-.59-6.05-1.17-12.09c-4.55-.28-9.23.39-13.77,0q-.15-33.59-.29-67.17c-3.15,22.2-3.35,44.72-3.22,67.17-7.28-.76-12.82-3.84-18.75-4.7-.42-15.97-.26-32-3.22-47.69-2.3,15.79.02,31.87.29,47.69-.91-.07-6.11.82-8.2,0-.41-1.69-1.61-5.37-2.34-7.05-1.91-21.74-2.7-43.61-2.34-65.5,18.94-.02,37.87,1.87,56.82,1.34Z"/><path class="cls-51" d="m309.53,241.69c.96.08,1.98-.14,2.93,0,5.93.86,11.46,3.94,18.75,4.7,1.15.12,2.36-.1,3.51,0,4.54.39,9.21-.28,13.77,0q.59,6.05,1.17,12.09h15.82l.29-13.43c.96.1,1.96-.07,2.93,0,14.96,1.13,25.24.6,40.42,5.37.03.74-.19,1.39.59,1.34-.06,0,.18,1.38-.29,1.34-2.41-.17-15.65-1.73-16.4-1.34-1.93.98-.12,9.28-1.17,10.08-20.96-3.92-12.46,4.96-14.65,6.72-.99.8-21.05-.61-24.31,0q-.73-1.01-1.46-2.02c-9.21,1.28-26.88-1.84-22.55,2.69-14.74-6.16-20.79-.09-27.53-27.54,2.1.82,7.29-.07,8.2,0Z"/><path class="cls-17" d="m409.7,251.77c3.91.34,12.01,2.83,16.4,4.03.32,4.53-.24,9.22,0,13.77-.55,1.33-5.3,1.77-7.03,2.35-9.52,3.2-55.36,14.61-62.68,14.78-.77.02-1.58.07-2.34,0-.19-.02.37-1.07-3.81-.67-.48-.23-1.65-3.98-7.32-8.06,1.85-.26,8.64.36,9.08,0,.95-.77-.48-7.53.88-9.4,3.26-.61,23.32.8,24.31,0,2.19-1.76-6.31-10.64,14.65-6.72,1.05-.8-.76-9.09,1.17-10.08.75-.38,13.99,1.17,16.4,1.34.47.03.23-1.35.29-1.34Z"/><path class="cls-43" d="m352.88,268.56c-1.36,1.88.07,8.64-.88,9.4-.44.36-7.23-.26-9.08,0-3.22-2.32-10.79-7.36-14.06-8.73-4.33-4.52,13.34-1.41,22.55-2.69q.73,1.01,1.46,2.02Z"/><path class="cls-51" d="m374.55,180.56c.17,1.05.32,1.22.59,2.02l-.59,44c11.53,2.34,23.55,2.2,33.39-5.71l1.17-.67v13.43c.03,4.7-.03,9.41,0,14.11,0,.89-.04,1.8,0,2.69-15.19-4.77-25.46-4.24-40.42-5.37-5.78-10.08-8.18-8.04-10.54-21.16-3.14-17.42-1.13-35.77-1.76-53.4.93-.09-2.15-3.98,17.87-2.69.85.69-.1,10.39.29,12.76Z"/><path class="cls-29" d="m356.39,170.48c.63,17.63-1.38,35.99,1.76,53.4,2.36,13.12,4.77,11.08,10.54,21.16-.97-.07-1.96.1-2.93,0-4.12-.41-8.17-.81-12.3-1.01v-73.56c.97-.06,1.96.09,2.93,0Z"/><path class="cls-51" d="m334.72,246.39c-1.16-.1-2.36.12-3.51,0-.12-22.45.07-44.98,3.22-67.17q.15,33.59.29,67.17Z"/><path class="cls-51" d="m312.46,241.69c-.95-.14-1.97.08-2.93,0-.27-15.83-2.59-31.9-.29-47.69,2.96,15.7,2.8,31.72,3.22,47.69Z"/><path class="cls-29" d="m383.93,194.67c4.01,5.9,7.48,11,12.3,16.12,3.56,3.78,7.3,7.62,11.72,10.08-9.84,7.91-21.86,8.05-33.39,5.71l.59-44c.36,1.08,7.35,9.98,8.79,12.09Z"/><path class="cls-42" d="m447.78,212.8c-.52,3.18-2.13,11.88-3.51,14.11-.41.66-7.77,7.23-9.37,6.72h-25.78v-13.43c7.77-.54,15.52,2.53,23.14,4.03q7.76-5.71,15.52-11.42Z"/><path class="cls-11" d="m424.35,349.17q-3.81-1.34-7.62-2.69c-6.24-9.91,5.86-3.19,10.25-3.36,1.18.84-2.26,5.81-2.64,6.05Z"/><path class="cls-52" d="m443.09,355.21c-.25,1.19-.52,1.64-.59,2.02-.53,3.05-.59,14.78-1.76,9.07-1-4.88-.54-17.29-1.17-23.85,5.24-2.45,1.57,6.99,3.51,12.76Z"/><path class="cls-56" d="m424.35,349.17c-2.21,1.38-6.52-.95-7.62-2.69q3.81,1.34,7.62,2.69Z"/><path class="cls-1" d="m631.14,493.59c-.21.1-2.04,3.76-3.51,3.36-22.52,1.13-11.96,19.01-41.89,28.88q-13.03,18.14-26.07,36.27c-5.47,0-10.94,0-16.4,0,1.29-12.31,10.4-42.09,9.96-51.72-.02-.44.07-.92,0-1.34,2.68.21.07-3.37,0-4.37-.3-4.56,1.16-9.6.59-14.44l77.33,3.36Z"/><path class="cls-9" d="m279.07,551.36c10.18,3.41,20.56,6.36,30.46,10.75-17.96-.01-35.93.01-53.89,0-13.5-11.58-29.74-18.38-43.94-28.88,23.16,1.95,45.24,10.73,67.37,18.14Z"/><path class="cls-23" d="m650.47,144.29l-2.05,9.4h19.62c0,2.46,0,4.93,0,7.39-2.33.11-4.7-.15-7.03,0-3.73.24-4.38-1.09-7.32,2.69-4.64-.4-9.16.26-13.77.67-1.35.12-2.75-.11-4.1,0,1.21-1.38.76-3.22,1.17-4.7.22-.78.8-1.9,1.17-2.69,2.5-5.24,7.88-10.51,12.3-12.76Z"/><path class="cls-47" d="m668.04,138.91c.01,4.93,0,9.85,0,14.78h-19.62l2.05-9.4c4.99-2.54,12.14-3.9,17.57-5.37Z"/><path class="cls-23" d="m153.7,163.77c10.75.44,21.46,1.02,32.22.67-.3.75.19,3.05-.88,4.03-1.56,1.44-5.02-.55-4.98,2.02-31.04.65-61.83-3.83-92.85-2.69-1.52-.97.22-2.07-.29-3.36-.19-.73.38-1.85.88-2.02,4.38-1.46,56.05.94,65.9,1.34Z"/><path class="cls-47" d="m160.73,157.05c-1.64,5.24-9.23.72-7.03,6.72-9.86-.4-61.52-2.81-65.9-1.34-.5.17-1.06,1.29-.88,2.02-2.08-5.25-3.88.82-2.34-7.39,25.38-.08,50.77.11,76.16,0Z"/><path class="cls-53" d="m638.17,157.05c-.37.78-.96,1.91-1.17,2.69-15.21.88-41.52-1.7-54.77,1.34-1.01.23-.76,2.52-1.17,2.69h-2.05q-14.65.17-29.29.34c-.33,19.8.17,39.66,0,59.45-.11,13.05-.19,25.91-.59,38.96q-12.74,9.4-25.48,18.81c-4.35-1.79-8.92.15-13.18,0-2.99-.11-6.32-1.03-9.37-1.01,14.76-38.66,6.78-81.7,8.79-122.59,42.6,1.74,85.64-4.2,128.29-.67Z"/><path class="cls-33" d="m509.88,157.72c-2.01,40.89,5.98,83.93-8.79,122.59,3.05-.02,6.39.9,9.37,1.01-1.87,2.08-3.02,6.08-4.1,7.39-1.71-2.27-4.28-3.23-6.44-4.7-1.45-5.29,3.04-29.02,2.34-31.24-3.74-3.45-12.15-3.87-12.3-7.05.5-.84,1.13-2.21,1.76-2.69,6.3-1.71,9.2-7.61,9.96-14.44.37-3.37.37-58.1,0-61.13-.16-1.26-2.89-9.44-3.51-10.41,3.91-.6,7.87.51,11.72.67Z"/><path class="cls-36" d="m498.16,157.05c.63.97,3.36,9.15,3.51,10.41.37,3.03.37,57.76,0,61.13-.76,6.83-3.66,12.73-9.96,14.44,3.36-24.51,3.37-49.2,4.1-73.89.07-2.29-.42-16.37,2.34-12.09Z"/><path class="cls-36" d="m454.81,170.48c-1.34,24.66,2.32,53.32-1.17,77.25-1.48.34-1.89-4.71-2.34-6.72-4.23-18.95.75-24.73-4.1-12.76l-2.93-1.34c1.39-2.23,3-10.93,3.51-14.11.16-1-.13-2.3,0-3.36.02-.13,1.15-2.08,1.17-2.35.48-5.34-.6-6.06-.59-6.38.38-6.8.3-13.4.59-20.15.13-3.01-.09-6.05,0-9.07l1.46-1.68c4.22-.45,4.17.7,4.39.67Z"/><path class="cls-53" d="m185.92,164.44c-10.76.34-21.47-.23-32.22-.67-2.2-6,5.39-1.48,7.03-6.72,3.57-.01,25.57-1.56,26.65-.67.41.33.46,6.16.29,7.05-.2,1.08-1.72.91-1.76,1.01Z"/><path class="cls-10" d="m471.8,369.99c.08,2.62-.66,5.89-.59,8.06-2.22-11-2.98-1.65-5.27,3.69-.3-5.72-2.52-12.24-4.98-17.13-2.83.11,1.34,20.77-8.2-15.45-4.12,10.85-4.64,22.35-4.98,12.76-.21-5.86.93-11.6.59-17.47,1.98-.1,21.24,7.69,21.97,8.73.82,5.47,1.3,11.27,1.46,16.79Z"/><path class="cls-4" d="m637,159.74c-.41,1.48.04,3.32-1.17,4.7-9.77.76-19.51.98-29.29,1.34-9.18.34-18.34,1.01-27.53.67v-2.69h2.05c.42-.17.16-2.45,1.17-2.69,13.25-3.04,39.56-.46,54.77-1.34Z"/><path class="cls-9" d="m549.13,271.92c-1.94-.56-.7,2.67-1.76,5.71-1.12,3.21-6.05,6.25-4.1,17.13-9.48,3.51-27.08,8.6-29.88,14.11-2.37.64-12.51-4.15-13.18-4.03-1.61.28-.59,1.68-.88,2.02-.08.09-1.07-.06-1.76,0,.57-3.99.78-7.73.59-11.76,1.36-.35,1.44-1.31,1.76-1.68.27-.31,4.39-2.22,6.44-4.7,1.08-1.31,2.23-5.31,4.1-7.39,4.26.15,8.83-1.79,13.18,0q12.74-9.4,25.48-18.81c-.09,3.12.14,6.29,0,9.4Z"/><path class="cls-9" d="m499.92,284.01c-.14-.1-.44.1-.59,0-.43-.29-3.61-3.79-8.49-6.05-.71,3.56-.72,7.13-.88,10.75h-1.17c-.2-2.32-.75-13.39-1.46-14.11-10.45-3.27-21.32-3.5-31.93-5.37,12.32-4.69,19.7-7.68,29.29-18.14,1.1-1.2,4.89-4.73,5.27-5.37.15,3.18,8.56,3.6,12.3,7.05.7,2.21-3.79,25.95-2.34,31.24Z"/><path class="cls-9" d="m451.29,241.02c.45,2.01.86,7.06,2.34,6.72-.56,3.86-3.2,10.6-2.93,11.08.29.51,8.48-2.49,5.27,6.05-.38,1-5.34,1.68-5.86,3.69-7.76-2.17-2.86-8.17-15.23-13.43,1.88-5.58,4.65-9.65,7.03-14.78,1.88,5.64,5.89,2.72,9.37.67Z"/><path class="cls-9" d="m451.29,241.02c-3.49,2.05-7.49,4.96-9.37-.67,1.82-3.93,3.64-8.05,5.27-12.09,4.85-11.97-.13-6.19,4.1,12.76Z"/><path class="cls-36" d="m448.37,344.47c.34,5.87-.79,11.6-.59,17.47q-2.64-2.35-5.27-4.7c.07-.38.34-.82.59-2.02.78-3.74,1.89-7.43,2.93-11.08,1.11-1.07,1.88.36,2.34.34Z"/><path class="cls-28" d="m491.13,337.08c-.85,2.39-2.08,4.82-2.34,7.39-4.19,1.5-8.87,5.39-12.89,7.73,13.84,4.4,3.55,5.95,2.34,11.42-.19.88-.24,17.27,0,18.14.46,1.67,4.47,3.36,4.69,3.69,1.47,2.3.95,11.27,3.51,14.11-3.32,2.77-9.92,7.42-10.54,8.06-3.04-5.3.2-36.91-.59-38.63-.51-1.1-2.7,1.42-3.51,1.01-.16-5.53-.64-11.33-1.46-16.79-.73-1.04-19.98-8.83-21.97-8.73-.46.02-1.24-1.41-2.34-.34-1.04,3.66-2.15,7.34-2.93,11.08-1.94-5.78,1.72-15.21-3.51-12.76v-.67c-1.58-3.3-52.14-16.5-56.82-34.93,34.55,15.69,71.91,22.7,108.38,30.23Z"/><path class="cls-9" d="m429.62,286.7c2.19,2.45,5.37,1.44,6.15,2.02,1.33.98.06,1.74,2.05,4.03.5.58,1.08,1.14,1.76,1.34,1.8.55,2.42,1.16,4.1-.34-.37-4.21.51-11.06,0-14.44h.59c.53,9.64,1.3,19.26,2.05,28.88,3.75,1.63,26.97.41,28.12,1.34,2.11,1.71-5.89,7.28,14.35,2.69h.59c-.18,13.82-1.64,16.9,4.1,15.45-.13.53.82.8.59,1.68-.38,1.41-2.16,5.54-2.93,7.73-36.47-7.52-73.82-14.54-108.38-30.23-1.67-6.59.92-10.41,5.57-14.11,4.53-3.61,31.66-15.56,38.96-17.8.4,3.8.54,9.74,2.34,11.76Z"/><path class="cls-9" d="m539.75,330.36c-1.66,2.58-3.65,3.81-3.51,5.37-3.01-2.18-5.34-5.91-6.44-3.69-.68,5.45-.98,11.15-2.34,16.46-3.02-.85-8.88-.31-12.3,0-1.42.13-5.72-.42-6.44.34-.98,4.03-1.09,8.4-1.76,12.43-2.47-.02-.7-8.21-2.64-10.75l-.29,19.14q-10.54,7.89-21.09,15.79c-.21-.33-4.23-2.02-4.69-3.69-.24-.87-.19-17.26,0-18.14,1.2-5.47,11.5-7.02-2.34-11.42,4.02-2.34,8.7-6.22,12.89-7.73,7.28-2.61,13.44-1.49,15.82-2.69.19-.1.93.36,1.76-1.01.94-7,7.22-17.11-3.51-15.11v-1.34c8.29-.06-5.56-12.51,13.18-8.73-4.77,24.42,22.85-2.69,29.88-6.72,1.74,1.15-11.74,22.5-6.15,21.5Z"/><path class="cls-35" d="m506.95,361.26c-1.22,7.37-2.42,14.59-1.76,22.17-5.89,5.85-12.45,10.88-18.75,16.12-2.56-2.84-2.04-11.81-3.51-14.11q10.54-7.89,21.09-15.79l.29-19.14c1.93,2.54.17,10.73,2.64,10.75Z"/><path class="cls-9" d="m499.33,306.85c.18,7.32.07,14.88.59,22.17.5,7.13-1.95,7.54,4.69,12.76-2.38,1.19-8.54.08-15.82,2.69.27-2.57,1.5-5,2.34-7.39.77-2.18,2.55-6.31,2.93-7.73.23-.88-.72-1.15-.59-1.68.02-.08,1.03-.39,1.17-1.01,1.49-6.38,1.99-13.31,2.93-19.82.68-.06,1.68.09,1.76,0Z"/><path class="cls-49" d="m515.15,348.5c-.74,2.55.01,3.83,0,4.03-.38,6.97-.93,13.83-.59,20.82-3.42,4.52-5.63,6.37-9.37,10.08-.66-7.57.54-14.8,1.76-22.17.66-4.03.78-8.4,1.76-12.43.73-.76,5.02-.21,6.44-.34Z"/><path class="cls-13" d="m525.69,353.2c-2.56,7.49-6.55,14.1-11.13,20.15-.35-7,.2-13.85.59-20.82q5.27.34,10.54.67Z"/><path class="cls-14" d="m527.45,348.5c-.42,1.62-1.23,3.16-1.76,4.7q-5.27-.34-10.54-.67c.01-.2-.74-1.48,0-4.03,3.43-.31,9.28-.85,12.3,0Z"/><path class="cls-13" d="m509.88,511.73c.99.23,1.91.47,2.64,1.34,1.52-1.24,1.7-3.53,2.05-5.37q.29,1.68.59,3.36c-2.78,11.48-4.86,23.16-8.79,34.26-.15-.09-.43.09-.59,0-8.41-4.91-17.44-8.42-26.07-12.76-2.12-2.35-.27-8.3-.29-8.73,5.28.04,4.71,2.45,6.44-3.69,1.17-4.13,12.59-81.31,12.89-85.65l4.1-.67c.74,25.17,1.84,50.32,1.17,75.57.14.32,5.13,2.18,5.86,2.35Z"/><path class="cls-49" d="m484.69,412.98l4.98,61.8c.84-20.01-.26-40.34-.88-60.46,2.83.65,6.57,1.51,9.37,2.02.5,5.94.99,12.19.59,18.14-.29,4.33-11.72,81.51-12.89,85.65-1.73,6.14-1.16,3.73-6.44,3.69-1.78-33.06.68-77.09.59-111.51,1.07.34,3.49.37,4.69.67Z"/><path class="cls-49" d="m526.28,418.36v49.37c-.08.58-.84-.47-1.17,1.68-.08.52-1.1,3.37-1.76,6.72-2.3,11.77-5.39,23.31-8.2,34.93q-.29-1.68-.59-3.36c.43-2.23.9-4.05.59-6.38-4.68-27.12-2.39-54.84-2.93-82.29,1.85.12,10.25-.64,14.06-.67Z"/><path class="cls-1" d="m545.61,482.17c.83,6.84-2.31,22.7-1.17,27.21.2.81.68-.41,1.17-.34-3.44,7.61-18.54,33.34-23.43,40.3l9.96-72.55c5.45,1.68,8.27,2.43,13.47,5.37Z"/><path class="cls-49" d="m575.49,417.69c-15.7,9.92-26.7,28.87-39.25,42.99-.37.01-1.16-1.57-1.17-1.68-.32-2.15,1.4-31.85.59-41.31,4.73-.08,9.35-.5,14.06-.67q.29,11.25.59,22.5c8.18-1.83,4.47-14.92,5.27-22.5,6.8-.17,17.72-1.03,19.92.67Z"/><path class="cls-13" d="m536.24,460.68c-3.52,3.96-5.34,7.42-11.13,8.73.33-2.15,1.1-1.09,1.17-1.68v-49.37c3.14-.03,6.34-.62,9.37-.67.82,9.46-.91,39.16-.59,41.31.02.11.81,1.69,1.17,1.68Z"/><path class="cls-48" d="m547.95,484.19l.59,19.48c-.33,3.01-2.8,5.09-2.93,5.37-.49-.07-.97,1.15-1.17.34-1.14-4.51,2-20.37,1.17-27.21,2.35,1.33,2.22,1.93,2.34,2.02Z"/><path class="cls-49" d="m506.36,417.01c.2.03.46,1.73,3.51,2.02v92.7c-.73-.17-5.72-2.03-5.86-2.35.67-25.25-.43-50.4-1.17-75.57-.16-5.48.38-11.28,0-16.79,1.14.16,2.37-.15,3.51,0Z"/><path class="cls-22" d="m512.22,419.03c.54,27.45-1.75,55.16,2.93,82.29.31,2.33-.16,4.15-.59,6.38-.35,1.84-.53,4.13-2.05,5.37-.72-.87-1.65-1.11-2.64-1.34v-92.7c.46-1.71,1.83-.03,2.34,0Z"/><path class="cls-2" d="m502.85,417.01c.38,5.51-.16,11.32,0,16.79l-4.1.67c.41-5.95-.08-12.2-.59-18.14,1.45.26,3.19.46,4.69.67Z"/><path class="cls-22" d="m488.79,414.33c.62,20.11,1.71,40.45.88,60.46l-4.98-61.8c1.34.34,2.81,1.05,4.1,1.34Z"/><path class="cls-13" d="m555.57,417.01c-.8,7.59,2.9,20.67-5.27,22.5q-.29-11.25-.59-22.5c1.95-.07,3.91.05,5.86,0Z"/><path class="cls-3" d="m447.19,402.24c-3.93,5.15-8.05,9.97-12.3,14.78-.53-.33-1.36-.89-1.76-1.34-1.33-1.51-2.15-3.81-2.34-4.03,3.07-1.85,11.56-5.28,11.13-9.4,0-.05.65.17.59-.67,2.78,1.31,2.88-.51,4.69.67Z"/><path class="cls-35" d="m441.92,402.24c.43,4.12-8.06,7.55-11.13,9.4-1.21-1.38-2.24-1.25-2.34-1.34-.05-.05-.53-1.3-.59-1.34q5.57-3.69,11.13-7.39c.52.14,1.09,1.03,2.93.67Z"/><path class="cls-9" d="m396.81,443.88c8.01-7.65,33.26-19.39,38.66-25.19.45-.48-.84-1.39-.59-1.68,4.25-4.81,8.37-9.63,12.3-14.78.12-.16,2.64-2.07,2.93-2.69,2.84-1.61,6.13-5.06,3.22-8.06-2.64-2.72-55.38-33.57-64.15-34.26-.52-8.59-.96-17.67-1.76-26.2,12.42,1.8.94,14.36,4.98,17.47,10.57,3.02,62.93,28.91,64.73,38.63,2.12,11.41-10.77,10.81-14.35,32.58-13.19,6.4-25.74,14.53-38.66,21.5-1.85,1-5.22,1.54-7.32,2.69Z"/><path class="cls-9" d="m438.99,401.56q-5.57,3.69-11.13,7.39c-10.71-9.35-25.48-12.26-36.91-20.15.02-2.01-.03-4.03,0-6.05,15.55,5.52,32.3,14.56,48.04,18.81Z"/><path class="cls-28" d="m450.12,399.55c-.29.62-2.81,2.53-2.93,2.69-1.8-1.18-1.91.64-4.69-.67-1.25-.59-17.8-11.51-23.73-14.78-9.25-5.1-18.91-9.64-28.41-14.11-.11-2.05-.46-3.97-.59-6.05,20.81,9.38,40.71,21.72,61.51,30.56-.6.63-.79,1.56-1.17,2.35Z"/><path class="cls-13" d="m442.51,401.56c.06.84-.59.62-.59.67-1.84.36-2.41-.53-2.93-.67-15.73-4.25-32.48-13.29-48.04-18.81.05-3.29-.41-6.75-.59-10.08,9.5,4.47,19.16,9.01,28.41,14.11,5.92,3.26,22.48,14.19,23.73,14.78Z"/><path class="cls-9" d="m450.12,399.55c.38-.79.57-1.72,1.17-2.35-20.8-8.85-40.7-21.18-61.51-30.56-.19-3.13-.4-6.27-.59-9.4,8.77.69,61.51,31.54,64.15,34.26,2.91,3-.38,6.45-3.22,8.06Z"/><path class="cls-53" d="m84.58,157.05c-1.54,8.21.26,2.14,2.34,7.39.51,1.29-1.23,2.39.29,3.36,31.02-1.15,61.82,3.33,92.85,2.69,38.85-.61,77.73-1.31,116.58-1.34-.36,21.89.43,43.75,2.34,65.5.73,1.69,1.93,5.36,2.34,7.05,6.74,27.46,12.8,21.38,27.53,27.54,3.27,1.37,10.84,6.41,14.06,8.73,5.67,4.08,6.85,7.83,7.32,8.06,4.17-.39,3.62.65,3.81.67-6.22-.73-2.19,4.33-2.93,7.39-1.51.42-1.03-1.23-1.46-1.34-7.07-1.79-46.6,2.88-60.92,2.69-1.11-.02-6.02-2-6.44-2.02-23.69-.75-18.37,1.01-38.66,8.73-32.78-.03-47.94-.72-77.33,18.14-9.85.19-40.93-.22-46.86,1.34-.98.26-16.16,8.37-17.87,10.08-17.59-20.46-13.94-69.44-15.23-96.4-.63-13.18-2.39-26.44-2.93-39.63-.3-7.17,2.49-21.8-2.34-25.19q-.44-2.02-.88-4.03c-3.69-.4-7.19.24-10.84.67-.53.06-.64-.75-1.17-.67,0-3.13,0-6.27,0-9.4h16.4Z"/><path class="cls-13" d="m428.45,410.3c.1.1,1.13-.04,2.34,1.34.2.22,1.02,2.52,2.34,4.03-22.04,11.43-64.17,32.86-82.31,47.69-17.12,14.01-43.19,51.9-51.26,74.9-3.71,14.07,21.22,16.94,29.29,23.85-6.44,0-12.89,0-19.33,0-9.91-4.39-20.29-7.34-30.46-10.75,15.8-.98-1.06-11.77-1.17-13.77-.04-.66,5.08-10.05,5.86-11.42,10.3-18.02,52.21-61.58,71.18-70.87,20.65-22.17,47.42-33.93,73.52-45.01Z"/><path class="cls-45" d="m434.89,417.01c-.25.28,1.03,1.2.59,1.68-5.41,5.8-30.65,17.54-38.66,25.19-8.58,4.69-17.2,8.72-25.19,14.78-.19.15-2.73.62-4.1,2.35-.21.64.55.87.59,2.35-2.08.49-.6-2.57-1.46-3.36-2.59,3.43-10.36,4.37-10.84,9.4-.17-1.76-5.52,3.58-7.91,6.05-11.99,12.36-15.29,22.57-23.73,36.61-2.17,3.6-9.35,11.26-11.13,14.78-12.38,24.54,6.37,21.27,24.6,35.27-2.93,0-5.86,0-8.79,0-8.07-6.91-33-9.78-29.29-23.85,8.07-23,34.14-60.89,51.26-74.9,18.13-14.84,60.27-36.27,82.31-47.69.4.45,1.23,1.01,1.76,1.34Z"/><path class="cls-3" d="m351.12,294.09c-3.45,3.64-13.06,3.36-.88,6.72,4.76,1.31,9.86.83,14.35-1.34.4.45,1.11,1.28,1.17,1.34,6.44,6.46,16.98,7.15,20.5,18.81-9.2,2.73-64.55,4.48-67.66,6.05-1.86.93.1,5.78-1.76,6.72-1.74.88-32.62-.66-38.08,0-.63.51-.2,9.09-.29,10.75-.08,1.45-.56,1.51-.59,2.02-10.58,5.12-67.94,14.9-71.18,16.79-3.22,1.88.62,4.94,3.22,10.75,2.38,5.31,5.29,10.47,7.03,16.12-16.23,9.3-29.68,2.03-45.69,5.04-.09.28,2.03,3.14,2.34,3.69,3.41,6.15,12.06,14.29,15.82,20.15-5.78,3.05-31.29,17.01-33.68,17.47-8.37,1.58-22.68-2.49-31.34,2.02-8.39-16.68-17.7-41.62-24.02-59.79.05-.56-.22-1.81.29-2.02,2.55-1,53.66-1.17,52.43-9.07-15.14-10.99-39.08-20.09-51.55-34.59,1.71-1.7,16.89-9.82,17.87-10.08,5.94-1.57,37.02-1.15,46.86-1.34,29.39-18.86,44.55-18.17,77.33-18.14,20.29-7.72,14.97-9.48,38.66-8.73.43.01,5.34,2,6.44,2.02,14.32.2,53.85-4.48,60.92-2.69.44.11-.04,1.77,1.46,1.34Z"/><path class="cls-53" d="m101.57,331.7c12.47,14.5,36.41,23.6,51.55,34.59,1.23,7.9-49.88,8.06-52.43,9.07-.52.2-.24,1.45-.29,2.02-5.4-15.5-10.94-30.62-14.06-47.02-3.07-16.15-4.11-32.68-5.86-49.04,3.15.17,1.53-12.28,1.76-19.14.03-.77,1.16-6.07,1.17-6.72.37-28.25-3.69-56.65-2.34-84.98,4.83,3.39,2.05,18.02,2.34,25.19.54,13.19,2.3,26.45,2.93,39.63,1.3,26.95-2.36,75.94,15.23,96.4Z"/><path class="cls-47" d="m81.06,170.48c-1.35,28.32,2.72,56.73,2.34,84.98,0,.65-1.15,5.95-1.17,6.72-.23,6.86,1.4,19.31-1.76,19.14-4.06-38.01-6.39-76.27-11.13-114.2,3.65-.43,7.15-1.07,10.84-.67q.44,2.02.88,4.03Z"/><path class="cls-13" d="m427.86,408.95c.05.05.53,1.29.59,1.34-26.1,11.07-52.87,22.84-73.52,45.01-18.96,9.29-60.88,52.85-71.18,70.87-.78,1.37-5.89,10.76-5.86,11.42.11,2.01,16.98,12.79,1.17,13.77-22.13-7.41-44.21-16.19-67.37-18.14-7.59-6.19-11.42-16.55-17.57-24.18v-16.79c.51.78,7,6.36,8.79,8.06,4.84,4.6,9.77,9.07,15.52,12.09.05-9.62.68-19.29.88-28.88,5.48,2.05,10.84,4.23,16.4,6.05.21.07,1.41,1.79,4.1,1.68.25-7.35-.33-14.83,0-22.17.02-.55,1.17-.27,1.17-.34,13.01,10.85,6.52,2.06,8.49-20.82l29-.34q.15-13.94.29-27.88l39.25,9.4c.8-.69.54-20.38.29-22.84h1.17c10.01-.11,19.93-1.84,29.88-2.69.09,0-.4.87,1.76.67,21.27-1.94,18.85,1.2,38.96-13.43q.44-1.01.88-2.02c11.42,7.89,26.2,10.81,36.91,20.15Z"/><path class="cls-13" d="m194.12,492.25v16.79c-17.7-21.96-44.09-35.29-58-52.4,2.33-.17,1.68-5.03,6.15-6.72,7.04-2.65,14.75-.74,15.82,8.73,3.57-15.84,18.16-7.47,19.62-11.08q.15-7.56.29-15.11l14.35-3.36c.55,11.14-.81,57.35,0,60.79,2.15,1.43,1.68,2.23,1.76,2.35Z"/><path class="cls-14" d="m192.37,429.11l-14.35,3.36q-.15,7.56-.29,15.11c-1.46,3.61-16.05-4.76-19.62,11.08-1.07-9.48-8.78-11.38-15.82-8.73-4.48,1.68-3.82,6.54-6.15,6.72-4.81-5.92-8.22-12.53-11.72-19.48,8.66-4.5,22.97-.44,31.34-2.02,2.39-.45,27.9-14.42,33.68-17.47.13.2,1.89,1.17,2.93,3.69.09,2.56-.13,5.17,0,7.73Z"/><path class="cls-49" d="m221.66,369.99c15.23,42.5,2.84,78.8,14.06,119.57-5.56-1.81-10.92-3.99-16.4-6.05.6-29.28.13-58.79-.59-88,.07-2.46-1.09-4.55-1.76-6.72-1.74-5.66-4.65-10.81-7.03-16.12,3.43-1.89,7.92-1.98,11.72-2.69Z"/><path class="cls-13" d="m386.27,319.61c.59,1.96.34,2.42.59,4.03.1.64-.08,1.36,0,2.02-1.07,1.24-4.57,2.72-4.69,3.02-.48,1.28-.19,23.58-.88,27.88q-.44-13.94-.88-27.88c-.58-1.18-7.03,2-8.2,2.35-1.63.49-3.49,1.65-5.27,2.02-3.23-1.14-6.22-.18-9.37,0-4.99.28-10.24.54-15.23.67-2.92.08-13.38-1.76-15.52-.67q-.59,4.37-1.17,8.73c-3.12-11.96-6.34-11.75-6.74,1.34-3.96-.61-8.35.67-8.79.67-6.84,0-13.66,0-20.5,0-3.56,0-7.47-1.39-11.13-.67.09-1.66-.33-10.24.29-10.75,5.46-.66,36.33.88,38.08,0,1.86-.93-.1-5.78,1.76-6.72,3.11-1.56,58.46-3.31,67.66-6.05Z"/><path class="cls-13" d="m277.89,345.14c-.12,2.1.58,11.87,0,13.1-1.07.77-2.93.78-3.51,1.01-3.38,1.33-12.58,3.06-16.99,4.03-3.81.84-7.86,1.22-11.72,2.02-1.75.36-3.52,1-5.27,1.34-6.21,1.21-12.51,2.2-18.75,3.36-3.8.71-8.28.8-11.72,2.69-2.61-5.81-6.44-8.87-3.22-10.75,3.24-1.89,60.6-11.67,71.18-16.79Z"/><path class="cls-48" d="m289.61,343.79c-2.67,6.33-6.95,33.62-7.62,35.27-1.02,2.52-3.93,2.37-4.1,2.69-.82,1.57,1.71,31.83.29,36.61-4.39,3.94-4.16-57.07-3.81-59.11.59-.23,2.44-.23,3.51-1.01.58-1.23-.12-11,0-13.1.03-.5.51-.57.59-2.02,3.66-.72,7.57.67,11.13.67Z"/><path class="cls-14" d="m216.97,388.8c.67,2.17,1.83,4.26,1.76,6.72q-4.54,6.05-9.08,12.09c-2.94-6.59-8.59-7.63-14.35-8.73-5.74-1.09-15.61-1.42-21.68-1.34-.31-.56-2.43-3.41-2.34-3.69,16.01-3.01,29.46,4.26,45.69-5.04Z"/><path class="cls-49" d="m310.11,343.79c1.34,13.51,1.88,27.17,3.51,40.64.9,7.4,4.48,19.72,4.69,21.83.24,2.46.5,22.15-.29,22.84l-39.25-9.4q-.15,13.94-.29,27.88l-29,.34c-1.97,22.88,4.52,31.67-8.49,20.82,1.38-33.94-1.66-68.14-.59-102.11,1.75-.34,3.52-.98,5.27-1.34,1.05,27.29.29,54.91,3.22,81.95,2.03-19.98.59-40.16-.29-60.12q4.39-11.92,8.79-23.85c4.41-.97,13.61-2.7,16.99-4.03-.35,2.05-.58,63.06,3.81,59.11,1.42-4.78-1.11-35.04-.29-36.61.17-.32,3.08-.16,4.1-2.69.67-1.65,4.95-28.94,7.62-35.27,6.84,0,13.66,0,20.5,0Z"/><path class="cls-49" d="m342.33,333.72c2.93,23.22,5.8,46.44,7.03,69.86-9.94.85-19.87,2.58-29.88,2.69,1.11-20.92-1.22-42.3-.59-63.14.4-13.09,3.62-13.3,6.74-1.34q.59-4.37,1.17-8.73c2.14-1.09,12.61.75,15.52.67Z"/><path class="cls-49" d="m195.3,398.88c1.05,19.24,4.53,38.54,11.72,56.09-2.39,15.02-3.29,30.13-4.1,45.34-1.78-1.7-8.28-7.28-8.79-8.06-.08-.12.4-.92-1.76-2.35-.81-3.45.55-49.66,0-60.79-.13-2.56.09-5.16,0-7.73-1.04-2.53-2.8-3.49-2.93-3.69-3.76-5.87-12.4-14-15.82-20.15,6.07-.08,15.93.25,21.68,1.34Z"/><path class="cls-13" d="m219.31,483.52c-.2,9.6-.83,19.27-.88,28.88-5.76-3.03-10.69-7.49-15.52-12.09.81-15.21,1.71-30.32,4.1-45.34-7.18-17.55-10.66-36.85-11.72-56.09,5.76,1.1,11.41,2.15,14.35,8.73q4.54-6.05,9.08-12.09c.72,29.21,1.18,58.72.59,88Z"/><path class="cls-13" d="m240.4,366.63c-1.08,33.96,1.96,68.17.59,102.11,0,.07-1.15-.22-1.17.34-.33,7.34.25,14.81,0,22.17-2.69.11-3.89-1.61-4.1-1.68-11.22-40.77,1.17-77.07-14.06-119.57,6.23-1.16,12.53-2.15,18.75-3.36Z"/><path class="cls-48" d="m357.56,333.05c-3.68,23.55-5.56,47.33-6.44,71.2-2.16.2-1.67-.68-1.76-.67-1.23-23.42-4.1-46.64-7.03-69.86,4.99-.13,10.24-.39,15.23-.67Z"/><path class="cls-48" d="m318.9,343.12c-.64,20.85,1.69,42.23.59,63.14h-1.17c-.21-2.11-3.79-14.44-4.69-21.83-1.63-13.47-2.17-27.13-3.51-40.64.44,0,4.83-1.28,8.79-.67Z"/><path class="cls-49" d="m387.44,331.03c.79,8.53,1.24,17.61,1.76,26.2.19,3.14.4,6.27.59,9.4.12,2.07.48,3.99.59,6.05.17,3.33.64,6.79.59,10.08-.03,2.01.02,4.03,0,6.05q-.44,1.01-.88,2.02c-20.11,14.64-17.69,11.49-38.96,13.43.89-23.88,2.77-47.65,6.44-71.2,3.15-.18,6.15-1.14,9.37,0q.29,22.67.59,45.34c.9,1.71,5.18-3.65,5.27-4.03.59-2.32-.02-36.7-.59-43.33,1.17-.35,7.62-3.53,8.2-2.35q.44,13.94.88,27.88c.69-4.3.4-26.6.88-27.88.12-.31,3.62-1.79,4.69-3.02.2,1.73.43,3.65.59,5.37Z"/><path class="cls-48" d="m366.94,333.05c1.78-.36,3.64-1.53,5.27-2.02.57,6.63,1.17,41,.59,43.33-.1.38-4.37,5.74-5.27,4.03q-.29-22.67-.59-45.34Z"/><path class="cls-48" d="m257.39,363.27q-4.39,11.92-8.79,23.85c.88,19.96,2.33,40.14.29,60.12-2.93-27.04-2.17-54.67-3.22-81.95,3.86-.8,7.9-1.18,11.72-2.02Z"/><path class="cls-9" d="m564.94,278.63c-10.43,33.64-9.85,28-25.19,51.72-5.59,1.01,7.89-20.34,6.15-21.5-7.03,4.03-34.64,31.14-29.88,6.72-18.74-3.77-4.89,8.67-13.18,8.73-1.35-14.42,3.56-9.71,10.54-15.45,2.8-5.5,20.4-10.6,29.88-14.11,1.2-.45,3.24-.67,4.69-1.34-.09.47.84.48,0,2.35-7.54,4.18-.2,2.87,6.74-4.37,2.15-2.25,7.18-9.65,7.91-12.76h2.34Z"/><path class="cls-13" d="m661.01,161.08c-1.47,4.38-2.54,9.12-4.1,13.43-18.96,52.44-18.73,53.99-31.05,107.81-.73,3.21-2.79,6.62-3.51,9.74-.49-.07-.96,1.14-1.17.34-.42-1.57,4.67-27.76,5.27-32.24,4.27-31.94,6.91-64.19,13.47-95.72,4.61-.41,9.12-1.07,13.77-.67,2.94-3.78,3.59-2.45,7.32-2.69Z"/><path class="cls-23" d="m536.24,335.73v.67c2.05,29.87-17.64,55.83-29.88,80.61-1.15-.15-2.37.16-3.51,0-1.49-.22-3.23-.41-4.69-.67-2.8-.51-6.54-1.37-9.37-2.02-1.29-.3-2.76-1.01-4.1-1.34-1.2-.3-3.61-.33-4.69-.67-.9-.29-5.92-1.77-5.86-3.02.54-.67,1.16-1.07,1.76-1.68.62-.64,7.22-5.29,10.54-8.06,6.3-5.24,12.85-10.28,18.75-16.12,3.74-3.71,5.95-5.56,9.37-10.08,4.58-6.05,8.57-12.67,11.13-20.15.53-1.54,1.34-3.08,1.76-4.7,1.36-5.31,1.66-11.01,2.34-16.46,1.1-2.21,3.44,1.51,6.44,3.69Z"/><path class="cls-3" d="m617.08,323.64c-.72,7.71-2.28,15.34-1.76,23.18.77,11.67,10.89,45.33,13.47,60.12q-9.23-2.35-18.45-4.7c-10.15,4.86-25.75,9.7-34.86,15.45-2.2-1.7-13.12-.84-19.92-.67-1.95.05-3.91-.07-5.86,0-4.71.17-9.33.59-14.06.67-3.03.05-6.23.65-9.37.67-3.81.03-12.21.79-14.06.67-.51-.03-1.88-1.71-2.34,0-3.05-.28-3.32-1.99-3.51-2.02,12.23-24.78,31.93-50.74,29.88-80.61,26.38.32,52.77-1.13,79.08-3.36,1.99-11.4-2.52-8.43-1.76-11.08,1.09-3.8,1.76,3,3.51,1.68Z"/><path class="cls-53" d="m635.83,164.44c1.35-.11,2.75.12,4.1,0-6.56,31.54-9.2,63.78-13.47,95.72-.6,4.48-5.69,30.67-5.27,32.24.21.81.68-.41,1.17-.34-3.15,13.62-3.9,16.89-5.27,31.57-1.76,1.33-2.42-5.48-3.51-1.68-.77,2.66,3.75-.31,1.76,11.08-12.7,3.56-7-8.29-8.79-25.19-.2-1.86-3.23-5.57-1.17-11.42-3.07-6-4.26-29.9-1.17-35.6-.95-31.56,2.02-63.23,2.34-95.05,9.78-.36,19.52-.58,29.29-1.34Z"/><path class="cls-53" d="m606.53,165.78c-.32,31.83-3.3,63.5-2.34,95.05-3.09,5.71-1.9,29.6,1.17,35.6-2.06,5.85.97,9.56,1.17,11.42,1.79,16.9-3.91,28.75,8.79,25.19-26.32,2.23-52.7,3.68-79.08,3.36v-.67c-.13-1.57,1.85-2.8,3.51-5.37,15.34-23.73,14.76-18.08,25.19-51.72,13.85-44.68,14.06-65.22,14.06-112.18,9.19.34,18.35-.33,27.53-.67Z"/><path class="cls-23" d="m579,163.77v2.69c0,46.96-.21,67.5-14.06,112.18h-2.34c.48-2.05.79-3.9.59-6.05,7.76-22.35,2.78-53.02,3.51-77.59-1.28,8.96-1.9,18.15-2.34,27.21-2.18-.52-.54,3.23-1.46,4.03-.7.6-11.27-2.3-13.18-2.69.17-19.79-.33-39.65,0-59.45q14.65-.17,29.29-.34Z"/><path class="cls-11" d="m564.36,222.21c-.81,16.8-.5,33.58-1.17,50.38.21,2.15-.1,4-.59,6.05-.73,3.12-5.75,10.52-7.91,12.76-6.94,7.24-14.27,8.55-6.74,4.37.84-1.87-.09-1.88,0-2.35,1.24-6.38.87-14.79,1.17-21.5.14-3.12-.09-6.28,0-9.4.39-13.05.48-25.91.59-38.96,1.91.38,12.48,3.29,13.18,2.69.93-.8-.71-4.55,1.46-4.03Z"/><path class="cls-28" d="m563.18,272.59c.67-16.8.36-33.58,1.17-50.38.44-9.06,1.06-18.25,2.34-27.21-.73,24.57,4.24,55.24-3.51,77.59Z"/><path class="cls-13" d="m513.39,308.86c-6.99,5.74-11.9,1.03-10.54,15.45v1.34c-2.28.42-2.08,2.4-2.93,3.36-.51-7.29-.4-14.85-.59-22.17.28-.34-.73-1.74.88-2.02.67-.12,10.81,4.67,13.18,4.03Z"/><path class="cls-9" d="m549.13,271.92c-.3,6.7.06,15.12-1.17,21.5-1.45.67-3.48.9-4.69,1.34-1.95-10.88,2.98-13.92,4.1-17.13,1.06-3.04-.18-6.27,1.76-5.71Z"/><path class="cls-41" d="m434.89,255.12c12.37,5.27,7.47,11.27,15.23,13.43.89.25,3.61.38,5.27.67,10.61,1.87,21.48,2.1,31.93,5.37.72.72,1.27,11.78,1.46,14.11.66,7.86,1.14,15.67,0,23.51-20.24,4.6-12.24-.98-14.35-2.69-1.15-.93-24.37.29-28.12-1.34-.75-9.62-1.52-19.24-2.05-28.88-.35-6.43,2.1-15.66-4.98-20.15-3.41-2.16-2.16-.83-2.64.67-1.46,4.64,1.49,4.86,1.76,7.73.75,7.97-.09,17.17-.59,25.19-1.99-2.29-.72-3.05-2.05-4.03-.78-.57-3.96.43-6.15-2.02,1.46-7.84,2.26-25.16,4.1-31.24.18-.6,1.14-.26,1.17-.34Z"/><path class="cls-48" d="m506.36,288.71c-2.06,2.48-6.18,4.39-6.44,4.7-2.45-2.06-.6-6.27-.59-9.4.15.1.44-.1.59,0,2.16,1.47,4.73,2.43,6.44,4.7Z"/><path class="cls-49" d="m499.33,284.01c-.02,3.13-1.86,7.34.59,9.4-.31.37-.39,1.33-1.76,1.68.2,4.02-.01,7.77-.59,11.76-.94,6.51-1.44,13.44-2.93,19.82-.14.62-1.15.93-1.17,1.01-5.74,1.45-4.28-1.63-4.1-15.45.1-7.7.25-15.82.59-23.51.16-3.62.17-7.19.88-10.75,4.88,2.25,8.06,5.76,8.49,6.05Z"/><path class="cls-39" d="m489.96,288.71c-.34,7.69-.49,15.81-.59,23.51h-.59c1.14-7.85.66-15.65,0-23.51h1.17Z"/><path class="cls-38" d="m444.26,279.31h-.59c-.11-.75-1.82-4.27-2.93-4.03-.44-5.16-1.8-10.88-4.1-15.45.47-1.5-.77-2.83,2.64-.67,7.08,4.49,4.63,13.72,4.98,20.15Z"/><path class="cls-13" d="m440.75,275.28c.39,4.55.43,19.37-1.17,18.81-.68-.21-1.25-.77-1.76-1.34.5-8.02,1.33-17.22.59-25.19-.27-2.87-3.22-3.08-1.76-7.73,2.3,4.57,3.66,10.29,4.1,15.45Z"/><path class="cls-30" d="m443.68,279.31c.51,3.39-.37,10.24,0,14.44-1.68,1.5-2.3.88-4.1.34,1.6.56,1.56-14.26,1.17-18.81,1.11-.24,2.82,3.29,2.93,4.03Z"/><path class="cls-14" d="m504.6,341.78c-6.64-5.22-4.18-5.63-4.69-12.76.85-.96.65-2.93,2.93-3.36,10.74-1.99,4.46,8.12,3.51,15.11-.83,1.37-1.57.91-1.76,1.01Z"/><path class="cls-26" d="m1.52,110.19c-.99,32.16.21,188.35-1.52,220.78V103.45c.66,2.19,1.28,4.57,1.52,6.74Z"/><path class="cls-20" d="m667.38,230.52c4.98-1.5,5.63-6.87,6.83-11.39,11.82-44.39,8.83-120.62,9.76-168.86,6.09-5.15,12.79-11.3,18.55-16.84-1.99,21.41-.47,42.94-.98,64.37-.58,24.69-1.35,49.2-3.91,73.78-2.65,6.3-2.95,13.16-3.91,19.81-.11.79-1.84.2-1.95.99-1.03,7.2.18,19.49-3.91,25.75-.21,6.6-.88,13.82-1.95,20.3-2.34,14.18-3.7,28.54-6.83,42.59-3.41,15.29-4.56,28.02-11.72,24.76,0-25.09.04-50.18,0-75.27Z"/><path class="cls-20" d="m667.38,68.1c.03-.25,1.51.62.98-4.95,5.55-3.84,10.48-8.52,15.62-12.87-.93,48.24,2.05,124.46-9.76,168.86-1.2,4.51-1.86,9.89-6.83,11.39-.05-30.72-1.24-150.7,0-162.42Z"/><path class="cls-54" d="m724.98,10.34v16.97c-6.96,5.47-16.02,3.45-19.53,8.61-.44,20.6.6,41.31,0,61.89h-3.9c.5-21.44-1.01-42.96.98-64.38,7.7-7.39,14.37-16.03,22.45-23.09Z"/><path class="cls-20" d="m667.38,305.79c7.15,3.26,8.3-9.46,11.72-24.76.86.09,2.52-.4,2.93.5,1.09,2.38.49,46.83,0,52.49-1.16,13.57-6.41,27.25-8.79,40.6-1.96,11,1.4,19.3-4.88,17.33.03-28.74-.98-57.42-.98-86.16Z"/><path class="cls-54" d="m724.98,27.31v585.69c-2.56-2.95-7.95-6.59-11.71-10.11-1.97-1.84-3.51-2.69-4.88-3.95-5.29-4.85-10.18-9.19-15.62-13.86-7.34-6.29-14.12-13.53-21.48-19.8-.42-3.8-.35-5.37-4.88-5.96.69-55.77,1.9-111.59,1.96-167.36,6.28,1.95,2.91-6.34,4.88-17.33,2.38-13.36,7.62-27.04,8.78-40.61.48-5.67,1.08-50.11,0-52.5-.41-.88-2.06-.4-2.94-.48,3.15-14.05,4.5-28.41,6.84-42.59q.98,3.22,1.96,6.44c1.36-20.42,3.57-38.5,10.74-57.44.38-1.02-2.27-6.46,1.94-2.97,1.34,37.25.32,74.67.98,111.91,0,.32,1.94,5.62,1.96,5.94.23,15.41-.33,31.13-.98,46.54h1.94q-.96-96.06-1.94-192.13c1.45-19.59,2.35-39.29,2.92-58.92.6-20.59-.44-41.29,0-61.89,3.51-5.15,12.57-3.14,19.53-8.61Z"/><path class="cls-54" d="m701.55,97.81h3.91c-.57,19.63-1.48,39.33-2.93,58.93l1.95,192.13h-1.95c.65-15.42,1.2-31.13.98-46.55,0-.31-1.95-5.63-1.95-5.94-.66-37.23.36-74.66-.98-111.91-4.22-3.49-1.57,1.96-1.95,2.97-7.17,18.94-9.37,37.02-10.74,57.44q-.98-3.22-1.95-6.44c1.07-6.48,1.75-13.7,1.95-20.3,4.08-6.26,2.88-18.55,3.91-25.75.11-.79,1.84-.2,1.95-.99.95-6.65,1.25-13.5,3.91-19.81,2.55-24.58,3.32-49.09,3.91-73.78Z"/><path class="cls-54" d="m684.95,469.69c.06-33.24,1.47-66.32,2.44-99.53.69,27.13,3.43,184.36.49,193.62-.17.52-1.69,1.99-1.95.99,1.1-31.66-1.04-63.45-.98-95.07Z"/><path class="cls-34" d="m19.1,600.92c-1.42,1.28-2.59,2.79-3.9,3.95-3.78,3.4-8.09,6.26-11.78,9.79H0v-283.7c1.73-32.43.53-188.61,1.52-220.78-.24-2.17-.86-4.55-1.52-6.74V0h1.46c.41.25.87.57,1.37.93.27.18.54.4.83.6.51.4,1.05.83,1.64,1.32.36.27.72.57,1.1.87,3.31,2.65,5.77,7.31,9.76,9.41q-1.46,233.74-2.92,467.46c5.27,17.4-.3,107.4.98,112.89,1.99,8.56,11.9-8.86,4.88,7.44Z"/><path class="cls-57" d="m60.11,392.94c.25-69.65.14-139.32,0-208.97-.09-43.58.34-87.15-.98-130.73,1.68.93,7.33.56,8.3.99.32.14,1.31,5.12,3.91,5.94,2.55.81,15.83-1.14,16.11,2.97-19.91-1.48-13.67,3.15-14.64,3.96-.48.4-1.71-2.05-2.93-.5,1.78,92.59.98,185.2.98,277.8v216.89c-3.54.26-6.23-.7-9.76.99l-2.93-2.97c3.42-55.32,1.76-110.93,1.95-166.38Z"/><path class="cls-54" d="m42.53,40.37c4.83,3.84,9.34,7.67,14.64,10.89.12.07.14.98,1.95,1.98,1.32,43.57.89,87.15.98,130.73-2.58-8.43.11-17.77-.98-26.24-.11-.89-4.01.42,0-3.96-4.59-2.36-5.94,2.86-8.79.99-6.63-4.36-10.08-100.78-7.81-114.39Z"/><path class="cls-57" d="m724.98,0v10.34c-8.08,7.06-14.75,15.7-22.45,23.09-5.77,5.54-12.47,11.69-18.56,16.85-5.14,4.35-10.06,9.03-15.61,12.86-55.32.12-110.66-.15-165.98,0-138.31.4-276.63-.28-414.94,0-.27-4.1-13.56-2.15-16.11-2.97-2.59-.82-3.59-5.79-3.9-5.94-.96-.42-6.63-.07-8.3-.98-1.82-1-1.84-1.92-1.96-1.99v-.98c.54.28,3.95.8,6.34,2.97,201.45,1.38,402.9,1.5,604.35,0,2.23-.45,23.92-23.07,27.83-26.74,2.06-1.94,3.87-4.05,5.86-5.94,1.7-1.62,3.24-3.4,4.88-4.95,4.72-4.44,11.92-11.28,17.08-15.61h1.46Z"/><path class="cls-57" d="m723.52,0c-5.17,4.34-12.37,11.18-17.08,15.61q-2.68-2.97-5.36-5.94c-72.23,2.02-144.54-1.52-216.76,0-22.95.47-48.51-.2-70.28,3.95-2.92.57-4.58,3.9-4.88,3.97-10.8,2.34-175.73-1.55-206.99-1q.5-1.97.98-3.95h149.38c14.93-14.15-24.77-4.17-25.87-11.89,80.89-.22,161.73,1.13,242.61,1.99,1.63-.08,3.21-.17,4.73-.25,1.14-.07,2.24-.12,3.31-.18,3.25-.18,6.24-.33,9.02-.48.99-.07,1.94-.12,2.89-.17.56-.03,1.11-.05,1.67-.08.81-.05,1.61-.08,2.38-.13,1.63-.08,3.16-.17,4.66-.25,1.49-.08,2.92-.15,4.31-.23,2.31-.12,4.46-.23,6.57-.35.42-.03.84-.05,1.27-.07.18-.02.36-.02.54-.03.65-.03,1.28-.07,1.93-.1.08-.02.15-.02.23-.02.71-.03,1.43-.08,2.14-.12,1.66-.1,3.33-.18,5.03-.27h103.58Z"/><path class="cls-57" d="m619.94,0c-1.7.08-3.37.17-5.03.27-.71.03-1.43.08-2.14.12-.08,0-.15,0-.23.02-.65.03-1.28.07-1.93.1-.18.02-.36.02-.54.03-.42.02-.84.03-1.27.07-2.11.12-4.26.23-6.57.35-1.39.08-2.82.15-4.31.23-1.49.08-3.03.17-4.66.25-.77.05-1.57.08-2.38.13-.56.03-1.11.05-1.67.08-.95.05-1.9.1-2.89.17-2.79.15-5.77.3-9.02.48-1.07.05-2.18.12-3.31.18-1.52.08-3.1.17-4.73.25-80.87-.85-161.72-2.2-242.61-1.99-41.31.12-82.68.75-123.99,1-32.77.18-65.78.72-98.13-1C72.47,8.81,38-1.53,6.4,3.72c-.38-.3-.74-.6-1.1-.87-.59-.48-1.13-.92-1.64-1.32-.29-.22-.57-.42-.83-.6-.5-.37-.96-.68-1.37-.93h618.48Z"/><path class="cls-44" d="m202.65,1.75c41.32-.24,82.69-.87,123.99-.99,1.1,7.71,40.81-2.26,25.87,11.88h-149.38l-.98,3.96c31.26-.55,196.18,3.34,206.98.99.31-.07,1.97-3.4,4.88-3.96,21.78-4.16,47.34-3.48,70.3-3.96,72.21-1.51,144.53,2.03,216.74,0q2.68,2.97,5.37,5.94c-1.64,1.55-3.18,3.34-4.88,4.95q-72,1.49-144.01,2.97c-2.17,4.37,2.88,1.57,2.44,4.95-13.99,1.2-8.66,3.88-9.28,3.96-.73.1-10.53-.55-14.64,0-8.08,1.07-18.04,4.24-26.36,4.95-21.4,1.83-49.16,1.62-71.27,1.98-132.02,2.17-264.35-3.88-396.39-2.97,2.55,2.64,14.23,13.38,15.13,13.87v.99c-5.3-3.23-9.81-7.06-14.64-10.89-1.95-1.55-3.91-3.35-5.86-4.95-4.29-3.54-8.75-9.68-10.74-8.42-1.33,93.81,4.26,187.47,4.88,281.26,3.77,47.41,5.36,97.12,11.72,142.61v120.33c-4.74,4.12-13.08,17.3-15.62,11.39.52-131.49-1.47-263.44-1.46-394.66q-.24,2.72-.49,5.45h-1.95c.44-39.96-3.39-79.93-3.91-119.83-.24-18.33,2.53-37.27,1.95-55.46-.02-.65-3.61-2.16-2.93-4.95,51.09-7.84,127.06-2.58,171.34-7.43,4.41-.48,9.13-2.05,13.18-3.96Z"/><path class="cls-44" d="m559.98,28.49c44.81-3.85,90.78-.25,135.71-1.98-3.9,3.66-25.61,26.29-27.83,26.74-201.45,1.5-402.9,1.39-604.34,0-2.4-2.16-5.8-2.68-6.35-2.97-.9-.48-12.59-11.22-15.13-13.87,132.04-.9,264.37,5.14,396.39,2.97,22.11-.36,49.88-.15,71.27-1.98,8.32-.71,18.29-3.88,26.36-4.95,4.11-.55,13.92.1,14.64,0,.61-.08-4.71-2.76,9.28-3.96Z"/><path class="cls-57" d="m701.55,20.56c-1.99,1.89-3.79,4-5.86,5.94-44.93,1.74-90.9-1.87-135.71,1.98.44-3.38-4.61-.59-2.44-4.95q72-1.49,144.01-2.97Z"/><path class="cls-57" d="m202.65,1.75c-4.05,1.91-8.77,3.48-13.18,3.96-44.28,4.85-120.25-.41-171.34,7.43-.68,2.79,2.91,4.3,2.93,4.95.58,18.19-2.19,37.13-1.95,55.46.52,39.9,4.35,79.88,3.91,119.83h1.95q.24-2.72.49-5.45c0,131.22,1.99,263.16,1.46,394.66,2.55,5.91,10.88-7.27,15.62-11.39,4.91-4.26,9.92-8.7,15.62-11.88l2.93,2.97c-1,.48-13.26,13.72-15.62,15.85-6.25,2.07-10.26,9.19-14.64,12.87-3.94,3.32-7.87,6.43-11.72,9.9,7.02-16.29-2.89,1.12-4.88-7.43-1.28-5.5,4.3-95.5-.98-112.9q1.46-233.72,2.93-467.45c-4-2.12-6.46-6.76-9.76-9.41C37.99-1.53,72.46,8.81,104.53.76c32.34,1.72,65.36,1.18,98.12.99Z"/><path class="cls-50" d="m36.68,35.42c-.66,0-1.78-.24-1.95.5-3.36,14.31,3.29,109.65,4.88,132.71.06.91,2.86.08,2.93.99,2.63,36.4-2.79,173.36,0,189.16.17.96,2.72.03,2.93.99.62,2.91,2.94,21.97,7.32,18.32,1.04-.86-.22-5.64,1.95-5.94,5.44-.76,3.76,17.48,5.37,20.8-.2,55.45,1.47,111.06-1.95,166.38-5.7,3.18-10.72,7.63-15.62,11.88v-120.33c-6.36-45.5-7.95-95.2-11.72-142.61-.62-93.79-6.21-187.46-4.88-281.26,1.99-1.27,6.45,4.88,10.74,8.42Z"/><path class="cls-40" d="m36.68,35.42c1.95,1.61,3.91,3.4,5.86,4.95-2.27,13.61,1.18,110.03,7.81,114.39,2.85,1.87,4.19-3.35,8.79-.99-4.01,4.38-.11,3.08,0,3.96,1.09,8.47-1.61,17.81.98,26.24.14,69.65.25,139.32,0,208.97-1.61-3.32.07-21.56-5.37-20.8-2.18.31-.92,5.08-1.95,5.94-4.38,3.64-6.7-15.41-7.32-18.32-.21-.97-2.76-.03-2.93-.99-2.79-15.8,2.63-152.75,0-189.16-.07-.91-2.87-.08-2.93-.99-1.59-23.06-8.24-118.39-4.88-132.71.17-.74,1.29-.5,1.95-.5Z"/><path class="cls-5" d="m724.98,613v1.67H19.65c-1.63-3.59-2.08-4.59-4.44-9.79,1.31-1.17,2.49-2.67,3.9-3.95,3.84-3.49,7.77-6.59,11.71-9.91v.98q-2.18,2.97-4.38,5.96c52.05-1.67,104.15-1.08,156.21-1,6.09.02,13.45,1.99,19.53,1.99,85.61-.1,171.18-5.57,256.77-1.99q25.64-1.48,51.27-2.97c36.52,2.95,73.28,1,109.83,2.97,30.87,1.67,62.39,10.23,93.24,5.94,3.75,3.52,9.15,7.16,11.71,10.11Z"/><path class="cls-54" d="m19.65,614.67H3.42c3.69-3.54,8-6.39,11.78-9.79,2.37,5.21,2.82,6.21,4.44,9.79Z"/><path class="cls-40" d="m507.26,560.31c20.49,7.88,46.84,2.57,69.81,2.97.18,0,2.75,1.98,2.93,1.98,24.55.4,67.61-2.44,88.85,0,.75.09,2.51,4.05,2.44,0,7.36,6.28,14.15,13.53,21.48,19.81-19.17-2.32-38.29-4.33-57.6-4.95-53.11-1.71-106.51,1.46-159.63,0-18.55-.51-37.14-2.88-55.65-3.96-8-.47-36.49.86-39.05,0-.6-.2-8.07-8.16-4.88-9.9-28.65-1-57.3-1.08-85.92-1.98-.46-.01,1.79-2.32-7.81,0-11.16-2.96-29.67-.74-42.96-.99-5.13-.1-11.47-1.9-16.6-1.98-50.58-.8-101.23.64-151.82,0v-.99c145.47.06,290.94-.08,436.42,0Z"/><path class="cls-40" d="m625.4,591.01c.15-.03-.43-2.68.49-2.97,7.29-.16,11.99.28,9.28-7.92,19.31.62,38.44,2.63,57.6,4.95,5.45,4.67,10.33,9.02,15.62,13.87-27.95,1.81-56.79-2.68-83.96-6.44l.98-1.49Z"/><path class="cls-40" d="m510.19,592c15.7-.04,109.56.15,115.21-.99l-.98,1.49c27.17,3.75,56.01,8.25,83.96,6.44,1.38,1.26,2.91,2.12,4.88,3.96-30.85,4.28-62.37-4.27-93.24-5.94-36.54-1.98-73.31-.02-109.84-2.97v-1.98Z"/><path class="cls-44" d="m666.4,559.32c4.54.58,4.46,2.14,4.88,5.94.07,4.05-1.69.09-2.44,0-21.24-2.44-64.3.4-88.85,0-.18,0-2.75-1.98-2.93-1.98-22.97-.4-49.32,4.91-69.81-2.97,23.72.01,151.25-2,159.14-.99Z"/><path class="cls-54" d="m61.08,562.29c3.54-1.69,6.22-.73,9.76-.99,50.59.64,101.24-.8,151.82,0,5.13.08,11.47,1.88,16.6,1.98,13.28.25,31.79-1.97,42.96.99,9.6-2.32,7.35-.01,7.81,0,28.61.9,57.27.98,85.92,1.98-3.19,1.74,4.28,9.7,4.88,9.9,2.57.86,31.05-.47,39.05,0,18.51,1.08,37.1,3.45,55.65,3.96,53.12,1.46,106.52-1.71,159.63,0,2.71,8.2-1.99,7.76-9.28,7.92-.92.29-.34,2.94-.49,2.97-5.65,1.14-99.5.95-115.21.99-58.91.14-117.78-1.27-176.71-.99,7.36-4.37,3.99.57,9.28-6.93.63-.89,1.81,1.6,2.44.5,2.46-4.29-7.43-2.18-6.35-6.44-97.94,2.65-195.52-6.27-293.39,0,2.36-2.13,14.62-15.37,15.62-15.85Z"/><path class="cls-20" d="m45.46,578.14c97.86-6.27,195.44,2.65,293.39,0-1.08,4.25,8.8,2.15,6.35,6.44-.63,1.11-1.81-1.38-2.44-.5-5.28,7.5-1.92,2.57-9.28,6.93-16.29.08-33.02,1.91-49.3,1.98-84.44.37-168.92.46-253.36-.99v-.99c4.38-3.69,8.4-10.8,14.64-12.87Z"/><path class="cls-54" d="m30.82,592c84.43,1.45,168.92,1.36,253.36.99,16.28-.07,33.02-1.9,49.3-1.98,58.94-.28,117.81,1.13,176.71.99v1.98q-25.63,1.49-51.26,2.97c-85.6-3.59-171.17,1.88-256.77,1.98-6.08,0-13.44-1.97-19.53-1.98-52.06-.09-104.16-.67-156.21.99q2.2-2.97,4.39-5.94Z"/><path class="cls-15" d="m717.77,72.21c0,.14,0,.27,0,.4,0,.02.03.05.05.07l.26.26c.09.09.14.2.14.34v2.1c0,.22-.13.38-.34.45,0,0-.02,0-.03.01h-4.25s-.03-.01-.05-.02c-.18-.06-.31-.22-.32-.41v-5.75s0-.05,0-.08c.01-.06.05-.09.11-.09.06,0,.1.04.1.1,0,.02,0,.05,0,.07v5.67c0,.06,0,.12.03.17.04.08.12.12.22.12h4.07c.16,0,.25-.1.25-.27v-2.08c0-.07-.02-.14-.08-.19-.09-.09-.18-.18-.27-.27-.07-.07-.11-.16-.11-.26,0-.15,0-.3,0-.45,0-.08.04-.12.12-.12.11,0,.22,0,.33,0,0-.17,0-.34,0-.51,0-.04-.04-.09-.07-.13-.16-.21-.32-.43-.48-.64-.08-.11-.13-.24-.13-.38,0-.42,0-.83,0-1.26,0-.19-.09-.28-.28-.28h-3.32c-.19,0-.28.09-.28.28,0,.02,0,.05,0,.07,0,.06-.03.1-.1.1-.06,0-.1-.03-.11-.09-.06-.3.16-.58.46-.58h3.39c.27,0,.46.2.46.47v1.27c0,.11.03.2.09.28.16.21.31.42.47.62.08.11.13.23.12.36,0,.13,0,.26,0,.38,0,.15-.09.24-.24.24-.07,0-.14,0-.21,0Z"/><path class="cls-15" d="m717.76,74.92c0,.06-.06.09-.12.08-.13-.02-.26-.05-.39-.07-.64-.1-1.29-.13-1.94-.1-.48.01-.97.07-1.45.16-.1.02-.16,0-.16-.08,0-.06.03-.11.13-.13.63-.12,1.27-.17,1.91-.17s1.27.05,1.9.17c.02,0,.04,0,.06.01.05.02.08.06.07.12Z"/><path class="cls-15" d="m714.35,73.63c0,.07.06.12.16.12h.51c.09,0,.13.04.13.11s-.05.11-.13.11h-.74c-.11,0-.15-.06-.11-.16,0-.01,0-.03,0-.05-.04-.13-.02-.24.06-.34-.11-.16-.11-.31-.02-.43.06-.08.15-.13.25-.14h.58c.07,0,.11.04.11.1s-.04.11-.11.11c-.16,0-.33,0-.5,0h-.08c-.06,0-.11.06-.1.12,0,.06.03.1.09.12.04,0,.08,0,.12,0,.15,0,.31,0,.46,0,.08,0,.13.04.13.11,0,.06-.04.1-.13.1-.17,0-.34,0-.52,0-.09,0-.15.04-.15.12Z"/><path class="cls-15" d="m716.95,72.47c-.07-.26-.25-.41-.51-.46-.27-.05-.5.02-.68.23-.13.15-.14.32-.14.51,0,.1.04.14.15.14h.53c.18,0,.36,0,.55,0,.08,0,.13-.03.13-.1,0-.1,0-.21-.02-.32Zm-.19.21h-.23c-.21,0-.41,0-.62,0-.07,0-.08-.02-.08-.08.01-.22.21-.38.46-.39.27,0,.48.18.47.43,0,0,0,.02,0,.04Z"/><path class="cls-15" d="m716.89,73.86c-.05.09-.14.15-.24.16-.07,0-.13-.02-.14-.09,0-.06.03-.11.1-.12.08-.02.14-.08.14-.18,0-.08,0-.16-.04-.22-.04-.09-.15-.09-.2-.01-.04.05-.06.12-.09.18-.03.07-.05.14-.09.21-.08.17-.23.26-.38.24-.16-.02-.29-.16-.32-.34,0-.04,0-.08,0-.1,0-.15.05-.27.15-.37.06-.05.13-.08.21-.08.06,0,.09.04.1.09,0,.05-.02.09-.07.11-.16.06-.23.25-.13.4.06.09.16.1.22.01.04-.06.07-.14.1-.21.03-.07.05-.15.09-.21.08-.15.2-.23.37-.2.16.02.24.14.29.28.05.16.03.31-.05.45Z"/><path class="cls-15" d="m714.69,69.54s-.08,0-.12,0c-.33.01-.53.36-.38.65.1.18.25.25.45.24h.05c.26,0,.45-.19.45-.45s-.19-.45-.46-.45Zm0,.68h-.05c-.16,0-.25-.05-.29-.17-.04-.15.06-.29.21-.3.04,0,.08,0,.12,0,.14,0,.24.11.24.24s-.1.23-.24.23Z"/><path class="cls-15" d="m714.8,72.23c-.05,0-.11,0-.16.01-.28,0-.47-.15-.5-.4-.01-.13.02-.24.11-.33.04-.05.1-.06.15-.02.04.03.05.09.02.15-.03.05-.06.12-.06.17,0,.1.08.19.18.21.07.01.15.01.21,0,.16-.03.24-.21.15-.35,0,0-.01-.02-.02-.03-.04-.06-.03-.12.02-.16.04-.04.11-.02.16.03.21.25.07.65-.25.72Z"/><path class="cls-15" d="m715.05,71.29c-.27,0-.54,0-.8,0-.03,0-.08-.03-.09-.06,0-.03.01-.08.02-.12,0,0,.02-.02.03-.03-.09-.17-.09-.33.02-.49.05-.08.12-.09.17-.05.05.04.05.1,0,.17-.05.08-.06.16-.02.25.04.08.12.13.21.13.14,0,.29,0,.43,0,.04,0,.08.02.11.05.05.06,0,.16-.08.16Z"/><path class="cls-15" d="m716.71,70.02s-.1.04-.15,0c-.11-.1-.21-.21-.31-.31-.02-.02-.03-.04-.06-.08-.13.13-.24.24-.35.35-.02.01-.03.03-.05.04-.05.03-.1.03-.14,0-.04-.04-.05-.1,0-.14.15-.16.31-.31.47-.47.04-.04.1-.04.15,0,.15.15.3.3.45.45.04.05.04.11,0,.16Z"/><path class="cls-15" d="m715.15,72.52c0,.07-.04.11-.13.11h-.74c-.08,0-.13-.04-.13-.11,0-.06.05-.11.13-.11h.74c.08,0,.13.04.13.11Z"/><path class="cls-15" d="m716.68,78.51c-.57.14-.94.63-.94,1.23v3.71c0,.43,0,.86,0,1.3.02.79.78,1.36,1.54,1.17.56-.14.94-.64.94-1.24v-3.47c0-.51,0-1.01,0-1.52,0-.57-.4-1.05-.96-1.18-.05-.02-.1-.02-.16-.03h-.26c-.05,0-.11.02-.16.04Zm1.23,1.21c0,.83,0,1.66,0,2.5v2.47c0,.46-.31.83-.76.93-.55.11-1.09-.31-1.12-.88v-5.01c0-.45.3-.83.73-.93.58-.13,1.13.31,1.13.91Z"/><path class="cls-15" d="m716.97,79.72c.07,0,.13.04.15.1.01.04.01.07.01.11v4.55s0,.07-.01.1c-.02.07-.07.12-.15.11-.07,0-.13-.04-.14-.11,0-.03,0-.06,0-.08v-4.59s0-.07,0-.1c.02-.07.07-.1.14-.1Z"/><path class="cls-15" d="m714.91,79.99v.31s-.01.03-.03.03h-.08s0,.03,0,.03c0,.08,0,.17,0,.25,0,.05-.02.08-.05.11-.17.17-.34.33-.51.5-.01.01-.02.03-.02.05,0,.09,0,.18,0,.27,0,.02,0,.03.02.04.08.05.13.11.13.21s-.05.17-.13.22c-.02.01-.05.01-.07.02h-.06s-.08-.02-.12-.05c-.12-.09-.12-.26,0-.36,0,0,0,0,.01-.01,0,0-.01-.01-.02-.02-.15-.15-.29-.3-.44-.44-.03-.03-.04-.06-.04-.1,0-.13,0-.26,0-.4,0-.02,0-.03-.02-.04-.07-.05-.1-.14-.08-.22.03-.08.1-.14.18-.14.09,0,.16.05.19.14.03.08,0,.17-.08.21-.01,0-.02.02-.02.03,0,.12,0,.24,0,.36,0,0,0,.02.01.03.12.12.23.24.35.36,0,0,0,0,0,0v-1.56s-.12,0-.12,0c-.03,0-.05-.02-.04-.05.08-.19.15-.38.23-.57,0,0,.01-.02.02-.02,0,0,.02.01.03.02.08.19.16.38.23.57.01.03,0,.05-.03.05h-.14s0,1.15,0,1.15c0,0,.01,0,.02-.01.12-.12.24-.23.36-.35.01-.01.02-.03.02-.05v-.25s-.08,0-.08,0c-.02,0-.03,0-.03-.03v-.31s0-.03.03-.03c.11,0,.23,0,.34,0,.02,0,.03,0,.03.03Z"/><path class="cls-15" d="m714.58,84.08c-.15-.02-.26.08-.33.28l-.08.28c-.09.26-.24.39-.44.37-.15,0-.27-.08-.36-.21s-.14-.28-.14-.46c0-.18.05-.32.15-.43s.23-.16.39-.15v.2c-.11,0-.19.03-.26.1s-.1.17-.1.29c0,.13.03.23.09.32s.14.13.23.15c.14.02.24-.07.3-.26l.06-.21.04-.11c.09-.25.25-.37.46-.35.14,0,.26.07.35.19s.14.26.15.45v.07c0,.12-.02.23-.07.33s-.11.17-.19.22-.17.07-.28.07v-.2c.11,0,.2-.04.27-.11s.1-.18.1-.31c0-.13-.03-.24-.09-.34s-.14-.15-.24-.16Z"/><path class="cls-15" d="m714.58,82.4c-.15-.02-.26.08-.33.28l-.08.28c-.09.26-.24.39-.44.37-.15,0-.27-.08-.36-.21s-.14-.28-.14-.46c0-.18.05-.32.15-.43s.23-.16.39-.15v.2c-.11,0-.19.03-.26.1s-.1.17-.1.29c0,.13.03.23.09.32s.14.13.23.15c.14.02.24-.07.3-.26l.06-.21.04-.11c.09-.25.25-.37.46-.35.14,0,.26.07.35.19s.14.26.15.45v.07c0,.12-.02.23-.07.33s-.11.17-.19.22-.17.07-.28.07v-.2c.11,0,.2-.04.27-.11s.1-.18.1-.31c0-.13-.03-.24-.09-.34s-.14-.15-.24-.16Z"/><line class="cls-60" x1="62.49" y1="630.33" x2="662.49" y2="630.33"/><line class="cls-60" x1="742.16" y1="557.33" x2="742.16" y2="57.33"/><text class="cls-59" transform="translate(671.29 633)"><tspan x="0" y="0">600 mm</tspan></text><text class="cls-59" transform="translate(735.58 571.2)"><tspan x="0" y="0">500 mm</tspan></text></g></svg>